<!-- 기본 꿈돌이 PNG를 실제 SVG path로 벡터화한 이미지입니다. -->
<svg xmlns="http://www.w3.org/2000/svg" width="204" height="339" viewBox="0 0 204 339" role="img" aria-labelledby="default-ggumdori-title default-ggumdori-desc"><title id="default-ggumdori-title">기본 꿈돌이</title><desc id="default-ggumdori-desc">한빛탑 앞에서 손을 흔드는 기본 탐험 마스코트</desc><path fill="#d7c1ae" d="M56.267-37.593c15.11-3.87 30.19-4.83 45.73-4.78.6 0 .6 0 3.59-.01 32.29.09 64.75 7.27 88.73 30.26 39.54 41.52 35.24 125.69 35.19 178.64-.01 2.98 0 5.96 0 8.94-.03 138.74-.03 138.74-35.19 175.67-25.07 24.03-58.75 30.34-92.32 30.25-1.18 0-2.36 0-3.58.01-32.29-.09-64.75-7.27-88.73-30.26-39.54-41.53-35.24-125.7-35.19-178.65v-8.94c.03-177.82.03-177.82 81.77-201.13"/><path fill="#208bfc" d="M15.261.86c.76 0 1.51-.01 2.29-.01 2.55-.01 5.1-.01 7.65-.01 1.83-.01 3.65-.01 5.47-.02 4.97-.01 9.93-.02 14.89-.02 3.1 0 6.2-.01 9.3-.01l29.08-.03c11.2 0 22.39-.02 33.59-.05q12.975-.03 25.95-.03c5.16 0 10.33-.01 15.5-.03 4.86-.01 9.72-.02 14.59-.01 1.78 0 3.56 0 5.35-.01C181.361.62 183.791.62 186.231.63c.35 0 .35 0 2.14-.02 5.43.05 9.52 1.38 13.48 5.16 1.58 3.07 1.52 5.48 1.52 8.93 0 .66.01 1.32.01 2.01.01 2.18 0 4.37-.02 6.56v4.55c0 3.18-.01 6.36-.03 9.53-.02 4.09-.02 8.17-.01 12.26 0 3.13 0 6.26-.01 9.4-.01 1.51-.01 3.01-.01 4.52 0 2.1-.01 4.19-.03 6.29 0 1.2-.01 2.39-.01 3.63-.09.84-.17 1.68-.26 2.55h-2v-2h-2v-4h-3v-2c-.41.07-.41.07-2.5.44-.41-.07-.41-.07-2.5-.44-.15-2.41.08-4.64.41-7.03-.14-.65-.27-1.3-.41-1.97l-2.99.31c-.99-.1-1.99-.2-3.01-.31-.82-3.13-.46-6.29-.25-9.5.08-1.78.16-3.56.23-5.34l.15-2.42c-.04-.57-.09-1.15-.13-1.74h-2c-.15-3.66.01-7.28.12-10.94l-.12-3.06h-2c-.13 2.9-.13 5.72-.06 8.63.01 1.73.03 3.47.04 5.21 0 .87.01 1.74.01 2.63.01 3.58-.04 7.14-.18 10.72-.03 1.13-.07 2.25-.1 3.42-.24.79-.47 1.58-.71 2.39-2.55.18-2.55.18-5 0v3h4c.75 3 .75 3 0 6-2.18.36-4.06.18-6.25-.08-.58.03-1.16.05-1.75.08v3h-4v3h-3v2h-3v3h-3v3h-2v2c2.5.25 2.5.25 5-.00044189453124943157v-2h3c.56 2.44.56 2.44 0 5-3 .69-3 .69-6 1v2h-2c-.27 1.97-.27 1.97-.25 4.5-.01.84-.01 1.67-.02 2.53.09.65.18 1.3.27 1.97h2v2h3l1 2c.34.07.34.07 2.06.44.32.09.32.09 1.94.56v3h5v3h-2c-.1 2.33-.08 4.67 0 7 .07 2.33.09 4.67 0 7h-2c-.16 1.8-.16 1.8-.06 4.31.07 3.97-.01 7.86-.32 11.82-.07.93-.14 1.86-.21 2.82-.13.67-.27 1.35-.41 2.05h-2l.06 3.5-.06 3.5h-3v2h-3v-4h-2v-3h-3a108 108 0 0 1-1-5h-2v-2h-3v-3h-2v-3h-4v-3c-2.19-.22-2.19-.22-5-.06-2.81.15-2.81.15-5 .06v-2c-2-.05-4-.04-6-.001-1.67-.32-3.34-.65-5-1h-4c-.13-.65-.26-1.3-.39-1.97-.2-.67-.4-1.34-.61-2.03-2.5-.49-2.5-.49-5.79-.46-.58 0-.58 0-3.54.01-1.23.03-2.46.05-3.73.08h-3.75c-6.71.07-6.71.07-9.19.37v2l-3.5-.06-3.5.06v3c-2.33.04-4.67.04-7-.001v2h-4v3c-2.35.23-4.58-.01-6.94-.19-.68.06-1.36.13-2.06.19l-1 3h-3v3h-2v2h-3a108 108 0 0 0-1 5h-2v3h-3v4c-2 .94-2 .94-4 1v-3q-3-.06-6 0v-2c-2.19-.27-2.19-.27-5-.25-.93 0-1.86-.01-2.81-.02-.73.09-1.45.18-2.19.27v2h-3v3h-2c-.01 2.81-.01 2.81.31 6.44.1 1.19.2 2.39.3 3.62.39 2.94.39 2.94 1.39 3.94-.04.85-.08 1.69-.13 2.56.04.81.09 1.61.13 2.44h3v4h2v2h2v3h2c.08 2.19.08 2.19-.19 5-.07.93-.15 1.86-.23 2.81-.19.72-.38 1.45-.58 2.19h-3v-2c-.83-.16-1.65-.33-2.5-.5-.83-.16-1.65-.33-2.5-.5v-2c-2.19-.27-2.19-.27-5-.25-.93 0-1.86-.01-2.81-.02-.73.09-1.45.18-2.19.27v2h-3v3h-4c-.63-2.5-.63-2.5-1-5h-2v-6h-2c-1.73-3.45-1.2-7.43-1.24-11.22-.01-.96-.03-1.91-.04-2.9-.13-9.97-.18-19.93-.24-29.9-.02-4.74-.07-9.48-.14-14.22-.08-5.71-.12-11.41-.14-17.12-.01-2.19-.04-4.37-.08-6.55-.05-3.04-.05-6.08-.05-9.13-.02-.91-.05-1.82-.08-2.76.04-2.49.04-2.49 1.01-6.2C3.751 81.078 6.221 81.178 9.001 81.998v2c3.5.25 3.5.25 7-.000535156250080604v-2c2.88-.11 5.71.07 8.59.22.8-.07 1.59-.14 2.41-.22v-3c3.41-.22 6.74.01 10.15.19.94-.06 1.88-.13 2.85-.19v-3h-3v-2h-3v-3c-2.5-.31-2.5-.31-5-.00018652343767655566v2h-2l.06-3-.06-3h-3v-2c-3-.25-3-.25-6-.00016357421907287062v2h-2v-2h-3v-6h-3v-4h-3v-2c-.98.16-1.95.32-2.95.48L1.001 53c-1.05-3.13-.81-6.37-.76-9.63-.01-.99-.01-1.97-.01-2.99 0-2.09.01-4.18.04-6.28.04-3.19.02-6.38 0-9.58q0-3.045.03-6.09c-.01-.95-.01-1.91-.02-2.89.09-4.46.27-7.58 3.14-11.13C7.371.72 10.081.85 15.261.86"/><path fill="#f9ba30" d="M175 87c3.1-.18 6.09-.23 9.19-.19h2.62c9.05.07 9.05.07 12.19 1.19v3l1.97-.62c.67-.12 1.34-.25 2.03-.38.5 1.94.5 1.94.49 4.89l.03 3.36-.03 3.75c0 1.29 0 2.58.01 3.9.01 3.55-.01 7.1-.03 10.65-.02 3.71-.01 7.41-.01 11.11 0 6.22-.02 12.44-.05 18.66-.03 7.21-.04 14.41-.04 21.62 0 6.91-.01 13.82-.02 20.73-.01 2.95-.02 5.9-.02 8.85 0 4.12-.02 8.23-.04 12.35v3.74c-.01 1.11-.01 2.23-.02 3.37-.01.98-.01 1.95-.01 2.96-.05.34-.05.34-.26 2.06h-2c.15 1.72.15 1.72.65 4.11 1.63 10.5 1.63 10.5-.65 14.89-6.85 3.61-16.56 1.78-24 1.31-3.42-.14-6.85-.26-10.27-.35-2.14-.06-4.28-.17-6.41-.3-4.96-.22-4.96-.22-7.32.34-.84 3.01-.84 3.01 0 6h3c.4 2.84.4 2.84.38 6.5 0 1.21.01 2.41.02 3.66-.13.93-.26 1.87-.4 2.84h-3v5h-3v2c-2.62.27-2.62.27-6 .25-.56 0-.56 0-3.38.02-.86-.09-1.73-.18-2.62-.27v-2c-2.5-.44-2.5-.44-5 0-.12 2.5-.12 2.5 0 5h-3v3h6v3h4v2c-2.5.25-2.5.25-5 0v-2c-1.16-.08-2.31-.16-3.5-.25-.58-.12-.58-.12-3.5-.75-.56-3.06-.56-3.06 0-6h2v-4h2c.2-3.04.28-5.96.25-9 .01-.86.02-1.72.02-2.6 0-2.14-.13-4.27-.27-6.4h-2v-5h-2v-3h-3v-4h-2v-2c-2.75-.2-2.75-.2-6.56-.12-.67 0-1.33.01-2.02.02-2.14.02-4.28.06-6.42.1-2.81.05-5.62.09-8.44.12-1.25.03-2.51.05-3.81.08-.9-.07-1.81-.13-2.75-.2v-2c-2.41-.27-2.41-.27-5.5-.25-.51 0-.51 0-3.09-.02-.8.09-1.59.18-2.41.27v2h-3q-.06 3 0 6h-2v3h-3v2h-3c-.28 1.93-.28 1.93-.14 4.59.02.48.02.48.13 2.87.07 1.01.13 2.01.2 3.04.04 1 .09 2 .13 3.04.3 5.49.3 5.49.68 7.46h2l1 3 1.56 1.56L78 272v2h-3v3c-1.67.04-3.33.04-5 0v2c-3 .25-3 .25-6 0v-2h4v-3l3 .06 3-.06v-4h-3q-.06-3 0-6h-2c-.24-1.71-.24-1.71-.23-4.09 0-.84 0-1.69.01-2.57l.03-2.72v-2.69c.05-6.65.05-6.65 1.19-8.93-3.23-.09-6.4.01-9.62.17-2.06.05-2.06.05-5.38-.17v-3h-8v-3h-4v-3h-4v-2c-2.75-.07-2.75-.07-6.56.16l-4.1.15c-2.18.09-4.35.19-6.52.33-8.64.55-8.64.55-12.82-.64-.86-2.95-.48-4.86.25-7.83-.08-.72-.16-1.43-.25-2.17-1.29.09-2.59.18-3.92.27-2.23.12-2.23.12-4.08-.27-.82-3.46-.96-5.77-.82-9.26l.03-2.84c.04-3.01.13-6.02.23-9.02.03-2.05.06-4.09.08-6.13.16-9.9.16-9.9.48-14.75l1 2h2v6h2c.06.41.06.41.38 2.5.1.41.1.41.62 2.5h4v-3h3v-2c2.19-.27 2.19-.27 5-.25.93-.01 1.86-.01 2.81-.02q1.08.135 2.19.27v2c.82.17 1.65.33 2.5.5.82.17 1.65.33 2.5.5v2h3c.07-2.02.12-4.04.01-6.05C32 185 32 185 33 183h-2v-3h-2v-2h-2v-4h-3c-1.96-4.3-2.27-8.19-2.25-12.88-.01-1.15-.01-2.3-.02-3.49.09-.87.18-1.73.27-2.63h2v-3h3v-2c2.19-.27 2.19-.27 5-.25.46 0 .46 0 2.81-.02q1.08.135 2.19.27v2l3-.06 3 .06v3c2-.06 2-.06 4-1v-4h3v-3h2c.14-.82.29-1.65.44-2.5.09-.41.09-.41.56-2.5h3v-2h2v-3l3-1c.16-.33.16-.33 1-2 2.38-.1 4.69.07 7.07.22.63-.07 1.27-.14 1.93-.22v-3h4v-2l3.5.06L82 129v-3c2.33-.04 4.67-.04 7 0v-2c4.28-.52 8.63-.37 12.94-.38 1.23-.02 2.46-.04 3.73-.07.58 0 .58 0 3.54-.01l3.29-.03c.82.16 1.65.32 2.5.49.67 2.05.67 2.05 1 4 2.34-.29 4.67-.63 7-1 2.87.37 5.23 1.08 8 2v2c2.62.11 5.19-.07 7.81-.22.72.07 1.45.14 2.19.22v3h4v3h2v3h3v2h2c.14.82.29 1.65.44 2.5.18.82.37 1.65.56 2.5h3v3h2v4h3v-2h3c.04-2.33.04-4.67 0-7h2c.16-2.05.16-2.05.06-4.88-.06-3.96-.02-7.85.32-11.81.06-.83.13-1.66.21-2.51.13-.59.27-1.19.41-1.8h2c.1-2.33.07-4.67 0-7s-.1-4.67 0-7h2v-3h-5v-3a108 108 0 0 0-5-1v-2h-3v-2h-2c-.44-2.44-.44-2.44 0-5 2.5-.69 2.5-.69 5-1v-2h5v-2c2.36-.15 4.67.01 7.03.12L175 89Z"/><path fill="#ddcab9" d="M52.65-36.63c16.26-4.63 32.52-5.79 49.35-5.74 1.2-.01 2.39-.01 3.62-.01 32.24.09 65.39 6.92 89.15 30.26 36.74 39.76 27.23 122.96 26.05 172.57-.16 7.09-.27 14.18-.34 21.27-.28 24.91-1.12 49.73-2.74 74.6-.36 5.69-.64 11.38-.87 17.08-2.09 53.52-2.09 53.52-12.87 65.6-16.8 9.99-41.65 4.72-59.73 1.1-.75-.36-1.5-.73-2.27-1.1-.22-2.61-.22-2.61 0-5h-2c-.15-2.36.01-4.67.13-7.03-.05-.65-.09-1.3-.13-1.97h-2c-.92-2.46-.92-2.46-1-5 1.9-.63 1.9-.63 4.77-.65 1.06-.01 2.13-.03 3.22-.04l3.55.03c.59-.01.59-.01 3.6-.02 2.53 0 5.05.01 7.58.03 3.87.03 7.73 0 11.6-.03 2.45 0 4.9.01 7.34.02l3.52-.03c8 .11 8 .11 12.09 2.98C196 325 196 325 196 329h2v2h3l1 3c.12-1.47.14-2.94.15-4.42 0-1.03.01-2.07.02-3.14v-3.49c0-1.15.01-2.31.01-3.5 0-2.46.01-4.92.01-7.38 0-3.79.02-7.57.04-11.35v-7.14c0-.57 0-.57.02-3.46 0-1.05 0-2.1-.01-3.18.01-.94.01-1.87.01-2.82-.08-.7-.17-1.4-.25-2.12l-2-1v-2h-4v2h3v2l3 1c-2.88.11-5.73.14-8.6.13-.91 0-1.82.01-2.76.01-1.94 0-3.88 0-5.82-.01-2.97 0-5.95 0-8.92.01-1.88 0-3.75 0-5.63-.01-.9.01-1.79.01-2.71.01-.83 0-1.67-.01-2.52-.01h-2.22C161 284 161 284 159 283l-1 2c-4.87.78-8.87.68-13.12-1.87C143 281 143 281 143 279h-3v-2h-4v-3h-6v-3h3l-.12-2.5.12-2.5c2.5-.44 2.5-.44 5-.001v2c2.63.27 2.63.27 6 .25 1.11.01 2.23.01 3.38.02.43-.05.43-.05 2.62-.27v-2h3v-5h3c.4-2.84.4-2.84.38-6.5 0-1.21.01-2.41.02-3.66-.13-.93-.26-1.87-.4-2.84h-3v-6l-3-1c1.45.01 2.9.09 4.34.19 5.74.34 11.48.58 17.22.78 2.5.1 4.99.24 7.49.41 16.85 1.11 16.85 1.11 21.95-1.38 2.92-5.23 1.41-11.69.18-17.27-.06-.57-.12-1.14-.18-1.73h2c.26-2.06.26-2.06.27-5.02.01-1.11.02-2.22.02-3.37v-3.74c.01-1.29.01-2.58.02-3.91.02-3.55.02-7.1.03-10.65 0-2.95 0-5.91.01-8.86.02-6.97.02-13.93.02-20.9 0-7.21.02-14.41.05-21.62.03-6.17.04-12.34.04-18.51 0-3.69 0-7.39.02-11.08.03-4.11.02-8.22.01-12.34l.03-3.75c-.01-1.11-.02-2.22-.02-3.36v-2.95c-.17-.64-.33-1.28-.5-1.94-2.03.38-2.03.38-4 1v-3c-2.2-.46-2.2-.46-5.25-.58-1.08-.05-2.16-.09-3.28-.14l-3.47-.09c-1.14-.05-2.29-.1-3.47-.16-6.27-.22-6.27-.22-8.53-.03v2c-2.36.15-4.67-.01-7.03-.12L166 89v2h-5v2c-2.5.88-2.5.88-5 1v-4h2v-2c.99-.1 1.98-.21 3-.31.99-.23 1.98-.46 3-.69.56-2.56.56-2.56 0-5h-3v2c-2.5.25-2.5.25-5-.001v-2h2v-3h3v-3h3v-2h3v-3h4v-3c1.75-.08 1.75-.08 4 .19 2.2.1 2.2.1 4-.19.75-3 .75-3 0-6h-4v-3c.82.06 1.64.12 2.49.18L180 59c.45-2.39.45-2.39.25-5.81-.04-1.26-.09-2.52-.13-3.81-.01-.35-.01-.35-.08-2.11-.08-4.22.13-8.43.34-12.64l.09-2.58c.1-2.02.3-4.04.53-6.05h2c.15 3.66-.01 7.28-.12 10.94L183 40h2c.13 1.74.13 1.74-.01 4.16-.02.43-.02.43-.11 2.59-.08 1.84-.19 3.67-.31 5.5-.15 4.54-.15 4.54.43 6.75 3.01.31 3.01.31 6-.001.41 1.97.41 1.97.06 4.5-.18 2.5-.18 2.5-.06 4.5 2.5.441 2.5.441 5 0v2h3v4h2v2h2c.24-2.55.24-2.55.22-6.16-.01-.66-.01-1.31-.01-1.99-.01-2.18-.03-4.36-.06-6.55-.01-1.51-.02-3.02-.04-4.54-.03-3.18-.07-6.36-.11-9.54-.06-4.07-.08-8.14-.09-12.21-.02-3.13-.06-6.26-.1-9.39q-.03-2.25-.03-4.5c-.01-2.1-.04-4.2-.09-6.31 0-.6 0-.6-.04-3.63-.84-4.09-2.44-5.58-5.65-8.18-3.53-1.18-6.71-1.15-10.39-1.15-.38 0-.38 0-2.3-.01-2.55-.01-5.1-.01-7.64-.02-1.83 0-3.65-.01-5.48-.02l-14.89-.03c-3.1-.01-6.2-.01-9.29-.02-9.7-.02-19.39-.03-29.08-.04-11.2-.01-22.4-.04-33.59-.08-8.65-.03-17.3-.04-25.95-.05q-7.755 0-15.51-.03c-4.86-.03-9.72-.03-14.58-.02-1.78 0-3.57-.01-5.35-.02C20.51 1.49 18.08 1.5 15.64 1.509l-2.14-.03C8.74 1.54 6.34 2.64 3 6c-1.15 2.31-1.19 3.79-1.3 6.36l-.12 2.73c-.15 4.09-.29 8.19-.41 12.29-.07 2.17-.15 4.34-.25 6.5C.78 37 .69 40.11.6 43.23c-.05.98-.1 1.95-.15 2.96C.36 50.8.36 50.8 1 53c3.03.49 3.03.49 6-.001v2h3v4h3v6h3v2h2v-2c3-.249 3-.249 6 0v2h3q.06 3 0 6h2v-2c2.5-.309 2.5-.309 5 0v3h3v2h3v3c-3.41.23-6.74-.01-10.16-.19-.93.07-1.87.13-2.84.19v3c-2.41.22-2.41.22-5.5.06-3.09-.15-3.09-.15-5.5-.06v2c-3.5.251-3.5.251-7 0v-2c-2.14-.81-3.86-.93-6.15-.85L1 82C-.4 86.17-.06 90.5.01 94.85c0 1.38-.01 2.76-.02 4.14-.03 3.76 0 7.52.04 11.28.03 3.92.02 7.85.01 11.77 0 6.59.03 13.18.08 19.78.06 7.63.07 15.26.06 22.9-.01 7.32 0 14.65.03 21.98.02 3.12.02 6.25.02 9.37-.01 3.68.02 7.36.06 11.03.02 2.01.01 4.01 0 6.02l.06 3.57c0 1.03.01 2.06.01 3.12.21.73.42 1.45.64 2.19 2.5.1 2.5.1 5-.001.55 3.05.7 5.45.63 8.5.02.81.03 1.62.05 2.46-.02 2.32-.02 2.32-.68 6.04-2.5.371-2.5.371-5 0-.62 2.56-.62 2.56 0 5 1.68-.26 3.35-.62 5-1 2.14-.11 4.29-.17 6.44-.19 1.09-.01 2.18-.03 3.31-.04.37.04.37.04 2.25.23l-2 2c-1.84-.19-3.68-.39-5.51-.64-3.6-.4-5.96-.43-9.49.64-1.05 3.14-1.35 4.86-1.31 8.06.01.77.01 1.54.02 2.34.18 2.2.18 2.2 1.29 5.6 3.08.12 3.08.12 6-1v-2c4.16-.49 8.38-.32 12.56-.31 1.2-.02 2.4-.03 3.64-.05h3.43c1.05-.01 2.1-.01 3.19-.01.72.12 1.44.24 2.18.37l-1 3c-1.33.36-2.66.7-4 1v2c-2.39.2-2.39.2-5.69.13-1.17-.02-2.34-.04-3.55-.05-2.51-.05-5.01-.11-7.52-.16-1.17-.01-2.34-.03-3.55-.04-.55-.02-.55-.02-3.3-.07-.79.06-1.58.12-2.39.19v2c1.72.2 1.72.2 4.08.13.83-.02 1.66-.04 2.51-.05.88-.03 1.76-.05 2.66-.08C13.19 265.92 16.06 265.9 19 265.999c-1.45.88-1.45.88-4 2v2h-3v2c-2.99 1.58-4.74 2.02-8.14 1.72-.94.09-1.89.19-2.86.28-.7 2.2-.7 2.2-.62 5.32.01 1.17.03 2.33.04 3.52.05 1.27.1 2.54.14 3.85.03 1.29.06 2.57.08 3.9.06 2.73.13 5.46.23 8.19.11 3.51.2 7.02.26 10.53.07 3.34.16 6.67.25 10l.09 3.85.12 3.52.09 3.12c.05.36.05.36.32 2.2h2v-3h3v-3h2v-3h2v-3c2.09-.39 2.09-.39 5.05-.42.55-.01.55-.01 3.34-.05h3.64c1.22-.01 2.44-.01 3.7-.02 3.26-.01 6.51-.01 9.77-.01 2 0 4-.02 6-.04 3.83-.04 7.65-.05 11.47-.05 1.2-.02 2.41-.04 3.65-.05l3.33.03c.49-.01.49-.01 2.96-.01.69.2 1.38.41 2.09.62.19 2.54.19 2.54 0 5h2c-.08-.81-.17-1.62-.26-2.46.09-.84.17-1.68.26-2.54 2.54-.64 2.54-.64 6.15-.66l1.98-.03c2.18-.03 4.35-.02 6.53-.01 1.5 0 3-.01 4.5-.02 3.16-.01 6.31-.01 9.47.01 4.05.03 8.11 0 12.16-.04 3.11-.03 6.21-.02 9.31-.01 1.5 0 3-.01 4.49-.03 2.09-.02 4.17 0 6.26.03 1.19 0 2.38 0 3.61.01.84.24 1.68.49 2.54.75.26 3.05.26 3.05 0 6h2c1.38 4.42 1.86 8.44 1 13-3.58 2.93-7.74 3.39-12.21 4.17l-3.98.81c-4.36.87-8.75 1.58-13.15 2.25-.37.06-.37.06-2.26.35-11.96 1.84-23.93 3.05-36 3.83-.81.05-1.62.1-2.46.16-21.37 1.3-50.2 2.8-67.94-11.57-26.93-27.21-22.63-88.77-22.47-123.68.1-10.19.37-20.36.68-30.54.37-12.1.47-24.18.46-36.29.06-161.86.06-161.86 73.98-185.12"/><path fill="#f8a115" d="M175 87c3.1-.18 6.09-.23 9.19-.19h2.62c9.05.07 9.05.07 12.19 1.19v3l1.97-.62c.67-.12 1.34-.25 2.03-.38.5 1.94.5 1.94.49 4.89l.03 3.36-.03 3.75c0 1.29 0 2.58.01 3.9.01 3.55-.01 7.1-.03 10.65-.02 3.71-.01 7.41-.01 11.11 0 6.22-.02 12.44-.05 18.66-.03 7.21-.04 14.41-.04 21.62 0 6.91-.01 13.82-.02 20.73-.01 2.95-.02 5.9-.02 8.85 0 4.12-.02 8.23-.04 12.35v3.74c-.01 1.11-.01 2.23-.02 3.37-.01.98-.01 1.95-.01 2.96-.05.34-.05.34-.26 2.06h-2c.15 1.72.15 1.72.65 4.11 1.63 10.5 1.63 10.5-.65 14.89-6.85 3.61-16.56 1.78-24 1.31-3.42-.14-6.85-.26-10.27-.35-2.14-.06-4.28-.17-6.41-.3-4.96-.22-4.96-.22-7.32.34-.84 3.01-.84 3.01 0 6h3c.4 2.84.4 2.84.38 6.5 0 1.21.01 2.41.02 3.66-.13.93-.26 1.87-.4 2.84h-3v5h-3v2c-2.62.27-2.62.27-6 .25-.56 0-.56 0-3.38.02-.86-.09-1.73-.18-2.62-.27v-2c-2.5-.44-2.5-.44-5 0-.12 2.5-.12 2.5 0 5h-3v3h6v3h4v2c-2.5.25-2.5.25-5 0v-2c-1.16-.08-2.31-.16-3.5-.25-.58-.12-.58-.12-3.5-.75-.56-3.06-.56-3.06 0-6h2v-4h2c.2-3.04.28-5.96.25-9 .01-.86.02-1.72.02-2.6 0-2.14-.13-4.27-.27-6.4h-2v-5h-2v-3h-3v-4h-2v-2c-2.75-.2-2.75-.2-6.56-.12-.67 0-1.33.01-2.02.02-2.14.02-4.28.06-6.42.1-2.81.05-5.62.09-8.44.12-1.25.03-2.51.05-3.81.08-.9-.07-1.81-.13-2.75-.2v-2c-2.41-.27-2.41-.27-5.5-.25-.51 0-.51 0-3.09-.02-.8.09-1.59.18-2.41.27v2h-3q-.06 3 0 6h-2v3h-3v2h-3c-.28 1.93-.28 1.93-.14 4.59.02.48.02.48.13 2.87.07 1.01.13 2.01.2 3.04.04 1 .09 2 .13 3.04.3 5.49.3 5.49.68 7.46h2l1 3 1.56 1.56L78 272v2h-3v3c-1.67.04-3.33.04-5 0v2c-3 .25-3 .25-6 0v-2h4v-3l3 .06 3-.06v-4h-3q-.06-3 0-6h-2c-.24-1.71-.24-1.71-.23-4.09 0-.84 0-1.69.01-2.57l.03-2.72v-2.69c.05-6.65.05-6.65 1.19-8.93-3.23-.09-6.4.01-9.62.17-2.06.05-2.06.05-5.38-.17v-3h-8v-3h-4v-3h-4v-2c-2.75-.07-2.75-.07-6.56.16l-4.1.15c-2.18.09-4.35.19-6.52.33-8.64.55-8.64.55-12.82-.64-.86-2.95-.48-4.86.25-7.83-.08-.72-.16-1.43-.25-2.17-1.29.09-2.59.18-3.92.27-2.23.12-2.23.12-4.08-.27-.82-3.46-.96-5.77-.82-9.26l.03-2.84c.04-3.01.13-6.02.23-9.02.03-2.05.06-4.09.08-6.13.16-9.9.16-9.9.48-14.75l1 2h2v6h2c.06.41.06.41.38 2.5.1.41.1.41.62 2.5h4v-3h3v-2c2.19-.27 2.19-.27 5-.25.93-.01 1.86-.01 2.81-.02q1.08.135 2.19.27v2c.82.17 1.65.33 2.5.5.82.17 1.65.33 2.5.5v2h3c.07-2.02.12-4.04.01-6.05C32 185 32 185 33 183h-2v-3h-2v-2h-2v-4h-3c-1.96-4.3-2.27-8.19-2.25-12.88-.01-1.15-.01-2.3-.02-3.49.09-.87.18-1.73.27-2.63h2v-3h3v-2c2.19-.27 2.19-.27 5-.25.46 0 .46 0 2.81-.02q1.08.135 2.19.27v2l3-.06 3 .06v3c-3 .31-3 .31-6 0v-2c-1.93-.3-1.93-.3-4.44-.31-.41-.01-.41-.01-2.49-.05-.69.12-1.37.24-2.07.36l-1 3h-2v2h2v8h2c-.12-.82-.25-1.65-.38-2.5.13-.82.25-1.65.38-2.5 2.86-.6 5.05-.34 8 0-1.38.94-1.38.94-4 2-2 1-2 1-3.81 4.44-.39 1.17-.79 2.35-1.19 3.56.5.33.5.33 3 2 .16 1.2.33 2.39.5 3.62.16 1.12.33 2.23.5 3.38h3c.04-1.67.04-3.33 0-5h2c.27 2.19.27 2.19.25 5 0 .46 0 .46.02 2.81q-.135 1.08-.27 2.19h-2c-.21 2.71-.28 5.29-.25 8-.01.76-.02 1.53-.02 2.31 0 1.9.13 3.8.27 5.69h2v2c2.62.11 5.19-.07 7.81-.22.72.07 1.45.14 2.19.22v3c-2.64.23-5.17-.01-7.81-.19-.72.06-1.45.13-2.19.19v3h-2v2h-3c-.47 2.41-.47 2.41-.5 5.5l-.09 3.09c.19.8.39 1.59.59 2.41 2.53.22 2.53.22 5 0v2h3v2l2.5-.06 2.5.06v3c1.67.04 3.33.04 5 0v2c2.84.52 2.84.52 6.5.81 1.21.11 2.41.22 3.66.33.47-.02.47-.02 2.84-.14v-3c.83.08 1.65.16 2.5.25.83-.08 1.65-.16 2.5-.25.25-3.63.25-3.63 0-7l1 2h5v2c2.47.25 2.47.25 5.97.26 1.3.01 2.6.01 3.94.02 1.44-.01 2.87-.01 4.31-.01h4.37c3.06 0 6.12 0 9.18-.01 3.94-.01 7.87 0 11.81.01 3.01.01 6.02 0 9.03 0h4.35c2.03.01 4.05 0 6.07-.01 1.16 0 2.31 0 3.5-.01.41-.04.41-.04 2.47-.25v-2h8v-2l3 .06 3-.06v-3h3v-2h2v-3h3v-3h3v-2h2c.16-.99.33-1.98.5-3 .16-.99.33-1.98.5-3h2c.16-2.11.16-2.11.05-5.03-.02-1.04-.04-2.08-.07-3.15-.07-2.21-.15-4.43-.23-6.64-.01-.52-.01-.52-.07-3.15-.03-.96-.07-1.93-.1-2.92L169 180h4v2h-2l1 3c-.01 1.4-.05 2.79-.12 4.19L172 193h3v-2h2v2h3c.39-1.74.39-1.74.4-4.16 0-.85.01-1.71.01-2.59l-.03-2.75c0-.45 0-.45.03-2.75 0-.85-.01-1.71-.01-2.59 0-.4 0-.4-.01-2.42q-.195-.855-.39-1.74h-3c-.38-2.5-.38-2.5 0-5h3c.4-3.06.4-3.06.38-7 0-1.3.01-2.6.02-3.94-.13-1.01-.26-2.02-.4-3.06h-3v-3h3c.42-1.82.42-1.82.48-4.41l.09-2.91c.01-1.05.03-2.1.04-3.18.02-1.07.03-2.13.05-3.23q.045-3.39.06-6.78c.03-3.48.12-6.95.22-10.43.02-2.18.03-4.37.04-6.56l.12-3.18c-.05-4.93-.05-4.93-1.1-7.32-3.1-1.12-5.89-1.07-9 0v3c-2.5.38-2.5.38-5 0v-3a108 108 0 0 0-5-1v-2h-3v-2h-2c-.44-2.44-.44-2.44 0-5 2.5-.69 2.5-.69 5-1v-2h5v-2c2.36-.15 4.67.01 7.03.12L175 89Z"/><path fill="#fcb324" d="M82 232c2.41-.27 2.41-.27 5.5-.25 1.02-.01 2.04-.01 3.09-.02.4.05.4.05 2.41.27v2c2.75.2 2.75.2 6.56.12.67 0 1.33-.01 2.02-.02 2.14-.02 4.28-.06 6.42-.1 2.81-.05 5.62-.09 8.44-.12 1.25-.03 2.51-.05 3.81-.08.9.07 1.81.13 2.75.2v2h2v4h3v3h2v5h2c.2 3.04.28 5.96.25 9 0 .43 0 .43.02 2.6 0 2.14-.13 4.27-.27 6.4h-2v4h-2c-.56 2.94-.56 2.94 0 6 3.5.75 3.5.75 7 1v2l2.5-.06 2.5.06v3h3v2h2v3h2c.25 3 .25 3 0 6h-2v2c-2.37.21-4.63.28-7 .27h-2.15c-1.51 0-3.02 0-4.52-.01-2.32-.01-4.64 0-6.95.01H120c-.35 0-.35 0-2.12.01-1.63-.02-3.26-.14-4.88-.28v-2h-5c-1.5-3-1.17-5.79-1.19-9.12-.01-1.29-.03-2.57-.04-3.89.08-.99.15-1.97.23-2.99h2v-3c-2.84-.4-2.84-.4-6.5-.38-1.21 0-2.41-.01-3.66-.02-.47.07-.47.07-2.84.4v3h2c.23 2.99.23 2.99.19 6.88-.01 1.27-.02 2.55-.02 3.86C98 291 98 291 97 293h-5v2c-2.52.29-4.91.43-7.44.48-.75.01-1.51.03-2.28.05l-4.81.06c-2.46.03-4.92.12-7.38.21-1.55.02-3.1.04-4.65.05-.37.02-.37.02-2.26.11-2.06-.02-2.06-.02-5.18-.96-.85-2.97-.47-4.86 0-8h2v-3h2v-2h2v-3q3-.06 6 0v-2l2.5.06L75 277v-3h3c-.12-1.94-.12-1.94-1-4-.5-.17-.5-.17-3-1v-3h-2c-1.36-4.09-1.22-7.91-1.25-12.19l-.06-2.56c-.02-2.42-.02-2.42.31-6.25h3v-2h3v-3h2l-.06-3 .06-3h3Z"/><path fill="#c9b5a4" d="M96 274c2.84-.4 2.84-.4 6.5-.38 1.21 0 2.41-.01 3.66-.02.93.13 1.87.26 2.84.4v3h-2c-.12 2.73-.09 5.29.06 8 .02.76.03 1.53.05 2.31.11 2.19.11 2.19.89 5.69 2.56.38 2.56.38 5 0v2c2.37.21 4.63.28 7 .27h2.15c1.51 0 3.02 0 4.52-.01 2.32-.01 4.64 0 6.95.01H138c.35 0 .35 0 2.12.01 1.63-.02 3.26-.14 4.88-.28v-2h2c.25-3 .25-3 0-6h-2v-3h-2v-2h-3v-3h3v2l3 1v2c2.59.52 2.59.52 5.94.81 1.1.11 2.2.22 3.34.33.9-.04 1.79-.09 2.72-.14l1-3c.33.17.33.17 2 1 2.84.11 5.66.16 8.51.17.84 0 1.68 0 2.55.01 1.77 0 3.55.01 5.33.01 2.73 0 5.47.02 8.2.03 1.72.01 3.45.01 5.17.01.41 0 .41 0 2.5.02 1.91-.01 3.83-.12 5.74-.25v-2h-3l-1-3c2.44.19 2.44.19 5 1v2l3 1c.37 2.14.37 2.14.37 4.99.01 1.07.01 2.13.02 3.23 0 .58 0 .58-.03 3.51v3.56c0 2.5-.01 4.99-.02 7.48-.03 3.85-.02 7.69-.02 11.53 0 2.41-.01 4.83-.02 7.24v3.52l-.03 3.2c0 .94 0 1.89-.01 2.85-.09.63-.17 1.25-.26 1.89l-2-1v-3h-3v-2h-2v-4c-1.94-1.06-1.94-1.06-4-2l-1-3c-2.18-.39-2.18-.39-5.09-.42-1.08-.02-2.16-.03-3.28-.05h-3.58c-.6 0-.6 0-3.63-.02-2.54-.01-5.08-.02-7.62-.01-3.92 0-7.83-.04-11.74-.09h-7.38c-1.18-.02-2.37-.04-3.59-.05-1.07.01-2.15.02-3.26.02h-2.91c-.63.2-1.27.41-1.92.62.07 2.54.07 2.54 1 5h2c.15 2.36-.01 4.67-.12 7.03L140 334h2c.38 2.5.38 2.5 0 5h-4c-1.67-3.33-.96-7-.84-10.66-.03-.39-.03-.39-.16-2.34h-2c.09-.97.17-1.95.26-2.95-.09-1.01-.17-2.01-.26-3.05-2.54-.76-2.54-.76-6.15-.76l-1.98-.03c-2.18-.02-4.35 0-6.53.03-1.5 0-3-.01-4.5-.01-3.16-.01-6.31.01-9.47.04-4.05.04-8.11.03-12.16.01-3.11-.02-6.21-.01-9.31.01-1.5.01-3 .01-4.49 0-2.09-.01-4.17.01-6.26.05-.59 0-.59 0-3.61.02-.84.21-1.68.42-2.54.64-.26 2.54-.26 2.54 0 5h-2c.06-.81.13-1.62.19-2.46-.06-.84-.13-1.68-.19-2.54-2.09-.62-2.09-.62-5.05-.62-1.1 0-2.2-.01-3.34-.02-.6 0-.6 0-3.64.05h-3.7c-3.26 0-6.51.03-9.77.07-2 .02-4 .02-6 .02-3.82-.01-7.65.01-11.47.03h-3.64c-1.11.02-2.21.03-3.34.05l-2.96.03c-.69.13-1.38.26-2.09.39v3H9v3H7v3H4v3H2l-1 2c-.81-5.46-1.11-10.58 0-16 2.99-1.51 4.99-1.34 8.3-1.05 2.7.05 2.7.05 4.49-1.62L15 314l1 3c2.08.37 2.08.37 4.86.37.51.01.51.01 3.13.02l3.41-.03h3.48c2.43 0 4.87-.01 7.3-.02 3.74-.03 7.47-.02 11.21-.02 2.36 0 4.72-.01 7.07-.02h3.41c.52 0 .52 0 3.15-.03.91 0 1.83 0 2.77-.01C68 317 68 317 70 315v3c2.39.37 2.39.37 5.78.37 1.26.01 2.53.01 3.83.02l4.17-.03h4.24c2.96 0 5.93-.01 8.9-.02 3.81-.03 7.62-.03 11.44-.02 2.92 0 5.83 0 8.75-.01 1.41-.01 2.82-.01 4.22-.01 1.96 0 3.93-.01 5.89-.03 1.12 0 2.24 0 3.39-.01.79-.09 1.58-.17 2.39-.26v-2h3v2c1.92.23 1.92.23 4.64.2.5 0 .5 0 3.06-.02l3.34-.06c1.12-.02 2.24-.03 3.39-.05 2.36-.04 4.73-.08 7.1-.13 3.65-.06 7.31-.1 10.96-.14l6.87-.12c1.1-.01 2.21-.02 3.36-.02 1-.03 2-.06 3.03-.08.45-.01.45-.01 2.71-.05.51-.17 1.02-.35 1.54-.53-1.23-1.91-1.23-1.91-3-4v-2h-2c-1.44-1.71-1.44-1.71-3-3.94-2.79-3.96-2.79-3.96-5-5.06-1.39-.1-2.78-.14-4.17-.15-.87 0-1.73-.01-2.61-.01-.47-.01-.47-.01-2.82-.01-.95 0-1.9 0-2.89-.01-2.01 0-4.02-.01-6.03-.01-3.1 0-6.2-.02-9.29-.03-1.95-.01-3.9-.01-5.85-.01-.94-.01-1.87-.01-2.84-.02-2.17.01-4.33.12-6.5.25v2c-2.16.25-2.16.25-5.23.26-.57 0-.57 0-3.46.02-1.25-.01-2.49-.01-3.78-.01h-3.83c-2.69 0-5.37 0-8.05-.01-3.45-.01-6.9 0-10.35.01-3.28.01-6.56 0-9.83 0-.62 0-.62 0-3.78.01-1.14-.01-2.28-.01-3.46-.02-1.01 0-2.02 0-3.07-.01-.71-.08-1.42-.16-2.16-.25v-2c-1.79-.21-1.79-.21-4.27-.16l-2.69.03c-.47.01-.47.01-2.85.07l-5.52.09c-.41.01-.41.01-2.49.05C53 302 53 302 50 301v-3h-2v-2h2v-3c.83.06 1.65.12 2.5.19.41-.03.41-.03 2.5-.19.12-2.94.12-2.94 0-6l3-1c.36-1.33.7-2.66 1-4h2v-3h3v3h-2v2h-2v3h-2c-.79 5.26-.79 5.26 0 8 2.89.87 4.5.99 7.44.85.75-.01 1.51-.01 2.28-.02 1.61-.02 3.21-.06 4.81-.12 2.46-.08 4.92-.12 7.38-.14l4.65-.09c.37-.01.37-.01 2.26-.05 1.73-.06 3.46-.23 5.18-.43v-2c.81.12 1.61.25 2.44.38.85-.13 1.69-.25 2.56-.38.63-2.86.88-5.12.94-8l.12-2.31c.08-1.9.02-3.8-.06-5.69h-2Z"/><path fill="#394c5c" d="M175 87c3.1-.18 6.09-.23 9.19-.19h2.62c9.05.07 9.05.07 12.19 1.19v3c.65-.17 1.3-.35 1.97-.53.67-.15 1.34-.31 2.03-.47.45 2.92.57 5.48.55 8.42 0 .46 0 .46.03 2.75.03 3.03.03 6.05.02 9.08l.03 6.26c.01 4.38.01 8.76 0 13.15-.01 5.64.02 11.27.07 16.91.03 4.31.03 8.63.03 12.94q0 3.12.03 6.24c.02 2.9.01 5.8-.02 8.7.01.43.01.43.05 2.64-.04 2.37-.04 2.37-.79 5.91-3.05.41-3.05.41-6 0v2h-4v3h-3v2l-2.5-.06-2.5.06v3c-2.49.78-2.49.78-5 0-.64-3.15-.32-6.31-.12-9.5q.135-2.67.24-5.34c.04-.8.09-1.6.14-2.42-.08-.57-.17-1.15-.26-1.74h-3c-.38-2.5-.38-2.5 0-5h3c.4-3.06.4-3.06.38-7 0-1.3.01-2.6.02-3.94-.13-1.01-.26-2.02-.4-3.06h-3v-3h3c.42-1.82.42-1.82.48-4.41l.09-2.91c.01-.52.01-.52.04-3.18.02-1.07.03-2.13.05-3.23q.045-3.39.06-6.78c.03-3.48.12-6.95.22-10.43.02-2.18.03-4.37.04-6.56l.12-3.18c-.05-4.93-.05-4.93-1.1-7.32-3.1-1.12-5.89-1.07-9 0v3c-2.5.38-2.5.38-5 0v-3a108 108 0 0 0-5-1v-2h-3v-2h-2c-.44-2.44-.44-2.44 0-5 2.5-.69 2.5-.69 5-1v-2h5v-2c2.36-.15 4.67.01 7.03.12L175 89Z"/><path fill="#1d5a34" d="M169 180h4v2h-2c.16.5.16.5 1 3-.01 1.4-.05 2.79-.12 4.19L172 193h3v-2h2v2c1.75.3 1.75.3 4 .31.37.01.37.01 2.25.05.58-.12 1.16-.24 1.75-.36v-3c1.67-.04 3.33-.04 5 0v-2h3v-3h4v-2c2.96-.66 2.96-.66 6 0 .61 3.09.75 5.43.66 8.53-.01.87-.01 1.73-.02 2.62-.01 1.84-.04 3.68-.08 5.51-.06 2.83-.08 5.65-.09 8.48l-.06 5.33c-.01.43-.01.43-.03 2.58-.05 1.99-.2 3.97-.38 5.95h-2c.15 1.72.15 1.72.65 4.11 1.63 10.5 1.63 10.5-.65 14.89-6.85 3.61-16.56 1.78-24 1.31-3.42-.14-6.85-.26-10.27-.35-2.14-.06-4.28-.17-6.41-.3-4.98-.22-4.98-.22-7.32.34-.53 3.01-.53 3.01 0 6h-2c-.07-.41-.07-.41-.44-2.5-.09-.41-.09-.41-.56-2.5h-3v-3h-2v-3h2v2c1.97.27 1.97.27 4.5.25.42 0 .42 0 2.53.02.65-.09 1.3-.18 1.97-.27v-2h2v2c2.41.27 2.41.27 5.5.25.51 0 .51 0 3.09.02.8-.09 1.59-.18 2.41-.27v-2h2v2c2.19.27 2.19.27 5 .25.93.01 1.86.01 2.81.02q1.08-.135 2.19-.27v-2h2v2c5.55.35 5.55.35 8 0 .16-.33.16-.33 1-2v2c3.5.56 3.5.56 7 0 1-3.49 1-3.49 0-7-4.08-1.17-8.26-.85-12.47-.75-.63 0-.63 0-3.83.01-2.69.02-5.37.05-8.05.1-3.45.07-6.9.1-10.35.11-3.28.02-6.56.05-9.83.09l-3.78.03c-1.14.03-2.28.05-3.46.07-1.01.02-2.02.04-3.07.05-.35.05-.35.05-2.16.29v2c-2.5.25-2.5.25-5 0v-2h-4v-3c-1.94-.34-1.94-.34-4.68-.29-.51 0-.51 0-3.1.03-1.11.02-2.23.05-3.38.07-1.13.01-2.26.03-3.43.04-3.63.03-7.27.09-10.91.15-4.78.08-9.56.14-14.34.19-1.12.02-2.23.05-3.38.07-.51.01-.51.01-3.1.03-.9.02-1.81.03-2.74.05-.32-.06-.32-.06-1.94-.34v-3c2.16-.35 2.16-.35 5.23-.31 1.14.01 2.28.01 3.46.02 1.25.02 2.49.04 3.78.07 1.26.01 2.53.02 3.83.02 3.38.03 6.75.07 10.12.11q7.14.09 14.28.15c2.53.02 5.07.05 7.61.09l3.46.03c1.01.01 2.02.03 3.07.04.71-.07 1.42-.15 2.16-.22v-2h8v-2l3 .06 3-.06v-3h3v-2h2v-3h3v-3h3v-2h2c.17-.99.33-1.98.5-3 .17-.99.33-1.98.5-3h2c.16-2.11.16-2.11.05-5.03-.02-1.04-.04-2.08-.07-3.15-.07-2.21-.15-4.43-.23-6.64-.03-1.04-.05-2.08-.07-3.15-.03-.96-.07-1.93-.1-2.92.14-.7.28-1.39.42-2.11"/><path fill="#1c5738" d="M27 150c2.19-.27 2.19-.27 5-.25.46 0 .46 0 2.81-.02q1.08.135 2.19.27v2l3-.06 3 .06v3c-3 .31-3 .31-6 0v-2c-1.93-.3-1.93-.3-4.44-.31-.82-.02-1.64-.04-2.49-.05-.69.12-1.37.24-2.07.36l-1 3h-2v2h2v8h2c-.12-.82-.25-1.65-.38-2.5.13-.82.25-1.65.38-2.5 2.86-.6 5.05-.34 8 0-1.37.94-1.37.94-4 2-2 1-2 1-3.81 4.44-.39 1.17-.79 2.35-1.19 3.56l3 2c.08.6.08.6.5 3.62.08.56.08.56.5 3.38h3c.04-1.67.04-3.33 0-5h2c.27 2.19.27 2.19.25 5 0 .46 0 .46.02 2.81q-.135 1.08-.27 2.19h-2c-.21 2.71-.28 5.29-.25 8-.01.76-.02 1.53-.02 2.31 0 1.9.13 3.8.27 5.69h2v2c2.62.11 5.19-.07 7.81-.22.72.07 1.45.14 2.19.22v3c-2.64.23-5.17-.01-7.81-.19-.72.06-1.45.13-2.19.19v3h-2v2h-3c-.4 2.41-.4 2.41-.38 5.5 0 1.02-.01 2.04-.02 3.09.13.8.26 1.59.4 2.41h3v4h2v3h3v3h3v2h-4v-2c-2.75-.07-2.75-.07-6.56.16l-4.1.15c-2.18.09-4.35.19-6.52.33-8.64.55-8.64.55-12.82-.64-.86-2.95-.48-4.86.25-7.83-.04-.36-.04-.36-.25-2.17-1.29.09-2.59.18-3.92.27-2.23.12-2.23.12-4.08-.27-.82-3.46-.96-5.77-.82-9.26l.03-2.84c.04-3.01.13-6.02.23-9.02.03-2.05.06-4.09.08-6.13.16-9.9.16-9.9.48-14.75l1 2h2v6h2c.06.41.06.41.38 2.5.2.82.41 1.65.62 2.5h4v-3h3v-2c2.19-.27 2.19-.27 5-.25.93-.01 1.86-.01 2.81-.02q1.08.135 2.19.27v2c.82.16 1.65.33 2.5.5.82.16 1.65.33 2.5.5v2h3c.07-2.02.12-4.04.01-6.05C32 185 32 185 33 183h-2v-3h-2v-2h-2v-4h-3c-1.96-4.3-2.27-8.19-2.25-12.88-.01-1.15-.01-2.3-.02-3.49.09-.87.18-1.73.27-2.63h2v-3h3Z"/><path fill="#296ccd" d="M54 87c2.5-.25 2.5-.25 5 0v2h2v4h2v3c1.75.4 1.75.4 4 .38.74 0 1.48.01 2.25.02.58-.13 1.16-.26 1.75-.4v-3c1.67-.04 3.33-.04 5 0v-2l2.5.06L81 91v-3c2.59-.32 4.91-.42 7.5-.38l2.17-.03c2.05.01 2.05.01 5.33.41v3c1.67.04 3.33.04 5 0v2h3v3h3c.04 1.67.04 3.33 0 5h2v6h2c-.06 3.66-.33 7.29-.61 10.94.2 1.01.4 2.02.61 3.06 3.52.25 3.52.25 7 0v3c2.33.04 4.67.04 7 0v2l3.5-.06 3.5.06v3c1.67.04 3.33.04 5 0v2c-3 .25-3 .25-6 0v-2c-2-.05-4-.04-6 0-1.67-.32-3.34-.65-5-1h-4c-.13-.65-.26-1.3-.39-1.97-.2-.67-.4-1.34-.61-2.03-2.5-.49-2.5-.49-5.79-.46-.58 0-.58 0-3.54.01-1.23.03-2.46.05-3.73.07-1.24.01-2.47.01-3.75.01-6.71.07-6.71.07-9.19.37v2l-3.5-.06-3.5.06v3c-2.33.04-4.67.04-7 0v2h-4v3c-2.5.38-2.5.38-5 0v-3h3v-3c1.67-.04 3.33-.04 5 0v-2h7v-2l3.5.06L88 124v-3c1.84-.12 1.84-.12 4.38.2 11.6 1.05 11.6 1.05 15.62-.2 2.25-4.75 1.75-9.11 0-14h-4c-.29-1.75-.29-1.75-.06-4 .21-2.25.21-2.25.06-4h-3v-3h-3v-2l-2.5.06L93 94v-3c-2.41-.4-2.41-.4-5.5-.38-1.02 0-2.04-.01-3.09-.02-.8.13-1.59.26-2.41.4v3l-2.49-.12L77 94c-.38 2.19-.38 2.19-.12 5 .24 2.81.24 2.81.12 5h-3v3h-3c-.4 1.75-.4 1.75-.38 4 0 .74-.01 1.48-.02 2.25.07.29.07.29.4 1.75h3c.38 3 .38 3 0 6h-3v3c-2.5.38-2.5.38-5 0v-3c-1.67-.04-3.33-.04-5 0v-2h-3v2h-2v3c-1.67.04-3.33.04-5 0v2h-4v-2h-2c-.11-2.88.07-5.72.22-8.59-.07-.8-.14-1.59-.22-2.41h-3v-3h-2v-3h-3c-.38-3-.38-3 0-6h3v-2l3.5.06L47 99v-3h3v-3h2v-4h2Z"/><path fill="#e59617" d="M171 104c3.12-1.05 5.9-1.13 9 0 1.48 3.37 1.11 6.88.98 10.5 0 .53 0 .53-.01 3.23-.02 2.26-.06 4.52-.13 6.78-.09 3.48-.12 6.95-.14 10.43-.02 2.19-.06 4.37-.09 6.56-.01.52-.01.52-.04 3.18l-.09 2.91-.06 2.59c-.14.6-.28 1.2-.42 1.82h-3v3h3c.4 3.06.4 3.06.38 7 0 1.3.01 2.6.02 3.94-.07.5-.07.5-.4 3.06h-3c-.38 2.5-.38 2.5 0 5h3c.39 1.74.39 1.74.4 4.16 0 .42 0 .42.01 2.59l-.03 2.75.03 2.75c0 .85-.01 1.71-.01 2.59 0 .8-.01 1.6-.01 2.42q-.195.855-.39 1.74h-3v-2h-2v2h-3c-.58-2.41-.58-2.41-.81-5.5-.09-1.02-.18-2.04-.27-3.09.03-.8.05-1.59.08-2.41h2v-2h-4c-.42 2.11-.42 2.11-.32 5.03.02 1.04.04 2.08.07 3.15.04 1.09.08 2.19.13 3.32.06 2.16.12 4.31.17 6.47.04.96.08 1.93.11 2.92-.05.7-.1 1.39-.16 2.11h-2l-1 3 .06-2.25L166 201l-2-1 2-2 1 1c.46-8.76.52-18.35-1-27h-2l.06-3-.06-3h-3c-.04-1.67-.04-3.33 0-5h-2c-.33-2-.67-4-1-6h-2c-.25-2.5-.25-2.5 0-5h2v4h3v-2h3c.04-2.33.04-4.67 0-7h2c.16-2.05.16-2.05.06-4.88-.06-3.96-.02-7.85.32-11.81.06-.83.13-1.66.21-2.51.13-.59.27-1.19.41-1.8h2c.1-2.33.07-4.67 0-7s-.1-4.67 0-7h2c-.14-.99-.29-1.98-.44-3 .15-.99.29-1.98.44-3"/><path fill="#978b85" d="M96 274c2.84-.4 2.84-.4 6.5-.38 1.21 0 2.41-.01 3.66-.02.47.07.47.07 2.84.4v3h-2c-.12 2.73-.09 5.29.06 8 .02.76.03 1.53.05 2.31.11 2.19.11 2.19.89 5.69 2.56.38 2.56.38 5 0v2c2.37.21 4.63.28 7 .27h2.15c1.51 0 3.02 0 4.52-.01 2.32-.01 4.64 0 6.95.01H138c.35 0 .35 0 2.12.01 1.63-.02 3.26-.14 4.88-.28v-2h2c.25-3 .25-3 0-6h-2v-3h-2v-2h-3v-3h3v2l3 1v2h2v2h2c-.08 1.15-.17 2.31-.25 3.5.08 1.15.17 2.31.25 3.5 3 .25 3 .25 6 0v3h2v2h-2v3c-3.08 1.03-5.1 1.09-8.32 1.03-1.03-.01-2.06-.03-3.12-.04-2.18-.04-4.35-.07-6.53-.12l-3.1-.03c-.95-.02-1.89-.03-2.87-.05-.34.03-.34.03-2.06.21v2c-2.16.25-2.16.25-5.23.26-.57 0-.57 0-3.46.02-1.25-.01-2.49-.01-3.78-.01h-3.83c-2.69 0-5.37 0-8.05-.01-3.45-.01-6.9 0-10.35.01-3.28.01-6.56 0-9.83 0-.62 0-.62 0-3.78.01-1.14-.01-2.28-.01-3.46-.02-1.01 0-2.02 0-3.07-.01L73 304v-2c-1.79-.21-1.79-.21-4.27-.16l-2.69.03c-.47.01-.47.01-2.85.07l-5.52.09c-.41.01-.41.01-2.49.05C53 302 53 302 50 301v-3h-2v-2h2v-3c.83.06 1.65.12 2.5.19.41-.03.41-.03 2.5-.19.12-2.94.12-2.94 0-6l3-1c.36-1.33.7-2.66 1-4h2v-3h3v3h-2v2h-2v3h-2c-.79 5.26-.79 5.26 0 8 2.89.87 4.5.99 7.44.85.75-.01 1.51-.01 2.28-.02 1.61-.02 3.21-.06 4.81-.12 2.46-.08 4.92-.12 7.38-.14l4.65-.09c.37-.01.37-.01 2.26-.05 1.73-.06 3.46-.23 5.18-.43v-2c.81.12 1.61.25 2.44.38.85-.13 1.69-.25 2.56-.38.63-2.86.88-5.12.94-8l.12-2.31c.08-1.9.02-3.8-.06-5.69h-2Z"/><path fill="#aca7a1" d="M185 96c3.05-.73 3.05-.73 6 0v3h3v2h2c.27 1.86.27 1.86.31 4.5.01.98.03 1.96.04 2.97.01 1.07.02 2.14.02 3.25l.03 3.29.03 6.93c.01 3.54.06 7.09.11 10.64.01 2.24.01 4.47.02 6.7l.06 3.25c-.01.98-.01 1.96-.02 2.97 0 .87.01 1.74.01 2.64-.2.61-.4 1.23-.61 1.86-2.54.16-2.54.16-5 0v2c.82-.21 1.65-.41 2.5-.62.41-.07.41-.07 2.5-.38v4c-1.67.04-3.33.04-5 0v3c.41-.03.41-.03 2.5-.19.82.06 1.65.13 2.5.19.19 3 .19 3 0 6h2v4l3 2h-2v2h2v3h-2v3l3 1-1 3h-4v3h-4v3h-3v2c-2.46.66-2.46.66-5-5.684341886080802e-14-.55-3.05-.69-5.56-.66-8.63-.01-.46-.01-.46-.03-2.78-.03-3.05-.02-6.1-.01-9.15-.01-2.11-.01-4.22-.02-6.33-.01-4.42-.01-8.85.01-13.27.03-5.69 0-11.38-.04-17.07-.03-4.36-.02-8.71-.01-13.06q0-3.15-.03-6.3c-.02-2.93 0-5.85.03-8.78-.01-.88-.03-1.76-.04-2.66.04-2.4.04-2.4.8-5.97"/><path fill="#88a0a1" d="M181 26h2c.15 3.66-.01 7.28-.12 10.94L183 40h2c.13 1.74.13 1.74-.02 4.16-.03.85-.06 1.71-.1 2.59-.09 1.84-.19 3.67-.31 5.5-.15 4.54-.15 4.54.43 6.75 3.01.31 3.01.31 6 0 .41 1.97.41 1.97.06 4.5-.18 2.5-.18 2.5-.06 4.5 2.5.44 2.5.44 5 0v2h3v4h2v2h2c.34 3.03.34 3.03.38 6.94.02 1.29.05 2.57.08 3.9-.15 1.04-.3 2.09-.46 3.16-2.02 1.13-2.02 1.13-4 1v-3c-2.2-.46-2.2-.46-5.25-.58-.54-.02-.54-.02-3.28-.14l-3.47-.09c-1.14-.05-2.29-.1-3.47-.16-6.27-.22-6.27-.22-8.53-.03v2c-2.36.15-4.67-.01-7.03-.12L166 89v2h-5v2c-2.5.88-2.5.88-5 1v-4h2v-2c.5-.05.5-.05 3-.31.5-.12.5-.12 3-.69.56-2.56.56-2.56 0-5h-3v2c-2.5.25-2.5.25-5 0v-2h2v-3h3v-3h3v-2h3v-3h4v-3c1.75-.08 1.75-.08 4 .19 2.2.1 2.2.1 4-.19.75-3 .75-3 0-6h-4v-3l2.48.18c.83-.06 1.66-.12 2.52-.18.45-2.39.45-2.39.25-5.81-.04-1.26-.09-2.52-.13-3.81-.03-.7-.05-1.39-.08-2.11-.08-4.22.13-8.43.34-12.65l.09-2.57c.1-2.02.3-4.04.53-6.05"/><path fill="#f4a117" d="M58 188c2.84-.27 2.84-.27 6.5-.25.6 0 .6 0 3.66-.02.93.09 1.87.18 2.84.27v2h3c.4 2.41.4 2.41.38 5.5 0 1.02.01 2.04.02 3.09-.13.8-.26 1.59-.4 2.41h-3v2c-1.06 1.62-1.06 1.62-3 3-6.14.43-6.14.43-9-1-.25 2.94-.25 2.94 0 6h2v3h3v3h2v2c2.33.1 4.67.07 7 0s4.67-.1 7 0v2c2.46-.02 2.46-.02 5.93-.38 5.54-.47 10.99-.71 16.55-.68.71 0 1.43 0 2.16.01 2.18.01 4.37.03 6.55.05q4.395.045 8.79.06c1.28.01 2.56.03 3.87.04C127 220 127 220 130 219c2.65-.03 5.27.07 7.92.16.69-.05 1.37-.11 2.08-.16v-2c2.11-.11 4.15.07 6.25.22.58-.07 1.16-.14 1.75-.22v-3h5v-3h3v-2h2v-3h3l-.12-2.5.12-2.5c2.5-.81 2.5-.81 5 0 .6 2.69.57 5.3 0 8h-2v2h-3v3h-3v3h-2v2h-3v3q-3 .06-6 0v2h-8v2c-2.47.25-2.47.25-5.97.26-.65 0-.65 0-3.94.02-1.44-.01-2.87-.01-4.31-.01h-4.37c-3.06 0-6.12 0-9.18-.01-3.94-.01-7.87 0-11.81.01-3.01.01-6.02 0-9.03 0h-4.35c-2.03.01-4.05 0-6.07-.01-.58 0-.58 0-3.5-.01-.82-.08-1.63-.16-2.47-.25v-2h-5v-2h-3v-2h-3v-3h-3v-3h-2v-2l-3-1c-.04-1.67-.04-3.33 0-5h-2v-3c.64.16 1.28.33 1.94.5.68.16 1.36.33 2.06.5l1-3h-2c-.27-2.41-.27-2.41-.25-5.5-.01-1.02-.01-2.04-.02-3.09.05-.4.05-.4.27-2.41h2Z"/><path fill="#e8d2bd" d="M158.742 300.785c1.77-.05 3.55-.11 5.32-.16l2.5-.12c4.37-.06 5.93.1 9.5 2.89 1.94 2.6 1.94 2.6 1.94 4.6l3 1v2h2c1.04 1.65 2.03 3.32 3 5l2 2c-1.72.28-1.72.28-4.52.31-1.03.02-2.07.03-3.13.05-1.14.01-2.29.01-3.46.02-1.15 0-2.31.01-3.49.02-2.45.02-4.91.03-7.36.03-3.76.01-7.52.06-11.28.11-2.38.01-4.75.02-7.12.02l-3.44.06c-.52 0-.52 0-3.17-.02-.46.01-.46.01-2.8.02-2.23-.62-2.23-.62-3.55-2.9-.68-2.72-.68-2.72-.68-6.72h-2c-1.23-3.44-1.23-3.44-1-7 3.1-1.24 6.39-.97 9.69-.93.99-.01 1.98-.03 3-.04 2.07-.02 4.14-.03 6.21-.02 2.95 0 5.89-.1 8.84-.22"/><path fill="#2b764b" d="M197 183c2.96-.52 2.96-.52 6 0 .71 2.66.71 2.66.66 6.34-.01 1.31-.02 2.62-.04 3.97l-.06 2.08c-.06 2.1-.08 4.2-.09 6.3-.12 7.4-.12 7.4-.47 10.31h-2v2c-2.5.44-2.5.44-5 0-.12-2.5-.12-2.5 0-5h-3v2h-2v-2h-3v-3h-3v3c-1.67.04-3.33.04-5 0v2c-2.44.25-2.44.25-5 0l-1-2h-2c.06.82.12 1.65.19 2.5-.06.82-.13 1.65-.19 2.5-2.5.62-2.5.62-5 0-.44-2.5-.44-2.5 0-5h2c.34-1.75.34-1.75.5-4s.16-2.25.5-4h2c.11-2.11-.07-4.15-.22-6.25.07-.58.14-1.16.22-1.75h3v-2h2v2c1.75.3 1.75.3 4 .31.37.01.37.01 2.25.05.58-.12 1.16-.24 1.75-.36v-3c1.67-.04 3.33-.04 5 0v-2h3v-3h4Z"/><path fill="#548513" d="M183 214h2c-.15 1.34-.34 2.67-.56 4-.1 2.25-.1 2.25.56 4 3 .35 5.61.05 8.59-.4.8.13 1.59.26 2.41.4 1.12 3.46 1.12 3.46 0 7-4.13 1.07-8.26.74-12.5.56-1.19-.01-2.38-.03-3.61-.04-6.33-.14-6.33-.14-8.89-.52v-2h-2v2c-2.49.11-4.93-.07-7.42-.22-2.58.22-2.58.22-4.49 1.72-2.98 2.14-5.23 1.73-8.84 1.56-3.55-.15-3.55-.15-6.25-.06v2c-2.5.25-2.5.25-5 0v-2h-4v-3c-1.94-.34-1.94-.34-4.68-.29l-3.1.03c-1.11.02-2.23.05-3.38.07-1.13.01-2.26.03-3.43.04-3.63.03-7.27.09-10.91.15-4.78.08-9.56.14-14.34.19-1.12.02-2.23.05-3.38.07l-3.1.03c-.9.02-1.81.03-2.74.05-.64-.11-1.28-.22-1.94-.34v-3c2.16-.35 2.16-.35 5.23-.31.57 0 .57 0 3.46.02.62.01.62.01 3.78.07 1.26.01 2.53.02 3.83.02 3.38.03 6.75.07 10.12.11q7.14.09 14.28.15c2.53.02 5.07.05 7.61.09l3.46.03c.5.01.5.01 3.07.04.35-.04.35-.04 2.16-.22v-2h8v-2c2.75-.26 2.75-.26 6.56-.27h2.02c1.41 0 2.83 0 4.24.01 2.17.01 4.34 0 6.52-.01h4.1c1.25.01 2.51.01 3.81.01.9.09 1.81.17 2.75.26v2h3v-2h3c.22-1.75.22-1.75.06-4-.15-2.25-.15-2.25-.06-4"/><path fill="#e2d1bd" d="M171 104c3.12-1.05 5.9-1.13 9 0 1.48 3.37 1.11 6.88.98 10.5 0 .53 0 .53-.01 3.23-.02 2.26-.06 4.52-.13 6.78-.09 3.48-.12 6.95-.14 10.43-.02 2.19-.06 4.37-.09 6.56-.01.52-.01.52-.04 3.18l-.09 2.91-.06 2.59c-.14.6-.28 1.2-.42 1.82h-3v-2c-2.41-.27-2.41-.27-5.5-.25-.51 0-.51 0-3.09-.02-.8.09-1.59.18-2.41.27v2h-2c-.25-3.5-.25-3.5 0-7h2c.16-2.05.16-2.05.06-4.88-.06-3.96-.02-7.85.32-11.81.03-.41.03-.41.21-2.51.13-.59.27-1.19.41-1.8h2c.1-2.33.07-4.67 0-7s-.1-4.67 0-7h2c-.14-.99-.29-1.98-.44-3 .15-.99.29-1.98.44-3"/><path fill="#f09b14" d="M35 222h2v2h3v2l2.5-.06 2.5.06v3c1.67.04 3.33.04 5 0v2q3 .06 6 0l2 1v2c3 1 3 1 6 0v-2c2.08-.38 2.08-.38 4.81-.56 3.02-.22 5.31-.48 8.19-1.44 2.19.81 2.19.81 4 2v2h-2v6h-2v3h-3v2h-3c-.28 1.93-.28 1.93-.14 4.59.04.95.09 1.9.13 2.87.07 1.01.13 2.01.2 3.04.04 1 .09 2 .13 3.04.3 5.49.3 5.49.68 7.46h2l1 3 1.56 1.56L78 272v2h-3v3c-1.67.04-3.33.04-5 0v2c-3 .25-3 .25-6 0v-2h4v-3l3 .06 3-.06v-4h-3q-.06-3 0-6h-2c-.24-1.71-.24-1.71-.23-4.09 0-.84 0-1.69.01-2.57 0-.44 0-.44.03-2.72v-2.69c.05-6.65.05-6.65 1.19-8.93-3.23-.09-6.4.01-9.62.17-2.06.05-2.06.05-5.38-.17v-3h-8v-3h-4c-.04-1.67-.04-3.33 0-5h-3v-3h-3v-3h-2Z"/><path fill="#1c2330" d="M81 88c2.59-.32 4.91-.42 7.5-.38l2.17-.03c2.05.01 2.05.01 5.33.41v3c1.67.04 3.33.04 5 0v2h3v3h3c.04 1.67.04 3.33 0 5h2v6h2c-.06 3.66-.33 7.29-.61 10.94.2 1.01.4 2.02.61 3.06 3.52.25 3.52.25 7 0v3c2.33.04 4.67.04 7 0v2l3.5-.06 3.5.06v3c1.67.04 3.33.04 5 0v2c-3 .25-3 .25-6 0v-2c-2-.05-4-.04-6 0-1.67-.32-3.34-.65-5-1h-4c-.13-.65-.26-1.3-.39-1.97-.1-.34-.1-.34-.61-2.03-2.5-.49-2.5-.49-5.79-.46-.58 0-.58 0-3.54.01-1.23.03-2.46.05-3.73.07-1.24.01-2.47.01-3.75.01-6.71.07-6.71.07-9.19.37v2l-3.5-.06-3.5.06v3c-2.33.04-4.67.04-7 0v2h-4v3c-2.5.38-2.5.38-5 0v-3h3v-3c1.67-.04 3.33-.04 5 0v-2h7v-2l3.5.06L88 124v-3c1.84-.12 1.84-.12 4.38.2 11.6 1.05 11.6 1.05 15.62-.2 2.25-4.75 1.75-9.11 0-14h-4c-.29-1.75-.29-1.75-.06-4 .21-2.25.21-2.25.06-4h-3v-3h-3v-2l-2.5.06L93 94v-3c-2.41-.4-2.41-.4-5.5-.38-1.02 0-2.04-.01-3.09-.02-.8.13-1.59.26-2.41.4v3l-2.49-.12L77 94c-.38 2.19-.38 2.19-.12 5 .24 2.81.24 2.81.12 5h-3c.05-.82.1-1.64.16-2.49-.06-.83-.11-1.66-.16-2.51-2.41-.38-2.41-.38-5.5-.12-3.09.24-3.09.24-5.5.12v-3h8v-3c1.67-.04 3.33-.04 5 0v-2l2.5.06L81 91Z"/><path fill="#f4f8fd" d="M1 54h3v2l3-.06 3 .06v3h3v6h3v2h2v-2c3-.25 3-.25 6 0v2h3q.06 3 0 6h2v-2c2.5-.31 2.5-.31 5 0v3h3v2h3v3c-1.74.39-1.74.39-4.16.4-.85 0-1.71.01-2.59.01l-2.75-.03c-.45 0-.45 0-2.75.03-.42 0-.42 0-2.59-.01-.8 0-1.6-.01-2.42-.01q-.855-.195-1.74-.39v-3h-2v-2c-2.5-.44-2.5-.44-5 0 .05.82.1 1.65.16 2.5-.06.82-.11 1.65-.16 2.5-2.19.59-2.19.59-5 .5l-2.81-.03c-.72-.16-1.45-.31-2.19-.47v-3H1c-.39-2.02-.39-2.02-.4-4.81 0-1-.01-1.99-.01-3.01L.62 65l-.03-3.18c0-.99.01-1.98.01-3.01 0-.92.01-1.84.01-2.79.13-.67.26-1.33.39-2.02"/><path fill="#82878c" d="M201 104h2c.23 2.45.31 4.79.32 7.25l.03 2.34c.03 2.56.05 5.13.06 7.69l.03 5.31c.02 3.72.03 7.44.04 11.16.01 4.79.06 9.57.12 14.35.03 3.66.04 7.32.05 10.98 0 1.76.02 3.53.05 5.29.03 2.46.03 4.92.01 7.38l.06 2.24c-.04 2.01-.04 2.01-.77 5.01-3.15.47-3.15.47-6 0 .54-.1 1.07-.21 1.62-.31.79-.23 1.57-.46 2.38-.69v-3l-2-1v-3h2v-3h-2v-2l-2-2c.31-1.34.65-2.67 1-4h-2c.06-.99.12-1.98.19-3-.03-.5-.03-.5-.19-3-2.5-.19-2.5-.19-5 0v-3l2.5.06 2.5-.06v-4c-2.5.38-2.5.38-5 1v-2c.82.15 1.64.31 2.48.46.42-.07.42-.07 2.52-.46.41-3.3.46-6.11.31-9.41-.02-.95-.04-1.91-.05-2.89-.07-3.07-.16-6.13-.26-9.2-.13-4.03-.23-8.06-.31-12.09-.04-.94-.09-1.88-.13-2.85-.05-2.61-.05-2.61.44-6.56C198.52 106.6 198.52 106.6 201 107Z"/><path fill="#633b11" d="M96 274c2.84-.4 2.84-.4 6.5-.38 1.21 0 2.41-.01 3.66-.02.47.07.47.07 2.84.4v3h-2c-.12 2.73-.09 5.29.06 8 .02.76.03 1.53.05 2.31.11 2.19.11 2.19.89 5.69 2.56.38 2.56.38 5 0v2c2.37.21 4.63.28 7 .27h2.15c1.51 0 3.02 0 4.52-.01 2.32-.01 4.64 0 6.95.01H138c.35 0 .35 0 2.12.01 1.63-.02 3.26-.14 4.88-.28v-2h2c.25-3 .25-3 0-6h-2v-3h-2v-2h-3v-3h3v2l3 1v2h2v2h2c.3 2.19.3 2.19.31 5 .02.93.04 1.86.05 2.81q-.18 1.08-.36 2.19h-3v2c-2.59.21-5.07.28-7.66.27h-2.35c-1.65 0-3.3 0-4.94-.01-2.54-.01-5.07 0-7.61.01h-4.78c-.77 0-1.53 0-2.32.01-1.78-.02-3.56-.14-5.34-.28v-2l-3 .06-3-.06v-3h-2c-.09-3.24.01-6.43.17-9.67.05-2.05.05-2.05-.17-5.33h-3a65 65 0 0 0 0 7.5c.14 2.56.15 4.93 0 7.5h-3v3q-3 .06-6 0v2c-2.51.21-4.92.28-7.44.27h-2.28c-1.61 0-3.21 0-4.81-.01-2.46-.01-4.92 0-7.38.01h-4.65c-.75 0-1.49 0-2.26.01-1.73-.02-3.46-.14-5.18-.28v-2h-2c-.27-2.19-.27-2.19-.25-5-.01-.93-.01-1.86-.02-2.81q.135-1.08.27-2.19h2c.16-.66.33-1.32.5-2 .16-.66.33-1.32.5-2h2v-3h3v3h-2v2h-2v3h-2c-.79 5.26-.79 5.26 0 8 2.89.87 4.5.99 7.44.85.75-.01 1.51-.01 2.28-.02 1.61-.02 3.21-.06 4.81-.12 2.46-.08 4.92-.12 7.38-.14l4.65-.09c.37-.01.37-.01 2.26-.05 1.73-.06 3.46-.23 5.18-.43v-2c.81.12 1.61.25 2.44.38.85-.13 1.69-.25 2.56-.38.63-2.86.88-5.12.94-8l.12-2.31c.08-1.9.02-3.8-.06-5.69h-2Z"/><path fill="#e2d2c1" d="M181 26h2c.21 2.66.28 5.21.27 7.88v2.42c0 1.69 0 3.39-.01 5.08-.01 2.61 0 5.22.01 7.82v4.92c0 .79 0 1.58.01 2.39-.02 1.83-.14 3.66-.28 5.49h-2c-.38 3-.38 3 0 6h4v2c-1.33.33-2.67.67-4 1v2c.58.06.58.06 3.5.38 1.16.2 2.31.41 3.5.62v4c-1.75.18-1.75.18-4-.12-2.19-.14-2.19-.14-4 .12-1 3-1 3 0 6 2.18.39 4.05.24 6.25.02.58-.01 1.16-.01 1.75-.02v2c-2.84.27-2.84.27-6.5.25-.6 0-.6 0-3.66.02-.93-.09-1.87-.18-2.84-.27v-2h4c.46-1.75.46-1.75.38-4-.02-.74-.03-1.48-.04-2.25-.11-.58-.23-1.16-.34-1.75h-2v-6h-2c.02 1.97.02 1.97.25 4.5.08 2.52.08 2.52-.25 4.5-3 .25-3 .25-6 0-.31 2.5-.31 2.5 0 5h-1l.06-2.5L168 79h-2c-.85 2.62-1.2 5.25-1 8 2.25 1 2.25 1 4 1a93 93 0 0 0-5 0v2h-3v3c-2.5.94-2.5.94-5 1v-4h2v-2c.5-.05.5-.05 3-.31.5-.12.5-.12 3-.69.56-2.56.56-2.56 0-5h-3v2c-2.5.25-2.5.25-5 0v-2h2v-3h3v-3h3v-2h3v-3h4v-3c1.75-.08 1.75-.08 4 .19 2.2.1 2.2.1 4-.19.75-3 .75-3 0-6h-4v-3l2.48.18c.83-.06 1.66-.12 2.52-.18.45-2.39.45-2.39.25-5.81-.04-1.26-.09-2.52-.13-3.81-.03-.7-.05-1.39-.08-2.11-.08-4.22.13-8.43.34-12.65l.09-2.57c.1-2.02.3-4.04.53-6.05"/><path fill="#2a4f35" d="M27 150c2.19-.27 2.19-.27 5-.25.93-.01 1.86-.01 2.81-.02.36.05.36.05 2.19.27v2l3-.06 3 .06v3c-3 .31-3 .31-6 0v-2c-1.93-.3-1.93-.3-4.44-.31-.82-.02-1.64-.04-2.49-.05-.69.12-1.37.24-2.07.36l-1 3h-2v2h2v8h2c-.06-.41-.06-.41-.38-2.5.13-.82.25-1.65.38-2.5 2.86-.6 5.05-.34 8 0-1.38.94-1.38.94-4 2-2 1-2 1-3.81 4.44-.39 1.17-.79 2.35-1.19 3.56l3 2c.16 1.2.33 2.39.5 3.62.16 1.12.33 2.23.5 3.38h3c.04-1.67.04-3.33 0-5h2c.27 2.19.27 2.19.25 5 .01.93.01 1.86.02 2.81q-.135 1.08-.27 2.19h-2c-.21 2.71-.28 5.29-.25 8-.01.76-.02 1.53-.02 2.31 0 1.9.13 3.8.27 5.69h2v2c2.62.11 5.19-.07 7.81-.22.72.07 1.45.14 2.19.22v3c-2.64.23-5.17-.01-7.81-.19-.72.06-1.45.13-2.19.19v3h-2v2h-3v-2h2v-3c-2.19-.22-2.19-.22-5-.06-2.81.15-2.81.15-5 .06v-2l-2.5.06L19 204v-3h3v2c3.5.44 3.5.44 7 0 .25-2.5.25-2.5 0-5h3c.26-2.77.26-2.77.12-6.38-.21-6.45-.21-6.45.88-8.62h-2v-3h-2v-2h-2v-4h-3c-1.96-4.3-2.27-8.19-2.25-12.88-.01-1.15-.01-2.3-.02-3.49.05-.43.05-.43.27-2.63h2v-3h3Z"/><path fill="#fcb928" d="M135 237c2.5-.31 2.5-.31 5 0v2c1.16.14 2.31.29 3.5.44 1.16.18 2.31.37 3.5.56v3h3c.37 1.66.71 3.33 1 5h2c.27 1.75.27 1.75.25 4 .01.74.01 1.49.02 2.25-.09.58-.18 1.16-.27 1.75h-2v2h-3v3l-3 1-1 3h-4v-2c-.41.06-.41.06-2.49.34-.83-.11-1.66-.22-2.51-.34-.34-2.69-.38-4.83-.19-7.5.14-2.52.21-4.98.19-7.5h-2c-.27-1.75-.27-1.75-.25-4-.01-.74-.01-1.49-.02-2.25.05-.29.05-.29.27-1.75h2Z"/><path fill="#c0b0a3" d="M6 222h3c-.18 1.67-.45 3.32-.75 4.97-.08 2.77-.08 2.77.75 5.03 4.92 1.39 9.95.83 15 .5 2.14-.1 4.28-.19 6.42-.26 1.94-.08 3.88-.19 5.83-.31.9.02 1.81.05 2.75.07v2h4v3h4v3c1.75.26 1.75.26 4 .12 1.33-.06 2.67-.11 4-.12v1c-1.65.11-3.3.14-4.96.15-1.08 0-2.16.01-3.27.01-.59.01-.59.01-3.58.01-1.2 0-2.4 0-3.63.01-2.55 0-5.09.01-7.63.01-3.91 0-7.82.02-11.73.03-2.47.01-4.93.01-7.39.01-.59 0-.59 0-3.58.02-.54 0-.54 0-3.27-.01-.48 0-.48 0-2.91.01-.68-.08-1.35-.17-2.05-.25v-2c.82.13 1.64.27 2.49.41.83-.14 1.66-.27 2.51-.41.31-3 .33-5.52.12-8.5A96 96 0 0 1 6 222"/><path fill="#f98a26" d="M58 188c2.84-.27 2.84-.27 6.5-.25.6 0 .6 0 3.66-.02.93.09 1.87.18 2.84.27v2h3c.4 2.41.4 2.41.38 5.5 0 1.02.01 2.04.02 3.09-.13.8-.26 1.59-.4 2.41h-3v2c-1.06 1.62-1.06 1.62-3 3-6.14.43-6.14.43-9-1-.25 2.94-.25 2.94 0 6h2v3h3v3h2v2l2.5-.06 2.5.06v3h4v2h7v2c-1.75.27-1.75.27-4 .25-.37 0-.37 0-2.25.02-.58-.09-1.16-.18-1.75-.27v-2h-5v-2h-3v-2h-3v-3h-3v-3h-2v-2l-3-1c-.04-1.67-.04-3.33 0-5h-2v-3c.64.16 1.28.33 1.94.5.68.16 1.36.33 2.06.5l1-3h-2c-.27-2.41-.27-2.41-.25-5.5-.01-1.02-.01-2.04-.02-3.09.05-.4.05-.4.27-2.41h2Z"/><path fill="#b9aa9e" d="M142 232c2.16-.29 2.16-.29 5.23-.34 1.14-.02 2.28-.04 3.46-.07l3.78-.03c.63-.01.63-.01 3.83-.04 2.69-.03 5.37-.04 8.05-.06 3.45-.01 6.9-.07 10.35-.14 3.28-.05 6.56-.06 9.83-.07l3.78-.09c5.84.03 5.84.03 8.69.84 1 3.5 1 3.5 0 7-3.03.65-4.98.76-8 .56-.76-.01-1.53-.03-2.31-.04-2.19-.08-2.19-.08-5.69-.52v-2h-2v2c-2.19.27-2.19.27-5 .25-.46 0-.46 0-2.81.02q-1.08-.135-2.19-.27v-2h-2v2c-2.41.27-2.41.27-5.5.25-1.02.01-2.04.01-3.09.02-.8-.09-1.59-.18-2.41-.27v-2h-2v2c-1.97.27-1.97.27-4.5.25-.84.01-1.67.01-2.53.02-.65-.09-1.3-.18-1.97-.27v-2h-2v-3h-3Z"/><path fill="#a6a29f" d="M185 96c3-.88 3-.88 6 0v3h3v2h2c.28 2.88.43 5.65.48 8.53 0 .43 0 .43.05 2.62l.06 5.51c.03 2.83.12 5.65.21 8.48.02 1.77.04 3.55.05 5.33.04.85.07 1.7.11 2.58-.02 2.37-.02 2.37-.96 5.95-2.25.97-3.77 1.01-6.2.74-.6-.24-1.19-.49-1.8-.74-.8-2.83-.88-4.36-.68-7.22l.06-2.22c.07-2.36.18-4.71.31-7.06.09-2.35.18-4.71.25-7.06.05-1.47.11-2.94.19-4.41.08-2 .08-2-.13-5.03h-3c-.77-3.69-.76-7.3 0-11"/><path fill="#294c2f" d="M169 180h4v2h-2l1 3c.12 2.74.19 5.45.19 8.19l.03 2.27c.01 1.85-.09 3.7-.22 5.54h-2c-.34 1.75-.34 1.75-.5 4s-.16 2.25-.5 4h-2c-.44 2.5-.44 2.5 0 5 2.5.62 2.5.62 5 0 .19-2.5.19-2.5 0-5h2l1-3c-.04.38-.04.38-.25 2.31.04.45.04.45.25 2.69l2.5-.06 2.5.06c.19 3 .19 3 0 6h2l1-3c.38 5.84.38 5.84 0 8h-3v2h-3v-2c-2.2-.18-2.2-.18-5.25-.09l-3.28.06c-2.31.06-4.63.13-6.94.2-1.08.01-2.16.03-3.28.05l-3.05.09c-.72-.1-1.45-.2-2.2-.31v-3h3v-2h2v-3h3v-3h3v-2h2c.16-.99.33-1.98.5-3 .16-.99.33-1.98.5-3h2c.16-2.11.16-2.11.05-5.03-.02-1.04-.04-2.08-.07-3.15-.07-2.21-.15-4.43-.23-6.64-.03-1.04-.05-2.08-.07-3.15-.03-.96-.07-1.93-.1-2.92Z"/><path fill="#874844" d="M182 96h2c.28 2.07.28 2.07.32 5.03l.06 3.35.03 3.7.06 3.81c.05 3.42.1 6.83.13 10.24.03 2.81.07 5.62.1 8.42.06 4.89.12 9.77.17 14.66.07 7.04.16 14.08.31 21.12.07 3.4.12 6.8.16 10.2q.03 2.28.09 4.56c.06 2.06.08 4.12.09 6.18l.06 3.39c-.19.77-.38 1.55-.58 2.34-2.51.62-2.51.62-5 0-.52-1.74-.52-1.74-.38-4.16l.09-2.59c.05-.91.11-1.82.17-2.75q.135-2.67.24-5.34c.04-.8.09-1.6.14-2.42-.08-.57-.17-1.15-.26-1.74h-3c-.38-2.5-.38-2.5 0-5h3c.22-3.06.22-3.06.06-7-.09-2.33-.13-4.67-.06-7h2c.23-2.24.23-2.24.2-5.42-.01-1.18-.02-2.36-.02-3.58l-.06-3.91-.03-6c-.02-3.53-.06-7.06-.09-10.59-.04-4.21-.08-8.42-.1-12.63-.02-2.62-.04-5.25-.08-7.87 0-1.19-.01-2.37-.02-3.58l-.03-3.18c.04-.37.04-.37.23-2.24"/><path fill="#d6c7b4" d="M185 107h3c.35 3.11.49 6.02.51 9.14l.06 2.88c.05 3.08.08 6.15.12 9.23.03 2 .07 4 .1 6 .13 7.9.24 15.79.16 23.7l-.03 2.83c-.02 1.77-.04 3.54-.08 5.32-.02 1.97.06 3.93.16 5.9h2c.18 2.48.23 4.84.19 7.31v2.09c-.03 3.13-.2 5.62-1.19 8.6-2.52.66-2.52.66-5 0-.54-2.73-.66-4.87-.62-7.62 0-.81-.01-1.62-.01-2.45-.01-2.7.01-5.39.04-8.09v-5.58c0-3.91.02-7.81.05-11.72.04-5.03.04-10.05.03-15.07 0-3.85.01-7.69.03-11.54.01-1.85.01-3.71.01-5.56 0-2.58.02-5.17.05-7.75 0-.78-.01-1.55-.01-2.35.04-2.12.04-2.12.43-5.27"/><path fill="#364616" d="M147 222c3-.25 3-.25 6 0v2l-2.44-.12-2.56.12c-.69 2.06-.69 2.06-1 4l-2-1v2c3.5.11 6.95-.07 10.45-.22.42.03.42.03 2.55.22-.69 1.5-.69 1.5-3 3-3.14.22-3.14.22-6.69.06-3.57-.15-3.57-.15-6.31-.06v2c-2.5.25-2.5.25-5 0v-2h-4v-3c-1.94-.34-1.94-.34-4.68-.29-.51 0-.51 0-3.1.03-1.11.02-2.23.05-3.38.07-1.13.01-2.26.03-3.43.04-3.63.03-7.27.09-10.91.15-4.78.08-9.56.14-14.34.19-1.12.02-2.23.05-3.38.07-.51.01-.51.01-3.1.03-.9.02-1.81.03-2.74.05-.64-.11-1.28-.22-1.94-.34v-3c2.16-.35 2.16-.35 5.23-.31.57 0 .57 0 3.46.02.62.01.62.01 3.78.07 1.26.01 2.53.02 3.83.02 3.38.03 6.75.07 10.12.11q7.14.09 14.28.15c2.53.02 5.07.05 7.61.09l3.46.03c.5.01.5.01 3.07.04.35-.04.35-.04 2.16-.22v-2h8Z"/><path fill="#fbbe2e" d="M70 277c3.5-.25 3.5-.25 7 0v2l2.5-.06 2.5.06v3h3c.69 3.38.69 3.38 0 7-6.77 3.11-17.41 3.61-24.43 1.15-.52-.38-1.04-.76-1.57-1.15.12-2.62.12-2.62 1-5h2v-2h2v-3q3-.06 6 0Z"/><path fill="#fcbf2e" d="M128 277c3.5-.25 3.5-.25 7 0v2l2.5-.06 2.5.06v3h3v2h2c.31 2.94.31 2.94 0 6-3.81 1.27-7.41 1.18-11.38 1.19l-2.28.03c-4.14.02-7.7-.01-11.34-2.22-.62-3.56-.62-3.56 0-7 2.5-.81 2.5-.81 5-1v-2h3Z"/><path fill="#c1defc" d="M133 40c3.5-.25 3.5-.25 7 0v2h2c-.03.4-.03.4-.19 2.44.06.84.13 1.69.19 2.56 2.5.62 2.5.62 5 1v3c-1.67.04-3.33.04-5 0v2c-2.36.15-4.67-.01-7.03-.12L133 53v2c-3.5.25-3.5.25-7 0v-2h-6v-2l-2.5.06L115 51v-3l3-1 1-2c3.56-.25 3.56-.25 7 0v2h4c.04-1.67.04-3.33 0-5h3Z"/><path fill="#834f14" d="M130 242h2c.34 1.67.67 3.33 1 5l2 1c.02 3.26-.11 6.47-.34 9.72-.08 2.03-.08 2.03.34 5.28 2.51.34 2.51.34 5 0v2h4c.37-1.32.71-2.66 1-4h3v-3h3v-2h2c.11-2.11-.07-4.15-.22-6.25.07-.58.14-1.16.22-1.75h3c.4 2.84.4 2.84.38 6.5 0 1.21.01 2.41.02 3.66-.13.93-.26 1.87-.4 2.84h-3v5h-3v2c-2.62.27-2.62.27-6 .25-.56 0-.56 0-3.38.02-.86-.09-1.73-.18-2.62-.27v-2c-2.5-.44-2.5-.44-5 0-.12 2.5-.12 2.5 0 5h-3v3h6v3h4v2c-2.5.25-2.5.25-5 0v-2c-1.16-.08-2.31-.17-3.5-.25-1.16-.25-2.31-.5-3.5-.75-.56-3.06-.56-3.06 0-6h2v-4h2c.2-3.04.28-5.96.25-9 0-.43 0-.43.02-2.6 0-2.14-.13-4.27-.27-6.4h-2c-.25-3-.25-3 0-6"/><path fill="#218bf8" d="M201 104h2c.25 2.16.25 2.16.26 5.23.01 1.14.01 2.28.02 3.46-.01 1.25-.01 2.49-.01 3.78v3.83c0 2.69 0 5.37-.01 8.05-.01 3.45 0 6.9.01 10.35.01 3.28 0 6.56 0 9.83 0 1.25 0 2.49.01 3.78-.01 1.14-.01 2.28-.02 3.46 0 1.01 0 2.02-.01 3.07-.08.71-.16 1.42-.25 2.16h-2c-.12-3.46-.04-6.86.08-10.31.04-1.9-.01-3.8-.08-5.69h-2c-.18-1.74-.18-1.74-.09-4.16l.06-2.59c.06-1.83.13-3.67.2-5.5.01-.85.03-1.71.05-2.59l.09-2.42L199 126h-3c-.74-3.09-.51-6.33-.5-9.5l-.09-2.75c0-2.36-.01-4.46.59-6.75 2.53-.41 2.53-.41 5 0Z"/><path fill="#378344" d="M14 188c2.19-.27 2.19-.27 5-.25.93-.01 1.86-.01 2.81-.02.36.05.36.05 2.19.27v2c.41.08.41.08 2.5.5.41.08.41.08 2.5.5v2h3c.38 2.5.38 2.5 0 5h-3l.25 2.5L29 203c-3.5.44-3.5.44-7 0v-2h-3v-3h-3v-2h-2c-.12.82-.25 1.65-.38 2.5-.1.41-.1.41-.62 2.5H9c-.46-1.75-.46-1.75-.38-4 .02-.74.03-1.49.04-2.25.11-.58.23-1.16.34-1.75h2v-3h3Z"/><path fill="#583717" d="M88 121c2.75-.39 2.75-.39 6.56-.4.67 0 1.33 0 2.02-.01 1.41 0 2.83.01 4.24.02 2.17.01 4.34 0 6.52-.02 1.36 0 2.73.01 4.1.01 1.25 0 2.51.01 3.81.01.45.07.45.07 2.75.39v3c2.33.04 4.67.04 7 0v2l3.5-.06 3.5.06v3c1.67.04 3.33.04 5 0v2c-3 .25-3 .25-6 0v-2c-2-.05-4-.04-6 0-1.67-.32-3.34-.65-5-1h-4c-.06-.33-.06-.33-.39-1.97-.1-.34-.1-.34-.61-2.03-2.5-.49-2.5-.49-5.79-.46-.58 0-.58 0-3.54.01-1.23.03-2.46.05-3.73.07-1.24.01-2.47.01-3.75.01-6.71.07-6.71.07-9.19.37v2l-3.5-.06-3.5.06v3c-2.33.04-4.67.04-7 0v2h-4v3c-2.5.38-2.5.38-5 0v-3h3v-3c1.67-.04 3.33-.04 5 0v-2h7v-2l3.5.06L88 124Z"/><path fill="#3c8639" d="M183 201c2.5-.25 2.5-.25 5 0v2h3v-2h3v2h2v-2c3.5-.81 3.5-.81 7 0 .81 3.7.68 7.28 0 11h-2v2c-2.5.44-2.5.44-5 0-.12-2.5-.12-2.5 0-5h-3v2h-2v-2h-3v-3h-3v3c-1.67.04-3.33.04-5 0v2c-2.5.44-2.5.44-5 0-.62-2.5-.62-2.5 0-5 2.5-.12 2.5-.12 5 0v-3h3Z"/><path fill="#24325a" d="M68 104c3-.38 3-.38 6 0v3h-3c-.4 1.75-.4 1.75-.38 4 0 .74-.01 1.48-.02 2.25.13.58.26 1.16.4 1.75h3c.38 3 .38 3 0 6h-3v3c-2.5.38-2.5.38-5 0v-3c-1.67-.04-3.33-.04-5 0v-2h-3v2h-2v3c-1.67.04-3.33.04-5 0v2h-4v-2h-2c-.11-2.88.07-5.72.22-8.59-.07-.8-.14-1.59-.22-2.41h-3v-3h-2v-3h3v2h2v3h2c-.07 1.5-.2 3-.38 4.5-.08 2.48-.08 2.48.38 4.5 2.71 1.07 5.26.95 8 0v-3h3v-2h3v2c3.5.5 3.5.5 7 0 .56-3 .56-3 0-6h-2c-.25-2.5-.25-2.5 0-5h2Z"/><path fill="#ddc7b2" d="M52.563 240.813c.8.06 1.61.12 2.44.19v2c2.53.09 4.97.09 7.5-.0004999999999881766 2.52-.09 4.97-.1 7.5-.001v2h-2c.11.81.22 1.63.34 2.47-.11.83-.23 1.67-.34 2.53-2.72.46-4.79.56-7.5.43-.36 0-.36 0-2.17-.01-2.05-.05-2.05-.05-5.33-.42v-2c-.65.28-1.3.56-1.98.86-3.91 1.47-7.32 1.43-11.46 1.39-.76.01-1.51.01-2.29.02-2.14-.01-2.14-.01-5.27-.27l2-2h3v-2c2.59-1.04 2.59-1.04 5.94-2.07 3.28-1.01 6.37-2.88 9.62-3.12"/><path fill="#4c7215" d="M11 222c2.2-.52 2.2-.52 5.25-.53 1.08-.01 2.17-.01 3.28-.02.57.01.57.01 3.47.05 1.14-.02 2.29-.03 3.47-.05.54.01.54.01 3.28.02 1.01 0 2.01.01 3.05.01.72.17 1.45.34 2.2.52v4h2v3h3v3h3v2h-4v-2c-2.97-1.08-5.85-1.13-8.98-1.18-.47-.01-.47-.01-2.84-.07q-2.955-.06-5.91-.09l-2.82-.09c-.85-.01-1.71-.02-2.59-.04-.61-.17-1.23-.35-1.86-.53v-4h-3Z"/><path fill="#4b2e1b" d="M43 234c2.5-.38 2.5-.38 5 0v3c1.75.22 1.75.22 4 .06 2.25-.15 2.25-.15 4-.06v2c1.07-.16 2.14-.33 3.25-.5 4.74-.67 7.45-.88 11.75 1.5 2.25 7.5 1.38 15.9.92 23.63.03.78.05 1.56.08 2.37h2l1 3 1.56 1.56L78 272v2h-3v3c-1.67.04-3.33.04-5 0v2c-3 .25-3 .25-6 0v-2h4v-3l3 .06 3-.06v-4h-3q-.06-3 0-6h-2c-.24-1.71-.24-1.71-.23-4.09 0-.84 0-1.69.01-2.57 0-.44 0-.44.03-2.72v-2.69c.05-6.65.05-6.65 1.19-8.93-3.23-.09-6.4.01-9.62.17-2.06.05-2.06.05-5.38-.17v-3h-8v-3h-4Z"/><path fill="#352d26" d="M111 175c2.5-.38 2.5-.38 5 0v3h2c.2 3.04.28 5.96.25 9 .01.86.02 1.72.02 2.6 0 2.14-.13 4.27-.27 6.4h-2v2c-2.5.25-2.5.25-5 0v-2h-2c-.2-3.04-.28-5.96-.25-9-.01-.86-.02-1.72-.02-2.6 0-2.14.13-4.27.27-6.4h2Z"/><path fill="#8d5e19" d="M27 150c2.19-.27 2.19-.27 5-.25.93-.01 1.86-.01 2.81-.02.36.05.36.05 2.19.27v2l3-.06 3 .06v3c-3 .31-3 .31-6 0v-2c-1.93-.3-1.93-.3-4.44-.31-.82-.02-1.64-.04-2.49-.05-.69.12-1.37.24-2.07.36l-1 3h-2v2h2v8h2c-.12-.82-.25-1.65-.38-2.5.07-.41.07-.41.38-2.5 2.86-.6 5.05-.34 8 0-1.38.94-1.38.94-4 2-2 1-2 1-3.81 4.44-.39 1.17-.79 2.35-1.19 3.56l3 2c1 2.62 1 2.62 1 5-2.44.56-2.44.56-5 0v-4h-3c-1.96-4.3-2.27-8.19-2.25-12.88-.01-1.15-.01-2.3-.02-3.49.09-.87.18-1.73.27-2.63h2v-3h3Z"/><path fill="#786f6a" d="M199 222h2c1.88 5.32 2.23 11.58 1.06 17.07-1.06 1.93-1.06 1.93-3.04 2.96-7.21 1.52-14.72.74-22.02.28-3.42-.14-6.85-.26-10.27-.35-2.14-.06-4.28-.17-6.41-.3-4.98-.22-4.98-.22-7.32.34-.53 3.01-.53 3.01 0 6h-2c-.14-.82-.29-1.65-.44-2.5-.18-.82-.37-1.65-.56-2.5h-3v-3h-2v-3h2v2c1.97.27 1.97.27 4.5.25.42 0 .42 0 2.53.02.65-.09 1.3-.18 1.97-.27v-2h2v2c2.41.27 2.41.27 5.5.25 1.02.01 2.04.01 3.09.02.8-.09 1.59-.18 2.41-.27v-2h2v2c2.19.27 2.19.27 5 .25.93.01 1.86.01 2.81.02q1.08-.135 2.19-.27v-2h2v2c5.55.35 5.55.35 8 0l1-2v2c3.48.66 3.48.66 7 0 .52-3.16.57-5.37.31-8.5-.17-2.84-.27-5.65-.31-8.5"/><path fill="#e89314" d="M43 159h2c.31 2.5.31 2.5 0 5h-3c-.04 1.67-.04 3.33 0 5h-2c.06.99.12 1.98.19 3-.06.99-.13 1.98-.19 3-1.67.04-3.33.04-5 0-.12 2.5-.12 2.5 0 5h-3c-.14-1.11-.29-2.23-.44-3.38-.18-1.19-.37-2.39-.56-3.62-.7-.32-1.4-.64-2.12-.98-.31-.17-.31-.17-1.88-1.02.45-3.08 2.13-5.55 4-8 4.08-2.13 7.49-2 12-2Z"/><path fill="#5e7181" d="M177 96h4c1.03 3.08 1.15 5.26 1.19 8.48.02 1.12.03 2.24.05 3.4.05 5.09.09 10.18.11 15.27.01 2.7.04 5.39.08 8.09.06 3.87.08 7.74.09 11.62.03 1.21.05 2.43.07 3.68 0 .55 0 .55-.01 3.37.01.49.01.49.03 2.98-.2.7-.4 1.39-.61 2.11-2.54.51-2.54.51-5 0v-3h3c.42-1.82.42-1.82.48-4.41l.09-2.91c.01-1.05.03-2.1.04-3.18.01-.53.01-.53.05-3.23q.045-3.39.06-6.78c.03-3.48.12-6.95.22-10.43.02-2.18.03-4.37.04-6.56l.12-3.18c-.05-4.96-.05-4.96-1.1-7.32-2.54-.69-4.43-.52-7.03-.13-.65.04-1.3.09-1.97.13-.38-2.44-.38-2.44 1-5 2.56-.69 2.56-.69 5-1Z"/><path fill="#aa7820" d="M156 150h2v4h3v-2h5v-2c2.41-.3 2.41-.3 5.5-.31 1.02-.02 2.04-.04 3.09-.05.8.12 1.59.24 2.41.36v3c-1.98.72-3.98 1.38-6 2l-1 2 2 2-1 2-2.56-.06-2.44.06v3h-2v2h-3c-.04-1.67-.04-3.33 0-5h-2c-.33-2-.67-4-1-6h-2c-.25-2.5-.25-2.5 0-5"/><path fill="#231d17" d="M87 175h4v2h-3c-.31 3-.31 3 0 6h2c.14-.82.29-1.65.44-2.5.18-.82.37-1.65.56-2.5h3c.28 3.08.37 5.93.31 9 .01.86.01 1.72.01 2.6-.02 2.14-.16 4.27-.32 6.4h-2v2c-2.5.25-2.5.25-5 0v-2h-2c-.2-3.04-.28-5.96-.25-9-.01-.86-.02-1.72-.02-2.6 0-2.14.13-4.27.27-6.4h2Z"/><path fill="#827d7d" d="M6 222h3c.05 3.72-.14 7.34-.47 11.04-.11 2.34-.11 2.34.47 5.96 2.99-.02 2.99-.02 4.92-.53 2.26-.51 3.97-.43 6.26-.17.7.07 1.4.14 2.12.21 1.45.16 2.91.34 4.35.53 2.1.19 2.1.19 5.35-.04.35-2.48.35-2.48 0-5h2c-.08.82-.16 1.64-.25 2.48.08.83.16 1.66.25 2.52 2.56.45 2.56.45 6 .25 5.18-.2 9.89-.15 15 .75v1c-1.65.11-3.3.14-4.96.15-1.08 0-2.16.01-3.27.01-.59.01-.59.01-3.58.01-1.2 0-2.4 0-3.63.01-2.55 0-5.09.01-7.63.01-3.91 0-7.82.02-11.73.03-2.47.01-4.93.01-7.39.01-.59 0-.59 0-3.58.02-.54 0-.54 0-3.27-.01-.48 0-.48 0-2.91.01-.68-.08-1.35-.17-2.05-.25v-2c.82.13 1.64.27 2.49.41.83-.14 1.66-.27 2.51-.41.31-3 .33-5.52.12-8.5A96 96 0 0 1 6 222"/><path fill="#e5cfbb" d="M7 258c4.16-.49 8.38-.32 12.56-.31 1.2-.02 2.4-.03 3.64-.05h3.43c1.05-.01 2.1-.01 3.19-.01.72.12 1.44.24 2.18.37l-1 3c-1.33.36-2.66.7-4 1v2c-4.31.5-8.67.32-13 .31-1.24.02-2.48.03-3.76.05H6.69c-.55 0-.55 0-3.3.01-.4-.06-.4-.06-2.39-.37v-3c1.99-.37 3.99-.71 6-1Z"/><path fill="#a2580f" d="M82 226c1.82-.38 1.82-.38 4.41-.39l2.91-.03c.52.01.52.01 3.18.02.53 0 .53 0 3.23-.01 2.26 0 4.52.01 6.78.02 3.47.01 6.95 0 10.43-.02 2.19 0 4.37.01 6.56.01 1.05 0 2.1-.01 3.18-.02.48.01.48.01 2.91.03.43 0 .43 0 2.59.01.3.06.3.06 1.82.38v3c-1.82.38-1.82.38-4.41.39l-2.91.03c-.52-.01-.52-.01-3.18-.02-.53 0-.53 0-3.23.01-2.26 0-4.52-.01-6.78-.02-3.47-.01-6.95 0-10.43.02-2.19 0-4.37-.01-6.56-.01-1.05 0-2.1.01-3.18.02-.48-.01-.48-.01-2.91-.03-.43 0-.43 0-2.59-.01-.6-.12-1.2-.25-1.82-.38Z"/><path fill="#e9d7c3" d="M186 110h2c.26 2.86.38 5.62.41 8.48l.06 2.69q.09 4.29.15 8.58l.12 5.56c.1 4.63.16 9.25.22 13.88.04 2.89.1 5.77.17 8.66.03 1.85.05 3.69.08 5.54.02.87.05 1.74.07 2.63.03 2.39.03 2.39-.28 5.98h-3c-.37-2.35-.37-2.35-.37-5.69-.01-1.24-.01-2.48-.02-3.76l.03-4.11v-4.17c0-2.92.01-5.84.02-8.76.03-3.75.03-7.51.02-11.26 0-2.87 0-5.74.01-8.61.01-1.39.01-2.77.01-4.16q0-2.895.03-5.79c0-1.1 0-2.2.01-3.34.09-.77.17-1.55.26-2.35"/><path fill="#73777b" d="M171 91c2.02-.26 2.02-.26 4.81-.27h3.01c.52 0 .52 0 3.18.02 1.05-.01 2.1-.02 3.18-.02h3.01c.92.01 1.84.01 2.79.01.67.09 1.33.17 2.02.26v2l2.5-.06 2.5.06v3c-3.5.31-3.5.31-7 0v-2c-2.71-.21-5.29-.28-8-.25-.38 0-.38 0-2.31-.02-1.9 0-3.8.13-5.69.27v2l-3-.06-3 .06v3h-3v2c-2.5.25-2.5.25-5 0v-2h2c.16-.66.33-1.32.5-2 .16-.66.33-1.32.5-2h2v-2h5Z"/><path fill="#53912a" d="M9 206c3.5-.38 3.5-.38 7 0v3q3 .06 6 0v2h2v3c-1.75.4-1.75.4-4 .38-.74 0-1.48.01-2.25.02-.58-.13-1.16-.26-1.75-.4v-3h-2v3c-2.65.14-5.18-.14-7.81-.38-.72.12-1.45.25-2.19.38-.12 2.51-.12 2.51 0 5H1c-.4-1.75-.4-1.75-.38-4 0-.37 0-.37-.02-2.25.13-.58.26-1.16.4-1.75h3v-2l2.5.06L9 209Z"/><path fill="#a9d1fb" d="M14 74c2.5-.44 2.5-.44 5 0v2h2v3h6v3c-2.41.22-2.41.22-5.5.06-3.09-.15-3.09-.15-5.5-.06v2c-3.5.25-3.5.25-7 0v-2c-1.75.02-1.75.02-4 .25-2.21.08-2.21.08-4-.25-.69-3-.69-3 0-6h3v3c2.19.47 2.19.47 5 .5l2.81.09c.72-.19 1.45-.39 2.19-.59.16-2.5.16-2.5 0-5"/><path fill="#73757f" d="M183 40h2c.13 1.74.13 1.74-.02 4.16-.01.42-.01.42-.1 2.59-.09 1.84-.19 3.67-.31 5.5-.15 4.52-.15 4.52.43 6.75 2.95.31 2.95.31 6 0 1.18 2.47 1.01 4.27.88 6.97L191 68c-3.47 1.25-6.51 1.12-10 0-.75-3-.75-3 0-6h2c-.32-2-.66-4-1-6-.04-2.8.13-5.58.31-8.38.04-.73.07-1.47.11-2.23.11-1.8.34-3.6.58-5.39"/><path fill="#dbcbb5" d="M177 174h3c.39 1.74.39 1.74.4 4.16 0 .85.01 1.71.01 2.59l-.03 2.75.03 2.75c0 .85-.01 1.71-.01 2.59 0 .8-.01 1.6-.01 2.42q-.195.855-.39 1.74h-3v-2h-2v2h-3c-.58-2.41-.58-2.41-.81-5.5-.09-1.02-.18-2.04-.27-3.09.03-.8.05-1.59.08-2.41h2v-2h3c.16-.99.33-1.98.5-3 .16-.99.33-1.98.5-3"/><path fill="#e7d2bd" d="M66.188 265.625l2.73-.09c.69.16 1.37.31 2.08.47v4h3v4c-3.3.95-6.83.64-10.25.62-.98.03-1.97.06-2.99.1-4.7 0-4.7 0-6.76-.72 2.37-5.74 5.94-8.29 12.19-8.38"/><path fill="#727981" d="M185 96c3-.88 3-.88 6 0v3h3v2h2c.26 2.11.26 2.11.27 5.03v3.15c0 1.09-.01 2.19-.02 3.32.01 1.1.02 2.19.02 3.32v3.15c-.01.96-.01 1.93-.01 2.92-.09.7-.17 1.39-.26 2.11h-2c-.13-1.84-.13-1.84.02-4.38.03-.9.06-1.8.1-2.73.09-1.93.19-3.85.31-5.78.15-4.75.15-4.75-.43-7.11-3.02-.81-3.02-.81-6 0v3h-3c-.77-3.69-.76-7.3 0-11"/><path fill="#aba8a4" d="M185 68c2.41-.27 2.41-.27 5.5-.25 1.02-.01 2.04-.01 3.09-.02.4.05.4.05 2.41.27v2h3v4h2v2h2c.38 2.5.38 2.5 0 5h-4v-2h-3c-.31-.78-.62-1.57-.94-2.38-1.26-3.12-2.14-3.26-5.06-4.62v-3h-2c.12.83.25 1.65.38 2.5-.13.83-.25 1.65-.38 2.5-2.9.7-4.97.39-8 0l1-3c1.33-.36 2.66-.7 4-1Z"/><path fill="#e1cbb6" d="M51 276c2.82-.59 2.82-.59 6.12-.5.55.01.55.01 3.33.03.84.16 1.68.31 2.55.47v3h-2v3h-2l-1 3c-2.69.36-2.69.36-6 .31-1.09 0-2.19-.01-3.31-.01-.89-.1-1.78-.2-2.69-.3l-1-2h2v-2h2c.24-.81.49-1.63.74-2.47Z"/><path fill="#3f2411" d="M61 279h3v3h-2v2h-2v3h-2c-.79 5.25-.79 5.25 0 8 2.88.89 4.5 1.03 7.44.93.75.01 1.51.01 2.28.02 2.43.01 4.85-.03 7.28-.07 2.43-.02 4.85-.02 7.28-.01 1.51 0 3.02-.02 4.54-.04 1.73-.02 3.45.06 5.18.17v2c-2.51.21-4.92.28-7.44.27h-2.28c-1.61 0-3.21 0-4.81-.01-2.46-.01-4.92 0-7.38.01h-4.65c-.75 0-1.49 0-2.26.01-1.73-.02-3.46-.14-5.18-.28v-2h-2c-.27-2.19-.27-2.19-.25-5-.01-.93-.01-1.86-.02-2.81q.135-1.08.27-2.19h2c.16-.66.33-1.32.5-2 .16-.66.33-1.32.5-2h2Z"/><path fill="#61828e" d="M188 69h2l1 3c.42.24.42.24 2.56 1.44.81.51 1.61 1.03 2.44 1.56v4h3v2h4c.5 3.06.5 3.06 0 6-2 0-2 0-4-1v-2c-2.62-.02-5.2.2-7.81.42L189 84c-.44-2.51-.44-2.51 0-5h2c.31-2.5.31-2.5 0-5h-3c-.31-2.5-.31-2.5 0-5"/><path fill="#213d7e" d="M68 104c3-.38 3-.38 6 0v3h-3c-.4 1.75-.4 1.75-.38 4 0 .74-.01 1.48-.02 2.25.13.58.26 1.16.4 1.75h3c.38 3 .38 3 0 6h-3v3c-2.5.56-2.5.56-5 0-.44-3-.44-3 0-6h2c.25-3 .25-3 0-6h-2c-.25-2.5-.25-2.5 0-5h2Z"/><path fill="#814f13" d="M35 175h2c.27 2.19.27 2.19.25 5 .01.93.01 1.86.02 2.81-.05.36-.05.36-.27 2.19h-2c-.21 2.71-.28 5.29-.25 8 0 .38 0 .38-.02 2.31 0 1.9.13 3.8.27 5.69h2v2c2.62.11 5.19-.07 7.81-.22.72.07 1.45.14 2.19.22v3c-2.64.23-5.17-.01-7.81-.19-.72.06-1.45.13-2.19.19v3h-2v2h-3v-2h2c.26-2.48.26-2.48.27-5.91v-3.69c0-1.29-.01-2.57-.02-3.9.01-1.29.02-2.58.02-3.9v-3.69c-.01-.57-.01-.57-.01-3.43-.04-.41-.04-.41-.26-2.48h-2v-2h3c.04-1.67.04-3.33 0-5"/><path fill="#ead4be" d="M159 251c2.91-.21 5.71-.28 8.62-.25.81-.01 1.62-.02 2.45-.02 4.66.01 8.62.29 12.93 2.27v2l3 1c-3.59.31-7.22.19-10.81.19-.53 0-.53 0-3.22.03-.51.01-.51.01-3.05.01-.47 0-.47 0-2.85.01L164 256v-2c-.82-.16-1.65-.33-2.5-.5-.82-.16-1.65-.33-2.5-.5Z"/><path fill="#a49991" d="M9 232c3.5-.56 3.5-.56 7 0v2c2.33.07 4.61-.14 6.93-.32.34.05.34.05 2.07.32.59 2 .59 2 1 4 3.06.19 3.06.19 6 0v1c-3.82.41-7.66.42-11.5.5-.55.03-.55.03-3.32.16-5.4.1-5.4.1-8.18-.66-.94-3.5-.94-3.5 0-7"/><path fill="#b06813" d="M53 203h3v3h2c.33 1.67.67 3.33 1 5h2v3h3v3h2v2l2.5-.06 2.5.06v3h4v2h7v2c-1.75.27-1.75.27-4 .25-.37 0-.37 0-2.25.02-.58-.09-1.16-.18-1.75-.27v-2h-5v-2h-3v-2h-3v-3h-3v-3h-2v-2l-3-1c-.04-1.67-.04-3.33 0-5h-2Z"/></svg>