<!-- 온천 꿈돌이 PNG를 실제 SVG path로 벡터화한 이미지입니다. -->
<svg xmlns="http://www.w3.org/2000/svg" width="208" height="339" viewBox="0 0 208 339" role="img" aria-labelledby="hotspring-ggumdori-title hotspring-ggumdori-desc"><title id="hotspring-ggumdori-title">온천 꿈돌이</title><desc id="hotspring-ggumdori-desc">온천 로브를 입고 유성온천 테마를 표현하는 꿈돌이 마스코트</desc><path fill="#fab423" d="M57.37-37.593c15.41-3.87 30.79-4.83 46.63-4.78 1.21-.01 2.41-.01 3.66-.01 32.78.09 65.89 7.15 90.46 30.26 40.06 41.25 35.94 125.64 35.88 178.64 0 2.98 0 5.96.01 8.94-.03 138.74-.03 138.74-35.89 175.67-25.68 24.15-60.04 30.34-94.12 30.25-1.21 0-2.41 0-3.66.01-32.78-.09-65.89-7.15-90.46-30.26-40.06-41.26-35.94-125.64-35.88-178.65 0-2.98 0-5.96-.01-8.94.04-177.82.04-177.82 83.38-201.13"/><path fill="#1685fb" d="M17.426.74c.76 0 1.53-.01 2.31-.01 2.56-.01 5.13-.01 7.69-.001 1.84-.01 3.67-.01 5.5-.02C37.916.7 42.906.7 47.896.7c4.17 0 8.33 0 12.49-.01q14.73-.015 29.46 0c10.14 0 20.27-.01 30.41-.03 8.69-.02 17.39-.03 26.09-.02 5.19 0 10.39 0 15.59-.02 4.88-.01 9.77-.01 14.66-.001C178.386.63 180.176.62 181.976.619c2.45-.01 4.89-.01 7.34.01l2.16-.03c5.36.06 8.56 1.42 12.31 5.2 1.61 2.91 1.59 5.03 1.6 8.35l.03 3.76c0 1.35-.01 2.69-.02 4.04 0 1.39.01 2.77.01 4.16.01 2.89 0 5.79-.02 8.68-.01 3.72 0 7.44.02 11.17.01 2.85 0 5.71 0 8.56-.01 1.37 0 2.75 0 4.12.01 1.91 0 3.82-.02 5.73 0 1.09 0 2.18-.01 3.3-.12.77-.25 1.54-.38 2.33h-3v-3c-.82.12-1.65.25-2.5.38-.82-.13-1.65-.25-2.5-.38-.19-2.41.02-4.63.32-7.03-.11-.65-.21-1.3-.32-1.97-.82.05-1.64.1-2.48.16-.83-.05-1.66-.11-2.52-.16-.41-3.06-.41-3.06-.18-7 .12-2.33.2-4.67.18-7h-2c-.18-1.74-.18-1.74-.09-4.16l.06-2.59c.07-1.83.13-3.66.2-5.5l.06-2.59c.01-.4.01-.4.08-2.42-.1-.57-.2-1.15-.31-1.74h-3c-.2 2.94-.22 5.69-.12 8.63.02 1.73.05 3.47.07 5.21l.03 2.63c.03 3.58-.02 7.14-.16 10.72-.04 1.13-.07 2.25-.11 3.42-.23.79-.47 1.58-.71 2.39-2.55.18-2.55.18-5-.0006964111328144895v3h4c.75 3 .75 3 0 6-2.18.36-4.06.18-6.25-.08-.57.03-1.15.05-1.75.08v3h-4v3h-4v3h-2v2h-3v3h-2c-.25 2.5-.25 2.5 0 5h2v-2h2v4h-2v2h-2c-.26 1.75-.26 1.75-.25 4 0 .74-.01 1.49-.01 2.25.09.58.17 1.16.26 1.75h2v3h3v2c.42.07.42.07 2.5.44.83.18 1.65.37 2.5.56v3c1.67.04 3.34.04 5 .0005179443359253355v2h-2a104 104 0 0 0 0 7.5c.09 2.53.1 4.97 0 7.5h-2c-.18 1.93-.18 1.93-.09 4.59l.06 2.88c.07 2.02.13 4.04.2 6.07l.06 2.87c.01.44.01.44.08 2.66-.1.64-.2 1.28-.31 1.93h-3c-.18 2.64.08 5.17.29 7.81-.1.73-.19 1.45-.29 2.19h-4v3c-1.66.04-3.33.04-5-.001l-1 2v-2h-2v-3h-3v-2h-3v-3h-2v-3h-2v-2h-4v-3h-3v-2h-2c-.05-.56-.05-.56-.31-3.37-.23-1.2-.45-2.4-.69-3.63-2.56-1.31-2.56-1.31-5-2v-2c-2.36-.11-4.67.07-7.03.22-.65-.07-1.3-.14-1.97-.22v-3c-2.98-.31-5.76-.42-8.75-.4-.88 0-1.77 0-2.69-.01-1.88 0-3.76.01-5.65.02-2.89.02-5.79 0-8.69-.02-1.82 0-3.64.01-5.47.01-.87 0-1.75-.01-2.65-.02-2.42.03-2.42.03-6.1.42v3c-1.97.22-1.97.22-4.5.06-2.53-.15-2.53-.15-4.5-.06v2h-3c-.22 2.41-.22 2.41-.06 5.5.15 3.09.15 3.09.06 5.5h-2v4h2v2h3v2h-4v-2c-2.62-.26-2.62-.26-6-.25-1.11 0-2.22-.01-3.37-.01-.87.08-1.73.17-2.63.26v2h-3v3h-3c-.37 1.66-.7 3.33-1 5h-2v3h-3v-3h-4v-3c-2.4-.4-2.4-.4-5.5-.37l-3.09-.03c-.79.13-1.59.27-2.41.4v3h-3v3h-3c-.39 3.06-.39 3.06-.37 7-.01 1.3-.02 2.6-.02 3.94.06.5.06.5.39 3.06h3v6h3v3h2v2h3c.32 3 .32 3 0 6h-2v2h-4v-2l-2.5.06-2.5-.06v-3c-2.18-.4-2.18-.4-5-.37l-2.81-.03c-.72.13-1.44.27-2.19.4v3h-2v2c-2.5.44-2.5.44-5-.0009282226563129825-.12-2.5-.12-2.5 0-5h-3c-.04-1.67-.04-3.33 0-5h-2c-1.16-3.49-1.13-6.21-1.14-9.89-.01-.71-.01-1.42-.01-2.14-.02-2.37-.02-4.74-.02-7.11-.01-1.7-.02-3.39-.02-5.09-.02-4.62-.03-9.23-.04-13.84 0-2.88-.01-5.77-.02-8.65-.02-9.01-.03-18.02-.04-27.03-.01-10.41-.03-20.82-.08-31.23-.03-8.04-.04-16.09-.04-24.13-.01-4.8-.01-9.61-.04-14.41-.02-4.52-.03-9.04-.02-13.56 0-1.66 0-3.32-.02-4.98-.01-2.26-.01-4.53.01-6.79-.01-1.27-.01-2.53-.01-3.84.59-3.92 1.73-5.52 4.49-8.31C10.616.59 13.246.72 17.426.74"/><path fill="#d0b59f" d="M6.257 223.096c.91.3 1.81.6 2.74.9-.22 3.91-.22 3.91-.64 6.36-.65 4.02-1.2 7.89.64 11.64 6.59 3.4 15.9 1.48 23 .94 3.28-.17 6.56-.32 9.85-.45 2.05-.1 4.09-.22 6.14-.36.92-.06 1.84-.12 2.79-.18.82-.06 1.63-.12 2.48-.19q.855.12 1.74.24v3h3v-3h2v-2h2v-3c2.02-.37 2.02-.37 4.82-.36h3c1.05.02 2.1.03 3.18.05.53 0 .53 0 3.18-.01 5.76.04 5.76.04 7.82.32v2h4v3h7v3c2.58 1.14 4.8 1 7.63 1 3.37 0 3.37 0 5.37 1v-2c.99.02 1.98.05 3 .07.5-.01.5-.01 3-.07v-3h3v-2c3.07-.26 3.07-.26 7-.25 1.3 0 2.6-.01 3.94-.01 1.01.09 2.02.17 3.06.26v2h2v-2h3v-3c1.97-.39 1.97-.39 4.5-.37.84-.01 1.67-.02 2.53-.02.33.06.33.06 1.97.39v3h2v2h3v3h2v-3c1.9-.24 1.9-.24 4.59-.05l3.04.18c.54.03.54.03 3.31.21 2.28.1 4.56.19 6.84.28 3.62.15 7.24.32 10.86.58 16.47 1.11 16.47 1.11 21.36-1.2 2.49-4.39 1.42-9.33.59-14.09-.19-1.29-.39-2.58-.59-3.91h3c.94 1.8.94 1.8 1.72 4.37.15.48.15.48.9 2.93.31 1.08.61 2.15.93 3.26l.97 3.4c3.93 14.34 6.51 28.8 8.3 43.54.08.68.17 1.36.25 2.05 2.1 16.92 2.8 35.35-7.26 49.99-16.29 18.11-52.19 17.9-74.6 19.22-10.73.53-21.46.63-32.21.62h-3.61c-81.45-.08-81.45-.08-100.62-16.97-9.74-10.78-11.39-24.75-11.26-38.79.29-5.4.83-10.75 1.49-16.12.08-.68.16-1.36.25-2.06 1.79-15.22 4.65-30.14 8.87-44.88.29-1.07.59-2.15.89-3.26 2.2-7.08 2.2-7.08 6.25-8.2"/><path fill="#3e3738" d="M49.746-35.575c17.82-5.46 35.7-6.85 54.25-6.8 1.23 0 2.46-.01 3.73-.01 32.7.09 66.8 6.67 91.06 30.26 33.67 36.2 24.95 112.32 23.39 157.64-.25 6.99-.55 13.97-.85 20.96-.14 3.04-.27 6.08-.4 9.12-1.84 43.36-4.7 86.64-9.04 129.82-.24 2.45-.48 4.9-.73 7.35-.37 3.77-.76 7.53-1.17 11.3-.15 1.36-.29 2.73-.43 4.1-.19 1.85-.4 3.7-.61 5.54-.11 1.03-.22 2.06-.33 3.12-.1.36-.1.36-.62 2.18h-3c-.36-1.8-.36-1.8-.34-4.37v-2.93c.02-1.08.04-2.15.05-3.26.01-1.12.01-2.24.01-3.4.02-2.45.03-4.9.06-7.34.04-3.87.06-7.73.07-11.6.04-8.9.1-17.8.17-26.7q.105-13.2.15-26.4c.02-3.83.06-7.65.1-11.47l.03-6.98c.01-.54.01-.54.04-3.26 0-.96 0-1.93.01-2.93 0-.85.01-1.7.02-2.57-.12-.59-.24-1.18-.37-1.79h-3c.32 2.12.65 4.24 1.02 6.35.57 4.1 1.08 7.93-1.02 11.65-7.29 3.43-17.22 1.48-25 .93-3.56-.17-7.13-.32-10.7-.45-2.22-.1-4.45-.22-6.67-.36-1-.06-2-.12-3.04-.18l-2.69-.18c-.62.07-1.25.15-1.9.24v3h-2v-3h-3v-2h-2v-3c-2.4-.19-2.4-.19-5.5-.00012283325150974633-3.09.18-3.09.18-5.5-.0006141662586856v-3c2.34-.05 4.67-.05 7-.0006141662586808252v-2c2.89-.11 5.72.07 8.6.22.79-.08 1.59-.15 2.4-.22v-3h4v-3h2l1-3h2v-2h3v-3h3c.05-2.34.05-4.67 0-7h2c.18-2.3.18-2.3.09-5.47l-.06-3.42c-.06-2.41-.12-4.82-.19-7.23l-.06-3.42c-.01-.52-.01-.52-.08-3.17.1-.76.2-1.51.3-2.29h3c.45 1.75.45 1.75.57 4 .13 2.25.13 2.25.43 4h2l1 2 1-2h4v-2h2v2h3c.35-2.83.48-5.43.49-8.27.01-.87.03-1.75.04-2.66.05-2.92.07-5.84.08-8.76l.06-6.06c.03-4.23.04-8.47.06-12.71.01-5.45.08-10.89.17-16.34.05-4.17.07-8.34.08-12.51 0-2.01.03-4.02.07-6.03.05-2.8.04-5.6.02-8.4l.09-2.55c-.05-2.3-.05-2.3-1.16-5.71-3.07-.91-5.92-.93-9-.00007083129609952721v3c-2.5.37-2.5.37-5-.001v-3c-1.65-.38-3.32-.71-5-1v-2h-3v-3h-2c-.26-1.75-.26-1.75-.25-4 0-.38 0-.38-.01-2.25.09-.58.17-1.16.26-1.75h2v-2h2v-4h-2v2h-2c-.25-2.5-.25-2.5 0-5h2v-3h3v-2h2v-3h4v-3h4v-3c1.75-.09 1.75-.09 4 .18 2.21.11 2.21.11 4-.18.75-3 .75-3 0-6h-4v-3c.82.05 1.64.11 2.49.17.83-.06 1.66-.12 2.51-.17.46-2.4.46-2.4.25-5.82l-.12-3.81c-.02-.34-.02-.34-.08-2.1-.09-4.22.08-8.43.27-12.65.02-.85.04-1.7.07-2.58.1-2.38.1-2.38.61-6.04h3c.31 1.74.31 1.74.23 4.15l-.06 2.6c-.03.91-.07 1.81-.1 2.75-.06 1.78-.11 3.56-.16 5.34-.02.79-.05 1.59-.09 2.41.06.58.12 1.15.18 1.75h2c.03 3.66-.2 7.28-.41 10.93.13 1.01.27 2.02.41 3.07 2.52.15 2.52.15 5 .00005050659772365407.32 1.96.32 1.96 0 4.5-.15 2.5-.15 2.5 0 4.5 2.5.37 2.5.37 5 .0007325134378959319v3h3c.35-2.32.35-2.32.32-5.62l-.03-3.71c-.02-1.35-.04-2.71-.07-4.06-.02-1.38-.04-2.76-.05-4.14-.04-2.89-.09-5.79-.15-8.69-.07-3.71-.11-7.41-.14-11.12-.03-2.85-.08-5.7-.13-8.56-.02-1.36-.04-2.73-.05-4.09-.01-1.92-.06-3.84-.1-5.76l-.06-3.3c-.66-3.65-1.95-5.34-4.54-7.95-3.54-1.19-6.74-1.15-10.42-1.15-.76-.01-1.53-.01-2.31-.01-2.57-.01-5.13-.02-7.69-.02-1.84-.01-3.67-.01-5.51-.02-4.99-.02-9.98-.03-14.97-.04-3.11 0-6.23-.01-9.34-.02-9.75-.01-19.49-.03-29.24-.04-11.26-.01-22.51-.03-33.77-.07-8.7-.03-17.39-.05-26.09-.05-5.19 0-10.39-.01-15.59-.04-4.88-.02-9.77-.03-14.66-.02-1.79 0-3.59 0-5.38-.02-2.45-.01-4.9-.01-7.35.01-.71-.01-1.42-.02-2.15-.04-4.77.07-7.18 1.16-10.53 4.53-1.48 2.96-1.12 5.61-1.13 8.92 0 .72 0 1.44-.01 2.18v7.28c0 1.73-.01 3.47-.01 5.2-.01 4.72-.01 9.44-.01 14.16 0 3.93-.01 7.86-.01 11.79-.01 9.27-.01 18.54-.01 27.81 0 9.58-.01 19.17-.03 28.75-.01 8.21-.02 16.42-.01 24.64 0 4.91-.01 9.82-.02 14.73-.01 4.62-.01 9.23 0 13.85 0 1.69 0 3.39-.01 5.09-.01 2.31 0 4.62.01 6.93v3.92c.08.91.16 1.81.24 2.75h2l-.06 2.5.06 2.5h3l-.12 2.5.12 2.5c2.5.43 2.5.43 5-.001v-2h2v-3c2.19-.4 2.19-.4 5-.38.93-.01 1.86-.02 2.82-.02.72.13 1.44.26 2.18.4v3c1.67.04 3.34.04 5-.0002749633566452303v2h4v-2h2v-6h2c.18 2.38.18 2.38.09 5.68l-.06 3.56c-.06 2.5-.12 5.01-.19 7.51l-.06 3.56c-.03 1.09-.06 2.18-.08 3.3.1.79.2 1.57.3 2.39h3v6h3v6h3v2c.83-.03 1.65-.05 2.5-.07.83.02 1.65.04 2.5.07v3h3v3c2.41.22 2.41.22 5.5.06 3.1-.15 3.1-.15 5.5-.06v2c2.11.1 4.15-.08 6.25-.23.58.08 1.16.15 1.75.23v3c-3.41.22-6.74-.02-10.15-.19-.94.06-1.88.12-2.85.19v3h-2v2h-2v3h-3v-3c-1.74-.24-1.74-.24-4.22-.06-.92.06-1.84.12-2.79.18-1.01.07-2.01.14-3.05.21-2.09.1-4.19.19-6.29.28-3.33.15-6.66.32-9.99.58-15.18 1.11-15.18 1.11-19.66-1.19-2.2-4.49-1.03-9.38-.22-14.1.08-1.29.15-2.58.22-3.9-2.94-.91-2.94-.91-6-.000298278777933092-1.01 3.44-.72 6.99-.63 10.55 0 1.12.01 2.25.01 3.4.02 3.74.08 7.47.14 11.2.02 2.58.04 5.16.05 7.74.04 6.11.1 12.21.17 18.32.14 11.6.24 23.19.32 34.78.03 3.83.08 7.65.13 11.47l.06 6.98.06 3.26c.01.96.01 1.93.01 2.93.02.85.03 1.7.04 2.57l-.36 1.8h-3c-.61-2.18-.61-2.18-.95-5.3-.13-1.18-.26-2.36-.4-3.58-.14-1.33-.27-2.66-.41-3.99l-.45-4.2c-.41-3.86-.8-7.73-1.18-11.6-.25-2.46-.5-4.93-.74-7.4-4.33-43.38-7.08-86.85-8.92-130.39-.13-3.03-.27-6.06-.4-9.09-7.66-175.31-7.66-175.31 63.2-199.03"/><path fill="#f0d9bf" d="M202 224h3c.3 3.06.39 5.91.36 8.97v2.76c0 1.93-.01 3.86-.02 5.79-.03 2.97-.02 5.94-.02 8.91 0 1.86-.01 3.73-.02 5.6v2.72c-.02 2.08-.15 4.17-.3 6.25h-2v-2c-.99-.17-1.98-.33-3-.5-.99-.17-1.98-.33-3-.5v-2c-2.29-.26-2.29-.26-5.47-.27h-3.42c-.59 0-.59 0-3.61.02-1.19-.01-2.38-.02-3.61-.02h-3.42c-1.05.01-2.1.01-3.18.01-.75.09-1.51.17-2.29.26v2c-1.68-.35-3.35-.78-5-1.25-2.77-.63-2.77-.63-5-.75-.75 2.88-.75 2.88 0 6h2c.31 2.5.31 2.5 0 5h-3c-.04 2.33-.04 4.67 0 7h-2v3h-4v3c-2.39.18-4.65-.08-7.03-.29-.65.1-1.3.19-1.97.29v4h2v4h2v2h2l-.06 2.5.06 2.5h3v3c.82.14 1.65.29 2.5.44.41.09.41.09 2.5.56v4h-2v2c-4.11 1.37-8.06 1.37-12.37 1.55-.97.05-1.93.09-2.93.13-11.66.46-23.32.47-34.99.45-3.77 0-7.55 0-11.32.01-11.16 0-22.3-.07-33.45-.59-.86-.03-1.71-.07-2.6-.11-7.29-.39-7.29-.39-10.34-1.44v-2h-2c-.25-2.5-.25-2.5 0-5h2v-2c.99-.1 1.98-.21 3-.31.99-.23 1.98-.46 3-.69.25-2.56.25-2.56 0-5h2v-6h2v-4c-2.19-.29-2.19-.29-5-.06-2.81.21-2.81.21-5 .06v-3h-3v-3h-2l.06-3.5L45 271h-3c-.38-2.5-.38-2.5 0-5h3v4c2.5.62 2.5.62 5 1v2c.99.17 1.98.33 3 .5.99.17 1.98.33 3 .5v2c3.11.86 5.95 1.12 9 0 .65-2.75.44-5.01.12-7.81L65 266h2c.15-2.52-.01-5-.12-7.52C67 256 67 256 69 253c-.16.84-.31 1.68-.47 2.55-1.04 6.63-1.04 6.63.47 10.45 5.37 1.96 13.56 1.7 19 0v-3h2c-.09.5-.09.5-.56 3 .09.5.09.5.56 3 3.69.76 7.31.77 11 0v-3h2v-3h3v3c4.1.75 8.34.51 12.5.5.6.01.6.01 3.61.09h3.42l3.18.03c.75-.21 1.51-.41 2.29-.62.22-2.54.22-2.54 0-5h2c.29-2.53.42-4.9.44-7.44.01-.35.01-.35.1-2.14.02-2.04.02-2.04-.54-5.42-2.53-1.1-2.53-1.1-5-1v2c-1.31 1.62-1.31 1.62-3 3h-3v-2h2v-3h2v-3c-1.97-.22-1.97-.22-4.5-.06-2.53.15-2.53.15-4.5.06v-2c3.06-.27 3.06-.27 7-.25 1.3-.01 2.6-.01 3.94-.02 1.01.09 2.02.18 3.06.27v2h2v-2h3v-3c1.97-.4 1.97-.4 4.5-.38.84 0 1.67-.01 2.53-.02.33.07.33.07 1.97.4v3h2v2h3v3h2v-3c1.9-.24 1.9-.24 4.59-.05 1 .05 2 .11 3.03.17.55.04.55.04 3.32.22 2.28.1 4.55.19 6.83.28 3.63.14 7.25.32 10.87.57 16.46 1.12 16.46 1.12 21.36-1.19 2.49-4.4 1.41-9.34.59-14.1-.2-1.28-.39-2.57-.59-3.9"/><path fill="#164429" d="M2 9h1c.11 2.21.14 4.43.14 6.64.01.72.01 1.43.02 2.17.01 2.42.01 4.84.01 7.25.01 1.73.02 3.45.02 5.18.02 3.72.03 7.45.04 11.17l.06 17.64c.08 16.73.14 33.46.19 50.18.03 9.23.06 18.46.1 27.69.03 5.85.05 11.71.06 17.56.01 3.63.03 7.27.05 10.9 0 1.69.01 3.39.01 5.08q0 3.45.03 6.9c0 1.29.01 2.58.01 3.91.09.9.17 1.8.26 2.73h2l-.06 2.5L6 189h3l-.12 2.5L9 194c2.5.44 2.5.44 5 0v-2h2v-3c2.19-.4 2.19-.4 5-.38.93 0 1.86-.01 2.81-.02.72.13 1.45.26 2.19.4v3c1.67.04 3.33.04 5 0v2h4v-2h2v-6h2c.18 2.39.18 2.39.09 5.69l-.06 3.55c-.06 2.51-.13 5.01-.2 7.52-.01 1.17-.03 2.34-.05 3.55l-.09 3.3c.1.79.2 1.58.31 2.39h3v6h3v6h3v2l2.5-.06 2.5.06v3h3v3c2.41.22 2.41.22 5.5.06 3.09-.15 3.09-.15 5.5-.06v2c2.11.11 4.15-.07 6.25-.22.58.07 1.16.14 1.75.22v3c-3.41.23-6.74-.01-10.16-.19-.93.06-1.87.13-2.84.19v3h-2v2h-2v3h-3v-3c-1.75-.24-1.75-.24-4.22-.05-.92.05-1.84.11-2.79.17-1.01.07-2.02.15-3.05.22-2.1.1-4.2.19-6.29.28-3.34.14-6.67.32-10 .57C13.47 244.31 13.47 244.31 9 242c-2.2-4.48-1.04-9.37-.22-14.1.07-1.28.14-2.57.22-3.9-2.95-.9-2.95-.9-6 0-1.02 3.44-.73 6.99-.65 10.56 0 1.12.01 2.24.01 3.4.01 3.73.07 7.46.12 11.2.02 2.57.03 5.15.04 7.73.04 6.11.09 12.22.16 18.33.13 11.59.21 23.19.28 34.78.02 3.82.07 7.64.11 11.47l.06 6.97c.02 1.08.04 2.15.05 3.26.01.97.01 1.94.02 2.93l.03 2.57c-.04.3-.04.3-.23 1.8H1c-.25-2.11-.25-2.11-.25-5.14 0-1.14-.01-2.29-.01-3.47 0-1.28.01-2.56.01-3.87v-4.07c-.01-3.75 0-7.5 0-11.25.01-4.03 0-8.07 0-12.1 0-7.92 0-15.83.01-23.74.01-9.21.01-18.41.01-27.62 0-16.41.01-32.83.02-49.25.02-15.95.03-31.9.02-47.85v-5.95c0-18.13.01-36.25.02-54.38V71.04c0-7.83.01-15.65.02-23.48 0-3.99.01-7.99 0-11.98 0-3.66.01-7.31.01-10.96.01-1.96 0-3.92 0-5.88 0-1.15.01-2.3.01-3.48v-3.03C1 10 1 10 2 9"/><path fill="#f6e2c8" d="M62 237c2.02-.37 2.02-.37 4.81-.36h3.01c.52.01.52.01 3.18.05 1.05-.01 2.1-.01 3.18-.01 5.75.04 5.75.04 7.82.32v2h4v3h7v3c2.58 1.13 4.79 1 7.62 1 3.38 0 3.38 0 5.38 1v-2l3 .06 3-.06v-3c2.62-.4 2.62-.4 6-.38 1.11 0 2.23-.01 3.38-.02.86.13 1.73.26 2.62.4v3h-2v3h-2v2h3l1-3h2v-2h3l1-2c2.22 4.01 2.13 7.33 1.75 11.81-.09 1.16-.18 2.33-.27 3.52-.16.88-.32 1.76-.48 2.67h-2c.07.81.14 1.63.22 2.46-.07.84-.15 1.68-.22 2.54-2.29.62-2.29.62-5.47.59h-3.42c-.59-.02-.59-.02-3.61-.09-1.19 0-2.38.01-3.61.01-6.52-.08-6.52-.08-8.89-.51v-3h-3v3h-2v3c-3.69.77-7.31.76-11 0-.56-3-.56-3 0-6h-2v3c-3.05.88-6.28.76-9.44.81l-2.7.06c-2.43-.06-4.53-.18-6.86-.87-1.89-3.38-1.93-6.24-1-10-.13 1.46-.29 2.92-.44 4.38l-.18 3.08c-.06.42-.06.42-.38 2.54h-2c.09 1.67.25 3.34.44 5 .09 2.77.09 2.77-.44 5-3.05 1.12-5.89.86-9 0v-2c-.99-.17-1.98-.33-3-.5-.99-.17-1.98-.33-3-.5v-2c-.41-.06-.41-.06-2.5-.38-.83-.2-1.65-.41-2.5-.62v-4h2v-5h2c.08-.5.08-.5.5-3 .08-.5.08-.5.5-3h2c.16-.82.33-1.65.5-2.5.16-.82.33-1.65.5-2.5h2l-.06-2.5L55 245h3v-3h2v-2h2Z"/><path fill="#ea8d0a" d="M32 155c2.41-.4 2.41-.4 5.5-.38 1.02 0 2.04-.01 3.09-.02.4.07.4.07 2.41.4v3h4v3h3c.31 2.5.31 2.5 0 5h-2v4h-3v8h-3c-.39 2.48-.39 2.48-.4 5.91 0 1.21-.01 2.43-.01 3.69l.03 3.9-.03 3.9c0 1.22.01 2.44.01 3.69 0 1.13.01 2.27.01 3.43.13.82.26 1.64.39 2.48h3c.22 1.75.22 1.75.06 4-.15 2.25-.15 2.25-.06 4h2v2h3v6h3v3q3 .06 6 0v2l2.5-.06 2.5.06v3c2.3.22 2.3.22 5.31.06 5.37-.27 5.37-.27 8.69 1.94 2.45.25 2.45.25 5.39.26 1.1.01 2.2.01 3.34.02 1.18-.01 2.37-.01 3.59-.01h3.69c2.57 0 5.14 0 7.71-.01 3.96-.01 7.92 0 11.88.01h7.47c.6 0 .6 0 3.62.01.55-.01.55-.01 3.31-.02.97 0 1.93 0 2.93-.01.68-.08 1.37-.16 2.07-.25v-2c2.11-.11 4.15.07 6.25.22.58-.07 1.16-.14 1.75-.22v-3c1.97-.22 1.97-.22 4.5-.06 2.53.15 2.53.15 4.5.06v-2c1.31-1.62 1.31-1.62 3-3h3v-3h2v-3h3v-5h3c.22-1.75.22-1.75.06-4-.15-2.25-.15-2.25-.06-4h2c.26-2.2.26-2.2.27-5.25v-3.28c0-1.15-.01-2.29-.02-3.47.01-1.14.02-2.29.02-3.47v-3.28c-.01-.5-.01-.5-.01-3.05-.09-.72-.17-1.45-.26-2.2h-2c-.3-1.75-.3-1.75-.31-4-.02-.74-.04-1.49-.05-2.25.12-.58.24-1.16.36-1.75h3c.12.74.25 1.49.38 2.25.2.58.41 1.16.62 1.75 3.12-2 4.94-3.91 7-7v6h2v-3h3c.22-1.97.22-1.97.06-4.5-.15-2.53-.15-2.53-.06-4.5h2c.27 3.06.27 3.06.25 7 0 .65 0 .65.02 3.94-.09 1.01-.18 2.02-.27 3.06h-2l.06 3-.06 3h-3v3h-2v2c-.98-.07-1.96-.14-2.97-.22-1 .07-2 .15-3.03.22-.65 2.29-.65 2.29-.52 5.47l.09 3.42c.06 1.19.12 2.38.18 3.61.09 2.34.16 4.69.23 7.03l.15 3.18c-.04.75-.09 1.51-.13 2.29h-2l.06 3.5-.06 3.5h-3v3h-3v2c-1.37 1.62-1.37 1.62-3 3h-2v3h-4v3c-2.41.22-2.41.22-5.5.06-3.09-.15-3.09-.15-5.5-.06v2l-3.5-.06-3.5.06v3h2v3h-3v2h-2v-2c-3.06-.27-3.06-.27-7-.25-.65 0-.65 0-3.94-.02-1.01.09-2.02.18-3.06.27v2h-3v3q-3 .06-6 0v2c-2.19.27-2.19.27-5 .25-.93.01-1.86.01-2.81.02q-1.08-.135-2.19-.27v-2h-3v-3h-7v-3h-4v-2c-2.36-.11-4.67.07-7.03.22-.65-.07-1.3-.14-1.97-.22v-3c-1.75-.22-1.75-.22-4-.06-2.25.15-2.25.15-4 .06v-2c-2.88-.11-5.72.07-8.59.22-.8-.07-1.59-.14-2.41-.22v-3h-3v-3c-1.67-.04-3.33-.04-5 0v-2h-3v-6h-3v-6h-3c-.26-2.39-.26-2.39-.12-5.69.04-1.17.07-2.34.1-3.55.1-2.51.2-5.01.31-7.52.02-.58.02-.58.09-3.55.05-1.09.09-2.18.14-3.3-.17-.79-.34-1.58-.52-2.39-2.52-.23-2.52-.23-5 0v-2h-2v-3h-3v-6h-3c-.4-3.06-.4-3.06-.38-7 0-1.3-.01-2.6-.02-3.94.13-1.01.26-2.02.4-3.06h3v-3h3Z"/><path fill="#e6d0b7" d="M68 268c3.48.09 6.94.3 10.41.54 4.21.28 8.39.49 12.6.51.39 0 .39 0 2.38.04 1.52.02 3.04.02 4.57-.01 2.05.05 2.05.05 5.04.92-.17 3.49-.17 3.49-1 7l2 1v-7h2v-2c3.44-.56 3.44-.56 7 0 1.12 3.5 1.12 3.5 1 7h-3v3h4c.1 2.84.1 2.84-.38 6.5-.27 2.16-.49 4.33-.62 6.5h2q.06-3 0-6h1l-.06 3 .06 3h2c-.05-2.58-.19-5.06-.44-7.62-.22-2.46-.41-4.92-.56-7.38.16.33.16.33 1 2h2v2h3c.04 2.33.04 4.67 0 7h2v4h2c-.23-1.96-.47-3.93-.74-5.89-.57-4.65-.57-4.65.74-7.11 2.88-.58 5.02-.33 8 0v2h2c.33 1.67.67 3.33 1 5h2v4h-2v2h2v2l-2.5-.06-2.5.06v3c-2.41.22-2.41.22-5.5.06-3.09-.15-3.09-.15-5.5-.06v2c-3.16.21-6.24.28-9.41.27h-2.89c-2.02 0-4.05 0-6.07-.01-3.12-.01-6.23 0-9.34.01h-5.88c-.47 0-.47 0-2.85.01-2.19-.02-4.38-.14-6.56-.28v-2c-3.24-.09-6.43.01-9.67.17-2.05.05-2.05.05-5.33-.17v-3c-1.01.14-2.02.29-3.06.44-.97-.15-1.94-.29-2.94-.44-.45-4.46.6-8.79 2-13h2v-2h2v-3l3-1-3-1c-.25-2.5-.25-2.5 0-5Z"/><path fill="#236e39" d="M202 184h3c.34 2.91.47 5.61.47 8.53 0 .43 0 .43.02 2.62.01 1.84.02 3.68.01 5.51 0 2.83.04 5.65.09 8.48v5.33c.02.85.04 1.7.05 2.58-.02 2.37-.02 2.37-.64 5.95-.85-.03-1.69-.06-2.57-.08-.8.02-1.6.05-2.43.08-.07 2.15-.07 2.15.43 4.93.12 2.77.12 2.77-.43 5.07-3.78 1.66-7.75 1.22-11.81 1.09h-3.63c-3.86 0-7.71-.07-11.56-.15-3.85-.04-7.7-.07-11.56-.08-2.4-.01-4.8-.05-7.21-.1l-3.27-.03-2.91-.06c-.68.11-1.35.22-2.05.33v3h2v2c.85.1 1.69.21 2.56.31.81.23 1.61.46 2.44.69-.06 2.56-.06 2.56-1 5h-2v-3h-3v-2h-2v-3c-2.41-.19-2.41-.19-5.5 0s-3.09.19-5.5 0v-3c2.33-.04 4.67-.04 7 0v-2c2.88-.11 5.72.07 8.59.22.8-.07 1.59-.14 2.41-.22v-3h4v-3h2l1-3h2v-2h3v-3h3c.04-2.33.04-4.67 0-7h2c.18-2.29.18-2.29.09-5.47l-.06-3.42c-.06-2.41-.13-4.81-.2-7.22-.01-.57-.01-.57-.05-3.42l-.09-3.18c.1-.75.2-1.51.31-2.29h3c.44 1.75.44 1.75.56 4 .13 2.25.13 2.25.44 4h2c.16.33.16.33 1 2l1-2h4v-2h2v2h3v-2h3v2h2v-2l3 .06 3-.06v-3h2v-3h3Z"/><path fill="#1583f9" d="M54 93c3.5-.81 3.5-.81 7 0 .81 2.5.81 2.5 1 5h2c-.12.83-.25 1.65-.38 2.5.13.83.25 1.65.38 2.5 2.69.61 5.31.57 8 0v-2l3 .06 3-.06v-3c1.67-.04 3.33-.04 5 0v-2c3.06-.27 3.06-.27 7-.25 1.3-.01 2.6-.01 3.94-.02 1.01.09 2.02.18 3.06.27v2h4v3h3v2h2v3h2c.11 2.11-.07 4.15-.22 6.25.07.58.14 1.16.22 1.75h3c-.16 2.19-.16 2.19-.62 5-.14 2.78-.14 2.78.62 5 3.53.73 6.57.49 10.16.16.93-.06 1.87-.11 2.84-.16v2c-2.95.14-5.8.16-8.75.09l-5.47-.06c-2.9-.04-5.79-.09-8.69-.15-2.78-.04-5.56-.07-8.34-.1-.87-.02-1.75-.05-2.65-.07-2.43-.02-2.43-.02-6.1.29v3c-1.97.22-1.97.22-4.5.06-2.53-.15-2.53-.15-4.5-.06v2h-3c-.22 2.41-.22 2.41-.06 5.5.15 3.09.15 3.09.06 5.5h-2v4h2v2h3v2h-4v-2c-2.62-.11-5.19.07-7.81.22-.72-.07-1.45-.14-2.19-.22v-3h3v-3h3v-2h2v-6h2v-3h-4v-2l-3 .06-3-.06v-3h-2v3h-3v3h-3v2c-3 .25-3 .25-6 0v-2h-2c-.11-3.4.07-6.76.22-10.16-.07-.93-.14-1.87-.22-2.84h-3v-2h-2v-3c1.75-.4 1.75-.4 4-.38.74 0 1.48-.01 2.25-.02.29.07.29.07 1.75.4v3h2c.31 3 .31 3 0 6h-3c-.38 3-.38 3 0 6h3v-3h3v-3h3v-3c2.5-.38 2.5-.38 5 0v3h3v3c3 .62 3 .62 6 0 .56-3.5.56-3.5 0-7h-3c-.31-2.5-.31-2.5 0-5h2c-.69-1.94-.69-1.94-2-4l-3-1v-3h-4l-1-2h-4v-3h-2c-.36-2.82-.1-5.38 1-8"/><path fill="#663d0e" d="M42 266h3v4h2c.58 2.03.9 4.07 1.24 6.15.25.61.5 1.22.76 1.85 2.07.63 2.07.63 4 1v2c1.97.27 1.97.27 4.5.25.42 0 .42 0 2.53.02.65-.09 1.3-.18 1.97-.27v-2h3v2h-2c-.84 2.84-.84 2.84-1.5 6.5-.24 1.21-.47 2.41-.72 3.66.07.93.15 1.87.22 2.84 2.97.22 2.97.22 6 0v3c2.57.17 4.94.18 7.5.06 2.52-.1 4.97-.13 7.5-.06v2c3.16.21 6.24.28 9.41.27h2.89c2.02 0 4.05 0 6.07-.01 3.12-.01 6.23 0 9.34.01h5.88c.94 0 1.88 0 2.85.01 2.19-.02 4.38-.14 6.56-.28v-2c3.46-.12 6.86-.04 10.31.08 1.9.04 3.8-.01 5.69-.08v-2c.82.1 1.65.21 2.5.31.82-.1 1.65-.2 2.5-.31.19-3.5.19-3.5 0-7h2v4h2v2h2l-.06 2.5.06 2.5h3v3c.82.14 1.65.29 2.5.44.41.09.41.09 2.5.56v4h-2v2c-4.11 1.37-8.06 1.37-12.37 1.55-.97.05-1.93.09-2.93.13-11.66.46-23.32.47-34.99.45-3.77 0-7.55 0-11.32.01-11.16 0-22.3-.07-33.45-.59-.43-.01-.43-.01-2.6-.11-7.29-.39-7.29-.39-10.34-1.44v-2h-2c-.25-2.5-.25-2.5 0-5h2v-2c.5-.05.5-.05 3-.31.5-.12.5-.12 3-.69.25-2.56.25-2.56 0-5h2v-6h2v-4c-2.19-.29-2.19-.29-5-.06-2.81.21-2.81.21-5 .06v-3h-3v-3h-2l.06-3.5L45 271h-3c-.38-2.5-.38-2.5 0-5"/><path fill="#f2efec" d="M84 126c2.98-.32 5.76-.42 8.75-.4.89 0 1.78 0 2.69-.01 1.88 0 3.77.01 5.65.02 2.9.01 5.79 0 8.69-.02 1.82 0 3.65.01 5.47.01.87 0 1.75-.01 2.65-.02 2.43.03 2.43.03 6.1.42v3c1.97.22 1.97.22 4.5.06 2.53-.15 2.53-.15 4.5-.06v2h3c.25 3.19.25 3.19 0 6-.16-.5-.16-.5-1-3h-2v3h-2c.14 1.16.29 2.31.44 3.5-.15 1.16-.29 2.31-.44 3.5-2.45.44-4.56.24-7.03-.05-.33.01-.33.01-1.97.05v3c1.97.36 1.97.36 4.5.31.84 0 1.67-.01 2.53-.01.65-.1 1.3-.2 1.97-.3v-2h2l-.12-2.94L133 139c2-1.31 2-1.31 4-1 .44 3.38.44 3.38 0 7-.5.16-.5.16-3 1-.05.34-.05.34-.28 2.04-.24.65-.47 1.29-.72 1.96-2.94.46-2.94.46-6.56.38-.6-.01-.6-.01-3.63-.04-.93-.11-1.86-.23-2.81-.34v-2c-2.44-.21-4.77-.28-7.22-.27h-2.22c-1.55 0-3.11 0-4.66.01-2.39.01-4.78 0-7.17-.01h-4.51c-.72 0-1.44 0-2.19-.01-1.68.02-3.36.14-5.03.28v2c-2.63.27-2.63.27-6 .25-.56 0-.56 0-3.38.02-.86-.09-1.73-.18-2.62-.27v-2h-3v-2h-2v-4h2c.11-2.88-.07-5.72-.22-8.59.07-.8.14-1.59.22-2.41h3v-2c2.36-.11 4.67.07 7.03.22.65-.07 1.3-.14 1.97-.22Z"/><path fill="#cfb39d" d="M202 224h3c.3 3.06.39 5.91.36 8.97v2.76c0 1.93-.01 3.86-.02 5.79-.03 2.97-.02 5.94-.02 8.91 0 1.86-.01 3.73-.02 5.6v2.72c-.02 2.08-.15 4.17-.3 6.25h-2v-2c-.99-.17-1.98-.33-3-.5-.99-.17-1.98-.33-3-.5v-2c-2.29-.26-2.29-.26-5.47-.27h-3.42c-.59 0-.59 0-3.61.02-1.19-.01-2.38-.02-3.61-.02h-3.42c-1.05.01-2.1.01-3.18.01-.75.09-1.51.17-2.29.26v2c-1.68-.35-3.35-.78-5-1.25-2.77-.63-2.77-.63-5-.75-.75 2.88-.75 2.88 0 6h2c.31 2.5.31 2.5 0 5h-3c-.04 2.33-.04 4.67 0 7h-2v3h-4v3c-2.39.18-4.65-.08-7.03-.29-.65.1-1.3.19-1.97.29v4h-2l.06-3.5-.06-3.5h-3c-.69-2.5-.69-2.5 0-5 2.15-.31 4.09-.18 6.25.02.58-.01 1.16-.01 1.75-.02v-2l3.5.06 3.5-.06v-3c.82-.14 1.65-.29 2.5-.44.82-.18 1.65-.37 2.5-.56v-4h-2c-.2-2.06-.39-4.11-.59-6.17-.13-.61-.27-1.21-.41-1.83-2-.69-2-.69-4-1-.69-2.56-.69-2.56-1-5h-1c-.77-3.48-1.08-6.57 0-10 3.55-1.41 7.2-.71 10.94-.34 2.28.11 4.55.23 6.83.34 3.63.24 7.25.5 10.87.81 16.59 1.32 16.59 1.32 21.36-.81 2.5-4.37 1.41-9.34.59-14.08-.2-1.29-.39-2.59-.59-3.92"/><path fill="#cfc5b6" d="M187 25h3c.31 1.74.31 1.74.22 4.16-.02.85-.03 1.71-.05 2.59-.04.91-.07 1.82-.11 2.75q-.09 2.67-.15 5.34l-.09 2.42q.09.855.18 1.74h2c.02 3.66-.2 7.28-.42 10.94.14 1.01.28 2.02.42 3.06 2.51.16 2.51.16 5 0 .31 1.97.31 1.97 0 4.5-.16 2.51-.16 2.51 0 4.5 2.5.38 2.5.38 5 0v3h3c.43 1.75.43 1.75.44 4l.06 2.25c-.17.58-.33 1.16-.5 1.75h-4c-.5 3-.5 3 0 6h4v4c-2.68.35-4.97.41-7.66.32l-2.35-.03c-2.5-.04-4.99-.1-7.49-.17-2.5-.05-4.99-.1-7.49-.14-1.56-.02-3.12-.06-4.67-.1-1.78-.04-3.56.03-5.34.12v2h-3v2c-2.5.81-2.5.81-5 1v-3h2v-2h2v-4h-2v2h-2c-.25-2.5-.25-2.5 0-5h2v-3h3v-2h2v-3h4v-3h4v-3c1.75-.08 1.75-.08 4 .19 2.2.1 2.2.1 4-.19.75-3 .75-3 0-6h-4v-3l2.48.18c.83-.06 1.66-.12 2.52-.18.45-2.39.45-2.39.25-5.81-.04-1.26-.09-2.52-.13-3.81-.02-.7-.05-1.39-.07-2.11-.09-4.22.08-8.43.26-12.65.03-.85.05-1.7.07-2.57.11-2.39.11-2.39.62-6.05"/><path fill="#a8a098" d="M192 104c2.56-.38 2.56-.38 5 0v3h3c.31 1.74.31 1.74.22 4.16-.02.85-.03 1.71-.05 2.59-.04.91-.07 1.82-.11 2.75q-.09 2.67-.15 5.34l-.09 2.42q.09.855.18 1.74h2c.18 1.74.18 1.74.09 4.16l-.06 2.59c-.06 1.83-.13 3.67-.2 5.5-.01.85-.03 1.71-.05 2.59l-.09 2.42c.1.57.2 1.15.31 1.74h3c.32 2.91.42 5.61.4 8.53 0 .43 0 .43.01 2.62 0 1.84-.01 3.68-.02 5.51-.01 2.83 0 5.65.02 8.48 0 1.77-.01 3.55-.01 5.33 0 .43 0 .43.02 2.58-.03 2.37-.03 2.37-.42 5.95h-3v2h-3v3h-2v3c-2.96.67-2.96.67-6 0-.64-2.84-.77-4.89-.7-7.76v-2.49c-.01-2.75.04-5.49.08-8.24.01-1.9.01-3.8.02-5.69.01-5.02.07-10.03.13-15.05.04-4.09.06-8.18.08-12.28.02-4.86.05-9.73.08-14.6.01-.94.01-1.87.02-2.83.02-2.64.05-5.28.08-7.92.01-.78.01-1.56.02-2.37.04-3.18.18-5.73 1.19-8.77"/><path fill="#e0cab2" d="M177 104c3.09-.84 5.92-.89 9 0 1.03 3.2 1.18 4.98 1.07 8.26 0 .44 0 .44.02 2.66.01 2.93-.05 5.84-.11 8.77 0 2.02-.01 4.03-.01 6.05-.02 4.24-.06 8.47-.13 12.71-.08 5.45-.11 10.9-.13 16.35-.01 4.17-.04 8.33-.07 12.5-.02 2.01-.04 4.02-.05 6.03-.02 2.8-.06 5.61-.11 8.41 0 .42 0 .42-.01 2.55-.05 2.29-.05 2.29-.47 5.71h-3v-2h-2v2h-4l-1 3-1-3h-2c-1.38-2.77-1.27-4.95-1-8h3v-2h2v-3h3q.06-3 0-6h2c.21-2.54.28-4.96.25-7.5.01-.72.02-1.43.02-2.17 0-1.78-.13-3.56-.27-5.33h-2v-2h-3v-3c-1.16.14-2.31.29-3.5.44-1.16-.15-2.31-.29-3.5-.44-.87-3.36-.83-6.63 0-10h3c.31-1.93.31-1.93.22-4.59-.02-.95-.03-1.9-.05-2.87-.04-1.01-.07-2.01-.11-3.04q-.09-2.955-.15-5.91l-.09-2.66c.06-.64.12-1.27.18-1.93h2c.1-2.53.09-4.97 0-7.5s-.1-4.97 0-7.5h2c-.14-.83-.29-1.65-.44-2.5.15-.83.29-1.65.44-2.5"/><path fill="#e5c8af" d="M138 324c2.03-.63 2.03-.63 4.91-.65 1.07-.01 2.14-.03 3.25-.04.58 0 .58 0 3.55.03 1.19-.01 2.38-.01 3.61-.02q3.795 0 7.59.03c3.88.02 7.75 0 11.63-.03 2.45 0 4.9.01 7.35.02l3.54-.03c1.08.01 2.16.03 3.27.04.48.01.48.01 2.89.02 2.41.63 2.41.63 4.12 3.11.42.83.85 1.66 1.29 2.52l2 1v3h2v2l3 1c.16.5.16.5 1 3-2.2.37-2.2.37-5.49.37-.61.01-.61.01-3.7.02l-4.06-.03h-4.1c-2.88 0-5.76-.01-8.64-.02-3.7-.03-7.4-.03-11.1-.02-2.83 0-5.66 0-8.49-.01-1.36-.01-2.73-.01-4.09-.01-1.91 0-3.81-.01-5.71-.03-1.09 0-2.18 0-3.3-.01-.76-.09-1.53-.17-2.32-.26v-2h-2c-.38-2.33-.71-4.66-1-7l-1-1c-.37-2.52-.37-2.52 0-5"/><path fill="#e7c9b0" d="M15 325c2.29-.51 2.29-.51 5.18-.53 1.09-.02 2.17-.04 3.28-.05 1.17 0 2.34.01 3.55.01.6 0 .6 0 3.62-.02 2.53 0 5.06 0 7.59.01 3.9.02 7.79-.02 11.68-.05 2.45-.01 4.91 0 7.36 0 1.17-.01 2.35-.03 3.56-.04.54.01.54.01 3.25.04h2.89c.68.21 1.35.42 2.04.63.43 2.54.43 2.54 0 5h-2c0 2.05.01 4.1.12 6.15L67 338c-2.7 1.35-4.82 1.14-7.84 1.16l-3.71.03c-1.34.01-2.68.01-4.02.01-1.37.01-2.74.01-4.11.02-2.86.01-5.72.02-8.59.02-3.68.01-7.37.03-11.06.06-2.82.02-5.64.02-8.46.02-1.36.01-2.72.01-4.08.03-1.89.01-3.78.01-5.68.01-.54 0-.54 0-3.27.01-.72-.12-1.44-.25-2.18-.37l1-3h2v-3c1.88-2.19 1.88-2.19 4-4h2l.8-1.97c.4-.67.79-1.34 1.2-2.03"/><path fill="#e6cab1" d="M32 305a78 78 0 0 1 7.5-.25c.72-.01 1.43-.02 2.17-.02 1.78 0 3.56.13 5.33.27v2h3v2c2.29.27 2.29.27 5.47.31.56.01.56.01 3.42.07 2.41.04 4.81.07 7.22.1 1.13.02 2.26.05 3.42.08 1.05.01 2.1.03 3.18.04.37.07.37.07 2.29.4v3h-2v5h-2v4c-2.02.5-2.02.5-4.88.5-.53.01-.53.01-3.23.03l-3.52-.03H55.8q-3.75 0-7.5-.03c-3.85-.03-7.7-.02-11.55-.01l-7.25-.03c-1.17.01-2.33.01-3.53.01-1.06-.01-2.12-.02-3.22-.04-.94 0-1.89-.01-2.86-.01-.31-.07-.31-.07-1.89-.39 1.24-3.73 3.21-5.27 6-8 .56-.76 1.11-1.53 1.69-2.31.21-.28.21-.28 1.31-1.69h2l1-3h2Z"/><path fill="#e6c9b1" d="M161 305c11.55-1.63 11.55-1.63 15.97 1.31 1.28 1.63 1.28 1.63 3.03 4.69l2 1v2h2c.33 1.33.67 2.67 1 4h2v2h2v2c-2.01.3-2.01.3-4.85.37l-3.21.09c-1.15.02-2.31.03-3.5.05l-3.56.06c-2.49.03-4.98.06-7.47.08-2.56.02-5.13.07-7.69.14-3.68.1-7.35.13-11.03.16l-3.5.12c-5.47-.03-5.47-.03-8.19-1.07-1.05-2.5-1.11-4.36-1-7.06V313h-2v-3c2.29-.4 2.29-.4 5.47-.44 1.13-.03 2.25-.05 3.42-.08 1.19-.02 2.38-.03 3.61-.04 2.34-.04 4.69-.08 7.03-.13 1.05-.01 2.1-.03 3.18-.04.75-.09 1.51-.18 2.29-.27v-2h3Z"/><path fill="#fca11f" d="M59 192c2.84-.27 2.84-.27 6.5-.25.6 0 .6 0 3.66-.02.93.09 1.87.18 2.84.27v2h3v3h3v2h3c.4 2.41.4 2.41.38 5.5 0 1.02.01 2.04.02 3.09-.13.8-.26 1.59-.4 2.41h-3v3h-3v2h-3v3c-3.22.37-6.34.44-9.58.44-2.04.06-2.04.06-5.42.56-1.1 1.97-1.1 1.97-1 4l2 1c-2.37.25-2.37.25-5 0v-3h-3c.16-.5.16-.5 1-3h1c.42-1.75.42-1.75.75-4q.18-1.11.36-2.25c-.04-.58-.07-1.16-.11-1.75h-3c-.4-1.75-.4-1.75-.38-4 0-.37 0-.37-.02-2.25.13-.58.26-1.16.4-1.75h3v-5h3v-3h3Z"/><path fill="#eef3fa" d="M3 52c3.05-.52 3.05-.52 6 0v2h4v4h3q.06 3 0 6h2v2h3v-2c2.5-.25 2.5-.25 5 0v2h3v6h3v-2c2.5-.31 2.5-.31 5 0v3h3v3h2v2c-3.4.11-6.76-.07-10.16-.22-.93.07-1.87.14-2.84.22v3c-2.9.23-5.69-.01-8.59-.19-.8.06-1.59.13-2.41.19v3c-3.5.38-3.5.38-7 0v-3c-1.72.22-1.72.22-3.95.72-2.21.08-2.21.08-4.05-.72-1.15-4.11-1.06-8.15-.93-12.39.05-2.1.04-4.2.01-6.3.1-7.61.1-7.61.92-10.31"/><path fill="#1b49a1" d="M54 93c3.5-.81 3.5-.81 7 0 .81 2.5.81 2.5 1 5h2c-.12.83-.25 1.65-.38 2.5.13.83.25 1.65.38 2.5 2.69.61 5.31.57 8 0v-2c3-.75 3-.75 6 0 .76 3.36.77 6.64 0 10h-3v3h-3c-.4 1.75-.4 1.75-.38 4 0 .74-.01 1.48-.02 2.25.07.29.07.29.4 1.75h3v4c1.97.29 1.97.29 4.5.06 2.53-.21 2.53-.21 4.5-.06v3c-1.97.22-1.97.22-4.5.06-2.53-.15-2.53-.15-4.5-.06v2h-3c-.22 2.41-.22 2.41-.06 5.5.15 3.09.15 3.09.06 5.5h-2v4h2v2h3v2h-4v-2c-2.62-.11-5.19.07-7.81.22-.72-.07-1.45-.14-2.19-.22v-3h3v-3h3v-2h2v-6h2v-3h-4v-2l-3 .06-3-.06v-3h-2v3h-3v3h-3v2c-3 .25-3 .25-6 0v-2h-2c-.11-3.4.07-6.76.22-10.16-.07-.93-.14-1.87-.22-2.84h-3v-2h-2v-3c1.75-.4 1.75-.4 4-.38.74 0 1.48-.01 2.25-.02.29.07.29.07 1.75.4v3h2c.31 3 .31 3 0 6h-3c-.38 3-.38 3 0 6h3v-3h3v-3h3v-3c2.5-.38 2.5-.38 5 0v3h3v3c3 .62 3 .62 6 0 .56-3.5.56-3.5 0-7h-3c-.31-2.5-.31-2.5 0-5h2c-.69-1.94-.69-1.94-2-4l-3-1v-3h-4l-1-2h-4v-3h-2c-.36-2.82-.1-5.38 1-8"/><path fill="#908178" d="M56 299q.06 3 0 6h2v2c2.66.21 5.21.28 7.88.27h2.42c1.69 0 3.39 0 5.08-.01 2.61-.01 5.22 0 7.82.01h4.92c.79 0 1.58 0 2.39.01 1.83-.02 3.66-.14 5.49-.28v-2l3 .06 3-.06v-3c1.75-.4 1.75-.4 4-.38.37 0 .37 0 2.25-.02.58.13 1.16.26 1.75.4v3q3 .06 6 0v2c2.66.21 5.21.28 7.88.27h2.42c1.69 0 3.39 0 5.08-.01 2.61-.01 5.22 0 7.82.01h4.92c.79 0 1.58 0 2.39.01 1.83-.02 3.66-.14 5.49-.28v-2h2l-.06-3 .06-3h3v3c.41.07.41.07 2.5.44.82.18 1.65.37 2.5.56v4h-2v2c-4.11 1.37-8.06 1.37-12.37 1.55-.97.05-1.93.09-2.93.13-11.66.46-23.32.47-34.99.45-3.77 0-7.55 0-11.32.01-11.16 0-22.3-.07-33.45-.59-.43-.01-.43-.01-2.6-.11-7.29-.39-7.29-.39-10.34-1.44v-2h-2c-.25-2.5-.25-2.5 0-5h2v-2c3-1 3-1 6-1"/><path fill="#d7d3d2" d="M84 137l1 3h2v-3c2.5-.31 2.5-.31 5 0v2c2.28.2 2.28.2 5.43.12 1.13-.01 2.25-.03 3.41-.04 2.39-.05 4.79-.11 7.19-.16.56-.01.56-.01 3.4-.04 1.05-.03 2.09-.05 3.16-.08.8.07 1.59.13 2.41.2.16.33.16.33 1 2 .68.1 1.36.21 2.06.31.64.23 1.28.46 1.94.69-.1.85-.21 1.69-.31 2.56L122 147c3.02.61 5.97.57 9 0v-2h2l-.12-2.94L133 139c2-1.31 2-1.31 4-1 .44 3.38.44 3.38 0 7l-3 1c-.05.34-.05.34-.28 2.04-.24.65-.47 1.29-.72 1.96-2.94.46-2.94.46-6.56.38-.6-.01-.6-.01-3.63-.04-.93-.11-1.86-.23-2.81-.34v-2c-2.44-.21-4.77-.28-7.22-.27h-2.22c-1.55 0-3.11 0-4.66.01-2.39.01-4.78 0-7.17-.01h-4.51c-.72 0-1.44 0-2.19-.01-1.68.02-3.36.14-5.03.28v2c-2.62.27-2.62.27-6 .25-.56 0-.56 0-3.38.02-.86-.09-1.73-.18-2.62-.27v-2h-3v-2h-2v-4h2v-3h3v3h3v-3c2 .33 4 .67 6 1Z"/><path fill="#d8bda6" d="M202 224h3c.72 3.99.64 8.02.67 12.07.02 2.06.1 4.1.18 6.15.06 6.65.06 6.65-.85 9.78-3.06.56-5.27-.7-8-2l2 2c-3.09.18-6.09.23-9.19.19h-2.69c-6.7-.05-6.7-.05-10.12-1.19v1c-2.93.13-5.82.19-8.75.19l-2.5.03c-.4.01-.4.01-2.42.01-.37 0-.37 0-2.22.01-2.46-.28-4.05-.88-6.11-2.24-.04-1.67-.04-3.33 0-5h-3v-3c1.9-.24 1.9-.24 4.59-.05 1 .05 2 .11 3.03.17.55.04.55.04 3.32.22 2.28.1 4.55.19 6.83.28 3.63.14 7.25.32 10.87.57 16.46 1.12 16.46 1.12 21.36-1.19 2.49-4.4 1.41-9.34.59-14.1-.2-1.28-.39-2.57-.59-3.9"/><path fill="#a49684" d="M200 223c2.67-.37 2.67-.37 5 0l-3 1c.05 1.75.05 1.75.57 3.99 1.7 9.91 1.7 9.91-.57 14.01-7.12 3.53-16.84 1.72-24.5 1.25-2.36-.07-4.72-.14-7.08-.2-4.31-.13-8.62-.28-12.92-.54-.87-.05-1.74-.1-2.64-.15q-.915-.18-1.86-.36v-2c-.82-.16-1.65-.33-2.5-.5-.82-.16-1.65-.33-2.5-.5v-2h-2v-3c5.47-1.67 11.43-.95 17.09-.75 2.16.06 4.33.1 6.5.15 3.41.07 6.82.16 10.23.3 3.3.13 6.59.19 9.89.24 1.03.06 2.06.11 3.13.17 4.87.02 4.87.02 7.16-1.11.56-2.81.34-5.02-.13-7.85.02-.35.02-.35.13-2.15"/><path fill="#b48a5b" d="M68 253h1c-.19.94-.38 1.88-.57 2.84-.98 6.48-.98 6.48.57 10.16 5.4 1.93 13.54 1.71 19 0v-3h2c-.09.5-.09.5-.56 3 .18.99.37 1.98.56 3 3.69.76 7.31.77 11 0v-3h2v-3h3v3c1.82.31 1.82.31 4.34.22.9-.02 1.8-.03 2.72-.05.95-.04 1.9-.07 2.88-.11 1.86-.06 3.72-.11 5.59-.15l2.52-.09 1.95.18c.16.33.16.33 1 2-3.18.29-6.34.32-9.54.36-.81.21-1.62.42-2.46.64.5 2.54.5 2.54 2 5h2v2h2c.16.33.16.33 1 2 1 .07 2 .14 3.03.21l2.97.79c.66 2.94.66 2.94.5 6.56l-.09 3.63c-.14.93-.27 1.86-.41 2.81h-2v-4h-2l.06-3.5-.06-3.5h-3v-2h-2c-.02 3.4.2 6.76.42 10.16-.14.93-.28 1.87-.42 2.84-2.49.64-2.49.64-5 0-.41-4.05-.23-7.07.75-11 .08-.66.17-1.32.25-2h-4v-3h3c.12-3.5.12-3.5-1-7-3.56-.56-3.56-.56-7 0v2h-2c.08 1.15.16 2.31.25 3.5-.08 1.15-.16 2.31-.25 3.5-3.25.5-3.25.5-6 0l1.62-.12c.79-.29 1.57-.58 2.38-.88.5-2.99.5-2.99 0-6-2.37-.86-2.37-.86-5.66-1.02-1.19-.07-2.37-.15-3.6-.22-1.25-.04-2.51-.09-3.8-.14-1.23-.06-2.46-.13-3.73-.2-3.4-.18-6.8-.31-10.21-.42l-2.38-.12c-1.9-.07-1.9-.07-4.62.12-1.44 2.44-1.44 2.44-1 5 2.1.63 4.03.75 6.21.86.59.05 1.18.09 1.79.14v1c-2.09-.01-4.16-.13-6.25-.26-.58.09-1.16.17-1.75.26v3c-1.67.04-3.33.04-5 0v2c-1.97.27-1.97.27-4.5.25-.42 0-.42 0-2.53.02-.65-.09-1.3-.18-1.97-.27v-2c-.4-.03-.4-.03-2.44-.19-.84-.27-1.69-.53-2.56-.81-1-3.56-1-3.56-1-7h3v2c.99.17 1.98.33 3 .5.99.17 1.98.33 3 .5v2c3.11.86 5.95 1.12 9 0 .65-2.75.44-5.01.12-7.81L65 266h2c.16-2.08.16-2.08.06-4.81-.1-3.19-.08-5.13.94-8.19"/><path fill="#2171de" d="M50 101c2.5-.31 2.5-.31 5 0v3c.64-.17 1.28-.33 1.94-.5.68-.17 1.36-.33 2.06-.5l1 3h4v3l2.5-.12 2.5.12c.44 2.5.44 2.5 0 5h-2c-.31 2.5-.31 2.5 0 5h3c.56 3.5.56 3.5 0 7-3 .62-3 .62-6 0v-3h-3v-3c-2.5-.38-2.5-.38-5 0v3h-3v3h-3v3h-3c-.38-3-.38-3 0-6h3c.31-3 .31-3 0-6h-2v-3c-2.41-.08-2.41-.08-5.5.19-3.04.1-3.04.1-5.5-.19-.81-3-.81-3 0-6h2v-2c2.11-.11 4.15.07 6.25.22.58-.07 1.16-.14 1.75-.22v-3h3Z"/><path fill="#2a5a15" d="M42 218h3v6h3v2l2.5-.06 2.5.06v3h3v3c2.41.22 2.41.22 5.5.06 3.09-.15 3.09-.15 5.5-.06v2c2.11.11 4.15-.07 6.25-.22.58.07 1.16.14 1.75.22v3c-2.84.4-2.84.4-6.5.38-1.21 0-2.41.01-3.66.02-.93-.13-1.87-.26-2.84-.4v-3c-1.82-.34-1.82-.34-4.39-.29-.48.01-.48.01-2.9.03l-3.17.06c-2.19.01-4.37.02-6.55.02q-5.205.03-10.41.12c-3.33.06-6.65.06-9.98.05-.52.02-.52.02-3.17.11-4.93-.05-4.93-.05-7.43-1.1-1.34-3.01-1.4-5.75-1-9 1-1 1-1 3.68-1.03.59.01.59.01 3.54.11 1.26.02 2.52.05 3.82.08 2.02.04 4.04.09 6.05.16 1.94.07 3.88.1 5.82.13 1.17.04 2.33.07 3.54.1.84-.18 1.68-.36 2.55-.55.19-2.53.19-2.53 0-5"/><path fill="#786044" d="M136 132l3 1c.04 2.33.04 4.67 0 7h2v2h3v3h4v2h2v3h2v3h3v2h3v3c1.75.4 1.75.4 4 .38.74 0 1.49.01 2.25.02.29-.07.29-.07 1.75-.4v-3c2.41-.4 2.41-.4 5.5-.38 1.02 0 2.04-.01 3.09-.02.8.13 1.59.26 2.41.4v3c-2.64.23-5.17-.01-7.81-.19-.72.06-1.45.13-2.19.19v3q-3 .06-6 0v2h-3v-3h-2v-2h-3v-3l-2.44.25c-.84-.08-1.69-.16-2.56-.25l-.12-3.5c-.29-1.16-.58-2.31-.88-3.5-3.7-.85-7.29-.84-11 0v3h-2v2c-2.87.21-5.63.28-8.5.25-.81.01-1.62.02-2.46.02-2.01 0-4.03-.13-6.04-.27v-2c-2.48-.26-2.48-.26-5.91-.27h-3.69c-1.29 0-2.57.01-3.9.02-1.29-.01-2.58-.02-3.9-.02h-3.69c-1.13.01-2.27.01-3.43.01-.82.09-1.64.17-2.48.26v2c-2.55.23-4.95.32-7.5.31-.72.02-1.43.03-2.17.05-2.05 0-2.05 0-5.33-.36v-3c2.62-.22 2.62-.22 6-.06 3.38.15 3.38.15 6 .06v-2c2.44-.21 4.77-.28 7.22-.27h2.22c1.55 0 3.11 0 4.66.01 2.39.01 4.78 0 7.17-.01h4.51c.72 0 1.44 0 2.19-.01 1.68.02 3.36.14 5.03.28v2c2.81.34 2.81.34 6.44.38.59.01.59.01 3.62.08.97-.15 1.94-.3 2.94-.46.79-1.96.79-1.96 1-4l2-1c.88-3.62.88-3.62 1-7-1.94-.31-1.94-.31-4 1-.12 3.06-.12 3.06 0 6h-2v2c-1.97.3-1.97.3-4.5.31-.42.01-.42.01-2.53.05L122 147v-3c1.97-.05 1.97-.05 4.5.25 2.5.11 2.5.11 4.5-.25.44-3.5.44-3.5 0-7h2v-3h2Z"/><path fill="#b17b36" d="M61 294c2.81-.25 2.81-.25 6 0v3c2.57.17 4.94.18 7.5.06 2.52-.1 4.97-.13 7.5-.06v2c3.16.21 6.24.28 9.41.27h2.89c2.02 0 4.05 0 6.07-.01 3.12-.01 6.23 0 9.34.01h5.88c.94 0 1.88 0 2.85.01 2.19-.02 4.38-.14 6.56-.28v-2c4.12-.74 8.33-.8 12.5-1 .6-.04.6-.04 3.61-.27.57-.03.57-.03 3.42-.17l3.18-.18 2.29.62c.47 3.03.47 3.03 0 6h-2v2c-2.37.21-4.63.28-7 .27h-2.15c-1.51 0-3.02 0-4.52-.01-2.32-.01-4.64 0-6.95.01H123c-.7 0-1.4 0-2.12.01-1.63-.02-3.26-.14-4.88-.28v-2c3.14-.15 6.24.01 9.38.12L128 302v-2c-2.75-.26-2.75-.26-6.56-.27h-2.02c-1.41 0-2.83 0-4.24.01-2.17.01-4.34 0-6.52-.01h-4.1c-1.25.01-2.51.01-3.81.01-.45.04-.45.04-2.75.26v2h-4v2c-2.44.21-4.77.28-7.22.27h-2.22c-1.55 0-3.11 0-4.66-.01-2.39-.01-4.78 0-7.17.01h-4.51c-.72 0-1.44 0-2.19.01-1.68-.02-3.36-.14-5.03-.28v-2h-2c-.44-3.06-.44-3.06 0-6 2.5.25 2.5.25 5 1v-2Z"/><path fill="#cfb69e" d="M136 250h3v3h2c.18 2.57.18 2.57.09 6.12l-.06 3.83q-.06 3.045-.15 6.09c-.04 1.94-.07 3.89-.1 5.84l-.09 3.55c.1.85.2 1.7.31 2.57h3c.04 2.33.04 4.67 0 7h2c.44 3.5.44 3.5 0 7-2.5.31-2.5.31-5 0v2c-2.5.31-2.5.31-5 0v-3c1.67-.04 3.33-.04 5 0v-2h-2v-2h2v-4h-2c-.17-.83-.17-.83-1-5h-2v-2c-3.63-.11-7.22.07-10.84.22-1.04-.07-2.09-.14-3.16-.22l-1-3h-2v-2h-2l-1 2c-1.25-3.25-1.25-3.25-1-7 2.86-1.06 5.53-1.39 8.56-1.71.8-.1 1.61-.19 2.44-.29v-1c.72.15 1.44.31 2.19.46 5 .84 5 .84 7.81-.46.68-4.31.42-8.18.06-12.5Z"/><path fill="#d0b59c" d="M70 237c2.51-.49 4.36-.56 6.88-.44 1.31.02 2.63.05 3.99.07 1.03.12 2.06.24 3.13.37v2h4v3h7v3c2.58 1.13 4.79 1 7.62 1 3.38 0 3.38 0 5.38 1v-2h3v3h-3v2l-2.5-.06-2.5.06v3h-2v3h-3v2h-2v3h-3c-.69 2.5-.69 2.5 0 5 2.15.27 4.09.12 6.25-.12l1.75.12v3c-3.74.95-7.29 1.06-11 0-1.22-3.06-.93-5.87 0-9h2v-2h-2v-2l-3-1v-2h-2v-2c-.78-.12-1.57-.25-2.38-.38-.86-.2-1.73-.41-2.62-.62-1.12-2-1.12-2-2-4l-3-1v-3h-3c-1.62-2.47-1.62-2.47-2-5"/><path fill="#50850e" d="M187 215h2c-.09 1.34-.25 2.67-.44 4-.09 2.24-.09 2.24.44 4 2.42.43 4.54.18 6.97-.05.34.01.34.01 2.03.05.94 2.5.94 2.5 0 5-3 .44-3 .44-6 0v-2l-2 1q-.15 1.005-.3 2.04c-.23.65-.46 1.29-.7 1.96-2.22.42-2.22.42-5.13.32-.52-.01-.52-.01-3.13-.07-1.09-.04-2.18-.08-3.3-.13-2.15-.06-4.3-.12-6.44-.17-.48-.02-.48-.02-2.9-.11-.7.05-1.39.1-2.1.16v2c-1.84.27-1.84.27-4.38.31-.9.02-1.8.05-2.73.07-1.93.04-3.85.07-5.78.1-.45.01-.45.01-2.73.08-.84.01-1.68.03-2.54.04-.31.07-.31.07-1.84.4v3h2v2c.85.1 1.69.21 2.56.31.81.23 1.61.46 2.44.69-.06 2.56-.06 2.56-1 5h-2v-3h-3v-2h-2v-3c-2.41-.19-2.41-.19-5.5 0s-3.09.19-5.5 0v-3c2.33-.04 4.67-.04 7 0v-2c2.88-.11 5.72.07 8.59.22.8-.07 1.59-.14 2.41-.22v-3h4v-3h2l1-3h2v-2h3v2c2.7.1 5.31.09 8 0s5.3-.1 8 0v2h2v-2c.82.12 1.65.25 2.5.38.82-.13 1.65-.25 2.5-.38.32-2.15.18-4.09-.02-6.25.01-.58.01-1.16.02-1.75"/><path fill="#af6e20" d="M75 235c2.24-.25 2.24-.25 5.42-.26 1.18-.01 2.36-.01 3.58-.02 1.29.01 2.58.01 3.91.01h3.96c2.78 0 5.56 0 8.34.01 3.57.01 7.14 0 10.71-.01 3.39-.01 6.78 0 10.17 0 1.29 0 2.58 0 3.91-.01.6.01.6.01 3.58.02.53 0 .53 0 3.18.01.37.04.37.04 2.24.25v2h2v3h-3v2h-2v-2c-3.06-.27-3.06-.27-7-.25-.65 0-.65 0-3.94-.02-1.01.09-2.02.18-3.06.27v2h-3v3q-3 .06-6 0v2c-2.19.27-2.19.27-5 .25-.93.01-1.86.01-2.81.02q-1.08-.135-2.19-.27v-2h-3v-3h-7v-3h-4v-2c-1.97-.12-1.97-.12-4.5 0s-2.53.12-4.5 0Z"/><path fill="#b6b6b6" d="M200 0c5.29-1.19 5.29-1.19 8 0 1.4 4.17 1.04 8.52.97 12.87 0 1.4.01 2.8.02 4.19.02 3.87-.01 7.73-.05 11.6-.03 4.16-.02 8.32-.01 12.48.01 8.16-.02 16.31-.07 24.47-.05 9.49-.06 18.98-.07 28.46-.01 16.92-.06 33.85-.13 50.77q-.105 24.66-.15 49.32v3.07c-.01 4.07-.01 8.14-.02 12.21-.02 18.47-.07 36.94-.11 55.4 0 .94-.01 1.89-.01 2.85-.03 11.75-.06 23.49-.11 35.24l-.03 9.84c-.01 3.76-.03 7.53-.05 11.29-.01 2.02-.01 4.05-.01 6.07-.01 1.18-.02 2.36-.02 3.58-.01 1.03-.01 2.06-.02 3.12-.04.71-.08 1.43-.13 2.17h-1c-.1-1.72-.13-3.44-.13-5.16 0-.57 0-.57-.01-3.48v-3.89c0-1.36 0-2.73-.01-4.09 0-3.76-.01-7.53-.01-11.29 0-4.05-.01-8.1-.01-12.15l-.03-21.09c-.01-11.1-.03-22.2-.05-33.31-.01-3.79-.02-7.59-.02-11.38-.01-.48-.01-.48-.01-2.88l-.06-32.42v-3c-.03-16.02-.05-32.03-.06-48.05q-.03-24.645-.09-49.29c-.02-10.14-.04-20.28-.04-30.43 0-6.94-.01-13.89-.04-20.84-.01-4.02-.01-8.03-.01-12.04.01-3.67 0-7.35-.02-11.02-.01-1.96 0-3.92.01-5.88l-.03-3.53v-3.04c-.58-4.22-2.32-6.86-5.57-9.55C200.54.8 200.28.4 200 0M0 0c3.16-1.46 4.52-.9 8 0-1.94 2.88-1.94 2.88-3.53 4.49-2.78 2.85-2.6 5.07-2.61 8.93 0 1.15-.01 2.31-.01 3.5v3.89c-.01 1.36-.01 2.73-.01 4.1-.02 3.77-.02 7.54-.03 11.31 0 4.06-.01 8.12-.02 12.18-.02 7.03-.04 14.07-.05 21.11-.02 10.18-.04 20.35-.07 30.53l-.12 49.53v3l-.06 24.07c-.01 7.02-.03 14.03-.04 21.05 0 .99-.01 1.98-.01 3-.03 16.44-.07 32.89-.12 49.34-.02 10.16-.05 20.32-.06 30.47-.02 6.96-.03 13.91-.05 20.86l-.03 12.06c0 3.67-.01 7.34-.02 11.01-.01 1.97-.01 3.94-.01 5.92 0 1.15-.01 2.3-.01 3.49-.01 1-.01 2.01-.01 3.04-.04.7-.09 1.4-.13 2.12H0c-.11-1.76-.14-3.53-.15-5.29 0-1.19-.01-2.37-.02-3.58v-4c-.01-1.4-.02-2.8-.02-4.19-.02-3.87-.03-7.73-.04-11.6-.01-3.31-.03-6.62-.04-9.93-.05-11.85-.08-23.71-.11-35.57 0-.93 0-1.87-.01-2.83-.04-18.54-.08-37.07-.11-55.61 0-4.08-.01-8.16-.01-12.24-.01-1.01-.01-2.02-.01-3.07q-.045-24.66-.15-49.32c-.07-16.86-.11-33.71-.12-50.57-.01-9.47-.03-18.94-.09-28.42-.04-8.06-.06-16.13-.05-24.19.01-4.12 0-8.24-.04-12.36-.03-3.76-.03-7.53 0-11.29 0-2.02-.03-4.05-.07-6.07C-.95 2.82-.95 2.82 0 0"/><path fill="#f4dfc5" d="M70 279c5.63-1.43 10.53-2.18 16 0 2.05 5.72 1.11 14.36-1 20h-3v-2c-3.24-.09-6.43.01-9.67.17-2.05.05-2.05.05-5.33-.17v-3l-3 .06-3-.06v-4h4v-4h2l-.06-2.5L67 281h3Z"/><path fill="#a7b7b1" d="M173 70h2c-.2 1.75-.2 1.75-.69 4-.35 2.24-.35 2.24-.31 4 2.44.12 2.44.12 5 0 .56 3 .56 3 0 6h-4v2c1.74.26 1.74.26 4.16.27h2.59c.46 0 .46 0 2.75-.02.91.01 1.81.02 2.75.02h2.59c.8-.01 1.6-.01 2.42-.01.28-.04.28-.04 1.74-.26v-2c-2.11.02-4.16.27-6.25.52-.58-.17-1.16-.34-1.75-.52-.72-2.97-.72-2.97 0-6 2.82-.68 4.67-.84 7.5-.75.72-.02 1.43-.05 2.17-.07 2.05.02 2.05.02 5.33.82.22 3.05.22 3.05 0 6h4v4c-2.68.35-4.97.41-7.66.32l-2.35-.03c-2.5-.04-4.99-.1-7.49-.17-2.5-.05-4.99-.1-7.49-.14-1.56-.02-3.12-.06-4.67-.1-1.78-.04-3.56.03-5.34.12v2h-3v2c-2.5.81-2.5.81-5 1v-3h2v-2h2v-4h-2v2h-2c-.25-2.5-.25-2.5 0-5h2v-3h3v-2h2v-3h4Z"/><path fill="#d6c5b0" d="M191 107h3c.35 3.16.49 6.12.51 9.29l.06 2.93c.05 3.14.08 6.27.12 9.4.03 2.03.07 4.06.1 6.09.14 8.25.24 16.48.16 24.72l-.03 3.11c-.02 1.96-.04 3.92-.08 5.88-.02 2.19.06 4.39.16 6.58h2c.32 2.88.46 5.61.5 8.5l.12 2.46c.04 2.32.04 2.32-.62 6.04-3 .72-3 .72-6 0-.66-2.85-.79-4.92-.73-7.8 0-.83-.01-1.66-.02-2.52-.01-2.76.03-5.51.06-8.27v-5.72c.01-4 .03-8 .07-12.01.05-5.14.07-10.29.06-15.43 0-3.94.02-7.88.04-11.81.01-1.9.02-3.8.02-5.7.01-2.65.03-5.29.06-7.94v-2.41c.04-2.16.04-2.16.44-5.39"/><path fill="#a49684" d="M18.1 232.87c.82 0 1.64-.01 2.49-.01.88 0 1.77 0 2.68.01.91 0 1.83-.01 2.77-.01 1.93 0 3.87 0 5.8.01 2.95 0 5.9 0 8.85-.01 1.88 0 3.76 0 5.64.01.88-.01 1.76-.01 2.66-.01 9.11.04 9.11.04 13.01 1.14v3h-3v3c-3.77.72-7.67.46-11.5.44l-3.33.06h-6.06c-.7-.16-1.39-.33-2.11-.5v-4h-2v4c-2.82.46-5.17.6-8 .56-.38.01-.38.01-2.31.07-2.19 0-2.19 0-5.69-.63-.38-2.54-.38-2.54 0-5h-2c.06.82.12 1.65.19 2.5-.07.82-.13 1.65-.19 2.5-2.5.69-2.5.69-5 .001-.5-2.94-.5-2.94 0-6 2.72-.91 4.3-1.13 7.1-1.13"/><path fill="#fc7519" d="M65.625 193.75c.41-.01.41-.01 2.48-.08.31.06.31.06 1.9.33v3h2c.33 1.67.66 3.33 1 5h2c.3 1.75.3 1.75.31 4 .01.37.01.37.05 2.25-.12.58-.24 1.16-.36 1.75h-3c.1.82.2 1.65.31 2.5-.11.82-.21 1.65-.31 2.5-2.69.61-5.31.57-8 0v-2l-2.5.06-2.5-.06v-3h-3c-.4-2.15-.4-2.15-.38-4.94-.01-.91-.02-1.83-.02-2.77.06-.38.06-.38.4-2.29.99-.33 1.97-.66 3-1v-4c2.36-1.18 3.98-1.2 6.62-1.25"/><path fill="#fc7218" d="M134 197c2.84-.36 2.84-.36 6.5-.31 1.21 0 2.41.01 3.66.01.93.1 1.87.2 2.84.3v2h3v3h2c.3 1.75.3 1.75.31 4 .01.37.01.37.05 2.25-.12.58-.24 1.16-.36 1.75h-3v2c-2.87 1.44-5.43 1.21-8.62 1.25-.6.01-.6.01-3.61.08-.91-.11-1.83-.22-2.77-.33v-3h-3c-.4-2.19-.4-2.19-.38-5 0-.93-.01-1.86-.02-2.81.13-.72.26-1.45.4-2.19h3Z"/><path fill="#b9d8f9" d="M136 38c3.5-.38 3.5-.38 7 0v3h3v4h2v2h2v2h-4v3c-2.19.22-2.19.22-5 .06-2.81-.15-2.81-.15-5-.06v2c-3.5.25-3.5.25-7 0v-2h-6v-2h-4v-3h2c.25-.66.5-1.32.75-2 .41-.66.83-1.32 1.25-2 3.12-.44 3.12-.44 6 0v3c2.5.5 2.5.5 5 0 .19-2.5.19-2.5 0-5h2Z"/><path fill="#888a91" d="M187 25h3c.31 1.74.31 1.74.22 4.16-.02.85-.03 1.71-.05 2.59-.04.91-.07 1.82-.11 2.75q-.09 2.67-.15 5.34l-.09 2.42q.09.855.18 1.74h2c.02 3.66-.2 7.28-.42 10.94.07.5.07.5.42 3.06 2.51.16 2.51.16 5 0 .31 1.97.31 1.97 0 4.5-.15 2.52-.15 2.52 0 4.5 2.44.19 2.44.19 5 0 1.38 3 1.38 3 1 6-3.09.96-5.9.94-9 0-.12-3-.12-3 0-6h-7c-.56-3-.56-3 0-6h2v-3h-2c-.25-3-.25-3 0-6h2c.27-1.75.27-1.75.25-4 .01-.74.01-1.48.02-2.25-.09-.58-.18-1.16-.27-1.75h-2c-.49-3.13-.32-6.34-.31-9.5-.02-.91-.03-1.81-.05-2.75v-2.59c-.01-.8-.01-1.6-.01-2.42.12-.57.24-1.15.37-1.74"/><path fill="#b46c09" d="M180 161h2c.27 3.06.27 3.06.25 7 .01 1.3.01 2.6.02 3.94-.09 1.01-.18 2.02-.27 3.06h-2l.06 3-.06 3h-3v3h-2v2l-3-.06-3 .06v3h-2c-1.49-2.98-.97-5.82-.84-9.1-.05-.63-.11-1.25-.16-1.9h-2c-.3-1.75-.3-1.75-.31-4-.02-.74-.04-1.49-.05-2.25.12-.58.24-1.16.36-1.75h3c.12.74.25 1.49.38 2.25.2.58.41 1.16.62 1.75 3.12-2 4.94-3.91 7-7v6h2v-3h3c.22-1.97.22-1.97.06-4.5-.15-2.53-.15-2.53-.06-4.5"/><path fill="#72777b" d="M191 96h3v3q3 .06 6 0v2h2l-.06 3 .06 3h3c.32 2.84.42 5.47.4 8.31 0 .42 0 .42.01 2.56 0 1.79-.01 3.58-.02 5.37-.01 2.75 0 5.5.02 8.25 0 1.73-.01 3.47-.01 5.2 0 .41 0 .41.02 2.52-.03 2.3-.03 2.3-.42 5.79h-3c-.31-1.74-.31-1.74-.22-4.16.02-.85.03-1.71.05-2.59.04-.91.07-1.82.11-2.75q.09-2.67.15-5.34l.09-2.42q-.09-.855-.18-1.74h-2c-.18-1.74-.18-1.74-.09-4.16l.06-2.59c.06-1.83.13-3.67.2-5.5.01-.85.03-1.71.05-2.59l.09-2.42c-.1-.57-.2-1.15-.31-1.74h-3v-3c-2.44-.38-2.44-.38-5 0l-1 3c-.2-2.11-.2-2.11-.25-5.31-.03-1.05-.05-2.1-.08-3.18.11-.83.22-1.66.33-2.51"/><path fill="#d0921c" d="M32 155c2.41-.4 2.41-.4 5.5-.38 1.02 0 2.04-.01 3.09-.02.4.07.4.07 2.41.4v3h4c.38 3.5.38 3.5 0 7h-2v2c-1.84-.01-3.67-.11-5.5-.25-3.07-.08-3.07-.08-5.5.25-.38 3-.38 3 0 6-2.45.66-2.45.66-5 0-.49-2.72-.61-4.78-.5-7.5 0-.72-.01-1.43-.01-2.17.04-2.05.04-2.05.51-5.33h3Z"/><path fill="#f2dcc2" d="M68 268c2.68.07 5.33.2 8 .38l4.89.3c.84.05 1.68.11 2.55.16 2.53.16 5.07.29 7.61.42l2.39.12c1.54.08 3.07.16 4.6.23 1.66.09 3.31.23 4.96.39l-2 1c.05.83.11 1.67.17 2.53-.03.41-.03.41-.17 2.47-1.94.6-1.94.6-4.64.56-.99-.01-1.98-.02-3-.02-1.05-.04-2.09-.07-3.17-.1-1.01-.01-2.01-.01-3.05-.02-5.17-.08-10.28-.44-15.4-1.13-.46-.07-.46-.07-2.76-.38-.65-.3-1.31-.6-1.98-.91-.36-2.52-.36-2.52 0-5Z"/><path fill="#b69d88" d="M103 263h3v3c1.82.31 1.82.31 4.34.22.9-.02 1.8-.03 2.72-.05.95-.04 1.9-.07 2.88-.11 1.86-.06 3.72-.11 5.59-.15l2.52-.09 1.95.18 1 2c-3.18.29-6.34.32-9.54.36-.81.21-1.62.42-2.46.64.5 2.54.5 2.54 2 5h2v2h2l1 2c1 .07 2 .14 3.03.21.98.26 1.96.52 2.97.79.66 2.94.66 2.94.5 6.56-.02.6-.02.6-.09 3.63-.14.93-.27 1.86-.41 2.81h-2v-4h-2l.06-3.5-.06-3.5h-3v-2h-2c-.02 3.4.2 6.76.42 10.16-.14.93-.28 1.87-.42 2.84-2.49.64-2.49.64-5 0-.41-4.05-.23-7.07.75-11 .08-.66.16-1.32.25-2h-4v-3h3c.31-3.5.31-3.5-1-7-2.66-.29-5.13-.06-7.8.15-.72-.05-1.45-.1-2.2-.15-.81-3-.81-3 0-6"/><path fill="#e2dfdb" d="M84 126c2.98-.32 5.76-.42 8.75-.4.89 0 1.78 0 2.69-.01 1.88 0 3.77.01 5.65.02 2.9.01 5.79 0 8.69-.02 1.82 0 3.65.01 5.47.01.87 0 1.75-.01 2.65-.02 2.43.03 2.43.03 6.1.42v3c1.97.22 1.97.22 4.5.06 2.53-.15 2.53-.15 4.5-.06v2h3c.25 3.19.25 3.19 0 6-.16-.5-.16-.5-1-3h-2v3h-2c.14 1.16.29 2.31.44 3.5-.15 1.16-.29 2.31-.44 3.5-3.03.81-5.95.68-9 0 0-2 0-2 2-4h4c.44-3 .44-3 0-6h-3v-3c-1.67-.04-3.33-.04-5 0v-2c-3.01.89-4.7 1.65-6.75 4.06-.41.31-.83.62-1.25.94.06-1.12.12-2.25.18-3.41-.39-1.18-.78-2.37-1.18-3.59-3.99-1.05-7.97-.74-12.06-.56-1.14.01-2.28.03-3.46.04-6.04.14-6.04.14-8.48.52v2h-3Z"/><path fill="#3e4d58" d="M194 87c1.08.02 2.16.03 3.27.05 1 .05 2.01.09 3.04.14.91.03 1.81.07 2.74.1.64.24 1.29.47 1.95.71.48 2.55.48 2.55 0 5h-3v-2c-2.29-.26-2.29-.26-5.47-.27h-3.42c-.59 0-.59 0-3.61.02-1.19-.01-2.38-.02-3.61-.02h-3.42c-1.05.01-2.1.01-3.18.01-.37.04-.37.04-2.29.26v2l-2.5-.06-2.5.06v3h-3v3h-2v2h-3v-3h-2c-.44-2.44-.44-2.44 0-5 2.5-.69 2.5-.69 5-1v-2h3v-2c7.73-1.64 16.14-1.2 24-1"/><path fill="#875310" d="M161 266h3c.38 2.5.38 2.5 0 5h-3c-.04 2.33-.04 4.67 0 7h-2v3h-4v3c-2.39.18-4.65-.08-7.03-.29-.65.1-1.3.19-1.97.29v4h-2l.06-3.5-.06-3.5h-3c-.69-2.5-.69-2.5 0-5 2.15-.31 4.09-.18 6.25.02.58-.01 1.16-.01 1.75-.02v-2l3.5.06 3.5-.06v-3c.82-.14 1.65-.29 2.5-.44.82-.18 1.65-.37 2.5-.56Z"/><path fill="#d3b38e" d="M78 245h2v2c.83.16 1.65.33 2.5.5.83.16 1.65.33 2.5.5v2h3v3h2v2h3v3h2v-3h3v-2h2v-3h-2v-2h-3v-3c1.35.27 2.68.63 4 1h3.62c3.38 0 3.38 0 5.38 1v-2h3v3h-3v2l-2.5-.06-2.5.06v3h-2v3h-3v2h-2v3h-3c-.69 2.5-.69 2.5 0 5 2.15.27 4.09.12 6.25-.12l1.75.12v3c-3.74.95-7.29 1.06-11 0-1.22-3.06-.93-5.87 0-9h2v-2h-2v-2l-3-1v-2h-2v-2c-.78-.1-1.57-.21-2.38-.31-.86-.23-1.73-.46-2.62-.69-1.44-2.56-1.44-2.56-2-5"/><path fill="#e3c7af" d="M9 260c2.39-.26 2.39-.26 5.69-.27h3.55c1.24 0 2.48.01 3.76.02 1.24-.01 2.48-.02 3.76-.02h3.55c1.09.01 2.18.01 3.3.01.79.09 1.58.17 2.39.26v2c-1.33.33-2.67.67-4 1v2c-4.82 3.21-10.08 2.37-15.75 2.38-1.19.02-2.37.04-3.6.07-1.12 0-2.23.01-3.38.01l-3.14.03c-.7-.16-1.4-.32-2.13-.49.01-1.99.01-1.99 1-4 2.56-.62 2.56-.62 5-1Z"/><path fill="#6b6763" d="M3 223c2.79-.72 5.28-1.07 8 0 .52 2.7.31 4.99-.01 7.71 0 .76.01 1.51.01 2.29l3 1h-3c-.5 3-.5 3 0 6 2.5.69 2.5.69 5 0 .19-2.5.19-2.5 0-5h2c-.12.81-.25 1.63-.38 2.46.13.84.25 1.68.38 2.54 2.89.52 5.11.65 8 .56.76.01 1.53.02 2.31.04 2.19-.03 2.19-.03 5.69-.6v-4h2v4c2.11.5 2.11.5 5.03.5h3.15l3.32-.06c1.1 0 2.19.01 3.32.02 6.04-.05 6.04-.05 8.18-.46v-3h3v3h-2v2h-2v3h-3v-3c-1.75-.24-1.75-.24-4.22-.05-.92.05-1.84.11-2.79.17-1.01.07-2.02.15-3.05.22-2.1.1-4.2.19-6.29.28-3.34.14-6.67.32-10 .57C13.47 244.31 13.47 244.31 9 242c-2.2-4.48-1.04-9.37-.22-14.1.07-1.28.14-2.57.22-3.9-2.93-.5-2.93-.5-6 0Z"/><path fill="#59780a" d="M42 218h3v6h3v2l2.5-.06 2.5.06v3h3v3c-2.5-.19-2.5-.19-5-1v-2a96 96 0 0 0-7-.5 96 96 0 0 1-7-.5v-2h-3v2c-2.5.25-2.5.25-5 0v-2c-1.75-.27-1.75-.27-4-.25-.74-.01-1.48-.01-2.25-.02-.58.09-1.16.18-1.75.27v2h-3v-2h-4v-3c2.57-.26 2.57-.26 6.12-.12.64.02.64.02 3.83.1 2.03.07 4.06.15 6.09.23 1.94.08 3.89.13 5.84.17 1.17.05 2.34.09 3.55.14.85-.17 1.7-.34 2.57-.52.2-2.52.2-2.52 0-5"/><path fill="#a38b76" d="M152 245h3l-.06 2.44.06 2.56c1.94.69 1.94.69 4 1 1 2 1 2 .75 4.56.08.81.16 1.61.25 2.44 2.5.94 2.5.94 5 1v-2h2v2c2.11.26 2.11.26 5.03.27h3.15c1.09 0 2.19-.01 3.32-.02.55 0 .55 0 3.32.02h3.15c.96-.01 1.93-.01 2.92-.01.7-.09 1.39-.17 2.11-.26v-2c2.57-.17 4.94-.18 7.5-.06.72 0 1.43-.01 2.17-.01 2.05.1 2.05.1 5.33 1.07.59 3.57.59 3.57 0 7h-2v-2c-.99-.17-1.98-.33-3-.5-.99-.17-1.98-.33-3-.5v-2c-2.29-.26-2.29-.26-5.47-.27h-3.42c-.59 0-.59 0-3.61.02-1.19-.01-2.38-.02-3.61-.02h-3.42c-1.05.01-2.1.01-3.18.01-.75.09-1.51.17-2.29.26v2c-1.68-.35-3.35-.78-5-1.25-2.79-.63-2.79-.63-5-.75-.44 2.88-.44 2.88 0 6h-3c-.23-2.06-.45-4.11-.62-6.17-.06-.3-.06-.3-.38-1.83-2-.69-2-.69-4-1-.69-2.56-.69-2.56-1-5h-1c-.25-3.5-.25-3.5 0-7"/><path fill="#dbd8d6" d="M137 138c.31 3.44.31 3.44 0 7l-3 1c-.05.34-.05.34-.28 2.04-.24.65-.47 1.29-.72 1.96-2.94.46-2.94.46-6.56.38-.6-.01-.6-.01-3.63-.04-.93-.11-1.86-.23-2.81-.34v-2c-1.97-.12-1.97-.12-4.5 0s-2.53.12-4.5 0v-2c-3.49-.05-6.92.06-10.4.25-2.2.07-2.2.07-5.6-.25-.15-.65-.31-1.31-.47-1.98.49-.67.97-1.33 1.47-2.02 2.67-.36 4.9-.47 7.56-.38.71.01 1.42.01 2.16.01 2.03.03 2.03.03 5.28.37v2c2.88.11 5.72-.07 8.59-.22.4.03.4.03 2.41.22v3c1.97.36 1.97.36 4.5.31.84 0 1.67-.01 2.53-.01l1.97-.3v-2h2v-6c2-1 2-1 4-1"/><path fill="#e2c4a8" d="M67 248h3c.04 1.67.04 3.33 0 5h2c.11 2.62-.07 5.19-.22 7.81.07.72.14 1.45.22 2.19h3v3c-2.94.81-2.94.81-6 0-.64-2.84-.81-5.53-.93-8.44-.02-.51-.05-1.03-.07-1.56-.31 2.48-.47 4.96-.62 7.46-.13.84-.25 1.68-.38 2.54h-2c.09 1.67.25 3.34.44 5 .09 2.77.09 2.77-.44 5-3.05 1.12-5.89.86-9 0v-2l-3-1c.91.25 1.81.5 2.75.75 1.07.08 2.14.17 3.25.25.75-2.44.75-2.44 1-5h2v-8h2c.34-1.75.34-1.75.5-4s.16-2.25.5-4h2l-.06-2.5Z"/><path fill="#a08771" d="M53 245h2c.25 2.5.25 2.5 0 5h-2c-.16.82-.33 1.65-.5 2.5-.08.41-.08.41-.5 2.5h-2c-.16.99-.33 1.98-.5 3-.16.99-.33 1.98-.5 3h-2l.06 2.5L47 266h-3c.06-.99.12-1.98.19-3-.06-.99-.13-1.98-.19-3-3-.5-3-.5-6 0v2c-3.46 3-3.46 3-6 3l1-3h2v-2c-2.39-.26-2.39-.26-5.69-.27h-3.55c-1.24 0-2.48.01-3.76.02-1.24-.01-2.48-.02-3.76-.02h-3.55c-1.09.01-2.18.01-3.3.01-.79.09-1.58.17-2.39.26v2c-3 1.5-3 1.5-6 2-.62-2.91-.62-2.91 0-6 3.06-.88 3.06-.88 7-1 1.3-.06 2.6-.12 3.94-.19 1.01.06 2.02.13 3.06.19v2c2.29.26 2.29.26 5.47.27h3.42c.59 0 .59 0 3.61-.02 1.19.01 2.38.02 3.61.02h3.42c1.05-.01 2.1-.01 3.18-.01.75-.09 1.51-.17 2.29-.26v-2h3v-2h3v-2h2v-4h3Z"/><path fill="#372a17" d="M111 186h3v5h3v-5h3c.39 1.74.39 1.74.4 4.16 0 .85.01 1.71.01 2.59l-.03 2.75.03 2.75c0 .85-.01 1.71-.01 2.59 0 .8-.01 1.6-.01 2.42q-.195.855-.39 1.74h-3v3h-3v-3h-3c-.39-1.74-.39-1.74-.4-4.16 0-.85-.01-1.71-.01-2.59l.03-2.75-.03-2.75c0-.85.01-1.71.01-2.59 0-.8.01-1.6.01-2.42q.195-.855.39-1.74"/><path fill="#ea900c" d="M150 296c.25 3 .25 3 0 6h-2v2c-2.37.21-4.63.28-7 .27h-2.15c-1.51 0-3.02 0-4.52-.01-2.32-.01-4.64 0-6.95.01H123c-.7 0-1.4 0-2.12.01-1.63-.02-3.26-.14-4.88-.28v-2c3.14-.15 6.24.01 9.38.12L128 302v-2l2.5.06 2.5-.06v-3c2.53-.4 4.83-.61 7.38-.69.69-.03 1.39-.07 2.11-.1 2.51-.12 5-.21 7.51-.21"/><path fill="#744a12" d="M139 142c2.5-.56 2.5-.56 5 0v3h4v2h2v3h2v3h3v2h3v3c1.75.4 1.75.4 4 .38.74 0 1.49.01 2.25.02.29-.07.29-.07 1.75-.4v-3c2.41-.4 2.41-.4 5.5-.38 1.02 0 2.04-.01 3.09-.02.8.13 1.59.26 2.41.4v3c-2.64.23-5.17-.01-7.81-.19-.72.06-1.45.13-2.19.19v3q-3 .06-6 0v2h-3v-3h-2v-2h-3v-3l-2.44.25c-.84-.08-1.69-.16-2.56-.25-.1-1.16-.21-2.31-.31-3.5-.23-1.16-.46-2.31-.69-3.5-1.83-.25-1.83-.25-4.06-.06L139 148c-.81-3-.81-3 0-6"/><path fill="#443d12" d="M160 224h4v2h-3c-.5 2.5-.5 2.5 0 5 2.5.19 2.5.19 5 0v2c-1.84.27-1.84.27-4.38.31-.45.01-.45.01-2.73.07-1.93.04-3.85.07-5.78.1-.45.01-.45.01-2.73.08-.84.01-1.68.03-2.54.04-.31.07-.31.07-1.84.4v3h2v2l2.56.31c.81.23 1.61.46 2.44.69-.06 2.56-.06 2.56-1 5h-2v-3h-3v-2h-2v-3c-2.41-.19-2.41-.19-5.5 0s-3.09.19-5.5 0v-3c2.33-.04 4.67-.04 7 0v-2c2.88-.11 5.72.07 8.59.22.8-.07 1.59-.14 2.41-.22v-3h4v-3h4Z"/><path fill="#6b888f" d="M186 78c2.82-.68 4.67-.84 7.5-.75.72-.02 1.43-.05 2.17-.07 2.05.02 2.05.02 5.33.82.22 3.05.22 3.05 0 6h4v4c-2.62.49-2.62.49-6.23.46-1.28 0-2.55-.01-3.87-.01-.33-.01-.33-.01-2.03-.04-2.06-.04-4.12-.04-6.18-.04-7.36-.07-7.36-.07-9.69-.37 3.76-2.51 5.72-2.15 10.19-2 2.27.07 4.54.1 6.81 0v-2c-2.11.02-4.16.27-6.25.52-.58-.17-1.16-.34-1.75-.52-.72-2.97-.72-2.97 0-6"/><path fill="#514c49" d="M72 122h3v4c1.97.29 1.97.29 4.5.06 2.53-.21 2.53-.21 4.5-.06v3c-1.97.22-1.97.22-4.5.06-2.53-.15-2.53-.15-4.5-.06v2h-3c-.22 2.41-.22 2.41-.06 5.5.15 3.09.15 3.09.06 5.5h-2v4h2v2h3v2h-4v-2c-2.62-.11-5.19.07-7.81.22-.72-.07-1.45-.14-2.19-.22v-3h3v-3h3v-2h2v-6h2v-3h-4v-2c.83.1 1.65.21 2.5.31.83-.1 1.65-.2 2.5-.31.12-3.5.12-3.5 0-7"/><path fill="#231c17" d="M90 184h3v2h2c.26 1.74.26 1.74.27 4.16v2.59c0 .91-.01 1.82-.02 2.75.01.91.02 1.81.02 2.75v2.59c-.01.8-.01 1.6-.01 2.42-.09.57-.17 1.15-.26 1.74h-2v2h-4v-2h-2c-.18-3.03-.23-5.97-.19-9v-2.6c.02-2.14.1-4.27.19-6.4h1c-.06.85-.12 1.69-.19 2.56.06.81.13 1.61.19 2.44 2 .12 2 .12 4-1 .38-2.56.38-2.56 0-5h-2Z"/><path fill="#969392" d="M106.125 138.813c1.03-.01 2.05-.02 3.11-.04h2.96c.9-.01 1.8-.01 2.72-.02l2.09.25c.16.33.16.33 1 2 .68.16 1.36.33 2.06.5.64.16 1.28.33 1.94.5v2c-2.41.26-2.41.26-5.5.25-1.03 0-2.05.01-3.1.01-.79-.08-1.59-.17-2.4-.26v-2c-3.04-.21-5.97-.28-9-.25l-2.61-.03c-2.13.01-4.27.13-6.39.28v2c-2.37.11-4.68-.08-7.04-.23-.65.08-1.3.15-1.96.23v3c-1.97.4-1.97.4-4.5.37l-2.54.03c-.65-.14-1.3-.27-1.96-.4v-3c1.74-.23 1.74-.23 4-.07 2.24.16 2.24.16 4 .07v-2c2.36-.15 4.66.01 7.03.12l1.97-.12v-2c4.63-1.55 9.27-1.19 14.12-1.19"/><path fill="#aad0f9" d="M16 73c2.5-.5 2.5-.5 5 0v3h3v2l2.5-.06L29 78v3c-2.9.23-5.69-.01-8.59-.19-.8.06-1.59.13-2.41.19v3c-3.5.38-3.5.38-7 0v-3c-1.75-.08-1.75-.08-4 .19-2.21.1-2.21.1-4-.19-.69-3-.69-3 0-6h3v3c2.19.47 2.19.47 5 .5l2.81.09c.72-.19 1.45-.39 2.19-.59.16-2.5.16-2.5 0-5"/><path fill="#e5c9b1" d="M184 269c3.27-1 6.92-.7 10.31-.75.51-.03.51-.03 3.08-.19 2.81-.04 4.98-.08 7.61.94 1.35 3.17 1.14 5.78 0 9-2.41.95-2.41.95-5.5.69-1.02-.06-2.04-.12-3.09-.18-.8-.17-1.59-.34-2.41-.51v-2h-2v-2c-1.66-.67-3.33-1.34-5-2-1.94-1.53-1.94-1.53-3-3"/><path fill="#c4a891" d="M44 271h1l-.06 3.5.06 3.5h2v2c-3.15.29-6.21.45-9.37.52-.95.03-1.91.05-2.89.08-2.02.05-4.04.1-6.06.14-3.1.07-6.2.17-9.31.27-1.95.04-3.91.09-5.87.13-.93.04-1.87.07-2.83.1-.43.01-.43.01-2.61.04l-2.31.06c-.58-.11-1.15-.23-1.75-.34l-1-3h7l1-3 3 1c4.34.42 8.69.63 13.04.83 1.44.07 2.87.16 4.31.25 2.06.14 4.13.23 6.19.32 1.24.07 2.48.14 3.75.21.9-.2 1.79-.4 2.71-.61.34-3.03.34-3.03 0-6"/><path fill="#e4c7ae" d="M162 253c2.84-.27 5.53-.38 8.38-.38.4.01.4.01 2.48.01 6.14.11 11.94.79 17.14 4.37v2c-2.11.26-2.11.26-5.03.27h-3.15c-1.09 0-2.19-.01-3.32-.02-.55 0-.55 0-3.32.02h-3.15c-.96-.01-1.93-.01-2.92-.01-.7-.09-1.39-.17-2.11-.26v-2h-3v-2h-2Z"/><path fill="#f7e4ca" d="M91 244c.37.06.37.06 2.25.38.58.2 1.16.41 1.75.62v3h3v2h2v3h-2v2h-3v3h-2v-3h-3v-2h-2v-3h-3v-2h-2c.19-1.94.19-1.94 1-4 3.23-1.08 3.9-.94 7 0"/><path fill="#344c5c" d="M181 94c2.71-.21 5.29-.28 8-.25.76-.01 1.53-.02 2.31-.02 1.9 0 3.8.13 5.69.27v2l2.5-.06 2.5.06v3h2c.52 1.75.52 1.75.81 4 .11.74.22 1.48.33 2.25-.04.58-.09 1.16-.14 1.75h-3q-.06-3 0-6h-2v-2l-3 .06-3-.06v-3h-3c-.2 2.74-.23 5.27-.12 8 .07 2.67.11 5.33.12 8h-1c-.03-3.44.03-6.87.13-10.31.03-1.9-.04-3.8-.13-5.69h-2c-.12 2.41-.12 2.41 0 5.5s.12 3.09 0 5.5h-2c-.11-2.88.07-5.72.22-8.59-.07-.8-.14-1.59-.22-2.41h-3v2c-3 .25-3 .25-6 0v-2h4Z"/><path fill="#192227" d="M83 96c3.06-.27 3.06-.27 7-.25 1.3-.01 2.6-.01 3.94-.02 1.01.09 2.02.18 3.06.27v2h4v3h3v2h2v3h2c.27 1.75.27 1.75.25 4 .01.74.01 1.48.02 2.25-.09.58-.18 1.16-.27 1.75h-2l.06-2.5-.06-2.5h-3v-3h-2c-1.62-1.37-1.62-1.37-3-3v-2h-3v-2c-2.41-.27-2.41-.27-5.5-.25-.51 0-.51 0-3.09-.02-.8.09-1.59.18-2.41.27v2c-3 .31-3 .31-6 0v-3c1.67-.04 3.33-.04 5 0Z"/><path fill="#28341d" d="M37 186h2c.18 2.39.18 2.39.09 5.69l-.06 3.55c-.06 2.51-.13 5.01-.2 7.52-.01 1.17-.03 2.34-.05 3.55l-.09 3.3c.1.79.2 1.58.31 2.39h3c.31 3 .31 3 0 6h-2v3c-3 .38-3 .38-6 0v-3h2v-3h-5v-3c.81.06 1.62.11 2.46.17.42-.03.42-.03 2.54-.17.63-2.39.63-2.39.64-5.69l.06-3.55c-.01-1.24-.01-2.48-.01-3.76.01-2.44.04-4.88.07-7.31v-3.3c.08-.79.16-1.58.24-2.39"/><path fill="#a46308" d="M29 175h2v3h3v3c.39-.43.78-.87 1.19-1.31C37 178 37 178 39.59 177.55c.39.07.39.07 2.41.45.56 2.41.56 2.41.44 5.5-.02 1.02-.05 2.04-.07 3.09-.12.8-.24 1.59-.37 2.41h-2c-.26 1.74-.26 1.74-.27 4.16v2.59c0 .91.01 1.82.02 2.75-.01.91-.02 1.81-.02 2.75v2.59c.01.8.01 1.6.01 2.42.09.57.17 1.15.26 1.74h2v4h-3c-.26-2.39-.26-2.39-.12-5.69.04-1.17.07-2.34.1-3.55.1-2.51.2-5.01.31-7.52.02-.58.02-.58.09-3.55.05-1.09.09-2.18.14-3.3-.17-.79-.34-1.58-.52-2.39-2.52-.23-2.52-.23-5 0v-2h-2v-3h-3c-.31-3-.31-3 0-6"/><path fill="#c1a48d" d="M58 288v2c-3.4.15-6.76-.01-10.16-.12L45 290v2h-3v-2c-2.87-.16-5.66-.18-8.53-.12-.87 0-1.73.01-2.62.02-2.79.02-5.57.06-8.35.1-3.66.05-7.31.09-10.97.12l-2.58.06c-1.99.01-3.97-.07-5.95-.18v-2c2.94-.27 5.79-.4 8.73-.45.9-.02 1.8-.04 2.73-.07 1.92-.04 3.85-.08 5.77-.11 2.9-.06 5.8-.13 8.7-.2 22.5-.51 22.5-.51 29.07.83"/><path fill="#4d9222" d="M11 207c3.5-.38 3.5-.38 7 0v3l2.44-.12L23 210c1.19 2.5 1.19 2.5 1 5-2.94.44-2.94.44-6 0v-2h-2v2c-2.19-.02-2.19-.02-5-.25-2.78-.08-2.78-.08-5 .25-.5 3-.5 3 0 6H4c-.38-4.08-.18-7.47 2-11 2.62-.12 2.62-.12 5 0Z"/><path fill="#fa990b" d="M59 296c2.5-.12 2.5-.12 5 1v4c1.94-.25 1.94-.25 5-1 1.6-.1 3.21-.16 4.81-.19.79-.01 1.58-.03 2.4-.04.29.04.29.04 1.79.23v2c2.53.1 4.97.09 7.5 0s4.97-.1 7.5 0v2c-2.37.21-4.63.28-7 .27h-2.15c-1.51 0-3.02 0-4.52-.01-2.32-.01-4.64 0-6.95.01H68c-.7 0-1.4 0-2.12.01-1.63-.02-3.26-.14-4.88-.28v-2h-2c-.44-3.06-.44-3.06 0-6"/><path fill="#e6cab0" d="M37.375 252.75c.93-.01 1.85-.02 2.81-.02h2.65c.8.01 1.6.01 2.42.01.58.09 1.15.17 1.74.26v2h-2v2c-3.13 1.05-5.35 1.13-8.64 1.13-.55 0-.55 0-3.3.01-1.13-.01-2.26-.01-3.43-.01-1.16 0-2.31 0-3.5.01-.54 0-.54 0-3.27-.01h-3.04c-.3-.02-.3-.02-1.82-.13.99-.33 1.99-.66 3-1v-2c5.31-2.5 10.64-2.3 16.38-2.25"/><path fill="#3b7ec5" d="M202 107h3c.32 2.84.42 5.47.4 8.31 0 .85 0 1.69.01 2.56 0 1.79-.01 3.58-.02 5.37-.01 2.75 0 5.5.02 8.25 0 1.73-.01 3.47-.01 5.2 0 .83.01 1.66.02 2.52-.03 2.3-.03 2.3-.42 5.79h-3c-.32-2.84-.42-5.47-.4-8.31 0-.85 0-1.69-.01-2.56 0-1.79.01-3.58.02-5.37.01-2.75 0-5.5-.02-8.25 0-1.73.01-3.47.01-5.2 0-.83-.01-1.66-.02-2.52.03-2.3.03-2.3.42-5.79"/><path fill="#e6cfb5" d="M108 248c2.25 2.53 3 3.53 3 7h3v-2h3v-3c2.5-.38 2.5-.38 5 0v3h-3v2c-.33.16-.33.16-2 1-.06.85-.12 1.69-.19 2.56-.27.81-.53 1.61-.81 2.44-3.56.19-3.56.19-7 0v2h-3c-.33-2.15-.33-2.15-.25-4.94.01-.46.01-.46.05-2.77.2-2.29.2-2.29 1.2-3.29l-3-1-1 2v-3c1.67-.04 3.33-.04 5 0Z"/><path fill="#f69814" d="M93 240c3.46-.55 7-.42 10.5-.44.5-.01.5-.01 3.04-.1.47 0 .47 0 2.87-.02.88-.01 1.76-.03 2.66-.04.64.2 1.27.4 1.93.6.47 2.52.47 2.52 0 5-3 .19-3 .19-6 0v2c-2.19.27-2.19.27-5 .25-.93.01-1.86.01-2.81.02q-1.08-.135-2.19-.27v-2h-3v-3h-2Z"/><path fill="#c0a48e" d="M161 271h1c-.11 1.14-.23 2.28-.35 3.45.12 1.17.23 2.34.35 3.55 2.75.83 2.75.83 6.56.75.67 0 1.33-.01 2.02-.01 1.41-.02 2.83-.05 4.24-.1 2.17-.08 4.34-.1 6.52-.12 7.45-.13 7.45-.13 10.66-.52v-2h2v2c2.41.12 2.41.12 5.5 0s3.09-.12 5.5 0v2l-3 1v2c-.64-.28-1.29-.56-1.95-.85-4.02-1.51-7.59-1.47-11.85-1.49-.42-.01-.42-.01-2.54-.05-3.56-.06-7.13-.1-10.7-.14-2.61-.04-5.22-.08-7.82-.13-.41 0-.41 0-2.47-.01-1.9-.04-3.79-.17-5.67-.33v-2h2c.04-2.33.04-4.67 0-7"/><path fill="#184d2f" d="M167 211h2c-.05 1.97-.05 1.97-.31 4.5-.08 2.49-.08 2.49.31 4.5 3.5.69 3.5.69 7 0v-2c1.75-.3 1.75-.3 4-.31.74-.02 1.49-.04 2.25-.05l1.75.36v3h3v2h-5v2h-2v-2c-3.46-.02-6.86.11-10.31.34-2.19.08-2.19.08-5.69-.34-.69-2.51-.69-2.51 0-5h3c.04-2.33.04-4.67 0-7"/><path fill="#3e3c39" d="M108 114h3c-.16 2.19-.16 2.19-.62 5-.14 2.78-.14 2.78.62 5 3.53.73 6.57.49 10.16.16.93-.06 1.87-.11 2.84-.16v2c-2.95.21-5.8.28-8.75.27h-2.69c-1.88 0-3.77 0-5.65-.01-2.9-.01-5.79 0-8.69.01h-5.47c-.87 0-1.75 0-2.65.01-2.04-.02-4.07-.14-6.1-.28v-2c2.2-.07 2.2-.07 5.25.16l3.28.15c2.32.13 4.63.28 6.94.47 5.71.22 5.71.22 8.53-.78.81-2.84.58-4.93.13-7.83-.04-.72-.09-1.43-.13-2.17"/><path fill="#3d2108" d="M98 300c2.19-.27 2.19-.27 5-.25.46 0 .46 0 2.81-.02q1.08.135 2.19.27v2c-2.11.11-4.15-.07-6.25-.22-.58.07-1.16.14-1.75.22v3q-3 .06-6 0v2c-2.59.21-5.07.28-7.66.27h-2.35c-1.65 0-3.3 0-4.94-.01-2.54-.01-5.07 0-7.61.01h-4.78c-.77 0-1.53 0-2.32.01-1.78-.02-3.56-.14-5.34-.28v-2c2.5-.23 4.9-.33 7.4-.34.75-.02 1.51-.03 2.28-.05 2.42-.04 4.84-.08 7.26-.11 3.17-.04 6.35-.09 9.52-.16.74 0 1.48-.01 2.24-.01 1.77-.04 3.54-.17 5.3-.33l1-2h4Z"/><path fill="#76726e" d="M200 223c2.7-.38 2.7-.38 5 0l-3 1c.14 1.77.14 1.77.76 4.04.85 4.17 1.6 7.99.63 12.2-1.39 1.76-1.39 1.76-4.37 2.64-4.11.41-8.08.51-12.21.37-.73-.02-1.46-.05-2.21-.07-8.72-.36-8.72-.36-12.6-1.18 3.11-2.07 3.55-2.23 7.01-2.02.38.01.38.01 2.3.09 1.6.08 3.2.17 4.79.27 2.29.08 2.29.08 5.9-.34.39-2.51.39-2.51 0-5h2l-.25 2.5.25 2.5c3 .69 3 .69 6 0 .56-2.94.56-2.94 0-6l-3-1h3c.14-2.65-.14-5.18-.38-7.81.06-.36.06-.36.38-2.19"/><path fill="#1d3b83" d="M40 114c1.75-.4 1.75-.4 4-.38.37 0 .37 0 2.25-.02.58.13 1.16.26 1.75.4v3h2c.31 3 .31 3 0 6h-3c-.72 2.68-.66 5.31 0 8 2.5.62 2.5.62 5 0v-2h4v3h-3v2c-3 .25-3 .25-6 0v-2h-2c-.11-3.4.07-6.76.22-10.16-.07-.93-.14-1.87-.22-2.84h-3v-2h-2Z"/></svg>