<!-- 지역 상권 2단계 꿈돌이 PNG를 실제 SVG path로 벡터화한 이미지입니다. -->
<svg xmlns="http://www.w3.org/2000/svg" width="204" height="339" viewBox="0 0 204 339" role="img" aria-labelledby="title desc"><title id="title">제빵 꿈돌이</title><desc id="desc">빵 모자를 쓰고 지역 상권 테마를 표현하는 꿈돌이 마스코트</desc><path fill="#a55015" d="M56.267-37.593c15.11-3.87 30.19-4.83 45.73-4.78.6 0 .6 0 3.59-.01 32.29.09 64.75 7.27 88.73 30.26 39.54 41.52 35.24 125.69 35.19 178.64-.01 2.98 0 5.96 0 8.94-.03 138.74-.03 138.74-35.19 175.67-25.07 24.03-58.75 30.34-92.32 30.25-1.18 0-2.36 0-3.58.01-32.29-.09-64.75-7.27-88.73-30.26-39.54-41.53-35.24-125.7-35.19-178.65v-8.94c.03-177.82.03-177.82 81.77-201.13"/><path fill="#1b8afc" d="M17.546.74c.75 0 1.5-.01 2.28-.01 2.51-.01 5.02-.01 7.54-.001 1.8-.01 3.6-.01 5.41-.02C37.666.7 42.566.7 47.466.7c4.09 0 8.17 0 12.26-.01 9.65-.01 19.29-.01 28.93-.001q14.925 0 29.85-.03c8.54-.02 17.09-.03 25.63-.02 5.1 0 10.2 0 15.31-.02C164.236.61 169.036.61 173.836.619 175.596.63 177.356.62 179.116.619c2.4-.01 4.81-.01 7.21.01l2.11-.03c5.4.06 9.49 1.41 13.42 5.18 1.56 3.03 1.51 5.36 1.5 8.77 0 .64 0 1.29.01 1.96 0 2.13-.02 4.26-.04 6.39v4.44c-.01 3.09-.02 6.18-.04 9.27-.03 3.98-.04 7.96-.05 11.95 0 3.04-.01 6.09-.02 9.14-.01 1.47-.02 2.94-.02 4.41-.01 2.04-.02 4.08-.04 6.12 0 .59 0 .59-.02 3.53-.04.74-.09 1.48-.14 2.24l-1-2h-2v-3h-3v-3c-.82.12-1.65.25-2.5.38-.82-.13-1.65-.25-2.5-.38-.19-2.41.02-4.63.32-7.03-.11-.65-.21-1.3-.32-1.97-.82.05-1.64.1-2.49.15-.41-.02-.41-.02-2.51-.15-.53-1.84-.53-1.84-.41-4.37.02-.91.05-1.81.07-2.74.05-.95.1-1.91.16-2.89.07-1.87.14-3.75.2-5.62.05-.84.09-1.68.13-2.54l-.15-1.84h-2c-.15-3.66.01-7.28.13-10.94-.04-1.01-.08-2.02-.13-3.06h-2c-.19 1.74-.19 1.74-.12 4.16.01.43.01.43.05 2.59.01.46.01.46.07 2.75.05 1.78.1 3.56.13 5.34.02.8.05 1.6.07 2.42-.07.57-.13 1.15-.2 1.74h-2c-.02 3.24.12 6.44.35 9.67.07 2.05.07 2.05-.35 5.33-2.51.34-2.51.34-5-.0006964111328144895v2c.83-.1 1.65-.21 2.5-.31.42.05.42.05 2.5.31.88 3.5.88 3.5 0 7-2.45.44-4.55.24-7.03-.05-.32.01-.32.01-1.97.05v3h-4v3h-3v2h-3v3h-3v3h-2c-.25 2.5-.25 2.5 0 5h2v-3h2v4h-2v2h-2c-.26 1.97-.26 1.97-.25 4.5 0 .84-.01 1.67-.01 2.53.09.65.17 1.3.26 1.97h2v2h3v2h2v2h3v2l2.5-.06 2.5.06v3h-2c-.09 2.33-.07 4.67 0 7 .08 2.33.1 4.67 0 7h-2c-.12 2.63-.12 2.63 0 6 .13 3.38.13 3.38 0 6h-2c-.33-1.67-.66-3.33-1-5h-2c-.33-1.67-.66-3.33-1-5h-2v-2h-2c-1.62-1.37-1.62-1.37-3-3v-2c-2.37-1.06-2.37-1.06-5-2l-2-1v-2c-1.65-.39-3.32-.72-5-1l-2-1v-2c-1.74-.38-1.74-.38-4.15-.56-.43-.04-.43-.04-2.6-.23-.45-.03-.45-.03-2.75-.21-1.78-.14-3.56-.28-5.34-.44-.8-.06-1.59-.12-2.41-.18-.58-.13-1.15-.25-1.75-.38v-2c-2.87-.21-5.65-.28-8.53-.26-.43-.01-.43-.01-2.62-.01-1.84 0-3.67 0-5.51.01-2.82.01-5.65 0-8.47-.01-1.78 0-3.56 0-5.33.01-.86-.01-1.71-.01-2.59-.02-1.98.02-3.97.14-5.95.28v2c-2.62.15-5.19-.01-7.81-.12-.72.04-1.44.08-2.19.12v2l-2.5-.06-2.5.06v3c-2.18.44-2.18.44-5 .56-2.81.13-2.81.13-5 .44v2h-3v2c-1.37 1.63-1.37 1.63-3 3h-2v2h-2v3h-2c-.16.83-.33 1.65-.5 2.5-.16.83-.33 1.65-.5 2.5h-2v5h-2c.1 2.19.1 2.19.5 5 .41 2.81.41 2.81.5 5h-2c-.14.83-.28 1.65-.43 2.5-.19.83-.37 1.65-.57 2.5h-3v-3c-2.4-.4-2.4-.4-5.5-.37l-3.09-.03c-.79.13-1.59.27-2.41.4v3h-3v2h-2c-.26 2.63-.26 2.63-.25 6 0 1.11-.01 2.23-.01 3.38.09.86.17 1.73.26 2.62h2c.68 2.33 1.35 4.66 2 7l2 1v2h2v3h3v2h2c.34 3.06.34 3.06.38 7 .03 1.3.06 2.6.08 3.94-.15 1.01-.3 2.02-.46 3.06h-4v-3h-6v-3c-2.18-.4-2.18-.4-5-.37l-2.81-.03c-.72.13-1.44.27-2.19.4v3h-2v3c-2.5.56-2.5.56-5 .0005179443360248115-.18-3-.18-3 0-6h-2c.01-.41.01-.41.07-2.5-.02-.82-.04-1.65-.07-2.5h-3c-.34-3.18-.46-6.17-.46-9.36a1096 1096 0 0 1-.11-12.95c-.02-2.29-.03-4.58-.05-6.86-.02-4.8-.04-9.61-.04-14.41-.01-6.17-.07-12.35-.15-18.52-.05-4.73-.06-9.45-.06-14.18-.01-2.27-.03-4.55-.06-6.83-.05-3.18-.04-6.35-.02-9.53-.03-.95-.05-1.9-.07-2.89.04-2.6.04-2.6 1.02-6.47C3.756 77.99 6.236 78 8.996 78.999v3c3.5.38 3.5.38 7-.001v-3c2.41-.22 2.41-.22 5.5-.06 3.1.15 3.1.15 5.5.06v-2c3.4-.11 6.76.07 10.16.22.94-.07 1.88-.14 2.84-.22v-3h-3v-3h-3v-3c-2.5-.31-2.5-.31-5-.00023181152323559218v2h-2c.02-.99.05-1.98.07-3-.02-.99-.04-1.98-.07-3h-3v-2c-3-.25-3-.25-6-.001v2h-2v-2h-2c.02-.99.05-1.98.07-3-.02-.99-.04-1.98-.07-3h-3v-4h-4v-2c-.97.15-1.95.29-2.95.44-.5-.07-.5-.07-3.05-.44-.63-3.24-.79-5.75-.72-9.01 0-.46 0-.46-.01-2.79.01-1.96.03-3.91.06-5.87.05-2.99.04-5.97.03-8.96.01-1.9.02-3.8.04-5.69v-2.71c.09-4.02.28-6.41 2.33-9.95 4.51-4.01 8.98-4.31 14.82-4.28"/><path fill="#d7bfaa" d="M56.267-37.593c15.11-3.87 30.19-4.83 45.73-4.78.6 0 .6 0 3.59-.01 32.29.09 64.75 7.27 88.73 30.26 39.54 41.52 35.24 125.69 35.19 178.64-.01 2.98 0 5.96 0 8.94-.03 138.74-.03 138.74-35.19 175.67-25.07 24.03-58.75 30.34-92.32 30.25-1.18 0-2.36 0-3.58.01-32.29-.09-64.75-7.27-88.73-30.26-39.54-41.53-35.24-125.7-35.19-178.65v-8.94c.03-177.82.03-177.82 81.77-201.13M2.157 5.587c-1.86 3.88-1.64 7.75-1.66 11.99l-.03 2.81c-.02 1.95-.02 3.91-.02 5.86-.01 3.01-.06 6.01-.12 9.02-.01 1.89-.02 3.79-.02 5.69l-.06 2.74c.02 2.51.02 2.51.75 6.3 3.05.44 3.05.44 6 0v2h4v4h3q.075 3 0 6h2v2h2v-2c3-.25 3-.25 6-.00005572509765272571v2h3q.075 3 0 6h2v-2c2.5-.31 2.5-.31 5-.00027862548826362854v3h3v3h3v3c-2.84.23-2.84.23-6.5.07-2.16-.09-4.33-.14-6.5-.07v2c-2.88.11-5.71-.07-8.59-.22-.79.07-1.59.15-2.41.22v3c-3.5.38-3.5.38-7-.0008358764647908856v-3c-2.16-.94-3.8-1.01-6.15-.9-.61.3-1.22.6-1.85.9-1.39 4.22-1.06 8.64-.98 13.04l-.03 4.2c-.03 3.81 0 7.62.04 11.44.03 3.98.02 7.96.01 11.94 0 6.68.03 13.37.09 20.05.05 7.75.07 15.49.05 23.23-.01 7.43.01 14.86.04 22.29.01 3.17.01 6.34.01 9.52 0 3.73.02 7.45.06 11.18.01 1.38.02 2.75.01 4.13-.01 1.86.02 3.73.05 5.59 0 1.05.01 2.1.02 3.18.21.73.42 1.46.63 2.21 2.53.23 2.53.23 5 .00004962158209309564.27 1.75.27 1.75-.18 4.16-1.47 11.12-1.47 11.12.18 14.84 4.66 2.07 9.97.83 14.85.18 2.38-.28 2.38-.28 4.15-.18.41 2.45.41 2.45 0 5h3v4h2v2h3v2h2v2h3v2h7v2c2.11.11 4.15-.07 6.25-.22.58.07 1.16.15 1.75.22v3c1.67.04 3.34.04 5 .00009924316412934786v2c3.4.03 6.77-.2 10.16-.41.94.13 1.88.27 2.84.41.28 2.45.28 2.45 0 5l2 1c.17.5.17.5 1 3h-6v3c-1.66.04-3.33.04-5-.00002136230477844947v2h-3v3h-2c-.16.66-.33 1.32-.5 2-.16.66-.33 1.32-.5 2h-2c.09 1.16.17 2.31.25 3.5-.08 1.16-.16 2.31-.25 3.5-3 .25-3 .25-6-.0007022705083841174v3h-2v3h2v2c2.93 1.08 5.68 1.1 8.77 1.03.89-.01 1.78-.02 2.69-.04 1.88-.03 3.75-.07 5.63-.11.88-.01 1.77-.03 2.68-.04.41-.01.41-.01 2.46-.05.59.07 1.17.14 1.77.21v2c2.17.26 2.17.26 5.24.26 1.14.01 2.28.01 3.45.02.63 0 .63 0 3.78-.01h3.84c2.68.01 5.36 0 8.05-.01 3.45-.01 6.9 0 10.35.01 3.27.01 6.55 0 9.82.0006107177713943202 1.25 0 2.5.01 3.78.01.57 0 .57 0 3.46-.02h3.07c.36-.04.36-.04 2.16-.26v-2c2.07-.21 2.07-.21 4.93-.16 1.02.01 2.05.02 3.1.04l3.29.06c2.12.03 4.24.07 6.36.09.95.02 1.89.04 2.87.05 2.45-.08 2.45-.08 5.45-1.08v-2h2v-3h-2v-3c-.99.09-1.98.17-3 .25-.99-.08-1.98-.16-3-.25-.25-3.5-.25-3.5 0-7h-2v-2h-2l-1-3h-2v-2h-3v-2h-4v-3h-6v-3h3l-.12-3 .12-3c2.5-.56 2.5-.56 5-.0005839233442088698v3c2.63.4 2.63.4 6 .38 1.12.01 2.23.01 3.38.02.43-.06.43-.06 2.62-.4v-3h3v-4h3c.37-3.02.37-3.02.32-6.93-.01-1.29-.01-2.58-.02-3.91-.1-1.04-.19-2.08-.3-3.16l-2-1c-.92-2.53-.92-2.53-1-5 1.93-.55 1.93-.55 4.8-.45l3.16.06c1.11.05 2.21.1 3.36.14 7.66.23 15.08.36 22.68-.75-.56-.1-1.12-.21-1.7-.31-.38-.12-.38-.12-2.3-.69-.75-3.5-.75-3.5 0-7 3.06-.84 4.92-1.03 8-.93.77-.04 1.53-.08 2.32-.11 2.18.02 2.18.02 5.68 1.04.59 2.76.23 5.16 0 8h3c.42-2.62.61-5.01.68-7.65.02-.41.02-.41.1-2.45.36-9.8.39-19.61.4-29.41.01-2.1.01-4.19.02-6.28.02-6.8.03-13.59.04-20.38.01-2.35.01-4.7.01-7.05.02-11.03.04-22.06.05-33.08.01-12.7.03-25.41.07-38.11.03-9.85.05-19.7.05-29.54 0-5.88.01-11.75.04-17.62.02-5.51.02-11.02.01-16.53 0-2.02.01-4.04.02-6.06.02-2.76.01-5.51 0-8.27l.03-2.43c-.04-3.62-.38-5.91-2.23-9.05-4.55-4.16-8.88-4.38-14.83-4.35-.75 0-1.51-.01-2.28-.01a997 997 0 0 0-7.54.001c-1.8-.01-3.61-.01-5.41-.02-4.9-.01-9.79-.01-14.69-.01-4.09 0-8.18 0-12.27-.01C134.627.676 124.987.676 115.337.687c-9.95 0-19.9-.01-29.84-.03-8.55-.02-17.09-.02-25.63-.02-5.11 0-10.21 0-15.31-.02-4.8-.01-9.59-.01-14.39.01-1.76 0-3.52 0-5.28-.01-2.41-.01-4.81 0-7.21.01-.7-.01-1.39-.02-2.11-.02-5.37.06-9.33 1.47-13.41 4.98"/><path fill="#fbb226" d="M81 147c2.29-.26 2.29-.26 5.47-.27h3.42c1.19 0 2.38.01 3.61.02.6 0 .6 0 3.61-.02h3.42c1.05.01 2.1.01 3.18.01.75.09 1.51.17 2.29.26v2c2.41.12 2.41.12 5.5 0s3.09-.12 5.5 0v2c2.08.16 2.08.16 4.81.06 3.19-.1 5.13-.08 8.19.94v2c.95-.06 1.9-.12 2.88-.19 5.24-.18 9.83 2.34 14.12 5.19v2h6v2h3v2c.66.16 1.32.33 2 .5.66.16 1.32.33 2 .5v2h3v3h2c.33 2.33.67 4.67 1 7h2c.26 1.93.26 1.93.27 4.59v2.87c0 1.01-.01 2.01-.02 3.04.01 1 .02 2 .02 3.04v2.87c-.01.88-.01 1.76-.01 2.66-.09.64-.17 1.27-.26 1.93h-2c-.16.82-.33 1.65-.5 2.5-.16.82-.33 1.65-.5 2.5h-2v3h-2c-.16.82-.33 1.65-.5 2.5-.16.82-.33 1.65-.5 2.5h-2v2l-2.5-.06-2.5.06v3q-3 .06-6 0v2c-2.08.41-4.14.51-6.25.66-.58.11-1.16.22-1.75.34v2c-1.97.02-1.97.02-4.5-.19-2.48-.07-2.48-.07-4.5.19-.81 2.5-.81 2.5 0 5h4v2c.99.17 1.98.33 3 .5.99.17 1.98.33 3 .5v2h3v-2c2.13-.17 2.13-.17 5.14-.07 1.12.03 2.24.07 3.4.1 1.22.04 2.45.08 3.71.13l7.66.15c4.05.09 8.11.19 12.16.33 3.9.15 7.79.21 11.68.27 1.22.05 2.45.11 3.71.17 5.81.04 5.81.04 8.54-1.08.76-2.89.53-5.01.04-7.94-.01-.34-.01-.34-.04-2.06 1.94.08 1.94.08 4 1 .41 1.77.41 1.77.28 4.04-.05.8-.09 1.61-.14 2.45-.07.85-.13 1.7-.2 2.57-.04.86-.08 1.71-.13 2.59-.16 2.45-.16 2.45-.81 6.35h-3c.05-.65.05-.65.31-3.94.08-2.21.08-2.21-.31-4.06-3.13-.92-4.84-1.08-8-.94-.76-.02-1.53-.04-2.31-.07-2.19.05-2.19.05-5.69 1.01-.75 3.5-.75 3.5 0 7 2.29.68 2.29.68 4 1-8.69 1.27-17.29.98-26.04.61l-3.16-.06c-.95-.04-1.89-.07-2.87-.1-.32.09-.32.09-1.93.55.07 2.47.07 2.47 1 5l2 1c.3 3.16.3 3.16.31 7.06.02 1.29.04 2.58.05 3.91-.12 1-.24 2-.36 3.03h-3v4h-3v3c-2.62.4-2.62.4-6 .38-1.11 0-2.23.01-3.38.02-.43-.07-.43-.07-2.62-.4v-3c-2.5-.56-2.5-.56-5 0-.12 3-.12 3 0 6h-3v3h6v3h4v2h3v2l3 1c1.27 3.92 1.23 7.91 1 12-2.44 2.44-3.78 2.25-7.11 2.3h-2.09c-.7.01-1.41.01-2.14.01-1.49.01-2.99.01-4.48.01-2.3-.01-4.6.02-6.9.04h-4.35l-2.1.03c-1.92-.02-1.92-.02-4.83-.39v-3c-1.67-.04-3.33-.04-5 0v-2h-2c.07-2.34.2-4.67.38-7 .08-3.83.08-3.83-.38-7-1.77-1.42-1.77-1.42-4-1.75-2.22.34-2.22.34-4 1.75-.59 3.68-.43 7.03-.18 10.74C98 290 98 290 97 292l-3.06-.06L91 292v3c-2.81.37-2.81.37-6.71.36h-2.07c-1.45 0-2.9-.01-4.35-.02-2.23-.03-4.45-.02-6.67-.02-10.92-.04-10.92-.04-13.2-2.32-.25-3.62-.25-3.62 0-7h2c.14-.82.29-1.65.44-2.5.18-.82.37-1.65.56-2.5h3v-3q3-.06 6 0v-2c1.67-.34 3.33-.67 5-1l1-2h2v-2h-2v-2h-2c-.81-3.5-.81-3.5-1-7h3q.06-3 0-6h2c.12-2.31.12-2.31 0-5v-3c-2.5-.38-2.5-.38-5 0v3h-2v2c-2.84.27-2.84.27-6.5.25-.6 0-.6 0-3.66.02-.93-.09-1.87-.18-2.84-.27v-2l-3-1v-2h-2c-.3-2.08-.3-2.08-.31-4.81-.02-.9-.04-1.79-.05-2.71.36-2.48.36-2.48 1.75-4.3C56 235 56 235 58 235v-3h-3v3h-3l-1 3c-.49-.16-.49-.16-3-1l.12-2.55L48 232c-2.19-.42-2.19-.42-5-.19-2.81.21-2.81.21-5 .19v-2h-3v-3c-1.67-.04-3.33-.04-5 0v-2h-2v-2c-.82-.08-1.63-.15-2.47-.23-.42-.13-.42-.13-2.53-.77-.56-2.77-.56-2.77-.44-6.25.02-1.14.05-2.28.07-3.45.36-3.18.81-5.51 2.37-8.3h3v-2h5v-2c2.63-.27 2.63-.27 6-.25.56 0 .56 0 3.38-.02.86.09 1.73.18 2.62.27v2h6v2c2.5.25 2.5.25 5 0v-2c-1.62-.5-1.62-.5-4-1-3.25-.94-3.25-.94-6-2v-2c-.79.16-1.59.31-2.41.47-5.46 1.04-5.46 1.04-8.59-.47-1.69-5.5-1.63-13.49 0-19h3c.04-1.67.04-3.33 0-5h2c.34-2.19.34-2.19.5-5s.16-2.81.5-5h2v-4h2l1-3c2.33-.04 4.67-.04 7 0v-2h5v-2c3-1 3-1 6.69-.94L68 151v-2c3.4-.15 6.76.01 10.16.12L81 149Z"/><path fill="#ceb7a3" d="M183 231c3.06-.84 4.92-1.03 8-.94.38-.02.38-.02 2.31-.1 2.19.01 2.19.01 5.69 1.04.52 2.73.18 5.21 0 8 .63-.2 1.26-.41 1.92-.62.68-.12 1.37-.25 2.08-.38 2.53 7.7 2.87 19.39 0 27-5.27 3.57-12.43 2.17-18.39 1.22-.27-.03-.27-.03-1.61-.22l2 1v2h2v2c3.44.52 6.85.85 10.31 1.12 2.19.22 2.19.22 5.69.88v3c-2.63.62-2.63.62-5 1l2 1v2l3 1c.37 2.14.37 2.14.37 4.99.01 1.07.01 2.13.02 3.23 0 .58 0 .58-.03 3.51v3.56c0 2.5-.01 4.99-.02 7.48-.03 3.85-.02 7.69-.02 11.53 0 2.41-.01 4.83-.02 7.24v3.52l-.03 3.2c0 .94 0 1.89-.01 2.85-.09.63-.17 1.25-.26 1.89l-2-1v-2h-2v-3h-2v-3h-3c-.22-.32-.22-.32-1.36-1.96-1.64-2.04-1.64-2.04-4.01-2.59-.94-.03-1.87-.05-2.84-.08-1.06-.03-2.12-.07-3.21-.1l-3.47-.06c-1.17-.02-2.34-.05-3.55-.08-2.48-.06-4.95-.1-7.43-.13-3.81-.06-7.62-.17-11.44-.28-2.4-.05-4.8-.09-7.2-.13-1.15-.04-2.3-.07-3.49-.11-1.05 0-2.1-.01-3.18-.02-.93-.02-1.87-.03-2.83-.05-.66.19-1.31.39-1.99.59-.43 2.53-.43 2.53 0 5h2c.63 1.79.63 1.79 1.12 4.19.09.39.09.39.51 2.35.12.81.25 1.62.37 2.46.16.86.32 1.72.49 2.61-.16.79-.32 1.58-.49 2.39-2.67.56-4.74.69-7.44.66-.39.01-.39.01-2.39.03-2.63.03-5.26.02-7.89.01-1.81.01-3.63.01-5.45.02-3.81.01-7.62.01-11.44-.01-4.9-.03-9.8 0-14.71.04-3.75.03-7.5.02-11.25.01q-2.715 0-5.43.03c-2.52.02-5.04 0-7.56-.03-.38.01-.38.01-2.3.04-2.06-.04-2.06-.04-5.14-.8-.59-3.05-.59-3.05 0-6h2c.11-2.11-.07-4.15-.22-6.25.07-.58.14-1.15.22-1.75h3c.5-2.46.5-2.46 0-5-2.09-.61-2.09-.61-5.05-.6-1.1-.01-2.2-.01-3.34-.02l-3.64.06c-1.22 0-2.44.01-3.7.01-3.26.01-6.51.05-9.77.09-3.31.04-6.63.04-9.95.04-2.51.01-5.01.03-7.52.05-1.2 0-2.4.01-3.64.02-1.11.01-2.21.03-3.34.04-.98.01-1.96.02-2.96.04-.69.09-1.38.18-2.09.27v2H9v3H6v3H4v3H2c-.16.33-.16.33-1 2-.8-5.12-1.13-9.92 0-15 3.11-1.08 5.19-.66 8.4-.04.43.01.43.01 2.6.04 1.23-2.46 1.23-2.46 2-5h2v-3c1.88-2.19 1.88-2.19 4-4h2v-2c.5-.16.5-.16 3-1-.19 1.94-.19 1.94-1 4h-2v2c-1.38 1.62-1.38 1.62-3 3h-2c-.16.66-.33 1.32-.5 2-.16.66-.33 1.32-.5 2h-2v2c2.05.27 2.05.27 4.96.31.54 0 .54 0 3.27.04 1.18.01 2.37.02 3.58.02l3.63.03 7.63.03c3.91.01 7.82.06 11.73.11 2.47.01 4.93.01 7.39.02l3.58.06c.54-.01.54-.01 3.27-.02.96 0 1.92.01 2.91.01.34-.1.34-.1 2.05-.61.18-2.54.18-2.54 0-5h2c.35-1.33.69-2.66 1-4 .26 5.48.26 5.48-1 8 2.28.29 2.28.29 5.69.34 1.26.02 2.52.04 3.83.07l4.2.03c.35 0 .35 0 2.11.02 3.69.04 7.38.06 11.07.08 3.83.01 7.66.07 11.49.14 2.92.04 5.85.06 8.78.06 1.41.01 2.82.03 4.24.06 8.02.17 8.02.17 11.59-.8.23-3.55.23-3.55-1-7h2c1.4 2.88 2 4.77 2 8 1.99.39 1.99.39 4.82.42 1.05.02 2.1.03 3.19.05h3.47c.58 0 .58 0 3.52.02 2.46.01 4.92.02 7.38.01 3.8 0 7.6.04 11.4.09h7.14c1.15.02 2.3.04 3.49.05 5.33-.04 5.33-.04 7.59-.64-.68-2.47-.68-2.47-3-5l-2-1v-2l-3-1v-2h-2c-.68-.97-1.37-1.95-2.07-2.95-1.59-1.99-2.46-2.92-4.93-3.61-2.28-.18-4.52-.22-6.81-.19-2.75-.01-5.45-.09-8.19-.25v-2h2v-3h-2v-3c-.99.08-1.98.17-3 .25-.99-.08-1.98-.17-3-.25-.25-3.5-.25-3.5 0-7h-2v-2h-2c-1.63-1.38-1.63-1.38-3-3v-2h-3v-2h-4v-3h-6v-3h3l-.12-3 .12-3c2.5-.56 2.5-.56 5 0v3c2.62.4 2.62.4 6 .38.56 0 .56 0 3.38.02.86-.13 1.73-.26 2.62-.4v-3h3v-4h3c.4-3.03.4-3.03.38-6.94 0-1.29.01-2.57.02-3.9-.13-1.04-.26-2.09-.4-3.16l-3-1c-.5-2.52-.5-2.52 0-5 2.11-.64 2.11-.64 5.04-.67.53-.01.53-.01 3.2-.08h3.38c2.18-.03 4.36-.07 6.54-.11.98 0 1.95-.01 2.96-.01 3.08-.14 5.89-.32 8.88-1.13l-.12-3.5Z"/><path fill="#e2d4c8" d="M49.007-35.575c17.4-5.45 34.85-6.85 52.99-6.8.6 0 .6 0 3.63-.01 32.24.09 65.38 6.93 89.15 30.26 36.73 39.76 27.22 122.97 26.04 172.57-.16 7.09-.26 14.18-.34 21.27-.28 24.92-1.12 49.74-2.73 74.6-.37 5.7-.65 11.39-.87 17.08-2.09 53.44-2.09 53.44-12.88 65.61-13.9 8.4-33.35 5.68-48.7 3.38-.66-.09-.66-.09-3.96-.59-8.59-1.68-8.59-1.68-10.6-4.67-.57-2.14-.77-3.92-.74-6.12v-6h-2c-.42-2.47-.42-2.47 0-5 1.99-.63 1.99-.63 4.82-.62.53 0 .53 0 3.19-.03.57.01.57.01 3.48.05h3.54c2.49.01 4.97.02 7.45.05 3.81.04 7.61.04 11.42.04 2.4.01 4.81.02 7.22.04h3.46c1.06.01 2.12.03 3.22.05.93 0 1.87.01 2.83.02 2.79.46 3.71 1.14 5.37 3.4v2h3v3h2v3h2l1 2c.12-1.51.14-3.02.15-4.54 0-1.03.01-2.07.02-3.14v-3.47c0-1.15.01-2.31.01-3.5.01-2.45.01-4.91.01-7.37 0-3.77.02-7.54.04-11.31v-7.13l.03-3.45c-.01-1.05-.01-2.1-.01-3.18v-2.81l-.25-2.1-2-1v-2c-.8-.38-1.61-.75-2.43-1.13-.52-.29-1.04-.58-1.57-.87l3.25.06 3.75-.06v-3c-2.48-.23-2.48-.23-5.75-.07-7.01.33-7.01.33-10.25-1.93v-2h-2v-2c-1.32-.69-2.65-1.36-4-2 2.43.3 4.82.82 7.22 1.3 5.1.37 9.97.67 14.78-1.3 1.5-3.34.66-6.76.2-10.3-.21-2.5-.4-5-.59-7.49-.05-.7-.11-1.41-.16-2.13-.7-9.28-.56-18.57-.5-27.87.02-3.38.03-6.76.04-10.14l.06-14.37c.03-7.6.05-15.2.07-22.8.01-2.61.01-5.23.02-7.84 0-.66 0-.66.01-3.97.02-6.7.03-13.41.05-20.12 0-.67.01-1.35.01-2.04.03-10.94.07-21.88.12-32.83.06-11.28.09-22.57.1-33.85.01-6.32.03-12.64.07-18.96.04-5.91.05-11.83.05-17.75 0-2.17.01-4.34.04-6.52.02-2.96.02-5.91.01-8.87 0-.43 0-.43.04-2.62-.05-4.33-.23-6.02-2.99-9.54-4.24-3.19-7.86-3.14-12.95-3.14h-2.27c-2.52-.01-5.04-.01-7.56-.02-1.81 0-3.61-.01-5.41-.01l-14.72-.03c-3.06 0-6.13 0-9.19-.01-9.58-.01-19.17-.02-28.75-.02-11.07-.01-22.13-.03-33.2-.05-8.55-.03-17.1-.04-25.65-.04-5.11 0-10.22 0-15.33-.02-4.8-.02-9.61-.02-14.42-.01-1.76 0-3.52-.01-5.29-.02-2.4-.01-4.81 0-7.22.01-.35-.01-.35-.01-2.11-.03-4.57.05-7.71.96-11.58 3.4-2.01 3.02-2.27 3.77-2.41 7.19l-.12 2.55-.09 2.74c-.04.92-.07 1.85-.1 2.81q-.105 2.94-.18 5.88c-.1 3.01-.23 6.03-.37 9.04-.06 1.9-.11 3.8-.16 5.7-.05.91-.1 1.82-.15 2.76-.04 2.52-.04 2.52.58 6.33C4.027 50.445 4.027 50.445 6.997 50.005v2h4v4h3c.04 1.99.04 4 0 6h2v2h2v-2c3-.25 3-.25 6-.00012283325204265338v2h3c.04 1.99.04 4 0 6h2v-2c2.5-.32 2.5-.32 5-.0006141662599361553v3h3v3h3v3c-2.84.22-2.84.22-6.5.06-2.16-.09-4.33-.13-6.5-.06v2c-2.88.1-5.71-.08-8.59-.23-.8.08-1.59.15-2.41.23v3c-3.5.37-3.5.37-7-.0006141662599455913v-3c-5.15-.83-5.15-.83-8 .001-.97 2.74-1.12 4.22-1.07 7.06l-.06 2.3c-.05 2.57-.05 5.14-.05 7.71-.02 1.83-.05 3.66-.08 5.5-.08 4.99-.1 9.99-.11 14.98-.01 3.12-.03 6.24-.05 9.35-.08 10.86-.12 21.71-.11 32.56 0 10.15-.1 20.29-.23 30.43-.12 8.69-.17 17.38-.16 26.06 0 5.2-.03 10.4-.12 15.6-.08 4.89-.09 9.77-.03 14.65q.015 2.7-.06 5.4c-.27 9.94-.27 9.94 2.13 14.4 5.4 2.06 11.45.8 17 .0005260009762650952l-2 1v2c-1.66.33-3.33.66-5 1v2c-2.62 1.81-3.88 2.01-7.11 1.72-.95.09-1.9.18-2.89.28-.69 2.2-.69 2.2-.62 5.32.02 1.16.03 2.32.04 3.52l.15 3.84c.02 1.29.05 2.58.07 3.9.06 2.74.14 5.46.23 8.2q.165 5.265.27 10.53c.06 3.33.15 6.66.24 10l.09 3.84.12 3.52.09 3.12c.06.37.06.37.32 2.21h2v-3h2v-3h3v-3h2v-2c2.09-.28 2.09-.28 5.05-.31.55-.01.55-.01 3.34-.05 1.2-.01 2.4-.01 3.64-.02 1.22 0 2.45-.01 3.7-.02q3.885-.03 7.77-.03c2.67 0 5.34-.03 8-.06 3.83-.05 7.65-.07 11.47-.07l3.65-.06c1.1 0 2.2.01 3.33.02.49-.01.49-.01 2.96-.02.35.1.35.1 2.09.62.51 2.53.51 2.53 0 5h-3c-.22 1.75-.22 1.75-.06 4 .15 2.25.15 2.25.06 4h-2c.07.95.14 1.9.21 2.88-.07 1.03-.14 2.06-.21 3.12-13.69 7.5-39.55 6.89-54.4 3.19-5.32-2.01-7.87-4.04-10.72-8.96-8.16-19.23-7.95-42.14-8.76-62.68-.23-5.7-.58-11.39-.95-17.09-1.6-24.93-2.33-49.83-2.61-74.81-.08-7.07-.22-14.14-.39-21.2-3.94-169.15-3.94-169.15 65.84-193.03"/><path fill="#665154" d="M183 23h2c.15 3.66-.01 7.28-.12 10.94L185 37h2c.15 1.84.15 1.84.02 4.38-.01.45-.01.45-.09 2.73-.08 1.93-.17 3.85-.27 5.78-.03.9-.05 1.81-.08 2.73l-.12 2.54c.18.61.36 1.22.54 1.84 2.51.15 2.51.15 5 0 .31 1.97.31 1.97 0 4.5-.16 2.51-.16 2.51 0 4.5 2.5.38 2.5.38 5 0v3h3v3h2c1.16 2.33 1.14 3.71 1.16 6.3l.03 2.74c.01.99.01 1.99.02 3.01 0 .52 0 .52.03 3.16.03 3.47.05 6.93.07 10.39.01 1.18.01 2.36.02 3.57.03 6.23.06 12.47.08 18.7.01 5.17.05 10.35.1 15.52.06 6.24.09 12.47.1 18.7.01 2.39.03 4.77.05 7.16.04 3.32.04 6.64.04 9.96l.06 3.02c-.05 4.62-.05 4.62-.76 6.77-3.04.42-3.04.42-6 0v3h-3v2h-3v3h-6v3c-3.5.38-3.5.38-7 0v-3h-3v3h-4c-.46-3.06-.46-3.06-.38-7 .02-1.3.03-2.6.04-3.94.11-1.01.23-2.02.34-3.06h2v-2h2v-3h2c.34-2.19.34-2.19.5-5s.16-2.81.5-5h2c.27-2.63.27-2.63.25-6 .01-1.11.01-2.23.02-3.38-.09-.86-.18-1.73-.27-2.62h-2v-3h3c.41-1.98.41-1.98.47-4.79.02-1.04.05-2.09.08-3.16 0-1.14.01-2.29.02-3.46.02-1.16.03-2.31.05-3.5.02-2.46.04-4.91.05-7.36.02-3.78.1-7.56.18-11.33.02-2.38.03-4.75.04-7.12l.09-3.47c-.04-5.33-.04-5.33-.98-7.81-2.9-.85-5.28-.2-8 1-.82 1.85-.82 1.85-.69 4.06-.05.65-.05.65-.31 3.94-2.56.62-2.56.62-5 0v-2h-3v-2h-2v-2h-3v-2h-2c-.27-1.97-.27-1.97-.25-4.5-.01-.84-.01-1.67-.02-2.53.09-.65.18-1.3.27-1.97h2v-2h2v-4h-2v3h-2c-.25-2.5-.25-2.5 0-5h2v-3h3v-3h3v-2h3v-3h4v-3c1.97-.05 1.97-.05 4.5.25 2.48.11 2.48.11 4.5-.25.88-3.5.88-3.5 0-7-2.5-.31-2.5-.31-5 0v-2c.82.11 1.64.23 2.49.34.83-.11 1.66-.22 2.51-.34.34-2.69.38-4.83.19-7.5-.14-2.52-.21-4.98-.19-7.5h2c.2-1.74.2-1.74.12-4.16-.01-.85-.03-1.71-.04-2.59-.03-.91-.05-1.82-.08-2.75q-.075-2.67-.12-5.34c-.03-.8-.05-1.6-.08-2.42.07-.57.13-1.15.2-1.74"/><path fill="#f7970f" d="M86 230c3.5-.25 3.5-.25 7 0v2c2.37.14 4.63.16 7 .09l4.38-.06c2.31-.04 4.63-.09 6.95-.15 2.22-.04 4.45-.07 6.67-.1.7-.02 1.4-.05 2.12-.07 1.94-.02 1.94-.02 4.88.29v3h2c.33 1.67.67 3.33 1 5h2v8h2c.21 2.71.28 5.29.25 8 0 .38 0 .38.02 2.31 0 1.9-.13 3.8-.27 5.69h-2l.06 2.5-.06 2.5h-3c-.12 2.38-.12 2.38 1 5 3.56 1.19 3.56 1.19 7 2v2h8v2c.5.17.5.17 3 1 1.27 3.92 1.23 7.91 1 12-2.44 2.44-3.78 2.25-7.11 2.3h-2.09c-.7.01-1.41.01-2.14.01-1.49.01-2.99.01-4.48.01-2.3-.01-4.6.02-6.9.04h-4.35l-2.1.03c-1.92-.02-1.92-.02-4.83-.39v-3c-1.67-.04-3.33-.04-5 0v-2h-2c.07-2.34.2-4.67.38-7 .08-3.83.08-3.83-.38-7-1.77-1.42-1.77-1.42-4-1.75-2.22.34-2.22.34-4 1.75-.59 3.68-.43 7.03-.18 10.74C98 290 98 290 97 292l-3.06-.06L91 292v3c-2.81.37-2.81.37-6.71.36h-2.07c-1.45 0-2.9-.01-4.35-.02-2.23-.03-4.45-.02-6.67-.02-10.92-.04-10.92-.04-13.2-2.32-.25-3.62-.25-3.62 0-7h2c.14-.82.29-1.65.44-2.5.18-.82.37-1.65.56-2.5h3v-3q3-.06 6 0v-2c1.67-.34 3.33-.67 5-1l1-2h2v-2h-2v-2h-2c-.81-3.5-.81-3.5-1-7h3v-3h3v-2h2v-5h2c.18-1.84.18-1.84.09-4.38l-.06-2.73c-.06-1.93-.13-3.85-.2-5.78-.01-.45-.01-.45-.05-2.73l-.09-2.54c.1-.61.2-1.22.31-1.84h3Z"/><path fill="#e38326" d="M101.938 102.875c1.05 0 2.09-.01 3.17-.01 5.7.01 11.28.07 16.89 1.13v2h8v2c1.16.17 2.31.33 3.5.5 1.16.17 2.31.33 3.5.5v2h3v3c1.14.15 2.27.29 3.44.44.59.1.59.1 3.56.56 1.13 2.07 1.13 2.07 1 4h-3v2l-2.5-.06-2.5.06v3h-3v2h-2v3h-3v3c-3.32 1.81-6.23 2.44-10 2v-2c-2.4-.26-2.4-.26-5.5-.24-.51-.01-.51-.01-3.09-.02-.8.09-1.59.17-2.41.26v2c1.9.17 1.9.17 4.38.07 4.42-.16 4.42-.16 6.62.93v2h8v2h5v2c1.75.35 1.75.35 4 .5 2.25.16 2.25.16 4 .5v2h2c.53 2.48.53 2.48 0 5-2.84.56-2.84.56-6.5.44l-3.65-.06c-.47-.07-.47-.07-2.85-.38v-2c-2.33-.04-4.66-.04-7-1.1368683772161603e-13-.66-.32-1.32-.65-2-1v-2c-2.62-.12-2.62-.12-6-2.8421709430404007e-13-3.37.13-3.37.13-6-5.684341886080801e-13v-2c-2.8-.2-5.5-.27-8.31-.26-.84 0-1.69 0-2.56-.01-1.78 0-3.57.01-5.36.01-2.76.01-5.51 0-8.26-.01-1.73 0-3.46.01-5.19.01-.42 0-.42 0-2.52-.01-1.94.01-3.87.13-5.8.27v2c-2.62.15-5.19 0-7.81-.12-.72.04-1.44.08-2.19.12v2c-2.33.34-4.66.67-7 1v2h-8v2c-3.5.38-3.5.38-7-8.810729923425242e-13v-4h2c.15-2.55-.01-5.06-.12-7.61.12-2.39.12-2.39 2.12-4.39.08-.51.08-.51.5-3.12.17-.95.33-1.9.5-2.88h2v-3h4c.38-2.32.71-4.66 1-7h3v-3h2v-4c3-1 3-1 6.69-.87 1.09-.04 2.19-.08 3.31-.13v-3c1.67-.04 3.34-.04 5-1.3073986337985843e-12v-2c2.62-.14 5.19.01 7.82.13.72-.04 1.44-.08 2.18-.13v-2c6.23-1.39 12.59-1.14 18.94-1.12"/><path fill="#307e46" d="M170 178h1c-.05 3.65-.2 7.29-.36 10.94.12 1.01.24 2.02.36 3.06h4v-3h3v3c3.5.38 3.5.38 7 0v-3h6v-3h3v-2h3v-3c2.95-.72 2.95-.72 6 0 .64 3.09.79 5.42.73 8.53v2.62c-.01 1.84-.02 3.68-.06 5.51-.04 2.83-.04 5.65-.03 8.48-.01 1.77-.02 3.55-.04 5.33 0 .43 0 .43.01 2.58-.06 2.37-.06 2.37-.61 5.95h-4c.04 2.16.04 2.16.52 4.94.09 2.77.09 2.77-.52 5.06-3.94 1.61-8.06 1.1-12.25.91l-3.77-.06c-3.31-.06-6.62-.16-9.94-.28-4.67-.16-9.35-.24-14.02-.33-2.5-.06-4.99-.13-7.48-.21-.56-.02-.56-.02-3.4-.1-.99-.03-1.99-.07-3.01-.1-.71.05-1.41.11-2.13.17v2h-3v-2c-.99-.16-1.98-.33-3-.5-.99-.16-1.98-.33-3-.5v-2h-4c-.81-2.5-.81-2.5 0-5 2.41-.31 4.61-.18 7.03.02.33 0 .33 0 1.97-.02v-2c2.08-.41 4.14-.51 6.25-.66.58-.11 1.16-.22 1.75-.34v-2l3 .06 3-.06v-3c1.67-.04 3.33-.04 5 0v-2h2c.16-.82.33-1.65.5-2.5.16-.82.33-1.65.5-2.5h2v-3h2c.14-.82.29-1.65.44-2.5.09-.41.09-.41.56-2.5h3c.42-1.93.42-1.93.48-4.59l.09-2.87c.02-1.01.04-2.01.05-3.04.06-1.97.11-3.94.17-5.91.01-.44.01-.44.05-2.66.05-.64.11-1.27.16-1.93"/><path fill="#b1a89f" d="M187 95c2.51-.44 2.51-.44 5 0v2h3v3h2c-.03.41-.03.41-.19 2.5.06.83.13 1.65.19 2.5 2.44.44 2.44.44 5 0l1-2c.14 2.32.19 4.61.21 6.93 0 .38 0 .38.03 2.31.03 2.54.05 5.08.07 7.63.01.86.01 1.72.02 2.61.03 4.57.06 9.13.08 13.69.01 3.8.05 7.6.1 11.39.06 4.57.09 9.13.1 13.69.01 1.75.03 3.5.05 5.24.04 2.44.04 4.88.04 7.32l.06 2.22c-.03 2-.03 2-.76 4.97-3.04.26-3.04.26-6 0v3h-3v2h-3v3h-6v3c-3.5.38-3.5.38-7 0v-3h-3v3h-4c-.46-3.06-.46-3.06-.38-7 .02-1.3.03-2.6.04-3.94.11-1.01.23-2.02.34-3.06h2v-2h2v-3h2c.14-.82.29-1.65.44-2.5.18-.82.37-1.65.56-2.5h3c.04-1.67.04-3.33 0-5h2c.2 2.2.2 2.2.12 5.25-.01 1.08-.03 2.17-.04 3.28-.03 1.16-.03 1.16-.16 6.94-.01 1.08-.03 2.16-.04 3.28-.03 1.01-.05 2.01-.08 3.05.07.72.13 1.45.2 2.2h2c.19-2.54.23-4.98.2-7.53-.01-.8-.01-1.6-.01-2.42-.01-1.75-.02-3.49-.04-5.24-.03-2.75-.04-5.51-.05-8.26-.02-5.85-.06-11.7-.1-17.55-.05-6.77-.09-13.55-.11-20.32-.01-2.73-.04-5.45-.07-8.18 0-1.66-.01-3.31-.02-4.97l-.03-2.33c0-1.73.1-3.47.23-5.2h2c.02-2.62-.2-5.2-.42-7.81q.21-1.08.42-2.19"/><path fill="#214289" d="M52 75h4v2h2v4h3v4c3.5.38 3.5.38 7 0v-2l2.5.06L73 83v-3c1.67-.04 3.33-.04 5 0v-2a78 78 0 0 1 7.5-.25c.72-.01 1.43-.02 2.17-.02 1.78 0 3.56.13 5.33.27v2l2.5-.06L98 80v3h3v2h2c.33 2.33.67 4.67 1 7h2c-.06.65-.06.65-.38 3.95-.05 2.21-.05 2.21.38 4.05 3.05.81 4.93.99 8 .88 2.68-.02 5.32.02 8 .12v2c1.75.34 1.75.34 4 .5s2.25.16 4 .5v2c-1.75.27-1.75.27-4 .25-.37 0-.37 0-2.25.02-.58-.09-1.16-.18-1.75-.27v-2c-2.88-.21-5.65-.28-8.53-.27h-2.62c-1.84 0-3.68 0-5.51.01-2.83.01-5.65 0-8.48-.01h-5.33c-.85 0-1.7 0-2.58-.01-1.99.02-3.97.14-5.95.28v2c-2.62.15-5.19-.01-7.81-.12L73 106v2l-2.5-.06-2.5.06v3c-2.5.31-2.5.31-5 0v-2h-5v-2h-2v2h-3v2h-3v2c-2.5.25-2.5.25-5 0v-2h-2c-.15-2.88.01-5.71.12-8.59L43 100h-2v-2h-3v-3h-2c-.25-2.5-.25-2.5 0-5h2v-3c2.33-.04 4.67-.04 7 0v-2h3v-4h2v-4h2Z"/><path fill="#d77923" d="M33 200c2.62-.27 2.62-.27 6-.25.56 0 .56 0 3.38-.02.86.09 1.73.18 2.62.27v2h6v2l2.5-.06 2.5.06v3h2v2c.64.12 1.28.25 1.94.38.68.2 1.36.41 2.06.62.81 2 .81 2 1 4-1 1-1 1-3.07 1.03-1.66-.06-3.33-.13-5-.19-.63.05-1.27.11-1.93.16v2c2.19.27 2.19.27 5 .25.93.01 1.86.01 2.81.02q1.08-.135 2.19-.27v-2h3v2h3v2h2v3h2v3h2c.33 1.67.67 3.33 1 5h2c.38 2.33.71 4.66 1 7l1 1c-.71 7.41-.71 7.41-2 10l-2.56-.06L73 248v3h-2v2c-2.84.27-2.84.27-6.5.25-.6 0-.6 0-3.66.02-.93-.09-1.87-.18-2.84-.27v-2l-3-1v-2h-2c-.3-2.08-.3-2.08-.31-4.81-.01-.45-.01-.45-.05-2.71.36-2.48.36-2.48 1.75-4.3C56 235 56 235 58 235v-3h-3v3h-3l-1 3c-.49-.16-.49-.16-3-1l.12-2.55L48 232c-2.19-.42-2.19-.42-5-.19-2.81.21-2.81.21-5 .19v-2h-3v-3c-1.67-.04-3.33-.04-5 0v-2h-2v-2c-.41-.04-.41-.04-2.47-.23-.84-.26-1.67-.51-2.53-.77-.56-2.77-.56-2.77-.44-6.25.02-1.14.05-2.28.07-3.45.36-3.18.81-5.51 2.37-8.3h3v-2h5Z"/><path fill="#fdbb27" d="M86 230c3.5-.25 3.5-.25 7 0v2c2.37.14 4.63.16 7 .09l4.38-.06c2.31-.04 4.63-.09 6.95-.15 2.22-.04 4.45-.07 6.67-.1.7-.02 1.4-.05 2.12-.07 1.94-.02 1.94-.02 4.88.29v3h2c.33 1.67.67 3.33 1 5h2v8h2c.32 4.12.49 7.55-2 11h-2v3h-3v2h-3v3h-5v3c-2.66.39-2.66.39-6.34.4-1.31 0-2.62.01-3.97.01-.69-.01-1.37-.01-2.08-.02-2.1-.01-4.2 0-6.3.02-1.31 0-2.62-.01-3.97-.01-1.21 0-2.43-.01-3.68-.01-.88-.13-1.75-.26-2.66-.39v-3l-2.56.31c-.81-.1-1.61-.2-2.44-.31-.28-2.76.12-5.37 1-8h2c.21-2.71.28-5.29.25-8 .01-.76.02-1.53.02-2.31 0-1.9-.13-3.8-.27-5.69h-2c-1.31-3.94-1.27-6.86-1-11h3Z"/><path fill="#5c5213" d="M1 181h3c.04 1.67.04 3.33 0 5h2c-.06.99-.12 1.98-.19 3 .06.99.13 1.98.19 3 2.5.56 2.5.56 5 0v-3h2v-3c2.19-.4 2.19-.4 5-.38.46 0 .46 0 2.81-.02.36.07.36.07 2.19.4v3h6v3h4c.56 3.5.56 3.5 0 7-2.5.12-2.5.12-5 0-.12 2.5-.12 2.5 0 5h-3c-1.05 2.84-1.17 5.93-1.5 8.94-.12.85-.25 1.7-.38 2.57-.25 2.26-.47 4.24-.12 6.49 2.47.94 2.47.94 5 1v2h2v2l2.5-.06 2.5.06v3h3v2c-2.11.11-4.15-.07-6.25-.22-.58.07-1.16.14-1.75.22v3h-2c-.11 2.62.07 5.19.22 7.81-.07.72-.14 1.45-.22 2.19h-3c.13-.84.27-1.69.41-2.55-.14-.81-.27-1.62-.41-2.45-2.31-.14-4.47.22-6.76.53-8.59 1.09-8.59 1.09-12.24-.53-2.32-5.23-.74-11.82.27-17.26q-.135-.855-.27-1.74c-.81.09-1.62.19-2.45.29-.84-.1-1.68-.19-2.55-.29-.52-3.09-.65-5.65-.59-8.75v-2.69c0-1.88.02-3.77.05-5.65.04-2.9.04-5.79.03-8.69.01-1.82.03-3.65.04-5.47v-2.65c.05-2.43.05-2.43.47-6.1"/><path fill="#e5ccb6" d="M138 320c1.99-.62 1.99-.62 4.82-.62.52 0 .52 0 3.18-.02.58 0 .58 0 3.49.05h3.54c2.48 0 4.97.02 7.45.05 3.81.04 7.61.04 11.42.03 2.4.01 4.81.03 7.21.04h3.47c1.06.02 2.12.03 3.21.05.47 0 .47 0 2.84.03 2.79.46 3.71 1.13 5.37 3.39v2h3v3h2v3h2c2 3 2 3 2.47 5.64-.15.78-.31 1.56-.47 2.36-2.3.66-2.3.66-5.57.69-1.21.03-2.43.06-3.68.08h-4.02c-1.37.01-2.73.02-4.09.04-2.87.02-5.73.02-8.59.01-3.68-.02-7.35.03-11.03.1-2.81.04-5.63.04-8.45.03-1.35.01-2.71.02-4.06.05-3.95.07-7.7.1-11.51-1-1.91-2.57-2.06-4.86-2-8v-6h-2c-.43-2.46-.43-2.46 0-5"/><path fill="#8f4b0f" d="M55 114h3v2h-2v3h-3c-.14 1.16-.29 2.31-.44 3.5-.18 1.16-.37 2.31-.56 3.5h-4v3h-2v8h-2c-.34 2.19-.34 2.19-.5 5s-.16 2.81-.5 5h-2c-.25 3.5-.25 3.5 0 7h2v2h2v-2c2.08-.41 4.14-.51 6.25-.66.58-.11 1.16-.22 1.75-.34v-2h5v-2c5.86-2.16 11.47-2.38 17.65-2.57 1.79-.07 3.57-.24 5.35-.43v-2c2.29-.26 2.29-.26 5.47-.27h3.42c1.19 0 2.38.01 3.61.02.6 0 .6 0 3.61-.02h3.42c1.05.01 2.1.01 3.18.01.37.04.37.04 2.29.26v2c2.69.26 5.3.42 8 .5s5.31.24 8 .5v2h8v2c1.83.34 1.83.34 4.25.5 3.38.22 5.87.65 8.75 2.5v2h5v2c.82.16 1.65.33 2.5.5.82.16 1.65.33 2.5.5v2c-3 .25-3 .25-6 0v-2c-2.19-1-2.19-1-5-2-.39-.18-.39-.18-2.38-1.06-2.62-.94-2.62-.94-6.43-1.44-.53-.08-.53-.08-3.19-.5v-2c-2.84-.34-2.84-.34-6.5-.5s-3.66-.16-6.5-.5v-2c-2.41-.12-2.41-.12-5.5 0s-3.09.12-5.5 0v-2c-2.29-.26-2.29-.26-5.47-.27h-3.42c-.59 0-.59 0-3.61.02-1.19-.01-2.38-.02-3.61-.02h-3.42c-1.05.01-2.1.01-3.18.01-.75.09-1.51.17-2.29.26v2c-3.4.15-6.76-.01-10.16-.12L68 149v2c-2.6.41-5.18.51-7.81.66-.72.11-1.45.22-2.19.34v2h-5v2c-2.33.34-4.67.67-7 1l-1 2h-2v4h-2c-.34 2.19-.34 2.19-.5 5s-.16 2.81-.5 5h-2l.06 2.5L38 178h-3c-1.63 5.51-1.69 13.5 0 19 3.83 1.85 6.96.79 11 0v2l2.19-.06c3.43.07 5.08 1.03 7.81 3.06v2c-2.5.25-2.5.25-5 0v-2h-6v-2c-2.62-.27-2.62-.27-6-.25-1.11-.01-2.23-.01-3.38-.02-.86.09-1.73.18-2.62.27v2c-2.5.31-2.5.31-5 0v-3c.41.02.41.02 2.47.1.83-.03 1.67-.07 2.53-.1.6-1.93.6-1.93.56-4.59-.01-.95-.02-1.9-.02-2.87-.04-1.01-.07-2.01-.1-3.04-.01-1-.01-2-.02-3.04-.09-5.4-.09-5.4-.42-7.46h-2v-2h-3v-3h-2v-2l-3-1c-.37-2.33-.7-4.66-1-7h-2c-.27-2.62-.27-2.62-.25-6-.01-1.11-.01-2.23-.02-3.38.09-.86.18-1.73.27-2.62h2v-2h3v-3c2.41-.4 2.41-.4 5.5-.38 1.02 0 2.04-.01 3.09-.02.8.13 1.59.26 2.41.4v3h3c.37-1.66.71-3.33 1-5h2l-1-2c-.23-2.72-.13-5.26 0-8h2v-5h2c.16-.82.33-1.65.5-2.5.16-.83.33-1.65.5-2.5h2v-3h2v-2h2l1-3h2Z"/><path fill="#facf81" d="M78 132c2.57-.26 2.57-.26 6.12-.27h3.83a618 618 0 0 0 8.1 0h3.83c1.17.01 2.34.01 3.55.01.42.04.42.04 2.57.26v2c2.99.16 2.99.16 6.88.06 6.92-.16 6.92-.16 9.12.94v2h8v2h5v2c1.75.34 1.75.34 4 .5s2.25.16 4 .5v2h2c.53 2.47.53 2.47 0 5-2.84.56-2.84.56-6.5.44-1.21-.02-2.41-.05-3.66-.07-.93-.12-1.87-.24-2.84-.37v-2c-2.33-.04-4.67-.04-7 0-.33-.16-.33-.16-2-1v-2c-2.62-.12-2.62-.12-6 0s-3.38.12-6 0v-2c-2.8-.21-5.51-.28-8.31-.27h-2.56c-1.79 0-3.58 0-5.37.01-2.75.01-5.5 0-8.25-.01h-5.2c-.41 0-.41 0-2.52-.01-1.93.02-3.86.14-5.79.28v2c-2.62.15-5.19-.01-7.81-.12L63 144v2c-2.33.33-4.67.67-7 1v2h-8v2c-3.5.38-3.5.38-7 0v-4h2v-3h3v-2c4.02-3.17 7.02-3.1 12-3v-2c2.08-.41 4.14-.51 6.25-.66.58-.11 1.16-.22 1.75-.34v-2c3.14-.15 6.24.01 9.38.12L78 134Z"/><path fill="#e4ccb6" d="M158.738 299.773l5.32-.15c.83-.04 1.65-.08 2.51-.11 4.36-.06 5.92.09 9.49 2.88 1.94 2.61 1.94 2.61 1.94 4.61h2c1.63 1.37 1.63 1.37 3 3v2l3 1c1.47 2.51 1.47 2.51 2 5-1.71.66-1.71.66-4.5.71-1.03.03-2.06.05-3.12.08-.57.01-.57.01-3.45.01-1.15.02-2.3.03-3.49.04-2.44.03-4.89.03-7.34.03-3.75 0-7.5.08-11.25.16-2.37.01-4.74.02-7.11.02l-3.42.09c-3.03-.04-5.46-.12-8.32-1.14-2.89-4.02-3-8.19-3-13h-2v-4c1.7-.55 1.7-.55 4.11-.61.89-.04 1.78-.07 2.7-.1.97-.02 1.94-.03 2.94-.04.99-.03 1.97-.05 2.99-.08q3.09-.075 6.18-.12c2.94-.05 5.88-.16 8.82-.28"/><path fill="#acb9b2" d="M183 23h2c.15 3.66-.01 7.28-.12 10.94L185 37h2c.18 1.84.18 1.84.09 4.38l-.06 2.73c-.06 1.93-.13 3.85-.2 5.78-.01.9-.03 1.81-.05 2.73l-.09 2.54c.05.31.05.31.31 1.84h3v2c-1.75.2-1.75.2-4 .25-2.19.2-2.19.2-4 .75-1 3.06-1 3.06 0 6 1.81.11 1.81.11 4-.12 2.25-.2 2.25-.2 4 .12.35 2.16.06 4.06-.18 6.23q.09.87.18 1.77c3.5.31 3.5.31 7 0v3l-3.5-.12-3.5.12c-.56 2.5-.56 2.5 0 5h2v3c-1.73.42-1.73.42-4.12.48l-2.59.09c-.9.02-1.8.04-2.73.05-1.77.06-3.54.11-5.31.17-.79.02-1.58.03-2.39.05C173 86 173 86 172 87l-3.56-.06L165 87v2c-2 .33-4 .67-6 1v2h-2v-4h2v-2h2v-4h-2v3h-2c-.25-2.5-.25-2.5 0-5h2v-3h3v-3h3v-2h3v-3h4v-3c1.97-.05 1.97-.05 4.5.25 2.48.11 2.48.11 4.5-.25.88-3.5.88-3.5 0-7-2.5-.31-2.5-.31-5 0v-2c.82.11 1.64.23 2.49.34.83-.11 1.66-.22 2.51-.34.34-2.69.38-4.83.19-7.5-.14-2.52-.21-4.98-.19-7.5h2c.2-1.74.2-1.74.12-4.16-.01-.85-.03-1.71-.04-2.59-.03-.91-.05-1.82-.08-2.75q-.075-2.67-.12-5.34c-.03-.8-.05-1.6-.08-2.42.07-.57.13-1.15.2-1.74"/><path fill="#8b8d8e" d="M187 95c2.53-.44 2.53-.44 5 0v2h3v3h2c-.06.83-.12 1.65-.19 2.5.06.83.13 1.65.19 2.5 2.44.44 2.44.44 5 0l1-2c.14 2.32.19 4.61.21 6.93 0 .38 0 .38.03 2.31.03 2.54.05 5.08.07 7.63.01.86.01 1.72.02 2.61.03 4.57.06 9.13.08 13.69.01 3.8.05 7.6.1 11.39.06 4.57.09 9.13.1 13.69.01 1.75.03 3.5.05 5.24.04 2.44.04 4.88.04 7.32l.06 2.22c-.03 2-.03 2-.76 4.97-3.04.64-3.04.64-6 0v-3h-3v-2h3v-3l-2-1h2c.31-3.5.31-3.5 0-7h-3v-2h3c.5-3 .5-3 0-6-2.5-.19-2.5-.19-5 0v-3l2.5.12 2.5-.12c.19-2.5.19-2.5 0-5h2c.25-3 .25-3 0-6h-2c.06-.82.12-1.65.19-2.5-.06-.82-.13-1.65-.19-2.5-2.5-.12-2.5-.12-5 0v-3h3c.38-3 .38-3 0-6h-3v-2l2-1v-4h-2v-3h-2c-.11-3.66.07-7.28.22-10.94-.03-.5-.03-.5-.22-3.06h-3c-.47-2.19-.47-2.19-.5-5l-.09-2.81c.19-.72.39-1.45.59-2.19"/><path fill="#438013" d="M183 213h3c-.16 1.16-.33 2.31-.5 3.5.08.58.08.58.5 3.5 2.96.44 5.62.24 8.59-.05.4.01.4.01 2.41.05v3h2c.89 3.46.89 3.46 0 7-4.01 1.13-8.12.76-12.25.61-1.24-.01-2.49-.03-3.77-.04-3.31-.04-6.62-.12-9.94-.21-4.67-.11-9.35-.18-14.02-.25-2.5-.04-4.99-.09-7.48-.16-1.12-.02-2.24-.04-3.4-.07-.99-.02-1.99-.05-3.01-.07-.35.03-.35.03-2.13.19v2h-3v-2c-.99-.16-1.98-.33-3-.5-.99-.16-1.98-.33-3-.5v-2h-4c-.81-2.5-.81-2.5 0-5 2.41-.31 4.61-.18 7.03.02.33 0 .33 0 1.97-.02v-2c2.08-.41 4.14-.51 6.25-.66.58-.11 1.16-.22 1.75-.34v-2l3 .06 3-.06v-3c2.5-.38 2.5-.38 5 0v3c-1.66.37-3.33.71-5 1v2c2.29.2 2.29.2 5.47.12.56 0 .56 0 3.42-.04.59-.01.59-.01 3.61-.08 2.34-.05 4.69-.09 7.03-.12 1.05-.03 2.1-.05 3.18-.08.75.07 1.51.13 2.29.2v2h2v-2h3Z"/><path fill="#ce7623" d="M73 106c2.5-.25 2.5-.25 5 0v2c-.32.24-.32.24-1.94 1.44C74 111 74 111 73 114h-2v2h-2c-.95 3.65-1.37 7.25-1 11 2.88.62 2.88.62 6 0l1 1c2.45.12 4.87.19 7.32.21l4.5.09c2.38.04 4.76.08 7.14.1 2.28.03 4.57.07 6.86.12.36.01.36.01 2.17.01 2 .05 2 .05 5.01.47v3c-2.75.31-2.75.31-6.56.22-.34 0-.34 0-2.02-.02-2.14-.03-4.28-.08-6.42-.14q-3.21-.075-6.42-.12c-1.94-.03-3.88-.07-5.83-.12-.9.06-1.81.12-2.75.18v2c-3.14.15-6.24-.01-9.38-.12L66 134v2c-2.08.41-4.14.51-6.25.66-.29.05-.29.05-1.75.34v2c-2.33.37-4.66.69-7 1-2.94.94-2.94.94-5 2v2h-3c-.31-3.38-.31-3.38 0-7l2-2c.08-.52.08-.52.5-3.12.16-.95.33-1.9.5-2.88h2v-3h4c.37-2.33.71-4.66 1-7h3v-3h2v-4c3-1 3-1 6.69-.88L68 111v-3c1.67-.04 3.33-.04 5 0Z"/><path fill="#91847e" d="M101 277h3c.17 2.57.18 4.94.06 7.5-.1 2.52-.13 4.97-.06 7.5h2v3h6v3c2.7.32 5.17.42 7.88.4.79 0 1.59 0 2.42.01 1.69 0 3.39-.01 5.08-.02 2.61-.01 5.22 0 7.82.02 1.64 0 3.28-.01 4.92-.01.79 0 1.58.01 2.39.02 2.19-.03 2.19-.03 5.49-.42v-3h2v-3c3-.38 3-.38 6 0v3h2v3h-2v2c-3.08 1.03-5.1 1.09-8.32 1.03-1.03-.01-2.06-.03-3.12-.04-2.18-.04-4.35-.07-6.53-.12l-3.1-.03c-.95-.02-1.89-.03-2.87-.05-.34.03-.34.03-2.06.21v2c-2.16.25-2.16.25-5.23.26-.57 0-.57 0-3.46.02-1.25-.01-2.49-.01-3.78-.01h-3.83c-2.69 0-5.37 0-8.05-.01-3.45-.01-6.9 0-10.35.01-3.28.01-6.56 0-9.83 0-.62 0-.62 0-3.78.01-1.14-.01-2.28-.01-3.46-.02-1.01 0-2.02 0-3.07-.01L73 303v-2c-1.77-.21-1.77-.21-4.23-.16l-2.68.03c-.94.02-1.88.05-2.84.07l-5.48.09c-.41.01-.41.01-2.48.05-2.27-.08-4.15-.3-6.29-1.08v-2h-2v-3h2v-3c3-.38 3-.38 6 0v3h3v3c2.56.32 4.87.42 7.44.4.75 0 1.51 0 2.28.01 1.61 0 3.21-.01 4.81-.02 2.46-.01 4.92 0 7.38.02 1.55 0 3.1-.01 4.65-.01.75 0 1.49.01 2.26.02 2.06-.03 2.06-.03 5.18-.42v-3h6v-3h3c.15-2.57.14-4.94 0-7.5a65 65 0 0 1 0-7.5"/><path fill="#1988fa" d="M81 80c2.19-.4 2.19-.4 5-.38.46 0 .46 0 2.81-.02.72.13 1.45.26 2.19.4v3c1.67.04 3.33.04 5 0v2h3v2h2v8h2c.4 2.46.4 2.46 0 5-1.84.63-1.84.63-4.38.64l-2.73.06c-.95-.01-1.91-.01-2.89-.01-1.88.01-3.75.04-5.62.07h-2.54L83 101v2c-2.6.41-5.18.51-7.81.66-.72.11-1.45.22-2.19.34v2h-3v-3h-2c-.3-1.75-.3-1.75-.31-4-.02-.74-.04-1.48-.05-2.25.12-.58.24-1.16.36-1.75h3v-2h2c.25-3 .25-3 0-6h-2v-2h3v-2l3.5.06L81 83Z"/><path fill="#e6d4bf" d="M181 96c1.01 3.73.76 7.54.69 11.38v3.49c-.01 2.45-.04 4.9-.07 7.35-.06 3.76-.06 7.53-.06 11.3l-.06 7.1c0 1.14 0 2.28-.01 3.45-.02 1.04-.03 2.08-.05 3.16-.02.92-.03 1.84-.04 2.8-.13.65-.26 1.3-.4 1.97h-3v-2c-1.66.17-3.31.39-4.95.62-2.77.06-2.77.06-5.05-.62-1.5-3.92-1.02-7.87-.75-12l.09-3.47c.21-5.95.21-5.95.66-8.53h2c.1-2.33.07-4.67 0-7s-.1-4.67 0-7h2c.03-1.99.06-3.97-.03-5.96C172 100 172 100 173 97c3.06-1.53 4.66-1.88 8-1"/><path fill="#ed8d0e" d="M81 147c2.29-.26 2.29-.26 5.47-.27h3.42c1.19 0 2.38.01 3.61.02.6 0 .6 0 3.61-.02h3.42c1.05.01 2.1.01 3.18.01.75.09 1.51.17 2.29.26v2c2.41.12 2.41.12 5.5 0s3.09-.12 5.5 0v2c2.08.16 2.08.16 4.81.06 3.19-.1 5.13-.08 8.19.94v2c.95-.06 1.9-.12 2.88-.19 5.24-.18 9.83 2.34 14.12 5.19v2h6v2h3v2c.66.16 1.32.33 2 .5.66.16 1.32.33 2 .5v2h3v3h2c.25 2.5.25 2.5 0 5h-2v-3h-2v-2h-3v-2c-.82-.16-1.65-.33-2.5-.5-.82-.16-1.65-.33-2.5-.5v-2c-.82-.16-1.65-.33-2.5-.5-.82-.16-1.65-.33-2.5-.5v-2h-8v-2c-2.84-.56-2.84-.56-6.5-1s-3.66-.44-6.5-1v-2c-2.62-.11-5.19.07-7.81.22-.72-.07-1.45-.14-2.19-.22v-3c-2.73-.17-5.27-.18-8-.06-2.69.1-5.31.13-8 .06v-2c-1.84-.26-1.84-.26-4.38-.27h-2.73c-.95 0-1.91.01-2.89.02-.48 0-.48 0-2.89-.02h-2.73c-.42.01-.42.01-2.54.01-.31.04-.31.04-1.84.26v2c-2.11.29-2.11.29-5.03.34l-3.15.09c-1.1.03-1.1.03-6.64.14l-3.15.09c-.48.01-.48.01-2.92.05-.7.1-1.39.19-2.11.29v2c-2.62.15-5.19-.01-7.81-.12L48 157v2h-3l1-3c2.33-.04 4.67-.04 7 0v-2h5v-2c3-1 3-1 6.69-.94L68 151v-2c3.4-.15 6.76.01 10.16.12L81 149Z"/><path fill="#4e2c13" d="M53 259c3.68-.5 4.84-.11 8 2 2.16.27 2.16.27 4.5.25.39 0 .39 0 2.34.02C70 261 70 261 73 259h3v3h-3c.19 3.5.19 3.5 1 7h2v2h2v2h-2l-1 3c-1.67.04-3.33.04-5 0v2l-3-.06-3 .06v3h-3a108 108 0 0 0-1 5h-2c.6 6.6.6 6.6 2 8 4.43.38 8.88.51 13.32.67 2.24.08 4.47.18 6.71.29l4.22.15c.65.02.65.02 3.92.15.93-.08 1.87-.17 2.83-.26v-3l2.98.31c.5-.05.5-.05 3.02-.31.53-3.57.45-6.73.23-10.31-.02-2.19-.02-2.19.77-5.69 2.84-1.17 5.16-1.14 8 0 .71 3.06.71 3.06.38 7-.18 2.33-.31 4.66-.38 7h2v2l2.5-.06 2.5.06v3c2.41.22 4.56.23 6.96.11.36-.01.36-.01 2.15-.07 1.5-.06 3-.12 4.51-.19 2.3-.1 4.61-.18 6.92-.26 1.45-.05 2.91-.11 4.36-.17.7-.02 1.39-.05 2.11-.08 4.87-.22 4.87-.22 5.99-1.34.03-2.62-.07-5.23-.16-7.85.05-.71.11-1.42.16-2.15h2v2h2c.27 2.19.27 2.19.25 5 0 .46 0 .46.02 2.81q-.135 1.08-.27 2.19h-2v3c-2.7.32-5.17.42-7.88.4-.39 0-.39 0-2.42.01-1.69 0-3.39-.01-5.08-.02-2.61-.01-5.22 0-7.82.02-1.64 0-3.28-.01-4.92-.01-.79 0-1.58.01-2.39.02-2.19-.03-2.19-.03-5.49-.42v-3h-6v-3h-2c-.09-3.24.01-6.43.17-9.67.05-2.05.05-2.05-.17-5.33h-3a65 65 0 0 0 0 7.5c.14 2.56.15 4.93 0 7.5h-3v3h-6v3c-2.56.32-4.87.42-7.44.4-.75 0-1.51 0-2.28.01-1.61 0-3.21-.01-4.81-.02-2.46-.01-4.92 0-7.38.02-1.55 0-3.1-.01-4.65-.01-.75 0-1.49.01-2.26.02-2.06-.03-2.06-.03-5.18-.42v-3h-3c-.36-2.19-.36-2.19-.31-5 0-.93.01-1.86.01-2.81q.15-1.08.3-2.19h2c.16-.66.33-1.32.5-2 .16-.66.33-1.32.5-2h2v-3h3v-2l2.5.06L68 276v-3h6l-1-3-2-1c.09-.84.19-1.68.28-2.55-.09-.81-.18-1.62-.28-2.45-2.84-.42-2.84-.42-6.5-.19-2.16.13-4.33.2-6.5.19v-2l-2.5.06L53 262Z"/><path fill="#edf4fb" d="M1 50c3.04-.84 3.04-.84 6 0v2h4v4h3q.06 3 0 6h2v2h2v-2c3-.25 3-.25 6 0v2h3q.06 3 0 6h2v-2c2.5-.31 2.5-.31 5 0v3h3v3h3v3c-1.74.39-1.74.39-4.16.4-.85 0-1.71.01-2.59.01l-2.75-.03c-.45 0-.45 0-2.75.03-.42 0-.42 0-2.59-.01-.8 0-1.6-.01-2.42-.01q-.855-.195-1.74-.39v-3h-3v-3c-2.5-.56-2.5-.56-5 0 .04.5.04.5.25 3-.04.5-.04.5-.25 3-3.03.82-5.99.92-9 0v-4H1C.22 69.24.44 65.33.44 61.5.4 60.4.36 59.31.33 58.18.31 55.32.3 52.77 1 50"/><path fill="#318349" d="M1 181h3c.04 1.67.04 3.33 0 5h2c-.06.99-.12 1.98-.19 3 .06.99.13 1.98.19 3 2.5.56 2.5.56 5 0v-3h2v-3c2.19-.4 2.19-.4 5-.38.46 0 .46 0 2.81-.02.36.07.36.07 2.19.4v3h6v3h4c.56 3.5.56 3.5 0 7-2.5.25-2.5.25-5 0v3c-.8.14-1.61.29-2.44.44-.84.18-1.69.37-2.56.56-.36 1.33-.7 2.66-1 4h-4v-2c-1.97-.3-1.97-.3-4.5-.31-.84-.02-1.67-.04-2.53-.05-.65.12-1.3.24-1.97.36v3c-1.67.04-3.33.04-5 0v2H1c-.39-2.66-.39-2.66-.4-6.34 0-1.31-.01-2.62-.01-3.97.01-.69.01-1.37.02-2.08.01-2.1 0-4.2-.02-6.3 0-1.31.01-2.62.01-3.97 0-1.21.01-2.43.01-3.68.13-.88.26-1.75.39-2.66"/><path fill="#de9039" d="M73 142c2.8-.21 5.51-.28 8.31-.27h2.56c1.79 0 3.58 0 5.37.01 2.75.01 5.5 0 8.25-.01h5.2c.83 0 1.66 0 2.52-.01 1.93.02 3.86.14 5.79.28v2c2.62.12 2.62.12 6 0s3.38-.12 6 0v2c1.97.34 1.97.34 4.5.5s2.53.16 4.5.5v2c2.84.37 2.84.37 6.5.44l3.66.12c.47-.09.47-.09 2.84-.56.22-2.53.22-2.53 0-5h3v2c.82.16 1.65.33 2.5.5.82.16 1.65.33 2.5.5v2h4c1.75 1.38 1.75 1.38 3 3v2h3c.36 2.41.36 2.41.31 5.5 0 1.02-.01 2.04-.01 3.09L163 165h-2v-2h-3v-2h-5v-2c-.82-.16-1.65-.33-2.5-.5-.82-.16-1.65-.33-2.5-.5v-2h-5v-2c-1.7-.57-1.7-.57-4-1-1.58-.31-3.17-.62-4.75-.94-.8-.15-1.6-.3-2.42-.46-.61-.2-1.21-.4-1.83-.6v-2h-8v-2c-2.23-.16-2.23-.16-5.19-.06-3.76.11-7.17.13-10.81-.94v-2c-2.29-.26-2.29-.26-5.47-.27h-3.42c-.59 0-.59 0-3.61.02-1.19-.01-2.38-.02-3.61-.02h-3.42c-1.05.01-2.1.01-3.18.01-.75.09-1.51.17-2.29.26v2c-2.54.47-5 .8-7.56 1.06-2.12.24-4.24.47-6.36.71-1.39.15-2.78.3-4.17.44-1.65.19-3.28.48-4.91.79v2h-5v2c-2.08.41-4.14.51-6.25.66-.29.05-.29.05-1.75.34v2h-2v-2h-2v-3c2.33-.04 4.67-.04 7 0v-2h8v-2c1.17-.17 1.17-.17 7-1v-2c2.62-.15 5.19.01 7.81.12L73 144Z"/><path fill="#66634f" d="M199 220c1.94.08 1.94.08 4 1 .41 1.77.41 1.77.28 4.04-.02.4-.02.4-.14 2.45-.07.85-.13 1.7-.2 2.57-.02.43-.02.43-.13 2.59-.16 2.45-.16 2.45-.81 6.35h-3c.1-1.3.21-2.6.31-3.94.08-2.21.08-2.21-.31-4.06-3.13-.92-4.84-1.08-8-.94-.76-.02-1.53-.04-2.31-.07-2.19.05-2.19.05-5.69 1.01-.75 3.5-.75 3.5 0 7 2.29.68 2.29.68 4 1-8.69 1.27-17.29.98-26.04.61l-3.16-.06c-.47-.02-.47-.02-2.87-.1-.64.18-1.27.36-1.93.55.07 2.47.07 2.47 1 5l2 1c.3 3.16.3 3.16.31 7.06.02 1.29.04 2.58.05 3.91L156 260h-3c-.22-3.06-.22-3.06-.06-7 .09-2.33.13-4.67.06-7h-2c-.33-2-.67-4-1-6h-2v-2h-3v-3h-2c-.45-2.47-.45-2.47 0-5 2.13-.53 2.13-.53 5.14-.41 1.12.03 2.24.07 3.4.1.61.03.61.03 3.71.17 2.55.07 5.1.13 7.66.19 4.05.12 8.11.26 12.16.43 3.9.16 7.79.24 11.68.32 1.22.07 2.45.14 3.71.2 5.81.09 5.81.09 8.54-1 .76-2.89.53-5 .04-7.94-.01-.34-.01-.34-.04-2.06"/><path fill="#d86e1d" d="M148 116h2v3h3c.88 2.12.88 2.12 1.56 4.88 1.25 4.93 1.25 4.93 3.44 7.12.25 3.12.25 3.12 0 6h-2v2c-3.88.12-7.72.04-11.6-.08-2.13-.04-4.27.01-6.4.08v2h-3v-2h-5v-2h-8v-2c-2.41-.34-2.41-.34-5.5-.5s-3.09-.16-5.5-.5v-2c2.41-.27 2.41-.27 5.5-.25 1.02-.01 2.04-.01 3.09-.02.4.05.4.05 2.41.27v2c2.01-.64 4.01-1.31 6-2h4v-3h3v-3h2v-2h3v-3c1.67-.04 3.33-.04 5 0v-2h3Z"/><path fill="#fcb723" d="M134 232h2v2c.99-.16 1.98-.33 3-.5.99-.16 1.98-.33 3-.5v2h3v3h3v2h2c.33 2 .67 4 1 6h2c.27 3.06.27 3.06.25 7 .01 1.3.01 2.6.02 3.94-.09 1.01-.18 2.02-.27 3.06h-2v2h-7l3 2c-3.31.25-3.31.25-7 0v-2c-.82.12-1.64.25-2.49.38-.83-.13-1.66-.25-2.51-.38-.34-2.85-.38-5.17-.19-8 .14-2.68.2-5.31.19-8h-2c-.48-1.97-.48-1.97-.75-4.5-.1-.84-.2-1.67-.3-2.53.02-.65.03-1.3.05-1.97h2l-1-3Z"/><path fill="#f89a0e" d="M165 176c.16.33.16.33 1 2h2c.26 1.93.26 1.93.27 4.59v2.87c0 1.01-.01 2.01-.02 3.04 0 .5 0 .5.02 3.04v2.87c-.01.88-.01 1.76-.01 2.66-.04.32-.04.32-.26 1.93h-2c-.17.82-.33 1.65-.5 2.5-.17.82-.33 1.65-.5 2.5h-2v3h-2c-.17.82-.33 1.65-.5 2.5-.17.82-.33 1.65-.5 2.5h-2v2l-2.5-.06-2.5.06v3q-3 .06-6 0v2c-2.08.41-4.14.51-6.25.66-.58.11-1.16.22-1.75.34v2c-2.36.15-4.67-.01-7.03-.12L130 222v2c-1.86.25-1.86.25-4.5.26-.98.01-1.96.01-2.97.02-1.07-.01-2.14-.01-3.25-.01h-3.29c-2.31 0-4.62 0-6.93-.01-3.54-.01-7.09 0-10.64.01h-6.7c-.54 0-.54 0-3.25.01-.98-.01-1.96-.01-2.97-.02-.87 0-1.74 0-2.64-.01-.31-.04-.31-.04-1.86-.25v-2h-5v-2c2.13-.22 2.13-.22 5.14-.18l3.4.03 3.71.06 7.66.06c4.05.04 8.11.09 12.16.15 3.9.05 7.79.07 11.68.1 1.22.02 2.45.05 3.71.07 1.12.01 2.24.01 3.4.02.99.01 1.99.02 3.01.04.71-.12 1.41-.23 2.13-.35v-3h8v-3c1.67-.04 3.33-.04 5 0v-2h5v-2c.8-.12 1.61-.25 2.44-.38.84-.2 1.69-.41 2.56-.62.69-2.06.69-2.06 1-4h2v-3h3v-3h2c.17-1.16.33-2.31.5-3.5.17-1.16.33-2.31.5-3.5h2c.48-2.41.48-2.41.75-5.5.1-1.02.2-2.04.3-3.09-.01-.4-.01-.4-.05-2.41h-2c-.19-2.62-.19-2.62 0-5"/><path fill="#1b5739" d="M166 199h2c.25 3 .25 3 0 6h-2c-.88 3.44-.88 3.44 0 7 3.96 1.17 7.89 1.5 12 1v-3h3v-2c1.67-.33 3.33-.67 5-1v-2h3v3h2v2h3v-2h2l.31 2.5c.23.82.46 1.65.69 2.5 2.5.5 2.5.5 5 0l1-3c.24 1.89.24 1.89.31 4.81l.12 2.9c-.14.75-.29 1.51-.43 2.29h-4v3h-2v-3c-2.41-.05-2.41-.05-5.5.25-3.06.11-3.06.11-5.5-.25-.5-3.5-.5-3.5 0-7h-3v7h-3v2h-2v-2c-2.29-.2-2.29-.2-5.47-.12-1.13.01-2.25.03-3.42.04-.59.01-.59.01-3.61.08-2.34.05-4.69.09-7.03.12-1.05.03-2.1.05-3.18.08-.75-.07-1.51-.13-2.29-.2v-2c.82-.1 1.65-.21 2.5-.31.41-.12.41-.12 2.5-.69.19-2.56.19-2.56 0-5h2c.16-.82.33-1.65.5-2.5.16-.82.33-1.65.5-2.5h2v-3h2c.16-.82.33-1.65.5-2.5.16-.82.33-1.65.5-2.5"/><path fill="#faa516" d="M25 146c2.41-.4 2.41-.4 5.5-.38 1.02 0 2.04-.01 3.09-.02.4.07.4.07 2.41.4v3h2v5h2c.75 3 .75 3 1 6h-2c-.33 2.09-.38 4.14-.46 6.25-.18.58-.36 1.16-.54 1.75h-4c-.19 3.62-.19 3.62 0 7l-1-2h-7v-2l-3-1c-.37-2.33-.7-4.66-1-7h-2c-.27-2.62-.27-2.62-.25-6-.01-1.11-.01-2.23-.02-3.38.09-.86.18-1.73.27-2.62h2v-2h3Z"/><path fill="#287beb" d="M52 78h4v4h2c2.25 7.24 2.25 7.24 1 11l2-2 2-1v-2c1.75-.27 1.75-.27 4-.25.74-.01 1.48-.01 2.25-.02.58.09 1.16.18 1.75.27v2h-3c-.04 1.67-.04 3.33 0 5h-2c.07 1.84.2 3.67.38 5.5.08 3.03.08 3.03-.38 5.5-2.28 1.16-3.72 1.04-6.23.72-.59-.24-1.17-.48-1.77-.72-.25-2.5-.25-2.5 0-5h-4v2h-3v3h-3v2h-2c-.25-2.5-.25-2.5 0-5h2c.44-2.5.44-2.5 0-5-2.5-.12-2.5-.12-5 0v-3h-2c-.69-2.5-.69-2.5 0-5 2.01-.05 2.01-.05 4.5.19 2.5.17 2.5.17 4.5-.19.67-2.24.45-3.94.12-6.25L50 82h2Z"/><path fill="#4a607b" d="M185 105h2c.21 2.6.27 5.1.26 7.71 0 .82.01 1.64.01 2.48.01 2.73 0 5.46 0 8.19v5.64c0 3.96 0 7.91-.01 11.87-.01 5.08 0 10.17.01 15.25.01 3.89 0 7.79 0 11.68v5.62c.01 2.62 0 5.23-.01 7.85 0 .78.01 1.57.01 2.38-.01 1.78-.13 3.56-.27 5.33h-2v3c-3.5.38-3.5.38-7 0v-3h-3v3h-4c-.46-3.06-.46-3.06-.38-7 .02-1.3.03-2.6.04-3.94.11-1.01.23-2.02.34-3.06h2v-2h2v-3h2c.14-.82.29-1.65.44-2.5.18-.82.37-1.65.56-2.5h3c.04-1.67.04-3.33 0-5h2c.2 2.2.2 2.2.12 5.25-.01 1.08-.03 2.17-.04 3.28-.03 1.16-.03 1.16-.16 6.94-.01 1.08-.03 2.16-.04 3.28-.03 1.01-.05 2.01-.08 3.05.07.72.13 1.45.2 2.2h2c.19-2.54.23-4.98.2-7.53-.01-.8-.01-1.6-.01-2.42-.01-1.75-.02-3.49-.04-5.24-.03-2.75-.04-5.51-.05-8.26-.02-5.85-.06-11.7-.1-17.55-.05-6.77-.09-13.55-.11-20.32-.01-2.73-.04-5.45-.07-8.18 0-1.66-.01-3.31-.02-4.97l-.03-2.33c0-1.73.1-3.47.23-5.2"/><path fill="#7c400d" d="M56 204c2.47.78 4.68 1.84 7 3v3h3v2h2v2l3 1v2c.41-.03.41-.03 2.5-.19.41.03.41.03 2.5.19v5c2.5.19 2.5.19 5 0v2c1.86.22 1.86.22 4.5.18l2.97-.03 3.25-.06 6.7-.06c3.55-.04 7.1-.09 10.64-.15 3.41-.04 6.82-.07 10.22-.1 1.07-.02 2.14-.05 3.25-.07.98-.01 1.96-.01 2.97-.02.87-.01 1.74-.02 2.64-.04.61.12 1.23.23 1.86.35v3c-1.95.33-1.95.33-4.71.26-1.03-.02-2.06-.03-3.12-.05l-3.4-.09c-2.33-.04-4.66-.07-7-.1-3.71-.07-7.42-.15-11.13-.23-3.56-.08-7.12-.13-10.68-.17-1.12-.04-2.25-.07-3.41-.11l-3.1-.03-2.75-.06c-.28.09-.28.09-1.7.58.72 2.36.72 2.36 2 5v5h2c.21 2.54.28 4.96.25 7.5.01.72.02 1.43.02 2.17 0 1.78-.13 3.56-.27 5.33h-2v5h-2v2h-3v-3h2c.04-1.67.04-3.33 0-5l1-1c.1-2 .13-4 .12-6 .01-1.09.01-2.19.01-3.31C79 238 79 238 78 237l.06-3.56L78 230h-2c-.17-.83-.17-.83-1-5h-2v-3h-2v-3h-2v-2h-3v-2h-3v2c-2.19.27-2.19.27-5 .25-.93.01-1.86.01-2.81.02q-1.08-.135-2.19-.27v-2c2.38-.32 4.73-.38 7.13-.46.62-.18 1.23-.36 1.87-.54-.04-1.98-.04-1.98-1-4l-3-1v-2h-2Z"/><path fill="#df8528" d="M35.918 199.54c.54.01.54.01 3.27.09l3.29.03c.42.06.42.06 2.52.34v2h6v2l2.5-.06 2.5.06v3h2v2c.64.12 1.28.25 1.94.38.68.2 1.36.41 2.06.62.81 2 .81 2 1 4-1 1-1 1-3.06 1.03-1.67-.06-3.34-.12-5-.19-.64.05-1.28.11-1.94.16v2h-3v2c-2.5.25-2.5.25-5-.0009374999999920419v-2h-2v-2h-2v2h-5v2h-3c.07-3.78.19-6.16 2.88-8.94 2.12-1.06 2.12-1.06 5.12-1.06v-2c2.36-.15 4.67.01 7.03.13.33-.02.33-.02 1.97-.13v-2c-2.62-.52-2.62-.52-6-.81-1.11-.11-2.23-.22-3.37-.33-.87.04-1.74.09-2.63.14v3h-3v2c-2.5 1-2.5 1-5 1-.6-3.24-.39-5.26 1.15-8.18 1.85-1.82 1.85-1.82 4.77-2.28"/><path fill="#e88f2e" d="M89 105l-3 1c-.4 2.29-.4 2.29-.38 5.06 0 .92-.01 1.84-.02 2.79.07.35.07.35.4 2.15h3c-.27 2.01-.62 4.01-1 6 .32 1.34.64 2.67 1 4h-2v2c-5.16 1.72-10.73 1.42-16.06.5-.97-.5-1.94-.99-2.94-1.5-.55-4.34-.37-6.89 1-11h2v-2h2c.06-.31.06-.31.38-1.88.2-.7.41-1.4.62-2.12 2.06-1.12 2.06-1.12 4-2v-2c3.65-1.07 7.21-1.19 11-1"/><path fill="#fcb722" d="M127 276c1.75-.27 1.75-.27 4-.25.74-.01 1.49-.01 2.25-.02.58.09 1.16.18 1.75.27v2l2.5-.06 2.5.06v3h3v2h2c.32 4.18.47 7.51-2 11-2.13.5-2.13.5-4.56.44-.81 0-1.61-.01-2.44-.01l-2-.43-1-3c-2-.06-4-.12-5.99-.01C125 291 125 291 122 290v-2h-2v-2h-3v-3h3v-3h2v-2h5Z"/><path fill="#493125" d="M78 78a78 78 0 0 1 7.5-.25c.72-.01 1.43-.02 2.17-.02 1.78 0 3.56.13 5.33.27v2l2.5-.06L98 80v3h3v2h2c.33 2.33.67 4.67 1 7h2c-.06.65-.06.65-.38 3.95-.05 2.21-.05 2.21.38 4.05 3.05.81 4.93.99 8 .88 2.68-.02 5.32.02 8 .12v2c1.75.34 1.75.34 4 .5s2.25.16 4 .5v2c-1.75.27-1.75.27-4 .25-.37 0-.37 0-2.25.02-.58-.09-1.16-.18-1.75-.27v-2c-2.88-.21-5.65-.28-8.53-.27h-2.62c-1.84 0-3.68 0-5.51.01-2.83.01-5.65 0-8.48-.01h-5.33c-.85 0-1.7 0-2.58-.01-1.99.02-3.97.14-5.95.28v2c-2.19.27-2.19.27-5 .25-.93.01-1.86.01-2.81.02q-1.08-.135-2.19-.27v-2c2.6-.41 5.18-.51 7.81-.66.72-.11 1.45-.22 2.19-.34v-2c5.8-1.35 11.49-.89 17.4-.55.86-.15 1.72-.3 2.6-.45.5-2.52.5-2.52 0-5h-2v-8h-2v-2h-3v-2l-2.5.06L91 83v-3c-2.19-.4-2.19-.4-5-.38-.93 0-1.86-.01-2.81-.02-.72.13-1.45.26-2.19.4v3c-2.33.04-4.67.04-7 0v2h-3v2c-2.19.27-2.19.27-5 .25-.93.01-1.86.01-2.81.02Q62.11 87.135 61 87v-2h7v-2l2.5.06L73 83v-3c1.67-.04 3.33-.04 5 0Z"/><path fill="#fab825" d="M30 232c1.75-.4 1.75-.4 4-.38.37 0 .37 0 2.25-.02.58.13 1.16.26 1.75.4v3h5v3h2c.33 1.67.67 3.33 1 5h2c.3 2.15.3 2.15.31 4.94.01.46.01.46.05 2.77-.12.76-.24 1.51-.36 2.29-3.52 1.17-6.31 1.28-10 1v-3h-2v-3h-4v-3h-4c-.46-2.19-.46-2.19-.38-5 .02-.93.03-1.86.04-2.81.11-.72.23-1.45.34-2.19h2Z"/><path fill="#f3920c" d="M168.82 148.54l3.3.09 3.32.03c.85.12 1.69.23 2.56.34v2h2c.27 2.63.27 2.63.25 6 0 1.11.01 2.23.02 3.38-.09.86-.18 1.73-.27 2.62h-2v5h-2c-.12.58-.25 1.16-.38 1.75-.83 3-2.24 4.29-4.62 6.25h-3c-.22-1.75-.22-1.75-.06-4 .15-2.25.15-2.25.06-4h-2c-.38-2.26-.38-2.26-.56-5.25-.36-5.48-.36-5.48-1.09-7.86-.35-1.89-.35-1.89.2-4.12 1.45-1.77 1.45-1.77 4.27-2.23"/><path fill="#fcbb26" d="M70 276c3-.25 3-.25 6 0v2l3-.06 3 .06v3h2v2h2v2h-2v3h-3v2c-1.93.2-1.93.2-4.59.12-.95-.01-1.9-.03-2.87-.04-2.03-.05-4.05-.11-6.08-.16-.94-.01-1.89-.03-2.87-.04-.88-.03-1.76-.05-2.66-.08-.32.04-.32.04-1.93.2v2h-2c-.25-3-.25-3 0-6h2c.07-.41.07-.41.44-2.5.18-.82.37-1.65.56-2.5h3v-3q3-.06 6 0Z"/><path fill="#7e8b8f" d="M190 57h2c.02 1.97.02 1.97-.19 4.5-.07 2.51-.07 2.51.19 4.5 2.5.38 2.5.38 5 0v3h3v3h2c1.53 3.07 1.23 6.26 1.25 9.62l.06 2.15c.02 2.02.02 2.02-.31 5.23h-3v-2q-3-.06-6 0l-2-1v-4h-2c-.56-2.5-.56-2.5 0-5 3.5-.12 3.5-.12 7 0v-3c-1.16.1-2.31.21-3.5.31-1.16-.1-2.31-.2-3.5-.31-.18-1.77-.18-1.77.06-4 .23-2.24.23-2.24-.06-4-2.16-.39-4.04-.12-6.21.11-.3-.02-.3-.02-1.79-.11-.62-2.94-.62-2.94 0-6 2-1 2-1 5.12-.94L190 59Z"/><path fill="#586269" d="M182.063 84.813c.83-.01 1.67-.02 2.53-.04 5.46-.01 10.2.51 15.41 2.23v2h3c.33 2.33.33 2.33.25 5.37-.02 1-.03 2-.05 3.03-.2 2.6-.2 2.6-1.2 4.6h-3c.33-1.67.66-3.34 1-5h-3v-2c-.83-.17-1.65-.33-2.5-.5-.83-.17-1.65-.33-2.5-.5v-2c-2.71-.21-5.3-.28-8-.25-.38-.01-.38-.01-2.32-.03-1.89.01-3.79.13-5.68.28v2c-.99-.02-1.98-.04-3-.07-.99.03-1.98.05-3 .07v3h-2v3h-3c-.63-3.38-.63-3.38 0-7 3.5-1.31 3.5-1.31 7-2v-2h3v-2l-3-1c2.17-2.17 7.05-1.19 10.06-1.19"/><path fill="#e7d5be" d="M187 105h3c.35 2.51.35 2.51.31 6.06 0 .64-.01 1.29-.01 1.95-.01 2.14-.05 4.28-.08 6.43-.01 1.48-.02 2.96-.02 4.44-.03 3.9-.07 7.81-.11 11.72-.07 6.25-.13 12.5-.16 18.76-.02 2.19-.05 4.38-.08 6.58l-.03 4c-.01 1.17-.03 2.35-.04 3.55.07.83.15 1.66.22 2.51h2c.18 2.48.23 4.84.19 7.31v2.09c-.03 3.13-.2 5.62-1.19 8.6h-4c-.42-2.7-.54-5-.5-7.71-.01-.82-.01-1.64-.02-2.48-.01-2.73.01-5.46.02-8.19v-5.64c0-3.96.01-7.91.03-11.87.03-5.08.03-10.17.02-15.25-.01-3.89 0-7.79.01-11.68v-5.62c0-2.62.01-5.23.04-7.85-.01-.78-.01-1.57-.02-2.38.03-2.14.03-2.14.42-5.33"/><path fill="#c3dffb" d="M133 36c3.5-.38 3.5-.38 7 0v3h3l-.12 2.44L143 44c2.5.62 2.5.62 5 1v3c-1.67.04-3.33.04-5 0v2c-2.36.15-4.67-.01-7.03-.12L134 50v2c-3.5.25-3.5.25-7 0v-2h-6v-2l-2.5.06L116 48v-3l2-1 1-3c3.56-.38 3.56-.38 7 0v3c2.5.5 2.5.5 5 0 .19-2.5.19-2.5 0-5h2Z"/><path fill="#dc7a21" d="M101.938 102.875c1.05 0 2.09-.01 3.17-.01 5.72.01 11.25.17 16.89 1.13v1c-2.86.3-5.72.46-8.59.63-.8.12-1.59.25-2.41.37v2h-2v2c-.8.11-1.61.21-2.44.32-.42.11-.42.11-2.56.68-.68 2.57-.68 2.57-1 5h-2l.06 2.5-.06 2.5h-3v3h-2c-.06-2.65.14-5.26.32-7.91-.1-.68-.21-1.37-.32-2.09-2.01.32-2.01.32-4 1v-2h-4c-.37-2.5-.37-2.5 0-5h2v-3c-3.5-.12-3.5-.12-7-5.684341886080802e-14v-1c6.28-1.26 12.56-1.14 18.94-1.12"/><path fill="#d36f1e" d="M73 225h2c.33 1.67.67 3.33 1 5h2c.38 2.33.71 4.66 1 7l1 1c-.71 7.41-.71 7.41-2 10l-2.56-.06L73 248v3h-2v2c-2.84.27-2.84.27-6.5.25-.6 0-.6 0-3.66.02-.93-.09-1.87-.18-2.84-.27v-2l-3-1v-2h-2c-.44-2.5-.44-2.5 0-5 2.5-.44 2.5-.44 5 0v2l3 1 1 2c1.01.16 2.02.33 3.06.5.97.16 1.94.33 2.94.5v2c2.53-1.84 3.07-3.23 4-6.25.33-.91.66-1.81 1-2.75l3 1-2-2v-3h-2l-1 2c-1.56-1.25-1.56-1.25-3-3v-2c.41.03.41.03 2.5.19.41-.03.41-.03 2.5-.19.47-2.48.47-2.48 0-5-2.19-.56-2.19-.56-5-.44-.93.02-1.86.05-2.81.07-.72.12-1.45.24-2.19.37v2c-2.5.25-2.5.25-5 0v-2c.83-.17.83-.17 5-1v-2c2.62-.15 5.19.01 7.81.12L73 227Z"/><path fill="#19613c" d="M1 181h3c.04 1.67.04 3.33 0 5h2l-.06 3 .06 3h3c.15 1.79.15 1.79-.06 4.06L9 200c1.88.25 1.88.25 4-1 1.25-2.19 1.25-2.19 2-4v2h3l-.12 2.5.12 2.5h5c.06 2.5.06 2.5-1 5h-4v-2c-1.97-.3-1.97-.3-4.5-.31-.84-.02-1.67-.04-2.53-.05-.65.12-1.3.24-1.97.36v3c-1.67.04-3.33.04-5 0v2H1c-.39-2.66-.39-2.66-.4-6.34 0-1.31-.01-2.62-.01-3.97.01-.69.01-1.37.02-2.08.01-2.1 0-4.2-.02-6.3 0-1.31.01-2.62.01-3.97 0-1.21.01-2.43.01-3.68.13-.88.26-1.75.39-2.66"/><path fill="#847d71" d="M1 220c2.78-.71 5.3-1.1 8 0-.03 2.23-.03 2.23-.5 5-.28 2.79-.28 2.79.5 5 4.3.68 8.18.42 12.5.06L25 230v3h3c.4 2.62.4 2.62.38 6 0 1.11.01 2.23.02 3.38-.13.86-.26 1.73-.4 2.62h-3c.13-.84.27-1.69.41-2.55-.14-.81-.27-1.62-.41-2.45-2.31-.14-4.47.22-6.76.53-8.59 1.09-8.59 1.09-12.24-.53-2.07-4.65-.83-9.96-.18-14.84.29-2.38.29-2.38.18-4.16-2.45-.53-2.45-.53-5 0Z"/><path fill="#b3a395" d="M143 231c5.47-.35 10.95-.36 16.44-.41 1.91-.02 3.82-.05 5.73-.1 2.73-.06 5.46-.09 8.19-.11l2.62-.09c2.39.01 2.39.01 6.02.71.6 2.98.6 2.98 0 6-1.87 1.87-5.06 1.13-7.55 1.13-.33 0-.33 0-2 .01-1.39 0-2.78-.01-4.18-.01-2.13 0-4.26 0-6.39.01-1.35 0-2.71-.01-4.06-.01h-3.74C151 238 151 238 148 237v-2h-2v-3Z"/><path fill="#d16b1b" d="M125 106c2.5-.25 2.5-.25 5 0v2c1.16.17 2.31.33 3.5.5 1.16.17 2.31.33 3.5.5v2h3c.62 2.44.62 2.44 0 5-3.5.69-3.5.69-7 1v2h-3v5h-3v3h-2c-.12-1.07-.25-2.14-.38-3.25-.7-4.24-1.66-4.89-4.62-7.75-.38-2.75-.38-2.75 0-5h2v-3h3Z"/><path fill="#7b4210" d="M38 232c3.44-1.09 6.6-1.24 10 0 .99 2.98 1 5.47.94 8.59L49 243h2c.15 3.4-.01 6.76-.12 10.16L51 256h2v3c-1.75.36-1.75.36-4 .31-.74 0-1.48-.01-2.25-.01-.58-.1-1.16-.2-1.75-.3v-2h-7v-2h-3v-2h-2v-2h-3v-2h-2v-4h4v3h4v3h2v3c3.52.69 6.72.46 10-1 1.08-3.4.88-6.55 0-10h-2c-.17-.83-.17-.83-1-5h-2v-3h-5Z"/><path fill="#e78c2c" d="M58 119c2.25-.44 2.25-.44 5 0 2.38 2.31 2.38 2.31 4 5l-1 3h-2l-1 3h-2v4c-2.5.12-2.5.12-5 0v2c-2.78.87-5.28 1.11-8 0-1.02-3.38-1.04-6.63 0-10h4v-2h4v-3h2Z"/><path fill="#1a89f9" d="M202 103h1c.1 1.74.13 3.49.13 5.23 0 1.14.01 2.28.01 3.46 0 1.25-.01 2.49-.01 3.78 0 1.26 0 2.53.01 3.83 0 2.69 0 5.37-.01 8.05-.01 3.45 0 6.9 0 10.35.01 3.28.01 6.56 0 9.83 0 1.25.01 2.49.01 3.78 0 1.14-.01 2.28-.01 3.46v3.07c-.04.71-.09 1.42-.13 2.16h-1c-.03-3.66.03-7.3.13-10.96.03-2.01-.04-4.03-.13-6.04h-2c-.18-1.74-.18-1.74-.09-4.16l.06-2.59c.06-1.83.13-3.67.2-5.5.01-.85.03-1.71.05-2.59l.09-2.42L200 124h-3c-.74-3.09-.51-6.33-.5-9.5l-.09-2.75c0-2.36-.01-4.46.59-6.75 2.53-.47 2.53-.47 5 0Z"/><path fill="#6c3c0e" d="M132 245l3 1c.11 3.5-.04 6.87-.29 10.36-.09 2.18-.09 2.18.29 5.64 2.51.37 2.51.37 5 0v2l3-2c3.11-1.1 4.86-.78 8 0v-2h2v4h-3v3c-2.62.4-2.62.4-6 .38-.56 0-.56 0-3.38.02-.86-.13-1.73-.26-2.62-.4v-3c-2.5-.56-2.5-.56-5 0-.12 3-.12 3 0 6h-3v3h6v3h4v2c-2.5.25-2.5.25-5 0v-2c-2.33-.38-4.66-.71-7-1-1-1-1-1-1.25-3.56.08-.81.17-1.61.25-2.44h3c.04-1.67.04-3.33 0-5h2c.18-1.76.18-1.76.09-4.19l-.06-2.61c-.06-1.85-.13-3.69-.2-5.53-.01-.86-.03-1.72-.05-2.61l-.09-2.43c.1-.54.2-1.08.31-1.63"/><path fill="#393025" d="M111 173c2.5-.38 2.5-.38 5 0v3h2c.23 3.04.32 5.96.31 9 .02.86.03 1.72.05 2.6 0 2.46 0 2.46-.36 6.4h-3v2h-4v-2h-2c-.2-3.04-.28-5.96-.25-9-.01-.86-.02-1.72-.02-2.6 0-2.14.13-4.27.27-6.4h2Z"/><path fill="#95671d" d="M25 146c2.41-.4 2.41-.4 5.5-.38 1.02 0 2.04-.01 3.09-.02.4.07.4.07 2.41.4v3c-2 .33-4 .67-6 1v3h-2c-.12 2.84-.12 2.84 0 6.5s.12 3.66 0 6.5h-2l-1 2h3c.31 2.5.31 2.5 0 5h-2v-2l-3-1c-.37-2.33-.7-4.66-1-7h-2c-.27-2.62-.27-2.62-.25-6-.01-1.11-.01-2.23-.02-3.38.09-.86.18-1.73.27-2.62h2v-2h3Z"/><path fill="#e2cfba" d="M178 168h3c.39 2.2.39 2.2.4 5.25 0 1.08.01 2.17.01 3.28l-.03 3.47.03 3.47c0 1.08-.01 2.16-.01 3.28 0 1.01-.01 2.01-.01 3.05-.13.72-.26 1.45-.39 2.2h-3v-3h-3v3h-4c-.46-3.06-.46-3.06-.38-7 .02-1.3.03-2.6.04-3.94.11-1.01.23-2.02.34-3.06h2v-2h2v-3h2c.14-.82.29-1.65.44-2.5.18-.82.37-1.65.56-2.5"/><path fill="#185a35" d="M13 210h3v3h4c.81 3.5.81 3.5 0 7-2.4.34-4.58.12-6.99-.09-.33.02-.33.02-2.01.09-.69 2.5-.69 2.5 0 5h2v3c2.41-.03 2.41-.03 5.5-.5s3.09-.47 5.5-.5v3c-5.09 1-9.94 1.18-15 0-.91-2.84-.46-4.86 0-7.78V220c-2.25-.78-3.91-.51-6.25-.16-.58.06-1.15.11-1.75.16v-2h3c-.12-.82-.25-1.65-.38-2.5.13-.82.25-1.65.38-2.5 2.41-.27 4.62-.11 7.03.12L13 213Z"/><path fill="#4f2c16" d="M130 106c3.93.32 7.26.75 11 2v2c1.16.33 2.31.66 3.5 1 1.16.33 2.31.66 3.5 1v2c2.38 1.06 2.38 1.06 5 2l2 1v2l3 1v2h2v2h2c.33 1.67.67 3.33 1 5h2c.33 1.67.67 3.33 1 5h2c-.12 2-.3 4-.5 6-.09 3.34-.09 3.34.5 6 2.83.88 4.9.58 7.81.13.72-.04 1.45-.09 2.19-.13v3c-4.17 1.32-7.91 1.65-12 0-1.15-4.04-1.15-7.55-1.01-11.72 0-1.08.01-2.16.01-3.28h-2c-.73-1.7-1.46-3.4-2.15-5.11-1.22-2.7-2.83-4.74-4.85-6.89l-3-1v-2h-3v-3c-2.19-.62-2.19-.62-5-1s-2.81-.38-5-1v-3h-3v-2c-1.16-.17-2.31-.33-3.5-.5-1.16-.17-2.31-.33-3.5-.5Z"/><path fill="#96a9a5" d="M182 66c2.75-.6 5.3-.87 8 0 .35 2.17.06 4.06-.18 6.23q.09.87.18 1.77c3.5.31 3.5.31 7 0v3l-3.5-.12-3.5.12c-.56 2.44-.56 2.44 0 5l2 1c-3.72.58-7.3.73-11 0-1.19-3.5-1.19-3.5 0-7 2.15-.34 4.03-.12 6.19.09L189 76c.94-2.56.94-2.56 0-5-3.25.25-3.25.25-7 1-.8-.23-1.61-.45-2.44-.69-.51-.1-1.03-.2-1.56-.31v4h2c.38 3.5.38 3.5 0 7h-4c-1.21-4.41-1.32-8.62 0-13 3.11-1 5.38-.7 8.59-.26.4.04.4.04 2.41.26v-2c-1.67-.04-3.33-.04-5 0Z"/><path fill="#c5ada1" d="M183 23h2c.15 3.66-.01 7.28-.12 10.94L185 37h2c.18 1.84.18 1.84.09 4.38l-.06 2.73c-.06 1.93-.13 3.85-.2 5.78-.01.9-.03 1.81-.05 2.73l-.09 2.54c.1.61.2 1.22.31 1.84h3v2c-1.75.24-1.75.24-4 .31-2.22.21-2.22.21-4 .69-.44 2.56-.44 2.56 0 5h-1c.08-.99.16-1.98.25-3-.08-.99-.16-1.98-.25-3-2.5-.25-2.5-.25-5 0v-2c.82.11 1.64.23 2.49.34.83-.11 1.66-.22 2.51-.34.34-2.69.38-4.83.19-7.5-.14-2.52-.21-4.98-.19-7.5h2c.2-1.74.2-1.74.12-4.16-.01-.85-.03-1.71-.04-2.59-.03-.91-.05-1.82-.08-2.75q-.075-2.67-.12-5.34c-.03-.8-.05-1.6-.08-2.42.07-.57.13-1.15.2-1.74"/><path fill="#e5d7c5" d="M181 65l1 2h5v2c-1.84-.2-3.67-.44-5.5-.69-3.04-.1-3.04-.1-5.5.69-1.32 4.38-1.21 8.59 0 13h4c.38-3.5.38-3.5 0-7h-2v-4c2.41-.57 2.41-.57 5.5-.56 1.02-.02 2.04-.05 3.09-.07.8.21 1.59.42 2.41.63.59 2.54.59 2.54 0 5-1.75.24-1.75.24-4-.12-2.18-.17-2.18-.17-4 .12-1.19 3.5-1.19 3.5 0 7 2.96.47 5.61.3 8.59.05.8-.02 1.59-.03 2.41-.05v2c-1.82.26-1.82.26-4.34.27h-2.72c-.95 0-1.9-.01-2.88-.02-.94.01-1.89.02-2.86.02h-2.73c-.83-.01-1.66-.01-2.52-.01-.32-.04-.32-.04-1.95-.26l-1-2h3c.5-3 .5-3 0-6-1.67-.04-3.33-.04-5 0-.38-2.62-.38-2.62 0-5l1 2h4c.88-2.5.88-2.5 1-5h-2v-2h8Z"/><path fill="#f9c56a" d="M125 106v2c-2 .33-4 .67-6 1v2a120 120 0 0 1-5 3l-2 2h-3v3h-3v3h-2v2h-3c-.36-1.75-.36-1.75-.31-4 0-.74.01-1.48.01-2.25.1-.58.2-1.16.3-1.75h2c.1-.8.21-1.61.31-2.44.23-.84.46-1.69.69-2.56 2.56-.69 2.56-.69 5-1v-2h2v-2c4.89-1.34 9.1-.93 14 0"/><path fill="#1f2126" d="M78 78a78 78 0 0 1 7.5-.25c.72-.01 1.43-.02 2.17-.02 1.78 0 3.56.13 5.33.27v2l2.5-.06L98 80v3h3v2h2c.33 2.33.67 4.67 1 7h2c.27 1.75.27 1.75.25 4 0 .37 0 .37.02 2.25-.09.58-.18 1.16-.27 1.75h-2l.06-2.5L104 95h-3c-.22-1.75-.22-1.75-.06-4 .15-2.25.15-2.25.06-4h-2v-2h-3v-2l-2.5.06L91 83v-3c-2.19-.4-2.19-.4-5-.38-.93 0-1.86-.01-2.81-.02-.72.13-1.45.26-2.19.4v3c-2.33.04-4.67.04-7 0v2h-3v2c-2.19.27-2.19.27-5 .25-.93.01-1.86.01-2.81.02Q62.11 87.135 61 87v-2h7v-2l2.5.06L73 83v-3c1.67-.04 3.33-.04 5 0Z"/><path fill="#f8c366" d="M140 114c3.44.12 3.44.12 7 1 1.12 2.06 1.12 2.06 1 4h-3v2l-2.5-.06-2.5.06v3h-3v2h-2v3c-2.68.72-5.31.66-8 0-.69-2.5-.69-2.5 0-5h3v-5h3v-2c1.17-.17 1.17-.17 7-1Z"/><path fill="#e6cfb9" d="M6 257c2.39-.26 2.39-.26 5.69-.27h3.55c1.24 0 2.48.01 3.76.02 1.24-.01 2.48-.02 3.76-.02h3.55c1.09.01 2.18.01 3.3.01.79.09 1.58.17 2.39.26v2c-3 2-3 2-6 2v2c-4.14.5-8.34.32-12.5.31-1.19.02-2.38.03-3.61.05H6.47c-1.05.01-2.1.01-3.18.01-.75-.12-1.51-.24-2.29-.37v-3c1.66-.37 3.33-.71 5-1Z"/><path fill="#1c1714" d="M86 174h1l-.12 3.5.12 3.5h3v-3h2l1-2c.13 2.97.19 5.9.19 8.88l.03 2.62c.01.41.01.41.01 2.49 0 .77.01 1.54.01 2.33q-.12.825-.24 1.68h-2v2c-2.5.25-2.5.25-5 0v-2h-2c-.2-3.04-.28-5.96-.25-9-.01-.86-.02-1.72-.02-2.6 0-2.14.13-4.27.27-6.4h2Z"/><path fill="#e6ceb9" d="M170 257c2.2-.26 2.2-.26 5.25-.27h3.28c1.15 0 2.29.01 3.47.02.57 0 .57 0 3.47-.02h3.28c1.01.01 2.01.01 3.05.01.72.09 1.45.17 2.2.26v2c2.31.56 2.31.56 5 1l3 1v2c-2.48.26-2.48.26-5.91.27h-3.69c-1.29 0-2.57-.01-3.9-.02-1.29.01-2.58.02-3.9.02h-3.69c-1.13-.01-2.27-.01-3.43-.01-.82-.09-1.64-.17-2.48-.26v-2c-.41-.17-.41-.17-2.5-1-.41-.17-.41-.17-2.5-1Z"/><path fill="#1e6021" d="M135 225h4v3c1.73.39 1.73.39 4.12.4.43 0 .43 0 2.59.01l2.73-.03 2.72.03c.43 0 .43 0 2.59-.01.79 0 1.58-.01 2.39-.01.62-.13 1.23-.26 1.86-.39l1-3v3c2.63.32 5.02.42 7.66.4.77 0 1.55 0 2.35.01 1.65 0 3.3-.01 4.94-.02 2.54-.01 5.07 0 7.61.02 1.59 0 3.19-.01 4.78-.01.39 0 .39 0 2.32.02 2.13-.03 2.13-.03 5.34-.42v-3c2.5-.5 2.5-.5 5 0 .48 2.5.48 2.5 0 5-2.13.59-2.13.59-5.14.54-.56-.01-.56-.01-3.4-.02-1.22-.04-2.45-.07-3.71-.1-1.24-.01-2.49-.03-3.77-.04-3.31-.03-6.63-.09-9.94-.15-4.67-.09-9.35-.15-14.02-.21-2.5-.02-4.99-.07-7.48-.12-1.12-.01-2.24-.03-3.4-.05l-3.01-.06-2.13.21v2h-3v-3h-2v-3Z"/><path fill="#a6988b" d="M183 231c3.06-.84 4.92-1.03 8-.94.38-.02.38-.02 2.31-.1 2.19.01 2.19.01 5.69 1.04.48 2.21.32 3.95-.01 6.19 0 .29 0 .29.01 1.81l3 1c-1.72.11-3.45.13-5.18.13-1.13 0-2.27.01-3.44.01-1.22-.01-2.44-.01-3.69-.02-.61.01-.61.01-3.66.02-1.14 0-2.28-.01-3.46-.01h-3.23c-.38-.02-.38-.02-2.34-.13v-1l3-.12 3-.88c-.1-1.15-.21-2.31-.31-3.5Z"/><path fill="#aa5a0b" d="M78 222h3v2c1.86.22 1.86.22 4.5.18l2.97-.03 3.25-.06 6.7-.06c3.55-.04 7.1-.09 10.64-.15 3.41-.04 6.82-.07 10.22-.1 1.07-.02 2.14-.05 3.25-.07.49 0 .49 0 2.97-.02.87-.01 1.74-.02 2.64-.04.61.12 1.23.23 1.86.35v3c-3.01.3-5.82.39-8.84.36h-2.75c-1.93 0-3.87-.01-5.81-.02-2.93-.03-5.86-.02-8.79-.02-1.88 0-3.76-.01-5.65-.02h-2.62c-5.79-.06-12.1-.16-17.54-2.3Z"/><path fill="#f9b21f" d="M168.82 148.54l3.3.09 3.32.03c.85.12 1.69.23 2.56.34v2h2c.37 2.66.37 2.66.44 6.06l.12 3.41c-.19.84-.37 1.67-.56 2.53-2.53.18-2.53.18-5-1v-5c-2.15-.35-2.15-.35-4.94-.06-2.78.28-2.78.28-5.06.06-1.27-2.36-1.09-3.65-.45-6.23 1.45-1.77 1.45-1.77 4.27-2.23"/><path fill="#e7d0ba" d="M181 265c3.47-.79 7.2-.56 10.75-.62 1.07-.06 2.13-.12 3.23-.18 2.89-.05 5.27-.08 8.02.8 1.15 2.29 1.11 3.68.75 6.2-.25.59-.49 1.19-.75 1.8-2.48.85-2.48.85-5.75.62-.53-.02-.53-.02-3.23-.14-2.8-.45-4.68-.9-7.02-2.48v-2h-2v-2c-.75-.36-1.5-.72-2.28-1.1-.57-.29-1.13-.59-1.72-.9"/><path fill="#f8cc78" d="M89 105l-3 1v2h-3v3h-2v3h-3v2h-2l.06 2.5L76 121h-3v3c-2.56.69-2.56.69-5 0-.28-2.76.11-5.37 1-8h2v-2h2c.06-.31.06-.31.38-1.88.2-.7.41-1.4.62-2.12 2.06-1.12 2.06-1.12 4-2v-2c3.65-1.07 7.21-1.19 11-1"/><path fill="#582d0c" d="M31 176h4c.28 1.93.28 1.93 0 4.59-.07.95-.14 1.9-.21 2.88-.07 1-.15 2-.23 3.03-.33 7.05-.33 7.05.44 10.5 3.83 2.08 6.92.92 11 0v2l2.19-.06c3.43.07 5.08 1.03 7.81 3.06v2c-2.5.25-2.5.25-5 0v-2h-6v-2c-2.62-.27-2.62-.27-6-.25-1.11-.01-2.23-.01-3.38-.02-.86.09-1.73.18-2.62.27v2c-2.5.31-2.5.31-5 0v-3c.81.03 1.63.07 2.47.1.83-.03 1.67-.07 2.53-.1.6-1.93.6-1.93.56-4.59-.01-.95-.02-1.9-.02-2.87-.04-1.01-.07-2.01-.1-3.04-.01-.5-.01-.5-.02-3.04-.09-5.4-.09-5.4-.42-7.46h-2Z"/><path fill="#4e9128" d="M9 205c1.97-.36 1.97-.36 4.5-.31.84 0 1.67.01 2.53.01.65.1 1.3.2 1.97.3v2h4c-.5 3-.5 3-2 6h-4v-3h-3v3c-1.97.12-1.97.12-4.5-.12-2.51-.11-2.51-.11-4.5.12-.38 2.5-.38 2.5 0 5H1c-.4-1.75-.4-1.75-.38-4 0-.37 0-.37-.02-2.25.13-.58.26-1.16.4-1.75h3v-2l2.5.06L9 208Z"/><path fill="#aad1fa" d="M13 71c2.5-.56 2.5-.56 5 0v3h3v3q3 .06 6 0v2c-2.88.11-5.72-.07-8.59-.22-.4.03-.4.03-2.41.22v3c-3.5.38-3.5.38-7 0v-3c-1.75-.08-1.75-.08-4 .19-2.21.1-2.21.1-4-.19-.69-3-.69-3 0-6h3v4c3.01.92 5.97.82 9 0 .25-3 .25-3 0-6"/><path fill="#e5ceb7" d="M160 250c2.86-.27 5.57-.38 8.44-.38h2.49c6.23.12 10.68 1.09 16.07 4.38v1c-4.43.27-8.86.27-13.3.3-2.26.01-4.51.06-6.77.1l-4.25.03c-.65 0-.65 0-3.95.04-.9-.16-1.8-.31-2.73-.47-.11-2.09-.11-2.09 1-4l3 1Z"/><path fill="#e0c9b4" d="M133 264c2.5-.56 2.5-.56 5 0v3l3.25-.12c3.75.12 3.75.12 6.19 2.5C149 272 149 272 149 274c-2.63.23-2.63.23-6.12.19-1.14-.01-2.28-.02-3.45-.02-3.26-.16-6.27-.34-9.43-1.17v-3h3l-.12-3Z"/><path fill="#ad5815" d="M90.968 128.76c2.16-.01 4.31-.04 6.47-.07 1.35-.01 2.71-.01 4.07-.02l3.77-.03 2.72.36v3c-2.75.31-2.75.31-6.56.22-.33 0-.33 0-2.02-.02-2.14-.03-4.28-.08-6.42-.14-2.14-.04-4.28-.09-6.42-.12q-2.91-.045-5.82-.12c-.91.06-1.82.12-2.76.18v2c-2.62.27-2.62.27-6 .25-.56 0-.56 0-3.37.02-.87-.09-1.74-.18-2.63-.27v-2c2.62-.15 5.19.01 7.81.13.37-.03.37-.03 2.19-.13v-2c4.34-2.17 10.15-1.23 14.97-1.24"/><path fill="#5c7b87" d="M190 77c2.19-.56 2.19-.56 5-.44.93.02 1.86.05 2.81.07.72.12 1.45.24 2.19.37v2h3c.4 2.19.4 2.19.38 5 0 .93.01 1.86.02 2.81-.13.72-.26 1.45-.4 2.19h-3v-2q-3-.06-6 0l-2-1v-4h-2c-.44-2.47-.44-2.47 0-5"/><path fill="#6d3b17" d="M55 114h3v2h-2v3h-3c-.14 1.16-.29 2.31-.44 3.5-.18 1.16-.37 2.31-.56 3.5h-4v3h-2v8h-2c-.34 2.19-.34 2.19-.5 5s-.16 2.81-.5 5h-2v4h-3c.69-3.5.69-3.5 2-7h2l-1-2c-.23-2.72-.13-5.26 0-8h2v-5h2c.16-.82.33-1.65.5-2.5.16-.83.33-1.65.5-2.5h2v-3h2v-2h2l1-3h2Z"/><path fill="#f99b0e" d="M135 249h2c.33 1.67.67 3.33 1 5h2v3h3v2c2.5.25 2.5.25 5 0v-2h3v-2h2c.25 2.5.25 2.5 0 5h-2v2h-7l3 2c-3.31.25-3.31.25-7 0v-2c-.82.09-1.63.19-2.47.28-.84-.09-1.67-.18-2.53-.28-.56-2.84-.56-2.84-.44-6.5.02-1.21.05-2.41.07-3.66.12-.93.24-1.87.37-2.84"/><path fill="#638f13" d="M183 213h3c-.16 1.16-.33 2.31-.5 3.5.16 1.16.33 2.31.5 3.5 2.96.44 5.62.24 8.59-.05.4.01.4.01 2.41.05v3h2v2c-1.75.27-1.75.27-4 .25-.37 0-.37 0-2.25.02-.58-.09-1.16-.18-1.75-.27v-2h-3v2c-2.5.31-2.5.31-5 0v-3l-2-1v4c-1.97.02-1.97.02-4.5-.62-.84-.2-1.67-.4-2.53-.61-.65-.25-1.3-.51-1.97-.77v-2c5.31-.35 5.31-.35 8 1v-2h3Z"/><path fill="#d7860f" d="M140 278h3v2l3 1c1.27 3.92 1.23 7.91 1 12-2.45 2.45-3.77 2.24-7.11 2.25-.69 0-1.37-.01-2.09-.02h-2.14c-1.49 0-2.99-.01-4.48-.02-2.3-.02-4.6-.02-6.9-.02-1.45-.01-2.9-.02-4.35-.02-.69 0-1.39 0-2.1-.01-1.61-.01-3.22-.08-4.83-.16v-1c2.08-.25 4.16-.39 6.25-.52.58-.16 1.16-.32 1.75-.48v-3c2.59-.14 2.59-.14 5.94.19 1.1.09 2.2.19 3.34.29.9.17 1.79.34 2.72.52l1 2c3.06 1.23 5.79 1.88 9 1 1.64-3.54 2.12-7.11 2-11h-2v-2h-3Z"/><path fill="#ead7c2" d="M173 103c2.23-1.27 3.64-1.4 6.19-1.2 1.81 1.2 1.81 1.2 2.62 4.28.19 3.89.13 7.13-.81 10.92-2.09 1.79-3.46 2.06-6.15 2.45-.61-.15-1.22-.3-1.85-.45-.82-1.88-.82-1.88-1-4 1-2 1-2 4-3l-3-1c-.95-3.04-.57-4.74 0-8"/><path fill="#5a330c" d="M153 214c2.5-.38 2.5-.38 5 0v3c-1.66.37-3.33.71-5 1v2c-3 1.25-3 1.25-6 2v-2c-1.68.97-3.35 1.98-5 3h-2v2c-.33.16-.33.16-2 1v3l2 1c-2.88-.31-2.88-.31-6-1v-2h-4c-.81-2.5-.81-2.5 0-5 2.41-.31 4.61-.18 7.03.02.33 0 .33 0 1.97-.02v-2c2.08-.41 4.14-.51 6.25-.66.58-.11 1.16-.22 1.75-.34v-2l3 .06 3-.06Z"/><path fill="#c2641c" d="M102 103c2.44-.43 2.44-.43 5.56-.31.54.02.54.02 3.27.11 3.78.24 7.44.55 11.17 1.2v1c-2.86.29-5.72.45-8.59.62-.8.13-1.59.25-2.41.38v2h-2v2c-.8.1-1.61.21-2.44.31-.84.23-1.69.46-2.56.69-.69 2.56-.69 2.56-1 5h-2v3h-2c-.25-2.5-.25-2.5 0-5h2c.04-2.33.04-4.67 0-7 .15-2.21.15-2.21 1-4"/><path fill="#fac669" d="M41 207c2.37-.3 2.37-.3 5.44-.31.5-.01.5-.01 3.06-.05.82.12 1.65.24 2.5.36l1 3c-1.67.04-3.33.04-5 0v2h-5v2l-3 1-1 2h-3v2h-3c.07-3.78.18-6.16 2.88-8.94C38 209 38 209 41 209Z"/><path fill="#f9c66b" d="M63 230c2.19-.37 2.19-.37 5-.44l2.81-.12c.72.19 1.45.37 2.19.56.53 2.52.53 2.52 0 5-3.5.19-3.5.19-7 0v2c-1.67.33-3.33.67-5 1v2c-3.06.44-3.06.44-6 0 0-2.5 0-2.5 1-5h2v-3c1.67-.04 3.33-.04 5 0Z"/><path fill="#f9c466" d="M53 217c2.15-.4 2.15-.4 4.94-.38.91 0 1.83-.01 2.77-.02.76.13 1.51.26 2.29.4l1 3h-3v2h-5v2h-3v3h-5v3h-3c.06-3.44.06-3.44 1-7 2.06-.81 2.06-.81 4-1v-2h3Z"/><path fill="#be611b" d="M46 129h2c-.12 1.16-.25 2.31-.38 3.5.13 1.16.25 2.31.38 3.5 2.7.81 5.28.69 8 0v-2c2.04-.23 2.04-.23 4.62-.19.43.01.43.01 2.61.02.58.06 1.17.11 1.77.17-.33.16-.33.16-2 1v2h-5v2c-2.33.37-4.66.69-7 1-2.94.94-2.94.94-5 2v2h-3c-.31-3.38-.31-3.38 0-7l2-2c.08-.52.08-.52.5-3.12.16-.95.33-1.9.5-2.88"/><path fill="#b1aca4" d="M181 96c.88 3.5.88 3.5 0 7-1.8.18-1.8.18-4-.06-2.2-.23-2.2-.23-4 .06-1.11 2.76-.98 5.21 0 8 2.62.38 2.62.38 5 0l-2 2h-3c-.44 1.97-.44 1.97-.56 4.5-.13 2.53-.13 2.53-.44 4.5h-2c-.27-3.06-.27-3.06-.25-7-.01-1.3-.01-2.6-.02-3.94.09-1.01.18-2.02.27-3.06h2c.03-1.99.06-3.97-.03-5.96C172 100 172 100 173 97c2.88-1.44 4.84-1.55 8-1"/><path fill="#f6990f" d="M28 240h2v3h3v2c.83.16 1.65.33 2.5.5.41.08.41.08 2.5.5v2c2.69.57 5.31.61 8 0 .38-2.5.38-2.5 0-5h2c.3 2.15.3 2.15.31 4.94.01.46.01.46.05 2.77-.12.76-.24 1.51-.36 2.29-3.52 1.17-6.31 1.28-10 1v-3h-2v-3h-4v-3h-4c-.38-2.5-.38-2.5 0-5"/><path fill="#243464" d="M66 95h2v8h2v3h3v2l-2.5-.06-2.5.06v3c-2.5.31-2.5.31-5 0v-2h-5v-2h-2v2h-3v2h-3v-3h3v-2h3v-3h2v3c2.16.84 3.92.88 6.23.84q.87-.42 1.77-.84c.56-2.98.37-5.58.09-8.59Z"/></svg>