<!-- 이동형 1단계 꿈돌이 PNG를 실제 SVG path로 벡터화한 이미지입니다. -->
<svg xmlns="http://www.w3.org/2000/svg" width="204" height="339" viewBox="0 0 204 339" role="img" aria-labelledby="title desc"><title id="title">타슈 꿈돌이</title><desc id="desc">자전거와 이동형 테마를 표현하는 꿈돌이 마스코트</desc><path fill="#77561c" d="M56.267-37.593c15.11-3.87 30.19-4.83 45.73-4.78.6 0 .6 0 3.59-.01 32.29.09 64.75 7.27 88.73 30.26 39.54 41.52 35.24 125.69 35.19 178.64-.01 2.98 0 5.96 0 8.94-.03 138.74-.03 138.74-35.19 175.67-25.07 24.03-58.75 30.34-92.32 30.25-1.18 0-2.36 0-3.58.01-32.29-.09-64.75-7.27-88.73-30.26-39.54-41.53-35.24-125.7-35.19-178.65v-8.94c.03-177.82.03-177.82 81.77-201.13"/><path fill="#1b87fa" d="M23 1c2.01 2.37 2.89 4.55 3.97 7.45 1.57 3.9 3.53 5.27 7.03 7.55 4.26 1.69 7.83 2.25 12.4 2.27.63 0 .63 0 3.84.02h4.18c1.47.01 2.95.01 4.42.02 4 .02 8 .02 12 .02 2.5.01 5 .01 7.5.02 8.73.01 17.46.02 26.19.02 8.12 0 16.25.02 24.38.05 6.98.03 13.97.04 20.96.04 4.17 0 8.33 0 12.5.02 3.92.02 7.85.02 11.77.01 1.43 0 2.87 0 4.3.01 9.36.08 15.69-.39 23.03-6.58.5-.31 1.01-.61 1.53-.92.49 1.99.49 1.99.49 5.35 0 .62 0 .62.01 3.76-.01 1.39-.02 2.77-.04 4.16v4.18c0 2.94-.02 5.88-.05 8.81-.03 3.78-.04 7.56-.04 11.33 0 2.89-.01 5.77-.02 8.66-.01 1.39-.01 2.78-.02 4.18 0 1.94-.02 3.89-.04 5.83-.01 1.11-.01 2.22-.02 3.37-.05.39-.05.39-.27 2.37h-2v-3h-3v-2c-.82.06-1.65.12-2.5.19-.82-.06-1.65-.13-2.5-.19-.39-2.7.01-5.11.31-7.81-.1-.72-.2-1.45-.31-2.19-.41.05-.41.05-2.46.28-.84-.09-1.68-.18-2.54-.28-.84-3.11-.7-6.29-.69-9.5-.01-1.78-.04-3.56-.07-5.34v-2.42c-.04-.28-.04-.28-.24-1.74h-2c-.12-3.24-.04-6.43.08-9.67.04-1.78-.01-3.55-.08-5.33h-2c-.13 3.07-.13 6.06-.06 9.12.01 1.84.03 3.67.04 5.5 0 .91.01 1.82.01 2.75.01 3.64-.04 7.25-.18 10.88-.03 1.12-.07 2.24-.1 3.39-.24.78-.47 1.56-.71 2.36-2.55.17-2.55.17-5 0v3h4c.75 3 .75 3 0 6-2.18.36-4.06.18-6.25-.08-.58.03-1.16.05-1.75.08v3h-4v3h-3v3h-3v3h-3v2h-2v2h3v-2c2.5-.44 2.5-.44 5 0 .5 2.5.5 2.5 0 5h-3v2h-3v2h-2c-.27 1.75-.27 1.75-.25 4-.01.74-.01 1.48-.02 2.25.09.58.18 1.16.27 1.75h2v3c1.66.37 3.33.71 5 1v2h3v2c.82-.13 1.65-.27 2.5-.41.82.14 1.65.27 2.5.41.31 3.05.28 5.48 0 8.5-.05.81-.09 1.62-.14 2.46-.17 2.32-.17 2.32-.86 6.04h-3c-.05 2.84-.05 2.84.25 6.5.11 3.62.11 3.62-.25 6.5-3.5.62-3.5.62-7 0v3c-3.5.38-3.5.38-7 0v-3h-2v-2h-2c-.1-1.13-.21-2.27-.31-3.44-.23-1.17-.46-2.35-.69-3.56-2.56-.81-2.56-.81-5-1v-2h-3v-3h-2v-2c-2.62-.11-5.19.07-7.81.22-.72-.07-1.45-.14-2.19-.22v-3q-3-.06-6 0v-2c-2.36-.11-4.67.07-7.03.22-.65-.07-1.3-.14-1.97-.22v-3c-2.49-.32-4.73-.42-7.22-.4-.73 0-1.46 0-2.22-.01-1.55 0-3.11.01-4.66.02-2.39.01-4.78 0-7.17-.02-1.5 0-3.01.01-4.51.01-.72 0-1.44-.01-2.19-.02-2 .03-2 .03-5.03.42v3q-3 .06-6 0v2l-2.5-.06-2.5.06v3h-3v2h-4v3h-3v2h-2v3h-2v2h-2v3h-2l-.12 2.5c-.29.82-.58 1.65-.88 2.5-2.91.69-4.95.39-8 0v-3c-2.41-.4-2.41-.4-5.5-.38-1.02 0-2.04-.01-3.09-.02-.8.13-1.59.26-2.41.4v3h-3v2h-3c-.4 2.59-.4 2.59-.38 5.94 0 1.1-.01 2.2-.02 3.34.13.9.26 1.79.4 2.72l3 1v4h2v4h3v2h2v3h2c-.09 3.68-.39 7.29-.72 10.96-.16 2.01-.23 4.02-.28 6.04h2v5h2v3h-2v3h-3v2c-2.44.44-2.44.44-5 0-.62-2.5-.62-2.5-1-5h-3v-3c-1.67-.04-3.33-.04-5 0v-2c-2.19-.27-2.19-.27-5-.25-.93-.01-1.86-.01-2.81-.02q-1.08.135-2.19.27v2h-3v3H6c-.04-1.67-.04-3.33 0-5H3c-.04-1.67-.04-3.33 0-5H1c-.23-3.12-.33-6.15-.34-9.27l-.03-2.99c-.04-3.28-.06-6.55-.07-9.83-.01-1.12-.02-2.23-.02-3.38-.04-5.89-.06-11.79-.08-17.68-.01-6.12-.07-12.23-.14-18.34q-.06-7.02-.06-14.04c-.01-2.25-.03-4.51-.06-6.77-.04-3.14-.04-6.28-.03-9.43l-.06-2.86C.14 84.83.14 84.83 1 81c3.55-.77 3.55-.77 7 0v3c3.5.38 3.5.38 7 0v-3c2.41-.22 2.41-.22 5.5-.06 3.09.15 3.09.15 5.5.06v-2c3.4-.11 6.76.07 10.16.22.93-.07 1.87-.14 2.84-.22v-3h-2v-3h-3v-3c-2.5-.31-2.5-.31-5 0v2h-3c-.04-1.67-.04-3.33 0-5h-2v-3c-3-.38-3-.38-6 0v3h-3v-2h-2l.06-3.5L13 58h-3v-3H6v-2c-.81.16-1.62.32-2.46.48-.84-.16-1.68-.32-2.54-.48-.88-3.16-.67-6.41-.63-9.67 0-.98 0-1.97-.01-2.99 0-2.1.02-4.19.04-6.29.04-3.21.02-6.41 0-9.61l.03-6.11c0-.96-.01-1.91-.01-2.9.07-4.31.17-6.77 2.47-10.5C8.29-.02 16.05-.64 23 1"/><path fill="#d3baa5" d="M56.267-37.593c15.11-3.87 30.19-4.83 45.73-4.78.6 0 .6 0 3.59-.01 32.29.09 64.75 7.27 88.73 30.26 39.54 41.52 35.24 125.69 35.19 178.64-.01 2.98 0 5.96 0 8.94-.03 138.74-.03 138.74-35.19 175.67-25.07 24.03-58.75 30.34-92.32 30.25-1.18 0-2.36 0-3.58.01-32.29-.09-64.75-7.27-88.73-30.26-39.54-41.53-35.24-125.7-35.19-178.65v-8.94c.03-177.82.03-177.82 81.77-201.13M2.377 5.827c-1.58 2.49-1.77 3.83-1.8 6.76-.01.9-.03 1.8-.04 2.73 0 .96-.01 1.92-.01 2.92 0 .99-.01 1.98-.02 3.01-.01 2.09-.01 4.19-.01 6.28 0 3.23-.04 6.45-.08 9.67-.01 2.03-.01 4.07-.01 6.1-.02.97-.03 1.94-.05 2.94.05 4.58.05 4.58.64 6.76 2.54.48 2.54.48 5 0v2h4v3h3c.05 2.34.05 4.67 0 7h2v2h3v-3c3-.37 3-.37 6-.00005572509765272571v3h2l-.06 2.5.06 2.5h3v-2c2.5-.31 2.5-.31 5-.00027862548826362854v3h3v3h2v3c-2.84.23-2.84.23-6.5.07-2.16-.09-4.33-.14-6.5-.07v2c-2.88.11-5.71-.07-8.59-.22-.79.07-1.59.15-2.41.22v3c-3.5.38-3.5.38-7-.0008358764647908856v-3C4.557 80.057 4.557 80.057.997 80.996c-1.21 3.95-.9 8.03-.82 12.12-.01 1.29-.01 2.58-.02 3.9-.01 3.55.03 7.09.07 10.64.03 3.7.03 7.4.04 11.1.01 6.21.04 12.43.1 18.64.06 7.99.09 15.98.11 23.97.01 6.85.04 13.7.07 20.55l.03 6.64c.01 4.11.05 8.22.09 12.33a390 390 0 0 0 .05 7.1c0 .98.01 1.95.02 2.95.04.34.04.34.26 2.06h2c.25 2.5.25 2.5 0 5h-2v2c1.16-.16 2.31-.33 3.5-.5 1.16.17 2.31.33 3.5.5-.34 2.23-.34 2.23-1 5.01-.09 2.76-.09 2.76 1 4.99 6.46 1.32 12.96.7 19.5.32 2.79-.14 5.57-.27 8.35-.36 1.74-.06 3.47-.15 5.21-.27 2.36-.1 2.36-.1 5.94.31.47 2.45.47 2.45 0 5l1 1c.29 3.4.45 6.79.62 10.19.13.93.25 1.86.38 2.81h2l-.06 2.38.06 2.62c3 2 3 2 5.69 1.82l2.31.18c.44 2.5.44 2.5 0 5h-2c.17.83.33 1.65.5 2.5.17.83.33 1.65.5 2.5h-2v2h-2v5h-2c.02 1.16.04 2.31.07 3.5-.02 1.16-.05 2.31-.07 3.5h-3c-.31 2.92-.41 5.59-.37 8.5-.01.81-.02 1.62-.04 2.46.02 2.32.02 2.32.41 6.04h3q.075 3 0 6h2v4h2v2h2v3h3v2l2.5-.06 2.5.06v3c1.93.39 1.93.39 4.6.4.94.01 1.89.01 2.87.01.5 0 .5 0 3.03-.03l3.04.03c.95 0 1.89 0 2.87-.01.88 0 1.76-.01 2.67-.01.31-.06.31-.06 1.92-.39v-3c2.85-.22 2.85-.22 6.5-.06 2.17.09 4.34.13 6.5.06v-2c2.11-.18 2.11-.18 5.03-.09l3.15.06c2.22.06 4.43.13 6.65.2l3.14.06c.48.01.48.01 2.92.08.7-.1 1.4-.2 2.11-.31v-3c1.94-.4 1.94-.4 4.44-.37l2.5-.03c.34.07.34.07 2.06.4l1 3c.05-.76.1-1.52.16-2.3.14-.44.14-.44.84-2.7 2.94-.41 2.94-.41 6.57-.18 2.14.12 4.29.2 6.43.18v-2c2.11-.11 4.15.08 6.25.23.29-.04.29-.04 1.75-.23v-3c2.34-.04 4.67-.04 7-.00022595214846887757v-2h2v-3h-4v-2c-.41.01-.41.01-2.5.07-.41-.01-.41-.01-2.5-.07v-3h2v-6h2c.1-2.69.09-5.31 0-8s-.09-5.3 0-8h2c.27-1.97.27-1.97.25-4.5.01-.83.01-1.67.02-2.53-.09-.65-.18-1.3-.27-1.97h-2v-5h-2v-5h-2v-2h-3v-3h3v-2h2c.25-2.5.25-2.5 0-5h-2v-2h-3c-.84-3.48-.84-3.48 0-7 3.44-1.02 6.96-.56 10.5-.33l6.57.21c3.47.15 6.95.31 10.43.49 3.33.16 6.67.27 10 .36 1.05.08 2.1.15 3.19.23 4.96.12 4.96.12 7.31-.96.67-2.8.48-4.99.08-7.84-.03-.71-.05-1.42-.08-2.16h3c.33-2.72.42-5.23.41-7.97.01-.85.02-1.71.02-2.59.03-2.9.03-5.8.03-8.7l.03-6.2c.03-5.64.04-11.27.05-16.9 0-3.52.01-7.03.02-10.54.03-12.22.05-24.44.05-36.67.01-11.43.05-22.87.11-34.31.04-9.78.06-19.57.06-29.36q0-8.79.06-17.58c.03-5.5.03-11 .01-16.5 0-2.04.01-4.07.03-6.1.03-2.75.01-5.5-.01-8.24 0-.42 0-.42.05-2.51-.05-2.18-.05-2.18-.92-4.83-3.24 1.92-3.24 1.92-5.16 3.5-4.11 3.36-7.94 3.75-13.12 3.76l-3.83.03c-1.4-.01-2.79-.01-4.19-.01-1.47 0-2.95.01-4.42.01-4.01.02-8.01.02-12.01.01-3.35 0-6.69.01-10.04.01-7.89.01-15.78.01-23.68.01-8.13-.01-16.27 0-24.4.03-6.99.01-13.98.02-20.97.02-4.18-.01-8.35 0-12.52.01-3.92.01-7.85.01-11.78-.000225952148475983-1.43 0-2.87 0-4.31.01-16.19.08-16.19.08-22.55-4.97-.44-.55-.88-1.1-1.33-1.67-.49-.6-.98-1.21-1.48-1.83-1.24-1.97-1.7-3.61-2.27-5.85-.64-1.02-1.28-2.03-1.94-3.07-7.35-1.39-15.38-1.06-20.62 4.83"/><path fill="#f8b429" d="M82 111c2.49-.32 4.73-.42 7.22-.4.73 0 1.46 0 2.22-.01 1.55 0 3.11.01 4.66.02 2.39.01 4.78 0 7.17-.02 1.5 0 3.01.01 4.51.01.72 0 1.44-.01 2.19-.02 2 .03 2 .03 5.03.42v3c1.97.22 1.97.22 4.5.06 2.53-.15 2.53-.15 4.5-.06v2l3-.06 3 .06v3c2.19.22 2.19.22 5 .06 2.81-.15 2.81-.15 5-.06v2h2v3h3c.04 1.67.04 3.33 0 5h2v2h2c.33 1.67.67 3.33 1 5h2c.33 1.67.67 3.33 1 5h2c1.07 2.23 1.07 2.23 2.12 5.19.18.48.18.48 1.08 2.92.8 2.89.8 2.89.73 5.75.02.71.05 1.41.07 2.14h3c.22 2.19.22 2.19.06 5-.15 2.81-.15 2.81-.06 5h2c.21 2.87.28 5.63.25 8.5.01.81.02 1.62.02 2.46 0 2.01-.13 4.03-.27 6.04h-2v5h-2c-.16.82-.33 1.65-.5 2.5-.16.82-.33 1.65-.5 2.5h-2v2h-3v3h-4v2h-3v2c-4 1.41-7.74 2.52-12 2v-2h-6v-2c-2.62-.27-2.62-.27-6-.25-1.11-.01-2.23-.01-3.38-.02-.86.09-1.73.18-2.62.27v2h-4v3h-2v2h-2v2c-2.39.26-2.39.26-5.69.27h-3.55c-1.24 0-2.48-.01-3.76-.02-1.24.01-2.48.02-3.76.02h-3.55c-1.09-.01-2.18-.01-3.3-.01-.79-.09-1.58-.17-2.39-.26v-2c-2.63-.12-2.63-.12-6 0-3.38.12-3.38.12-6 0v-2l-2.5.06L66 206v-3c-1.67-.04-3.33-.04-5 0v-2h-4v-2l-3.5.06L50 199v-3h-3v-2h-2c-.12-.82-.25-1.65-.38-2.5-.2-.82-.41-1.65-.62-2.5h-4c-.12-2.5-.12-2.5 0-5h-2c-.18-2.5-.23-4.88-.19-7.38v-2.11c.05-5.23.05-5.23 1.19-7.51h-2v-3h-2v-2h-3v-4h-2c-.34-1.33-.68-2.66-1-4l-2-1c-.3-2.72-.3-2.72-.31-6.06-.02-1.11-.04-2.21-.05-3.35.12-.85.24-1.71.36-2.59h3v-2h3v-3c2.41-.4 2.41-.4 5.5-.38 1.02 0 2.04-.01 3.09-.02.8.13 1.59.26 2.41.4v3c5.22.66 5.22.66 8 0 .88-2.5.88-2.5 1-5h2v-3h2v-2h2v-3h2v-2h3v-3h4v-2h3v-3c1.67-.04 3.33-.04 5 0v-2l3 .06 3-.06Z"/><path fill="#285c84" d="M199 182h4c.42 2.89.54 5.41.5 8.31v2.56q0 2.685-.03 5.37c-.03 2.75-.02 5.5-.01 8.25l-.03 5.2c.01.83.01 1.66.01 2.52-.04 2.3-.04 2.3-.44 5.79h-3c.08 2.16.08 2.16.47 4.95.07 2.77.07 2.77-.47 5.05-3.36 1.54-6.88.98-10.5.73l-3.23-.09c-3.43-.11-6.85-.27-10.27-.45-3.42-.17-6.85-.31-10.27-.42-2.14-.07-4.28-.17-6.41-.31-4.95-.17-4.95-.17-7.32.54-.84 3.52-.84 3.52 0 7h3v2h2c.25 2.5.25 2.5 0 5h-2v2h-3v3h3v2h2v5h2v5h2c.27 1.97.27 1.97.25 4.5 0 .42 0 .42.02 2.53-.09.65-.18 1.3-.27 1.97h-2c-.1 2.7-.09 5.31 0 8s.1 5.3 0 8h-2v6h-2v3c1.67.04 3.33.04 5 0v2h4v3h-2v2l-3.5-.06-3.5.06v3c-1.75.22-1.75.22-4 .06-2.25-.15-2.25-.15-4-.06v2c-3.37.02-6.7-.2-10.06-.42-.97.14-1.94.28-2.94.42-.85 2.7-.85 2.7-1 5l-1-3c-2.07-.4-2.07-.4-4.56-.38-.83 0-1.66-.01-2.51-.02-.63.13-1.27.26-1.93.4v3c-2.11.31-2.11.31-5.03.22-1.04-.02-2.08-.03-3.15-.05-1.09-.04-2.19-.07-3.32-.11-2.16-.06-4.31-.11-6.47-.15l-2.92-.09c-.7.06-1.39.12-2.11.18v2c-3.4.11-6.76-.07-10.16-.22-.93.07-1.87.14-2.84.22v3c-1.93.39-1.93.39-4.59.4-.48 0-.48 0-2.87.01l-3.04-.03-3.04.03c-.94 0-1.89-.01-2.87-.01-.44 0-.44 0-2.66-.01-.64-.13-1.27-.26-1.93-.39v-3c-1.67-.04-3.33-.04-5 0v-2h-3v-3h-2v-2h-2v-4h-2l.06-3-.06-3h-3c-.31-2.92-.42-5.58-.38-8.5l-.03-2.46c.01-2.32.01-2.32.41-6.04h3c.04-2.33.04-4.67 0-7h2v-5h2v-2h2c-.21-.82-.41-1.65-.62-2.5-.13-.82-.25-1.65-.38-2.5h4v-3c2.39-.31 2.39-.31 5.69-.22 1.17.02 2.34.03 3.55.05 1.24.04 2.48.07 3.76.11 2.44.06 4.87.11 7.31.15l3.3.09L87 258v-2c3-.25 3-.25 6 0v2h2c.16-2.75.16-2.75.06-6.44-.07-5.64-.02-10.99.94-16.56h2c.02 3.14-.2 6.24-.42 9.38.14.86.28 1.73.42 2.62 2.47.15 2.47.15 5 0 .62 3.56.62 3.56 0 7-.42-.09-.42-.09-2.56-.56-.81-.15-1.61-.29-2.44-.44-.22 2.89.33 5.14 1 8 .36-1.66.69-3.33 1-5h2c-.02 1.98-.08 3.96-.16 5.95.22 3.32.22 3.32 1.16 6.05 4.12 1.74 8.18 1.21 12.56.88l3.6-.12c6.09-.26 6.09-.26 8.84-.76v-2h2c.1-2.53.09-4.97 0-7.5s-.1-4.97 0-7.5h2v-2h3v-3h3v-2h2v-2h3c.23-2.69.25-5.16.15-7.84-.03-1.64-.05-3.27-.08-4.91-.06-2.6-.13-5.2-.21-7.79-.06-2.5-.11-4.99-.15-7.49l-.09-2.37c-.03-2.18-.03-2.18.38-5.6 2.73-1.46 5.23-.97 8.25-.69 1.24-.1 2.47-.2 3.75-.31.38-3 .38-3 0-6h2v-2c3.16-2.11 4.06-2.27 7.69-2.25.81-.01 1.61-.01 2.45-.02.3.05.3.05 1.86.27v2h3v-2h2v-3h3v-2h2v2c1.97.3 1.97.3 4.5.31.42.01.42.01 2.53.05.65-.12 1.3-.24 1.97-.36v-3h4v-2h3v-3h4Z"/><path fill="#e9e8e7" d="M48.783-35.575c17.47-5.46 35-6.85 53.22-6.8 1.2 0 2.4-.01 3.64-.01 32.23.09 65.38 6.92 89.14 30.26 36.69 39.74 27.08 123.02 25.86 172.57-.17 7.09-.29 14.18-.37 21.27-.32 24.92-1.19 49.74-2.82 74.6-.36 5.7-.66 11.39-.89 17.08-2.22 53.52-2.22 53.52-12.56 65.61-15.67 9.65-39.76 4.33-56.61.61-2.39-.61-2.39-.61-4.39-1.61l.06-2.5-.06-2.5-3-1c-.23-1.85-.23-1.85-.07-4.07.02-1.3.05-2.6.07-3.93h-2c-.44-2.47-.44-2.47 0-5 2.03-.63 2.03-.63 4.91-.62l3.24-.03c.59.01.59.01 3.55.05h3.61c2.53.01 5.06.02 7.59.05 3.88.04 7.76.04 11.64.04 2.45.01 4.9.02 7.35.04h3.53c1.08.01 2.17.03 3.28.05.95 0 1.9.01 2.89.02 2.81.46 3.74 1.11 5.41 3.4v2h2v3h2c.52.58 1.05 1.16 1.59 1.76.46.41.93.82 1.41 1.24.43-1.57.43-1.57.51-4.31.03-1.02.07-2.03.11-3.08l.06-3.41c.02-.56.02-.56.09-3.43q.09-3.615.15-7.23c.08-3.7.19-7.4.31-11.09.05-2.34.1-4.67.14-7l.12-3.38c0-.51 0-.51.03-3.12l.06-2.76c-.19-.72-.38-1.45-.58-2.19-2.47-1.19-2.47-1.19-5-2l-1-2h6v-2c-2.41-.13-2.41-.13-5.5-.00012283325173712-3.1.12-3.1.12-5.5-.0006141662592540342v-2l-3-1-3-1v-2c-.83-.17-1.65-.33-2.5-.5-.83-.17-1.65-.33-2.5-.5v-2c-.83-.17-1.65-.33-2.5-.5-.83-.17-1.65-.33-2.5-.5v-2l-3-1v-2l-2-1c1.66-.12 3.32-.14 4.98-.14h3.27c1.16 0 2.31.01 3.5.01 1.13 0 2.27-.01 3.44-.01h3.29c.51 0 .51 0 3.05.01 2.47.13 2.47.13 4.47 1.13v2c3 1 3 1 6 1 .56-2.99.56-2.99 0-6-2.63-.52-2.63-.52-6-.25-2 .13-4 .23-6 .25v-2h-4v2c-2.02.25-2.02.25-4.82.26-.49 0-.49 0-3 .01-1.05-.01-2.1-.02-3.18-.02-1.05 0-2.1.01-3.18.02-1 0-1.99-.01-3.01-.01-.92 0-1.84 0-2.79-.01-.67-.08-1.34-.17-2.02-.25v-2c-.66-.17-1.32-.33-2-.5-.66-.17-1.32-.33-2-.5v-2c2.1.33 4.21.68 6.3 1.1 26.01 5.07 26.01 5.07 35.7-1.1 8.96-11.74 4.88-34.56 4.25-48.23-.26-6.01-.29-12.02-.34-18.03-.12-11.91-.42-23.8-.84-35.7a1749 1749 0 0 1-.89-34.74l-.03-2.16-.12-8.6c-.19-12.99-.46-25.98-.75-38.97-.01-.33-.01-.33-.05-2.01-.18-8.27-.39-16.54-.68-24.81-.08-2.31-.14-4.62-.2-6.94-.07-3.13-.19-6.25-.31-9.38-.02-.94-.03-1.88-.05-2.85-.12-2.48-.12-2.48-.99-5.58-2.76 1.84-2.76 1.84-4.4 3.45-3.77 3.62-7.87 3.8-12.88 3.81-1.27 0-2.53.01-3.84.02-1.39-.01-2.79-.01-4.19-.01-1.47 0-2.95.01-4.42.02-4 .01-8.01.01-12.01.01-3.34 0-6.69 0-10.03.01-7.9.01-15.79.01-23.69-.0006141662592314958-8.13-.01-16.26.01-24.4.03-6.99.02-13.98.02-20.97.02-4.17 0-8.34 0-12.52.01-3.92.021-7.85.011-11.77.001-1.44 0-2.88 0-4.31.01-16.24.09-16.24.09-22.82-5.18-.53-.65-1.07-1.29-1.63-1.95-.58-.7-1.16-1.39-1.76-2.11-1.42-2.24-1.72-3.62-1.99-6.21-.45-.97-.91-1.94-1.37-2.93-6.53-.74-13.56.17-19 4-2.07 3.09-2.27 3.93-2.4 7.47-.04.9-.07 1.8-.11 2.73-.01.48-.01.48-.08 2.93-.03 1-.07 1.99-.1 3.02-.06 2.1-.12 4.2-.17 6.3-.08 3.23-.2 6.46-.32 9.7-.06 2.03-.11 4.07-.16 6.11-.04.97-.09 1.95-.13 2.95-.07 4.6-.07 4.6.47 6.79 2.52.48 2.52.48 5 .001v2h4v3h3c.04 2.33.04 4.66 0 7h2v2h3v-3c3-.38 3-.38 6 .00014016723653753616v3h2c-.02.82-.04 1.65-.07 2.5.02.82.05 1.65.07 2.5h3v-2c2.5-.32 2.5-.32 5 .0001748352057120428v3h3v3h2v3c-2.85.22-2.85.22-6.5.06-2.17-.09-4.34-.13-6.5-.06v2c-2.88.1-5.72-.08-8.6-.23-.79.08-1.59.15-2.4.23v3c-3.5.37-3.5.37-7-.00026449584832732853v-3c-3.45-.951-3.45-.951-7-.002-1.22 3.94-.9 8.02-.83 12.11 0 1.29-.01 2.58-.01 3.9-.01 3.55.02 7.09.06 10.64.04 3.7.04 7.4.04 11.1.01 6.21.04 12.43.1 18.64.07 7.99.1 15.98.11 23.97.01 6.85.04 13.7.08 20.56.01 2.21.01 4.42.02 6.63q.03 6.165.09 12.33c0 1.23.01 2.47.01 3.74.01 1.11.03 2.22.04 3.36.01.98.01 1.95.02 2.95.04.34.04.34.27 2.07h2c.25 2.5.25 2.5 0 5h-2c-2.17 11.01-5.31 28.59 0 39 7.91 4.83 18.74 2.15 27.36.39.87-.13 1.74-.26 2.64-.39l-1 2h-2v2c-3.16 1.05-5.24 1.07-8.55.99-1.07-.02-2.14-.04-3.25-.05-2.27-.05-4.55-.1-6.82-.16-1.07-.01-2.14-.03-3.24-.04-.99-.02-1.97-.05-2.99-.07-.71.11-1.42.21-2.15.33v3c2.98.17 5.78.18 8.75.06 2.76-.1 5.48-.14 8.25-.06-1.49.87-1.49.87-4 2v2c-1.67.33-3.34.66-5 1v2c-2 1-2 1-5.09.68-.96.1-1.92.21-2.91.32-.72 2.5-.72 2.5-.67 6.05v1.95c.01 2.15.06 4.29.12 6.43l.03 4.44c.03 3.91.09 7.81.16 11.72.08 4.75.13 9.5.17 14.25.04 3.7.08 7.4.15 11.09l.03 2.06c.02 1.83.05 3.66.09 5.5-.03.83-.06 1.65-.08 2.51h-1a95 95 0 0 1-.7-5.3c-.12-1.18-.25-2.36-.38-3.58l-.42-3.99c-.07-.69-.14-1.37-.21-2.07-5.28-50.41-8.83-100.89-10.98-151.52l-.39-9.09c-7.63-175.32-7.63-175.32 61.86-199.03"/><path fill="#41505d" d="M183 24h2c.12 3.24.04 6.43-.08 9.67-.04 1.78.01 3.55.08 5.33h2c1.27 5.57.91 10.94.55 16.62.15.79.3 1.57.45 2.38 1.67.02 3.33.02 5 0 .39 2.7-.01 5.11-.31 7.81L193 68c2.5.19 2.5.19 5 0v2h3v3h2c.26 1.7.26 1.7.27 4.14.01.92.01 1.83.02 2.78v3.09c.01 1.06.01 2.12.02 3.22.02 3.54.02 7.07.03 10.61 0 2.45.01 4.89.02 7.34.01 5.13.01 10.26.01 15.39 0 6.6.03 13.2.06 19.79q.03 7.575.03 15.15c0 2.44.01 4.87.02 7.3.02 3.4.02 6.79.01 10.18l.03 3.09-.03 2.78c.01.81.01 1.61.01 2.44-.08.28-.08.28-.5 1.7h-4v2h-4v3h-3v2h-4v3c-1.97.36-1.97.36-4.5.31-.84 0-1.67-.01-2.53-.01-.65-.1-1.3-.2-1.97-.3v-2h-2v2h-3v3h-2v2h-3v-2h-2v-3h-2c-.27-1.75-.27-1.75-.25-4 0-.37 0-.37-.02-2.25.09-.58.18-1.16.27-1.75h2c.1-2.86.09-5.64 0-8.5s-.1-5.64 0-8.5h2v-3h3v-2h2v-4h2v-5h2c.27-2.62.27-2.62.25-6 .01-1.11.01-2.23.02-3.38-.09-.86-.18-1.73-.27-2.62h-2v-3h-2v-2c-.81.09-1.63.19-2.47.28-.83-.09-1.67-.18-2.53-.28-.59-2.84-.59-2.84-.5-6.5l.03-3.66c.16-.93.31-1.87.47-2.84h3c.26-2.96.26-2.96.12-6.81-.21-6.93-.21-6.93.88-10.19-1.67-.04-3.33-.04-5 0v-2h-3v-2c-.82-.14-1.65-.29-2.5-.44-.41-.09-.41-.09-2.5-.56v-3h-2c-.27-1.75-.27-1.75-.25-4-.01-.74-.01-1.48-.02-2.25.09-.58.18-1.16.27-1.75h2v-2h3v-2h3c.5-2.5.5-2.5 0-5-2.5-.44-2.5-.44-5 0v2h-3v-2h2v-2h3v-3h3v-3h3v-3h4v-3c1.75-.08 1.75-.08 4 .19 2.2.1 2.2.1 4-.19.75-3 .75-3 0-6h-4v-3c.41.03.41.03 2.48.17.42-.03.42-.03 2.52-.17.45-2.36.45-2.36.25-5.75-.04-1.26-.09-2.51-.13-3.8-.03-.71-.05-1.41-.08-2.13-.08-4.4.13-8.8.34-13.2l.09-2.72c.1-2.14.3-4.27.53-6.4"/><path fill="#2a793d" d="M199 182h4c.42 2.89.54 5.41.5 8.31v2.56q0 2.685-.03 5.37c-.03 2.75-.02 5.5-.01 8.25l-.03 5.2c.01.83.01 1.66.01 2.52-.04 2.3-.04 2.3-.44 5.79h-3c.08 2.16.08 2.16.47 4.95.07 2.77.07 2.77-.47 5.05-3.36 1.54-6.88.98-10.5.73l-3.23-.09c-3.43-.11-6.85-.27-10.27-.45-3.42-.17-6.85-.31-10.27-.42-2.14-.07-4.28-.17-6.41-.31-4.95-.17-4.95-.17-7.32.54-.84 3.52-.84 3.52 0 7h3v2h2c.25 2.5.25 2.5 0 5h-2v2h-3v3h3v2h2v5h2v5h2c.27 1.97.27 1.97.25 4.5 0 .42 0 .42.02 2.53-.09.65-.18 1.3-.27 1.97h-2c-.1 2.7-.09 5.31 0 8s.1 5.3 0 8h-2v6h-2v3h-2c-.29.82-.58 1.65-.88 2.5-.37.82-.74 1.65-1.12 2.5h-4v2c-3.06.27-3.06.27-7 .25-1.3.01-2.6.01-3.94.02-1.01-.09-2.02-.18-3.06-.27v-2h-4v-3h-3c-1.7-2.8-2.84-5.71-3-9 3.31-.38 3.31-.38 7 0v-3c3.5-.31 3.5-.31 7 0v2h-3v3h2v2h2v2c3.5.25 3.5.25 7 0v-2h3v-2h2v-5h2c.04-3.1-.06-6.1-.25-9.19l-.12-2.62c-.26-4.49-.73-8.06-2.63-12.19v-3h-2v-2c-3.5-.25-3.5-.25-7 0v2h-4c-.88-2-.88-2-1-4h2c.75-2.5.75-2.5 1-5h-2v2h-3c-.36 2.19-.36 2.19-.31 5 0 .46 0 .46.01 2.81q.15 1.08.3 2.19h2c-.49 1.75-.49 1.75-1.31 4-.64 2.23-.64 2.23-.69 4 3.38.38 3.38.38 7 0v2c-3.24.12-6.43.04-9.67-.08-1.78-.04-3.55.01-5.33.08v2h-5v2c-3.14.11-6.24-.07-9.38-.22-.86.07-1.73.14-2.62.22v3h-2c-.12-1.13-.25-2.27-.38-3.44-.2-1.17-.41-2.35-.62-3.56-2-.69-2-.69-4-1-.62-2.06-.62-2.06-1-4h-2c-.17-.83-.17-.83-1-5h-2a96 96 0 0 1-.19-7.94l.03-2.35c.08-5.29.21-10.49 1.16-15.71h2c.02 3.14-.2 6.24-.42 9.38.07.43.07.43.42 2.62 2.47.15 2.47.15 5 0 .62 3.56.62 3.56 0 7-.42-.09-.42-.09-2.56-.56-.81-.15-1.61-.29-2.44-.44-.22 2.89.33 5.14 1 8 .36-1.66.69-3.33 1-5h2c-.02 1.98-.08 3.96-.16 5.95.22 3.32.22 3.32 1.16 6.05 4.12 1.74 8.18 1.21 12.56.88l3.6-.12c6.09-.26 6.09-.26 8.84-.76v-2h2c.1-2.53.09-4.97 0-7.5s-.1-4.97 0-7.5h2v-2h3v-3h3v-2h2v-2h3c.23-2.69.25-5.16.15-7.84-.03-1.64-.05-3.27-.08-4.91-.06-2.6-.13-5.2-.21-7.79-.06-2.5-.11-4.99-.15-7.49l-.09-2.37c-.03-2.18-.03-2.18.38-5.6 2.73-1.46 5.23-.97 8.25-.69 1.24-.1 2.47-.2 3.75-.31.38-3 .38-3 0-6h2v-2c3.16-2.11 4.06-2.27 7.69-2.25.81-.01 1.61-.01 2.45-.02.3.05.3.05 1.86.27v2h3v-2h2v-3h3v-2h2v2c1.97.3 1.97.3 4.5.31.42.01.42.01 2.53.05.65-.12 1.3-.24 1.97-.36v-3h4v-2h3v-3h4Z"/><path fill="#d3b9a3" d="M1 220c3.6-.82 3.6-.82 7 0 0 2.18 0 2.18-.77 4.98-.19 2.78-.19 2.78.77 5.02 6.41 1.3 12.88.65 19.38.25 2.76-.15 5.52-.29 8.28-.39 1.72-.06 3.45-.16 5.17-.28 2.36-.1 2.36-.1 6.17.42 2.32 4.23 2.17 8.13 2 12.88-.12 3.49-.12 3.49 0 6.12h2c.06.78.12 1.57.19 2.38.27.86.53 1.73.81 2.62.59.16.59.16 3.56 1 1.14.33 2.27.66 3.44 1 .56 2.62.56 2.62 0 5h-2c.16.82.33 1.65.5 2.5.16.82.33 1.65.5 2.5h-2v2h-2v5h-2l.06 3.5L52 280h-3c.1.82.21 1.65.31 2.5-.1.82-.2 1.65-.31 2.5-2.15.32-4.09.18-6.25-.02-.29 0-.29 0-1.75.02v2h-2v-2c-2.8-.03-5.52.07-8.31.23l-5.2.18c-2.75.1-5.5.22-8.25.39-10.85.64-10.85.64-16.24-.8-1.68-3.39-1.48-5.55-1.06-9.29C1 273 1 273 2.95 272.05c2.05-.17 2.05-.17 4.3-.06.58 0 1.16.01 1.75.01v-2c1.67-.33 3.33-.67 5-1v-2c.33-.17.33-.17 2-1-3.19-.22-6.37-.35-9.57-.43-2.08-.09-2.08-.09-5.43-.57v-3c2.48-.4 2.48-.4 5.91-.44 1.21-.03 2.43-.05 3.69-.08.64-.01.64-.01 3.9-.04 2.53-.04 5.06-.08 7.59-.13 1.13-.01 2.27-.03 3.43-.04.82-.09 1.64-.18 2.48-.27v-2c.33-.17.33-.17 2-1-1.88-.08-3.76-.08-5.64-.06-.61 0-.61 0-3.68.02-2.61.03-5.21.05-7.81.08-.61 0-.61 0-3.7.02-1.13.01-2.26.03-3.43.04C3 258 3 258 1 257c-.27-2.76-.4-5.42-.44-8.19-.02-.82-.03-1.64-.04-2.49-.03-1.73-.04-3.47-.06-5.2-.02-2.68-.1-5.34-.17-8.02-.02-1.68-.03-3.36-.04-5.04l-.09-2.44c.01-2.24.01-2.24.84-5.62"/><path fill="#1d80f2" d="M56 77c2.5-.25 2.5-.25 5 0v2h3c.04 1.67.04 3.33 0 5h2v2c3.5.25 3.5.25 7 0v-2l2.5.06L78 84v-3c1.67-.04 3.33-.04 5 0v-2c2.84-.27 2.84-.27 6.5-.25.6 0 .6 0 3.66-.02.93.09 1.87.18 2.84.27v2h4v3h3v3h2v2h3c.04 2.33.04 4.67 0 7h2c-.02 3.4-.27 6.76-.52 10.16.17.93.34 1.87.52 2.84 3.02.28 3.02.28 6 0v2h8v2c2.13-.16 4.16-.59 6.25-1H132v3c.5.16.5.16 3 1v3c-2.5.38-2.5.38-5 0v-3q-3-.06-6 0v-2c-2.36-.11-4.67.07-7.03.22-.65-.07-1.3-.14-1.97-.22v-3c-2.49-.32-4.73-.42-7.22-.4-.73 0-1.46 0-2.22-.01-1.55 0-3.11.01-4.66.02-2.39.01-4.78 0-7.17-.02-1.5 0-3.01.01-4.51.01-.36 0-.36 0-2.19-.02-2 .03-2 .03-5.03.42v3q-3 .06-6 0v2l-2.5-.06-2.5.06v3c-2.06.06-2.06.06-4-1 .33-2 .66-4 1-6h-4v-3c-2.5-.38-2.5-.38-5 0v3h-3v2c-3.5.81-3.5.81-7 1v-3h-2c-.35-7.29-.35-7.29 1-10h-3v-3h-2v-2h-3c-.31-3-.31-3 0-6h2v-2h8v-2h2c.56-1.75.56-1.75 1-4s.44-2.25 1-4h2Z"/><path fill="#e4cfbc" d="M203 10h1c.16 1.71.23 3.42.29 5.14.04 1.14.07 2.29.11 3.47l.12 3.88c.04 1.36.08 2.71.13 4.07l.33 11.25.21 7.2c.9 30.24 1.47 60.48 1.91 90.73.07 4.94.14 9.88.22 14.82.01.99.03 1.97.04 2.99.25 15.96.71 31.91 1.25 47.86.54 16.36.87 32.71.98 49.08.07 9.2.25 18.38.68 27.58 2.26 49.89 2.26 49.89-6.27 60.93-15.22 9.72-40.07 4.06-56.56.6C145 339 145 339 143 338l.06-2.5-.06-2.5-3-1c-.22-1.85-.22-1.85-.06-4.06L140 324h-2c-.43-2.46-.43-2.46 0-5 2.03-.62 2.03-.62 4.91-.62 1.07 0 2.14-.01 3.25-.02.58 0 .58 0 3.55.05h3.61c2.53 0 5.06.02 7.59.05 3.88.04 7.75.04 11.63.03 2.45.01 4.9.03 7.35.04h3.54c1.08.02 2.16.03 3.27.05l2.89.03c2.81.46 3.74 1.11 5.41 3.39v2h2v3h2c.53.58 1.05 1.17 1.59 1.77L202 330c.43-1.56.43-1.56.51-4.31.04-1.01.07-2.03.11-3.07.02-1.13.04-2.25.07-3.41l.09-3.43q.09-3.615.15-7.23c.07-3.7.18-7.4.3-11.1l.15-6.99c.01-.56.01-.56.11-3.38.01-.52.01-.52.03-3.12l.06-2.76c-.19-.73-.38-1.45-.58-2.2-2.47-1.18-2.47-1.18-5-2l-1-2h6v-2c-2.41-.12-2.41-.12-5.5 0s-3.09.12-5.5 0v-2l-3-1-3-1v-2c-.82-.17-1.65-.33-2.5-.5-.82-.17-1.65-.33-2.5-.5v-2c-.82-.16-1.65-.33-2.5-.5-.82-.16-1.65-.33-2.5-.5v-2l-3-1v-2l-2-1c1.66-.11 3.32-.13 4.98-.13 1.08 0 2.16-.01 3.28-.01 1.15.01 2.3.01 3.49.02.57-.01.57-.01 3.45-.02.54 0 .54 0 3.28.01h3.06C195 257 195 257 197 258v2c3 1 3 1 6 1 .56-2.98.56-2.98 0-6-2.62-.52-2.62-.52-6-.25-2 .14-4 .24-6 .25v-2h-4v2c-2.02.26-2.02.26-4.81.27h-3.01c-1.05 0-2.1-.01-3.18-.02-1.05.01-2.1.02-3.18.02h-3.01c-.92-.01-1.84-.01-2.79-.01-.67-.09-1.33-.17-2.02-.26v-2c-.66-.16-1.32-.33-2-.5-.66-.16-1.32-.33-2-.5v-2c2.11.34 4.21.69 6.3 1.11 26.02 5.1 26.02 5.1 35.7-1.11 8.65-11.39 4.93-33.18 4.32-46.45-.31-6.72-.37-13.43-.42-20.15-.1-11.99-.39-23.96-.79-35.94-.39-11.64-.69-23.28-.88-34.92l-.03-2.17c-.06-3.6-.12-7.2-.17-10.79-.11-6.98-.22-13.96-.34-20.94-.02-.67-.03-1.35-.04-2.04-.18-10-.41-20.01-.69-30.01-.03-1.25-.06-2.49-.1-3.78-.16-5.86-.34-11.72-.52-17.58l-.18-6.12c-.01-.47-.01-.47-.09-2.83-.06-2.09-.07-4.19-.07-6.28"/><path fill="#145437" d="M1 182h2l-.06 2.5L3 187h3l-.06 2.5L6 192h4v-3h3v-2c2.19-.27 2.19-.27 5-.25.93-.01 1.86-.01 2.81-.02.36.05.36.05 2.19.27v2l2.5-.06 2.5.06v3h3c.12.82.25 1.65.38 2.5.2.82.41 1.65.62 2.5 2.56.44 2.56.44 5 0v-2h3v-3h2v-3h2c.33 1.67.67 3.33 1 5h2v2h3v3c2.33.04 4.67.04 7 0v2h4v2c-2.5.25-2.5.25-5 0v-2c-1.75-.27-1.75-.27-4-.25-.74-.01-1.48-.01-2.25-.02-.58.09-1.16.18-1.75.27v2h-4v3h-2v2h-2c-.27 2.19-.27 2.19-.25 5-.01.93-.01 1.86-.02 2.81q.135 1.08.27 2.19h2v2h3v2c3.06.52 3.06.52 7 .81 1.3.11 2.6.22 3.94.33 1.01-.04 2.02-.09 3.06-.14v-3c-.83.1-1.65.21-2.5.31-.83-.1-1.65-.2-2.5-.31-.61-2.69-.57-5.31 0-8h2v-2c1.75-.3 1.75-.3 4-.31.74-.02 1.48-.04 2.25-.05.58.12 1.16.24 1.75.36v3c-.34.08-.34.08-2.06.5-.32.08-.32.08-1.94.5l1 3h3c.04 1.67.04 3.33 0 5h2v3h2v-2c4.14-.52 8.33-.37 12.5-.38 1.19-.02 2.38-.04 3.61-.07 1.13 0 2.26-.01 3.42-.01.52-.01.52-.01 3.18-.03.75.16 1.51.32 2.29.49v4h-2v-2c-1.75-.27-1.75-.27-4-.25-.74-.01-1.48-.01-2.25-.02-.58.09-1.16.18-1.75.27v2c-2.5.25-2.5.25-5 0v-2c-1.97-.27-1.97-.27-4.5-.25-.84-.01-1.67-.01-2.53-.02-.65.09-1.3.18-1.97.27v2c-3.4.11-6.76-.07-10.16-.22-.93.07-1.87.14-2.84.22v3c-1.82.43-1.82.43-4.41.5-.96.03-1.92.06-2.91.1-1.05.01-2.1.03-3.18.04l-3.23.06c-2.26.04-4.52.06-6.78.08-3.48.03-6.95.14-10.43.25-2.18.02-4.37.04-6.56.05-1.05.04-2.1.09-3.18.13-4.96-.05-4.96-.05-7.32-1.21-.64-2.79-.45-4.97-.03-7.8L8 220c-3.5-.5-3.5-.5-7 0v-2h2c.25-2.5.25-2.5 0-5H1c-.26-2.85-.26-2.85-.27-6.78v-2.09c0-1.46 0-2.92.01-4.37.01-2.25 0-4.49-.01-6.74v-4.24c.01-1.3.01-2.6.01-3.93.09-.94.17-1.88.26-2.85"/><path fill="#f09812" d="M104 220h4v3h4v2h3v2c2.29.26 2.29.26 5.47.27h3.42c.59 0 .59 0 3.61-.02 1.19.01 2.38.02 3.61.02h3.42c1.05-.01 2.1-.01 3.18-.01.37-.04.37-.04 2.29-.26v-2h3c.31 2.92.42 5.58.38 8.5l.03 2.46c-.01 2.32-.01 2.32-.41 6.04h-3v2h-2v2h-3v3h-3v2h-2c-.1 2.53-.09 4.97 0 7.5s.1 4.97 0 7.5h-2v2c-2.28.26-2.28.26-5.43.27h-3.41c-1.19 0-2.37-.01-3.6-.02-.59 0-.59 0-3.59.02h-3.4c-1.05-.01-2.09-.01-3.16-.01-.8-.09-1.59-.17-2.41-.26-1.58-3.15-.96-6.41-.84-9.88-.05-.7-.11-1.4-.16-2.12h-2v7c-2.33-2.33-2.34-3-2.44-6.19.15-1.26.29-2.51.44-3.81 1.67.29 3.34.63 5 1 .62-3.44.62-3.44 0-7l-2.54.15c-.81-.05-1.62-.1-2.46-.15-.34-2.62-.34-2.62.06-6 .12-1.11.23-2.23.35-3.38.19-.86.39-1.73.59-2.62h2c.31-2.5.31-2.5 0-5h-3c-.44-2.5-.44-2.5 0-5h4v-2h2Z"/><path fill="#753f10" d="M69 225c1.97-.27 1.97-.27 4.5-.25.84-.01 1.67-.01 2.53-.02.65.09 1.3.18 1.97.27v2c2.5.25 2.5.25 5 0v-2c1.75-.27 1.75-.27 4-.25.74-.01 1.48-.01 2.25-.02.58.09 1.16.18 1.75.27v2h4v-2h3v5h3c.31 2.5.31 2.5 0 5h-2c-.16 1.97-.16 1.97-.06 4.5.05 1.5.08 3 .06 4.5h-1c-.03-2.35.07-4.68.16-7.03-.05-.65-.11-1.3-.16-1.97h-2c-.18 2.22-.18 2.22-.09 5.29l.06 3.29c.06 2.33.13 4.65.2 6.98.01.54.01.54.05 3.29l.09 3.06c-.1.69-.2 1.38-.31 2.09l-3-1v-2c-3-.25-3-.25-6 0v2c-2.39.18-2.39.18-5.69.09l-3.55-.06c-2.51-.06-5.01-.13-7.52-.2-1.17-.01-2.34-.03-3.55-.05l-3.3-.09c-.79.1-1.58.2-2.39.31v3h-2c.1-.8.21-1.61.31-2.44-.1-.84-.2-1.69-.31-2.56-3.44-.75-3.44-.75-7-1l-1-1 .06-2.56L51 249h-2c-.38-2.81-.38-2.81-.56-6.44-.34-6.46-.34-6.46-1.44-7.56-.62-2.56-.62-2.56 0-5 2.41-.27 4.62-.11 7.03.12L56 230v-3c2.84-.22 2.84-.22 6.5-.06 2.16.09 4.33.13 6.5.06Z"/><path fill="#2b2722" d="M195 225c2.5-.5 2.5-.5 5 0 .43 2.5.43 2.5 0 5-1.82.55-1.82.55-4.41.46-.48-.01-.48-.01-2.91-.07-.52-.03-.52-.03-3.18-.15-2.19-.05-4.37-.09-6.56-.14-3.48-.11-6.96-.23-10.43-.35-3.34-.12-6.67-.19-10.01-.26l-3.18-.15c-4.94-.09-4.94-.09-7.32.66-.84 3.53-.84 3.53 0 7h3v2h2c.25 2.5.25 2.5 0 5h-2v2h-3v3h3v2h2v5h2v5h2c.27 1.97.27 1.97.25 4.5 0 .42 0 .42.02 2.53-.09.65-.18 1.3-.27 1.97h-2c-.1 2.7-.09 5.31 0 8s.1 5.3 0 8h-2v6h-2v3h-2c-.29.82-.58 1.65-.88 2.5-.37.82-.74 1.65-1.12 2.5h-4v2c-3.06.27-3.06.27-7 .25-1.3.01-2.6.01-3.94.02-1.01-.09-2.02-.18-3.06-.27v-2h-4v-3h-3c-1.7-2.8-2.84-5.71-3-9 3.31-.38 3.31-.38 7 0v-3c3.5-.31 3.5-.31 7 0v2h-3v3h2v2h2v2c3.5.25 3.5.25 7 0v-2h3v-2h2v-5h2c.04-3.1-.06-6.1-.25-9.19l-.12-2.62c-.26-4.49-.73-8.06-2.63-12.19v-3h-2v-2c-3.5-.25-3.5-.25-7 0v2h-4c-.88-2-.88-2-1-4h2c.75-2.5.75-2.5 1-5h-2v2h-3c-.36 2.19-.36 2.19-.31 5 0 .46 0 .46.01 2.81q.15 1.08.3 2.19h2c-.49 1.75-.49 1.75-1.31 4-.64 2.23-.64 2.23-.69 4 3.38.38 3.38.38 7 0v2c-3.24.12-6.43.04-9.67-.08-1.78-.04-3.55.01-5.33.08v2h-5v2c-3.14.11-6.24-.07-9.38-.22-.86.07-1.73.14-2.62.22v3h-2c-.06-.57-.06-.57-.38-3.44-.2-1.17-.41-2.35-.62-3.56-2-.69-2-.69-4-1-.62-2.06-.62-2.06-1-4h-2c-.33-1.67-.67-3.33-1-5h-2a96 96 0 0 1-.19-7.94l.03-2.35c.08-5.29.21-10.49 1.16-15.71h2c.02 3.14-.2 6.24-.42 9.38.07.43.07.43.42 2.62 2.47.15 2.47.15 5 0 .62 3.56.62 3.56 0 7-.85-.19-1.69-.37-2.56-.56-.81-.15-1.61-.29-2.44-.44-.22 2.89.33 5.14 1 8 .36-1.66.69-3.33 1-5h2c-.02 1.98-.08 3.96-.16 5.95.22 3.32.22 3.32 1.16 6.05 4.12 1.74 8.18 1.21 12.56.88l3.6-.12c6.09-.26 6.09-.26 8.84-.76v-2h2c.1-2.53.09-4.97 0-7.5s-.1-4.97 0-7.5h2v-2h3v-3h3v-2h2v-2h3c-.08-1.01-.16-2.02-.25-3.06.08-.97.16-1.94.25-2.94.58.11.58.11 3.5.69.58.05.58.05 3.5.31.04-1.91.04-1.91-.31-4.43-.09-2.5-.09-2.5.31-4.57 3.29-.92 5.17-1.02 8.5-.81.43.01.43.01 2.61.05 2.78.07 5.55.19 8.33.32 2.77.09 5.54.17 8.31.25 1.73.04 3.46.11 5.19.19 2.02.07 4.04.05 6.06 0l1-2v2c2.5.31 2.5.31 5 0Z"/><path fill="#2e2d29" d="M88 259c.16.33.16.33 1 2h2v2h2v3h2c.34 1.33.68 2.66 1 4l2 1v2h-2c.16.33.16.33 1 2 .12 2.04.18 4.08.19 6.12.01 1.1.03 2.2.04 3.33-.08.84-.15 1.68-.23 2.55h-2c-.11 2.36.07 4.67.22 7.03-.07.65-.14 1.3-.22 1.97h-3q-.06 3 0 6h-2l.06 2.5L90 307h-3v2h-2v3h-2v2l-2.5-.06-2.5.06v3c-2.62.4-2.62.4-6 .38-.56 0-.56 0-3.38.02-.86-.13-1.73-.26-2.62-.4v-3c-1.67-.04-3.33-.04-5 0v-2h-3v-3h-2v-2h-2v-4h-2l.06-3-.06-3h-3c-.31-2.92-.42-5.58-.38-8.5l-.03-2.46c.01-2.32.01-2.32.41-6.04h3c.04-2.33.04-4.67 0-7h2v-5h2v-2h2c-.16-.82-.33-1.65-.5-2.5-.16-.82-.33-1.65-.5-2.5h2v2c2.12.01 2.12.01 4.88-.31.9-.1 1.8-.2 2.74-.3C69 262 69 262 71 261c3.23-.88 5.93-1.53 9 0 1 4.71.79 9.26 0 14h-2v8h-2c-.25 2.5-.25 2.5 0 5h2v-3h2c.12 3.5.12 3.5-1 7-2.94.85-4.89.44-8 0v-2h2c.04-2.33.04-4.67 0-7l1-3h2c.12-1.97.12-1.97 0-4.5s-.12-2.53 0-4.5h2v-3c-3.5-.38-3.5-.38-7 0v3h-3v2h-2v2h-2v5h-2c-.27 3.06-.27 3.06-.25 7-.01 1.3-.01 2.6-.02 3.94.09 1.01.18 2.02.27 3.06h2v6h2v2h2v3h3v2c3.5.25 3.5.25 7 0v-2h3v-3h2v-2h2v-6h2c.01-2.65-.1-5.18-.31-7.81l-.15-2.24c-.23-3.16-.53-5.93-1.54-8.95-.12-1.56-.17-3.12-.19-4.69-.01-.81-.03-1.61-.04-2.45.08-.61.15-1.23.23-1.86h2v2h3c.31-2.5.31-2.5 0-5h-2Z"/><path fill="#95877f" d="M96 273h2v2h2c.15 3.4-.01 6.76-.12 10.16L100 288h2v2h6v2c2.63.27 2.63.27 6 .25 1.11.01 2.23.01 3.38.02.86-.09 1.73-.18 2.62-.27v-2h4c.7 2.32 1.37 4.66 2 7h3v3h4v2c3.06.27 3.06.27 7 .25.65 0 .65 0 3.94.02 1.01-.09 2.02-.18 3.06-.27v-2h4c.27-.82.54-1.65.81-2.5.39-.82.79-1.65 1.19-2.5 3.62-.44 3.62-.44 7 0v2h4v3h-2v2l-3.5-.06-3.5.06v3c-1.75.22-1.75.22-4 .06-2.25-.15-2.25-.15-4-.06v2c-3.37.02-6.7-.2-10.06-.42-.97.14-1.94.28-2.94.42-.85 2.7-.85 2.7-1 5l-1-3c-2.07-.4-2.07-.4-4.56-.38-.83 0-1.66-.01-2.51-.02-.32.07-.32.07-1.93.4v3c-2.11.31-2.11.31-5.03.22-.52-.01-.52-.01-3.15-.05-1.09-.04-2.19-.07-3.32-.11-2.16-.06-4.31-.11-6.47-.15l-2.92-.09c-.7.06-1.39.12-2.11.18v2c-3.4.11-6.76-.07-10.16-.22-.93.07-1.87.14-2.84.22v3c-1.97.4-1.97.4-4.5.38-.84 0-1.67.01-2.53.02-.65-.13-1.3-.26-1.97-.4v-3c1.67-.04 3.33-.04 5 0v-2h2v-3h2v-2h3c.04-1.67.04-3.33 0-5h2l-.06-3 .06-3h3c.22-1.97.22-1.97.06-4.5-.15-2.53-.15-2.53-.06-4.5h2c-.07-2.34-.26-4.67-.5-7s-.43-4.66-.5-7"/><path fill="#b2b4ac" d="M183 24h2c.12 3.24.04 6.43-.08 9.67-.04 1.78.01 3.55.08 5.33h2c1.27 5.57.91 10.94.55 16.62.15.79.3 1.57.45 2.38 1.67.02 3.33.02 5 0 .39 2.7-.01 5.11-.31 7.81L193 68c2.5.19 2.5.19 5 0v2h3v3h2c.34 2.56.51 4.93.56 7.5.03.36.03.36.15 2.17.04 2.05.04 2.05-.71 5.33-3.54.59-3.54.59-7 0v-2c-2.02-.26-2.02-.26-4.81-.27h-3.01c-1.05 0-2.1.01-3.18.02-.52 0-.52 0-3.18-.02h-3.01c-.92.01-1.84.01-2.79.01-.67.09-1.33.17-2.02.26v2h-8v2h-3v2c-2.5.81-2.5.81-5 1v-3h2v-2h3v-2h3c.5-2.5.5-2.5 0-5-2.5-.44-2.5-.44-5 0v2h-3v-2h2v-2h3v-3h3v-3h3v-3h4v-3c1.75-.08 1.75-.08 4 .19 2.2.1 2.2.1 4-.19.75-3 .75-3 0-6h-4v-3c.41.03.41.03 2.48.17.42-.03.42-.03 2.52-.17.45-2.36.45-2.36.25-5.75-.04-1.26-.09-2.51-.13-3.8-.03-.71-.05-1.41-.08-2.13-.08-4.4.13-8.8.34-13.2l.09-2.72c.1-2.14.3-4.27.53-6.4"/><path fill="#7a440c" d="M48 201c1.75-.27 1.75-.27 4-.25.74-.01 1.48-.01 2.25-.02.58.09 1.16.18 1.75.27v2c2.62.11 5.19-.07 7.81-.22.36.03.36.03 2.19.22v3c1.67.04 3.33.04 5 0v2c2.62.12 2.62.12 6 0s3.38-.12 6 0v2c2.39.21 2.39.21 5.69.16l3.55-.03c1.24-.02 2.48-.05 3.76-.07l7.31-.09c1.09-.02 2.18-.03 3.3-.05.79.03 1.58.05 2.39.08v1c-.56.06-.56.06-3.38.38-1.19.2-2.39.41-3.62.62l-2 3h3v-2c2.5-.44 2.5-.44 5 0 .5 2.5.5 2.5 0 5h-3a108 108 0 0 0-1 5h-2v2h-7v2h-2v-4c-2.29-.49-2.29-.49-5.47-.46-.56 0-.56 0-3.42.01-1.19.03-2.38.05-3.61.07-1.19.01-2.38.01-3.61.01-6.49.07-6.49.07-8.89.37v2h-2v-3h-2l.06-2.5L64 217h-3v-2l-2-1c.78-.12 1.57-.25 2.38-.38.86-.2 1.73-.41 2.62-.62v-3c-1.75-.36-1.75-.36-4-.31-.37 0-.37 0-2.25.01-.58.1-1.16.2-1.75.3v2h-2c-.57 2.69-.61 5.31 0 8 2.5.31 2.5.31 5 0v3c-2.55.33-2.55.33-5.88.25-1.09-.02-2.18-.03-3.3-.05C47 223 47 223 45 222v-2h-3v-2h-2c-.27-2.19-.27-2.19-.25-5-.01-.93-.01-1.86-.02-2.81q.135-1.08.27-2.19h2v-2h2v-3h4Z"/><path fill="#e0ceb7" d="M175.863 102.465c2.26-.14 3.98-.17 6.14.54.9 3.1 1.04 5 .95 8.17.01.86.01 1.73.02 2.63.01 2.89-.04 5.77-.09 8.66 0 2-.01 3.99-.01 5.99-.01 4.19-.05 8.38-.1 12.57-.08 5.39-.1 10.77-.11 16.16-.01 4.13-.04 8.25-.07 12.37l-.03 5.96c-.02 2.77-.05 5.54-.1 8.32v2.52c-.05 2.27-.05 2.27-.46 5.65h-3v-2h-2v2h-3v3h-2v2h-3v-2h-2v-3h-2c-.27-1.75-.27-1.75-.25-4-.01-.75-.01-1.49-.02-2.25.09-.58.18-1.16.27-1.75h2c.09-2.87.09-5.65 0-8.5-.09-2.86-.1-5.64 0-8.5h2v-3h3v-2h2v-4h2v-5h2c.26-2.63.26-2.63.25-6 0-1.12.01-2.23.01-3.38-.09-.87-.17-1.73-.26-2.62h-2v-3h-2v-2c-.82.09-1.63.18-2.47.28-.42-.05-.42-.05-2.53-.28-.6-2.85-.6-2.85-.5-6.5l.03-3.66c.15-.94.31-1.88.47-2.84h3c.22-2.86.22-2.86.06-6.63-.52-12.67-.52-12.67 3.8-13.91"/><path fill="#e7ceb8" d="M169.125 298.813c.91-.01 1.82-.03 2.76-.04.35.04.35.04 2.12.23v2c.65.33 1.31.66 2 1 .65.33 1.31.66 2 1v2c.99.33 1.97.66 3 1 1.78 1.74 1.78 1.74 3.62 3.87.31.35.31.35 1.85 2.12 1.53 2.01 1.53 2.01 2.53 5.01-1.88.39-1.88.39-4.72.42-1.06.01-2.11.03-3.2.05h-3.51c-.59 0-.59 0-3.56.02-2.49.01-4.98.01-7.47.01-3.83 0-7.65.04-11.48.08-2.41.01-4.83.01-7.24.01-.58.01-.58.01-3.49.05l-3.23-.03c-.94 0-1.88.01-2.85.01-.74-.21-1.49-.41-2.25-.62-1.76-3.23-2.89-6.36-2-10 2.84-.42 2.84-.42 6.5-.19 2.16.12 4.33.2 6.5.19v-2c2.1-.11 4.14.07 6.24.22.29-.04.29-.04 1.76-.22v-3c2.33-.04 4.66-.04 7-.0004999999999881766v-2c2.5-1.26 4.33-1.17 7.12-1.19"/><path fill="#fcb723" d="M133 232h4c.38 3.5.38 3.5 0 7h-2v5h-2v3h-3v2h-2l.06 2.5-.06 2.5h-3c.13 1.97.13 1.97.56 4.5.11 2.49.11 2.49-.56 4.5-4.91 1.25-9.93.44-14.83-.6-.72-.13-1.43-.26-2.17-.4l-1 1c-2.62.5-2.62.5-5 0 .06-3.5.06-3.5 1-7h2c.16-2.55.16-2.55.06-5.88-.16-5.92-.16-5.92.94-8.12h2v-3c1.67-.04 3.33-.04 5 0v-2c3.67-.12 7.29-.04 10.96.08 2.01.04 4.03-.01 6.04-.08v-2h3Z"/><path fill="#b2a89d" d="M193 103l-.12 3 .12 3h3v3h-3v3h3c.38 3 .38 3 0 6h-3v2h3v3h2v2h-5v2c.82.1 1.65.21 2.5.31.82.23 1.65.46 2.5.69.62 2.56.62 2.56 0 5-2.5.12-2.5.12-5 0v3c.99-.14 1.98-.29 3-.44.99.15 1.98.29 3 .44.94 3.43.94 6.57 0 10-3 .44-3 .44-6 0v3h3v-2h2c.69 1.94.69 1.94 1 4l-1 1-2.56-.06-2.44.06v2c1.34-.3 2.67-.64 4-1 1 1 1 1 1.19 4.06-.06.97-.13 1.94-.19 2.94h-2v3h2c.44 2.44.44 2.44 0 5-.83.06-1.66.13-2.51.2-.41.13-.41.13-2.49.8-.37 2.69-.43 4.77-.25 7.44.33 7.4.33 7.4-.75 9.56h-4c-.42-2.67-.52-4.94-.49-7.62 0-.81 0-1.62-.01-2.45 0-2.7.02-5.39.04-8.09v-5.58c0-3.91.02-7.81.05-11.72.03-5.03.04-10.05.04-15.07 0-3.85.01-7.69.02-11.54.01-1.85.01-3.71.02-5.56 0-2.58.02-5.17.04-7.75v-2.35c.02-1.76.14-3.52.29-5.27h2v-2c2-1 2-1 3-1"/><path fill="#7a8084" d="M188 96c2.53-.44 2.53-.44 5 0v2h4v3h2l-.12 2.5.12 2.5h4c.43 2.46.55 4.5.52 6.98 0 .37 0 .37.02 2.24.02 2.47 0 4.94-.01 7.4 0 1.71.01 3.41.01 5.12.01 3.57 0 7.15-.02 10.73-.02 4.6-.01 9.2.02 13.8q.015 5.28 0 10.56c-.01 1.7 0 3.4.01 5.1.01 2.36-.01 4.73-.03 7.09.01.71.01 1.42.02 2.16-.03 1.93-.03 1.93-.54 4.82h-4v2h-4v3h-2c-.26-2.53-.37-4.9-.38-7.44-.01-.35-.01-.35-.07-2.14-.01-2.04-.01-2.04.45-5.42 1.97-.81 1.97-.81 4-1 .88-2.56.88-2.56 1-5h-2v-3h2c-.12-3-.12-3-1-6h-4v-2c.82-.12 1.65-.25 2.5-.38.82-.2 1.65-.41 2.5-.62v-4h-2v2h-3v-3c.99.14 1.98.29 3 .44.99-.15 1.98-.29 3-.44.94-3.43.94-6.57 0-10-3-.44-3-.44-6 0v-3l2.5.12 2.5-.12c.62-2.44.62-2.44 0-5-2.5-.69-2.5-.69-5-1v-2h5v-2h-2v-3h-3v-2h3c.38-3 .38-3 0-6h-3v-3h3v-3h-3a108 108 0 0 1-1-5h-2v2h-2c-.37-2.19-.37-2.19-.44-5l-.12-2.81c.19-.72.37-1.45.56-2.19"/><path fill="#165c3e" d="M171 200c2.84-.27 2.84-.27 6.5-.25.6 0 .6 0 3.66-.02.93.09 1.87.18 2.84.27v2h-2v3l-2.5-.12-2.5.12c-.62 2.5-.62 2.5 0 5 2.5.44 2.5.44 5 0v-2l2.5.06 2.5-.06v-3h3v3h2v2h3v-2h2c-.03.41-.03.41-.19 2.5.06.82.13 1.65.19 2.5 2.44.5 2.44.5 5 0l1-3c.2 1.89.2 1.89.25 4.81.03.96.05 1.91.08 2.9-.11.75-.22 1.51-.33 2.29h-3v2h-2v-2c-1.84.04-3.67.16-5.5.31-3.06.08-3.06.08-5.5-.31-.5-3.5-.5-3.5 0-7h-3c-.04 2.33-.04 4.67 0 7h-2v2h-3v-2c-2.75-.15-2.75-.15-6.56-.02l-4.1.09c-2.18.05-4.35.12-6.52.2-2.09.07-4.17.11-6.26.15l-3.81.12c-.9-.18-1.81-.36-2.75-.54-.52-2.5-.52-2.5 0-5 1.75-.42 1.75-.42 4-.19 2.25.21 2.25.21 4 .19v-2l2.5.06 2.5-.06v-3h3v-2h2v-3h2v-3h2Z"/><path fill="#b47111" d="M33 136c2.41-.4 2.41-.4 5.5-.38 1.02 0 2.04-.01 3.09-.02.4.07.4.07 2.41.4v3c1.75.12 1.75.12 4-.12 2.21-.11 2.21-.11 4 .12.69 2.5.69 2.5 0 5h-3c-.66 2.19-.66 2.19-1.06 5-.41 2.81-.41 2.81-.94 5h-2l.06 2.5L45 159h-3c-.28 1.76-.28 1.76-.14 4.2.04.88.09 1.76.13 2.67.07.93.13 1.86.2 2.82.04.91.09 1.82.13 2.76.27 4.6.72 8.32 2.68 12.55v3h2c.25 3.5.25 3.5 0 7h-2c-.12-.82-.25-1.65-.38-2.5-.1-.41-.1-.41-.62-2.5h-4c-.12-2.5-.12-2.5 0-5h-2c-.18-2.5-.23-4.88-.19-7.38v-2.11c.05-5.23.05-5.23 1.19-7.51h-2v-3h-2v-2h-3v-4h-2c-.34-1.33-.68-2.66-1-4l-2-1c-.3-2.72-.3-2.72-.31-6.06-.02-1.11-.04-2.21-.05-3.35.12-.85.24-1.71.36-2.59h3v-2h3Z"/><path fill="#407020" d="M42 189h2c.33 1.67.67 3.33 1 5h2v2h3v3c2.33.04 4.67.04 7 0v2h4v2c-2.5.25-2.5.25-5 0v-2c-1.75-.27-1.75-.27-4-.25-.74-.01-1.48-.01-2.25-.02-.58.09-1.16.18-1.75.27v2h-4v3h-2v2h-2c-.27 2.19-.27 2.19-.25 5-.01.93-.01 1.86-.02 2.81q.135 1.08.27 2.19h2v2h3v2h2v3c.33.16.33.16 2 1-.16.33-.16.33-1 2-2.62.22-5.13.3-7.75.3-.78.01-1.55.01-2.35.01-1.65.01-3.29.01-4.93.01-2.53-.01-5.05.02-7.58.04h-4.77c-.38.01-.38.01-2.31.03-2.11-.02-2.11-.02-5.31-.39v-3h-3c-.54-2.48-.54-2.48 0-5 2.37-.46 2.37-.46 5.65-.24.59.02.59.02 3.54.14 2.5.15 4.99.31 7.48.47 6.21.24 6.21.24 9.33-.37 1.53-3.5 1.53-3.5 1-7-3.44-.12-3.44-.12-7 0-.75-2.5-.75-2.5 0-5 2.5-.12 2.5-.12 5 0v-3h5v-3h-3v-2h-2v-3h2v-2h3v-3h2Z"/><path fill="#b96a1b" d="M52 237c4.05-1.11 7.9-.85 12 0v2h-3v3c2.44.5 2.44.5 5 0 .69-2.5.69-2.5 1-5h2v2h2v3h2v-3c4.12-1.12 7.94-1.37 12 0 1.31 4.07.97 7.87 0 12h-2c.03.41.03.41.2 2.47-.06.83-.13 1.67-.2 2.53-2.2.6-2.2.6-5.25.56-.54 0-.54 0-3.28-.02-1.15-.04-2.29-.07-3.47-.1-1.14-.01-2.29-.01-3.47-.02-6.17-.09-6.17-.09-8.53-.42v-2c-.83.1-1.65.21-2.5.31-.83-.1-1.65-.2-2.5-.31-.19-3.5-.19-3.5 0-7h-2c-.98-3.48-1.32-6.6 0-10"/><path fill="#4d7514" d="M147 213h2c-.09 1.14-.19 2.28-.29 3.46.05.59.05.59.29 3.54 2.75.76 2.75.76 6.56.61.67-.01 1.33-.03 2.02-.04 2.14-.05 4.28-.15 6.42-.26 2.14-.07 4.28-.14 6.42-.2 1.94-.06 3.88-.14 5.83-.23.9.04 1.81.08 2.75.12v2h3v-2h2l-.06-3.5.06-3.5h3c-.16 1.16-.33 2.31-.5 3.5.08.58.08.58.5 3.5 2.96.48 5.61.3 8.59.05.8-.02 1.59-.03 2.41-.05v2h2v3h-5v3c-1.71.3-1.71.3-4.13.2l-2.73-.09c-.99-.04-1.97-.09-2.98-.13-2.05-.06-4.11-.11-6.16-.16-3.26-.09-6.51-.2-9.77-.33-3.13-.13-6.26-.2-9.39-.26-.98-.06-1.96-.12-2.98-.17-4.65-.06-4.65-.06-6.86.94-.62 2.51-.44 4.44-.06 7l.06 2c-2.94.62-2.94.62-6 0-2.07-2.07-1.28-6.22-1.31-9.06l-.09-2.3c-.03-2.18-.03-2.18.4-5.64h4c.12-3.5.12-3.5 0-7"/><path fill="#e6cdb7" d="M28 299c2.22-.52 2.22-.52 5.13-.53 1.03-.01 2.07-.01 3.13-.02 1.09.02 2.18.03 3.3.05.55-.01.55-.01 3.31-.05 1.04.01 2.07.01 3.13.02.96 0 1.92.01 2.9.01.7.17 1.39.34 2.1.52v4h3v2h-2v2h-5v2h-3v3h3v2l3.5-.06 3.5.06v3c-2.94.34-5.66.47-8.6.47-.44 0-.44 0-2.64.02-1.84.01-3.69.02-5.53.01-2.85 0-5.7.04-8.54.09h-5.35c-.87.02-1.73.04-2.62.05-2.37-.02-2.37-.02-5.72-.64.49-3.27 2.17-5.26 4-8h2l1-3h2l1-3h2c.1-.65.2-1.3.3-1.97.23-.67.46-1.34.7-2.03"/><path fill="#beae9f" d="M71 268c3.5-.38 3.5-.38 7 0v3h-2c-.12 1.97-.12 1.97 0 4.5s.12 2.53 0 4.5h-2c-.34 2.19-.34 2.19-.5 5s-.16 2.81-.5 5h-2v2c5.37.77 5.37.77 8 0 .81-3.5.81-3.5 1-7h3c.31 3.5.31 3.5 0 7h-2c-.25 2.5-.25 2.5 0 5h2v-3h2c.25 3 .25 3 0 6h-2v2h-2v3h-3v2c-3.5.25-3.5.25-7 0v-2h-3v-3h-2v-2h-2v-6h-2c-.27-3.06-.27-3.06-.25-7-.01-1.3-.01-2.6-.02-3.94.09-1.01.18-2.02.27-3.06h2v-5h2v-2h2v-2h3Z"/><path fill="#eef4fc" d="M1 53c2.53-.43 2.53-.43 5 0v2h4v3h3c.04 2.33.04 4.67 0 7h2v2h3v-3c3-.38 3-.38 6 0v3h2l-.06 2.5L26 72h3v-2c2.5-.31 2.5-.31 5 0v3h3v3h2v3c-3.08.31-5.92.42-9 .38-.43 0-.43 0-2.6.03-2.46-.01-2.46-.01-6.4-.41v-3h-3v-3c-2.5-.56-2.5-.56-5 0 .1.99.21 1.98.31 3-.05.5-.05.5-.31 3-3.36.82-6.66.92-10 0v-4H1C.45 71.37.58 67.67.56 64c-.01-.52-.01-.52-.1-3.18 0-.99-.01-1.98-.02-3.01-.01-.92-.03-1.84-.04-2.79.2-.67.4-1.33.6-2.02"/><path fill="#f8ad1d" d="M118 204c2.19-.27 2.19-.27 5-.25.93-.01 1.86-.01 2.81-.02.36.05.36.05 2.19.27v2h5v2h4v2h3v3h2c.32 4.3.43 6.35-2 10h-2v2c-2.5.25-2.5.25-5 0v-2h2c.25-2.5.25-2.5 0-5h-2v-3h-3v3h-2l.06 2.5-.06 2.5h-3v2c-2.19.27-2.19.27-5 .25-.93.01-1.86.01-2.81.02q-1.08-.135-2.19-.27v-2h-2v-3h-3c-.36-2.19-.36-2.19-.31-5 0-.93.01-1.86.01-2.81q.15-1.08.3-2.19h2v-2h2v-2h4Z"/><path fill="#978d83" d="M200 220l3 1c1.78 4.99 1.6 11.14.16 16.18C202 239 202 239 200 239.99c-7.09 1.48-14.39.72-21.56.26-2.26-.07-4.52-.14-6.78-.2-4.12-.13-8.24-.28-12.36-.54l-2.52-.15L155 239v-2h-3c-.84-3.48-.84-3.48 0-7 3.44-1.02 6.95-.56 10.5-.33 2.19.07 4.37.14 6.56.2 3.48.15 6.96.32 10.43.5 3.34.16 6.67.26 10.01.36.52.04.52.04 3.18.22 4.98.12 4.98.12 7.32-.95.66-2.83.48-5.06.08-7.94-.03-.68-.05-1.36-.08-2.06"/><path fill="#2a763b" d="M1 182h2l-.06 2.5L3 187h3l-.06 2.5L6 192h4v-3h3v-2c2.19-.27 2.19-.27 5-.25.93-.01 1.86-.01 2.81-.02.36.05.36.05 2.19.27v2l2.5-.06 2.5.06v3h-3v2h-2v3h3v-2h4v2h-2c.12.82.25 1.65.38 2.5-.13.82-.25 1.65-.38 2.5-2.69.61-5.31.57-8 0v-2h-2v-3h-3v-2h-2v2h-3v3H8v2H6c-.25 2.44-.25 2.44 0 5l2 1v-3c3.5-.38 3.5-.38 7 0v3c1.67.04 3.33.04 5 0v2h3v3c-1.75.4-1.75.4-4 .38-.74 0-1.48.01-2.25.02-.58-.13-1.15-.26-1.75-.4v-3h-2v3c-4.2 1.36-7.87 1.62-12 0-1.78-5.07-1.2-10.22-.88-15.5.05-1.49.09-2.99.12-4.48.23-7.39.23-7.39.76-11.02"/><path fill="#875016" d="M69 225c1.97-.27 1.97-.27 4.5-.25.84-.01 1.67-.01 2.53-.02.65.09 1.3.18 1.97.27v2c2.5.25 2.5.25 5 0v-2c1.75-.27 1.75-.27 4-.25.74-.01 1.48-.01 2.25-.02.58.09 1.16.18 1.75.27v2h4v-2h3c.38 3.5.38 3.5 0 7h-3v2c-2.32 1.16-3.56 1.04-6.12.94L85 235v2c-3.5.25-3.5.25-7 0v-2c-2.66-.15-2.66-.15-6.34-.02l-3.97.09c-2.1.05-4.2.12-6.3.2-2.01.07-4.03.11-6.05.15l-3.68.12c-.88-.18-1.75-.36-2.66-.54-.62-2.52-.62-2.52 0-5 3.5-.12 3.5-.12 7 0v-3c2.84-.22 2.84-.22 6.5-.06 2.16.09 4.33.13 6.5.06Z"/><path fill="#8f877f" d="M1 220c3.5-.69 3.5-.69 7 0-.34 2.25-.34 2.25-.99 5.04-.1 2.75-.1 2.75.99 4.96 6.42 1.2 12.89.52 19.38.06 3.63-.25 7.26-.43 10.89-.59.85-.08 1.69-.15 2.56-.23 2.36-.1 2.36-.1 6.17.76 1.94 2.96 2.71 5.5 2 9-3.48 1.22-5.6 1.47-9.21 1.51-.48.02-.48.02-2.9.09-2.04.05-4.07.07-6.11.07-3.14.02-6.26.18-9.4.35-11.5.29-11.5.29-15.38-2.02-2.07-4.53-1.03-9.38-.27-14.12.09-1.28.18-2.56.27-3.88-2.44-.49-2.44-.49-5 0Z"/><path fill="#392c1f" d="M96 235h2c.02 3.14-.2 6.24-.42 9.38.14.86.28 1.73.42 2.62 2.47.15 2.47.15 5 0 .62 3.56.62 3.56 0 7-.85-.19-1.69-.37-2.56-.56-.81-.15-1.61-.29-2.44-.44-.22 2.89.33 5.14 1 8 .36-1.66.69-3.33 1-5h2c-.02 1.98-.08 3.96-.16 5.95.22 3.32.22 3.32 1.16 6.05 4.12 1.74 8.18 1.21 12.56.88l3.6-.12c6.09-.26 6.09-.26 8.84-.76v-2h2c.1-2.53.09-4.97 0-7.5s-.1-4.97 0-7.5h2v-2h3v-3h3l1-2v3l-2 1-1 3h-3c-.36 2.19-.36 2.19-.31 5 0 .46 0 .46.01 2.81l.3 2.19h2c-.49 1.75-.49 1.75-1.31 4-.64 2.23-.64 2.23-.69 4 3.38.38 3.38.38 7 0v2c-3.24.12-6.43.04-9.67-.08-1.78-.04-3.55.01-5.33.08v2h-5v2c-3.14.11-6.24-.07-9.38-.22-.86.07-1.73.14-2.62.22v3h-2c-.06-.57-.06-.57-.38-3.44-.2-1.17-.41-2.35-.62-3.56-2-.69-2-.69-4-1-.62-2.06-.62-2.06-1-4h-2c-.33-1.67-.67-3.33-1-5h-2a96 96 0 0 1-.19-7.94l.03-2.35c.08-5.29.21-10.49 1.16-15.71"/><path fill="#29587b" d="M195 225c2.5-.5 2.5-.5 5 0 .43 2.5.43 2.5 0 5-1.82.55-1.82.55-4.41.46-.48-.01-.48-.01-2.91-.07-.52-.03-.52-.03-3.18-.15-2.19-.05-4.37-.09-6.56-.14-3.48-.11-6.96-.23-10.43-.35-3.34-.12-6.67-.19-10.01-.26l-3.18-.15c-4.94-.09-4.94-.09-7.32.66-.84 3.53-.84 3.53 0 7h3v2h2c.25 2.5.25 2.5 0 5h-2v2h-3v3h3v2h2v5h2c.27 2.19.27 2.19.25 5 .01.93.01 1.86.02 2.81q-.135 1.08-.27 2.19h-2c-.66-2.58-1.03-5.18-1.44-7.81-.18-.72-.37-1.45-.56-2.19h-2v-2h-2v-2h-4v-3c-3.44-.31-3.44-.31-7 0l-1 2c-.25-6.5-.25-6.5 1-9h3c-.08-1.01-.16-2.02-.25-3.06.08-.97.16-1.94.25-2.94.58.11.58.11 3.5.69.58.05.58.05 3.5.31.04-1.91.04-1.91-.31-4.43-.09-2.5-.09-2.5.31-4.57 3.29-.92 5.17-1.02 8.5-.81.43.01.43.01 2.61.05 2.78.07 5.55.19 8.33.32 2.77.09 5.54.17 8.31.25 1.73.04 3.46.11 5.19.19 2.02.07 4.04.05 6.06 0l1-2v2c2.5.31 2.5.31 5 0Z"/><path fill="#f2a51a" d="M48 201c1.75-.27 1.75-.27 4-.25.74-.01 1.48-.01 2.25-.02.58.09 1.16.18 1.75.27v2l2.5-.06 2.5.06v3h3v2h2c.25 2.5.25 2.5 0 5h-2v-3c-1.75-.36-1.75-.36-4-.31-.37 0-.37 0-2.25.01-.58.1-1.16.2-1.75.3v2h-2c-.57 2.69-.61 5.31 0 8 2.5.31 2.5.31 5 0v3c-2.55.33-2.55.33-5.88.25-1.09-.02-2.18-.03-3.3-.05C47 223 47 223 45 222v-2h-3v-2h-2c-.27-2.19-.27-2.19-.25-5-.01-.93-.01-1.86-.02-2.81q.135-1.08.27-2.19h2v-2h2v-3h4Z"/><path fill="#fa9c0e" d="M47 189h3v2h2v3h4v2h3v3c1.67.04 3.33.04 5 0v2c2.32.26 4.66.41 7 .5s4.68.24 7 .5v2c2.59.16 5.07.18 7.66.12.77 0 1.55-.01 2.35-.02 2.5-.02 4.99-.06 7.49-.1q4.92-.075 9.84-.12l2.32-.06c1.78-.01 3.56.07 5.34.18v2h-2v2h-2v2c-2.39.26-2.39.26-5.69.27h-3.55c-1.24 0-2.48-.01-3.76-.02-1.24.01-2.48.02-3.76.02h-3.55c-1.09-.01-2.18-.01-3.3-.01-.4-.04-.4-.04-2.39-.26v-2c-2.62-.12-2.62-.12-6 0s-3.38.12-6 0v-2l-2.5.06L66 206v-3c-1.67-.04-3.33-.04-5 0v-2h-4v-2l-3.5.06L50 199v-3h-3c-.75-2.94-.75-2.94-1-6Z"/><path fill="#1e418a" d="M42 89c1.75-.3 1.75-.3 4-.31.74-.02 1.48-.04 2.25-.05.58.12 1.16.24 1.75.36v3c-2.33.04-4.67.04-7 0v2h2v3h2v2c.41-.03.41-.03 2.5-.19.41.03.41.03 2.5.19.44 2.5.44 2.5 0 5h-2c-.25 3.5-.25 3.5 0 7h2v-2h4c.04-1.67.04-3.33 0-5h3v-2h4v2h3v2l2-1c.12-2.07.12-2.07 0-4.56-.12-2.51-.12-2.51 0-4.44h2v-2c3-.31 3-.31 6 0v3h-3c-.31 3.5-.31 3.5 0 7h2c.27 1.75.27 1.75.25 4 0 .37 0 .37.02 2.25-.09.58-.18 1.16-.27 1.75h-2v2c-2.5.25-2.5.25-5 0v-2h-4v-3c-2.5-.38-2.5-.38-5 0v3h-3v2c-3.5.81-3.5.81-7 1v-3h-2c-.35-7.29-.35-7.29 1-10h-3v-3h-2v-2h-3c-.31-3-.31-3 0-6h2Z"/><path fill="#d6bda9" d="M21 264c2.73-.21 5.36-.28 8.09-.27h2.49c1.74 0 3.49 0 5.23.01 2.68.01 5.36 0 8.04-.01h5.06c.81 0 1.61 0 2.45-.01 1.88.02 3.76.14 5.64.28v2h-2v2c-2.01 2.73-3.64 4.7-7.06 5.46-2.51.17-4.98.18-7.5.13h-2.76c-1.91 0-3.83-.02-5.74-.05-2.96-.04-5.91-.04-8.87-.03-1.86-.01-3.71-.03-5.57-.04h-2.72c-2.44-.05-2.44-.05-5.78-.47 2.41-3.04 5.73-4.98 9-7h2Z"/><path fill="#a89b8f" d="M140 256c3.5-.31 3.5-.31 7 0v2h2c2.91 6.11 3.44 11.3 3.31 18 0 .44 0 .44.01 2.64-.02 2.12-.16 4.24-.32 6.36h-2v5h-2v2h-3v2c-3.5.25-3.5.25-7 0v-2h-2v-2h-2v-3h4v-2h4v-2h3v-3h2c.27-1.97.27-1.97.25-4.5.01-.84.01-1.67.02-2.53-.09-.65-.18-1.3-.27-1.97h-2v-3h-3v-2h-2v-5h-2v-2h2Z"/><path fill="#ceb6a3" d="M177 299c7.95-1.71 18.22-2.65 26 0 2.8 3.53 2.47 7.24 2.08 11.55-.44 2.37-.97 4.3-2.08 6.45-3.12 1.73-4.8 1.45-8.29.89-3.19-1.05-4.92-2-6.71-4.89v-2h-2c-3-3.46-3-3.46-3-6h-2c-2.12-1.88-2.12-1.88-4-4Z"/><path fill="#999792" d="M199 125h2c.2 1.74.2 1.74.12 4.16-.01.85-.03 1.71-.04 2.59-.05 1.83-.11 3.67-.16 5.5-.01.85-.03 1.71-.04 2.59-.02.4-.02.4-.08 2.42.04.28.04.28.2 1.74h2c.23 2.8.33 5.51.34 8.31 0 .85.01 1.69.02 2.56.01 1.79.01 3.58.01 5.37 0 2.75.04 5.5.08 8.25.01 1.73.01 3.47.01 5.2.02.83.03 1.66.04 2.52-.01 2.3-.01 2.3-.5 5.79h-4v2h-4v3h-2c-.26-2.53-.37-4.9-.38-7.44-.02-.7-.04-1.41-.07-2.14-.01-2.04-.01-2.04.45-5.42 1.97-.81 1.97-.81 4-1 .88-2.56.88-2.56 1-5h-2v-3h2c-.12-3-.12-3-1-6h-4v-2c.82-.12 1.65-.25 2.5-.38.82-.2 1.65-.41 2.5-.62v-4h-2v2h-3v-3c.49.02.49.02 2.97.14 1-.05 2-.09 3.03-.14.65-2.2.65-2.2.52-5.25l-.09-3.28c-.06-1.15-.12-2.29-.18-3.47-.09-2.25-.16-4.5-.23-6.75-.05-1.01-.1-2.01-.15-3.05.02-.36.02-.36.13-2.2"/><path fill="#347db3" d="M136 249h2c-.25 2.5-.25 2.5-1 5h-2c.12 1.94.12 1.94 1 4 2.19.75 2.19.75 4 1h-2v2h2v5h2v2h3c.43 2.19.43 2.19.44 5l.06 2.81c-.17.72-.33 1.45-.5 2.19h-4v-3h-4v2c-2.55.85-2.55.85-5.88 1.62-.54.14-.54.14-3.3.79-2.82.59-2.82.59-4.82.59-.17.5-.17.5-1 3h-2c-3-4.38-3-4.38-3-7h3v-3c1.67-.04 3.33-.04 5 0v-2c3.24-.12 6.43-.04 9.67.08 1.78.04 3.55-.01 5.33-.08v-2c-1.18.08-2.35.17-3.56.25-1.14-.08-2.27-.17-3.44-.25 0-3.11.61-5.23 2-8h-2c-.3-2.19-.3-2.19-.31-5-.01-.46-.01-.46-.05-2.81L133 251h3Z"/><path fill="#66717a" d="M183 96c1.16 3.48 1.13 6.21 1.13 9.88v2.11c.01 2.31.01 4.61 0 6.92 0 1.61 0 3.22.01 4.83 0 3.37 0 6.75-.01 10.13-.01 4.3 0 8.61 0 12.91.01 3.33.01 6.65 0 9.98 0 1.58 0 3.17.01 4.76.01 13.93.01 13.93-.77 20.53L183 182h2v7h2c-.02-1.77-.02-1.77-.38-4.25-.92-7.76-1.53-16.1.38-23.75h1c.32 4.41.36 8.83.41 13.24.02 1.51.05 3.01.1 4.52.06 2.15.09 4.3.11 6.46.03 1.3.05 2.6.08 3.93-.23.94-.46 1.88-.7 2.85-3.01.69-3.01.69-6 0-.59-2.97-.68-5.18-.55-8.17l.03-2.63c.03-1.89.08-3.79.13-5.68.09-2.99.13-5.98.17-8.97.11-8.51.3-17.02.49-25.53.12-5.19.2-10.38.26-15.58.04-2.96.13-5.91.22-8.87q.045-2.7.06-5.4l.12-2.52c-.01-2.27-.01-2.27-.93-5.65-2.75-.92-5.24-.88-8 0l-1 3c.05-2.96.11-5.21 1-8 3.22-1.68 5.38-2 9-2"/><path fill="#bbdbfb" d="M132 39c1.75-.4 1.75-.4 4-.38.37 0 .37 0 2.25-.02.58.13 1.16.26 1.75.4v3h2c-.03.4-.03.4-.19 2.44.06.84.13 1.69.19 2.56 2.5.69 2.5.69 5 1v2l-2.5-.06-2.5.06v3c-1.97.22-1.97.22-4.5.06-2.53-.15-2.53-.15-4.5-.06v2c-3.5.25-3.5.25-7 0v-2h-6v-2l-2.5.06L115 51c0-3 0-3 2.19-5.19 2.96-1.91 4.36-2.5 7.81-1.81v3c2.5.5 2.5.5 5 0 .19-2.5.19-2.5 0-5h2Z"/><path fill="#2a2829" d="M83 79c2.84-.27 2.84-.27 6.5-.25.6 0 .6 0 3.66-.02.93.09 1.87.18 2.84.27v2h4v3h3v3h2v2h3c.04 2.33.04 4.67 0 7h2c-.02 3.4-.27 6.76-.52 10.16.17.93.34 1.87.52 2.84 3.02.28 3.02.28 6 0v2h8v2c2.13-.16 4.16-.59 6.25-1H132v3l3 1v3c-2.5.38-2.5.38-5 0v-3q-3-.06-6 0v-2c-2.36-.11-4.67.07-7.03.22-.65-.07-1.3-.14-1.97-.22v-3c-2.29-.31-2.29-.31-5.47-.22-1.13.02-2.25.03-3.42.05-1.19.04-2.38.07-3.61.11-2.34.06-4.69.11-7.03.15-.52.01-.52.01-3.18.09-.75-.06-1.51-.12-2.29-.18v-2c2.14.12 4.27.25 6.4.43 8.16.61 8.16.61 11.6-.43 1.67-3.41 1.35-5.63.93-9.38-.31-.86-.62-1.73-.93-2.62h-3q-.06-3 0-6h-2v-2h-2v-2h-3v-3h-4v-2c-2.19-.27-2.19-.27-5-.25-.93-.01-1.86-.01-2.81-.02-.36.05-.36.05-2.19.27v2c-3 .31-3 .31-6 0v-3c1.67-.04 3.33-.04 5 0Z"/><path fill="#1a6543" d="M25 192c2.94-.44 2.94-.44 6 0 .69 2.5.69 2.5 1 5h3v3h2v2h3v3h-5v3h-3v-3c-2.62-.36-2.62-.36-6-.31-1.11 0-2.23.01-3.38.01L20 205v2h3v3h-3v-2l-2.5.06L15 208v-3c-3.5-.38-3.5-.38-7 0v3c-2.69.25-2.69.25-5 0l3-1c.04-1.67.04-3.33 0-5h2v-2h2v-3h3v-2h2v2h3v3h2v2c2.69.57 5.31.61 8 0 .38-2.5.38-2.5 0-5h2v-2h-4v2h-3v-3h2Z"/><path fill="#383e2c" d="M56 210c1.75-.3 1.75-.3 4-.31.74-.02 1.48-.04 2.25-.05.58.12 1.16.24 1.75.36v3c-.68.16-1.36.33-2.06.5-.64.16-1.28.33-1.94.5l1 3h3c.04 1.67.04 3.33 0 5h2v3h2v-2c4.14-.52 8.33-.37 12.5-.38 1.19-.02 2.38-.04 3.61-.07 1.13 0 2.26-.01 3.42-.01.52-.01.52-.01 3.18-.03.75.16 1.51.32 2.29.49v4h-2v-2c-1.75-.27-1.75-.27-4-.25-.74-.01-1.48-.01-2.25-.02-.58.09-1.16.18-1.75.27v2c-2.5.25-2.5.25-5 0v-2c-1.97-.27-1.97-.27-4.5-.25-.84-.01-1.67-.01-2.53-.02-.65.09-1.3.18-1.97.27v2c-3.4.11-6.76-.07-10.16-.22-.93.07-1.87.14-2.84.22v3c-3.38.62-3.38.62-7 0-2.21-2.6-2.19-3.44-2-7 3.19-.45 6.1-.23 9.3.05.89-.02 1.78-.03 2.7-.05v-3c-.83.1-1.65.21-2.5.31L54 220c-.61-2.69-.57-5.31 0-8h2Z"/><path fill="#b9a18f" d="M52 305h2v2h2v2h2v3h3v2l2.5-.06 2.5.06v3h3c.14 1.75.14 1.75-.19 4-.09.74-.19 1.49-.29 2.25-.17.58-.34 1.15-.52 1.75h-2v8h-2c-.27-1.97-.27-1.97-.25-4.5 0-.42 0-.42-.02-2.53.09-.65.18-1.3.27-1.97h2c.39-2.47.39-2.47 0-5-1.73-.59-1.73-.59-4.19-.54-.92.01-1.83.02-2.77.02-1 .04-2 .07-3.03.1-1.02.01-2.03.03-3.08.04-3.27.04-6.54.11-9.81.19-3.26.07-6.52.12-9.78.17-2.03.02-4.07.07-6.1.12-.46.01-.46.01-2.79.05l-2.46.06C20 319 20 319 18 317c2.59-.15 5.09-.15 7.68-.09l4.94.06q3.945.06 7.89.15c2.51.04 5.03.07 7.54.1.8.02 1.59.05 2.41.07 2.2.02 2.2.02 5.54-.29v-3c-2.33-.04-4.67-.04-7 0v-2h-3v-3h3v-2h5Z"/><path fill="#aa5f16" d="M52 237c4.05-1.11 7.9-.85 12 0v2h-3c.75 2.75.75 2.75 2 6 1.14 3.72 1.14 3.72 0 6h3v-2h3v2h4c-.3-1.34-.64-2.67-1-4 .81-2.81.81-2.81 2-5l2 1c-.45 2.64-1.17 5.17-1.88 7.75L74 253c1.95.69 1.95.69 4 1v2c-1.74.26-1.74.26-4.16.27h-2.59c-.91 0-1.82-.01-2.75-.02-.45 0-.45 0-2.75.02h-2.59c-.8-.01-1.6-.01-2.42-.01-.57-.09-1.15-.17-1.74-.26v-2c-.83.1-1.65.21-2.5.31-.83-.1-1.65-.2-2.5-.31-.19-3.5-.19-3.5 0-7h-2c-.98-3.48-1.32-6.6 0-10"/><path fill="#9a8871" d="M60 213h4v2h2v3h2v2c4.47.5 9 .32 13.5.31 1.29.02 2.58.03 3.9.05h3.69c.57 0 .57 0 3.43.01.82-.12 1.64-.24 2.48-.37v-3l-2-1c3-1 3-1 6.69-.94L103 215v-2c2.5-.44 2.5-.44 5 0 .5 2.5.5 2.5 0 5h-3a108 108 0 0 0-1 5h-2v2h-7v2h-2v-4c-2.29-.49-2.29-.49-5.47-.46-.56 0-.56 0-3.42.01-1.19.03-2.38.05-3.61.07-1.19.01-2.38.01-3.61.01-6.49.07-6.49.07-8.89.37v2h-2v-3h-2l.06-2.5L64 217h-3v-2l-2-1Z"/><path fill="#f8990c" d="M162 167h2c.21 2.87.28 5.63.25 8.5 0 .41 0 .41.02 2.46 0 2.01-.13 4.03-.27 6.04h-2v5h-2c-.16.82-.33 1.65-.5 2.5-.16.82-.33 1.65-.5 2.5h-2v2h-3v3h-4v2h-3v2c-4 1.41-7.74 2.52-12 2v-2h-6v-2h8v-2l2.5.06 2.5-.06v-3c1.67-.04 3.33-.04 5 0v-2h4v-2h3v-3h3c.04-1.67.04-3.33 0-5h2c.16-.82.33-1.65.5-2.5.16-.82.33-1.65.5-2.5h2c.12-2.62.12-2.62 0-6s-.12-3.38 0-6"/><path fill="#d0b8a4" d="M123 309c1.93-.57 1.93-.57 4.44-.69.41-.03.41-.03 2.49-.2 2.07.89 2.07.89 2.83 2.7.5 2.29.81 3.9.24 6.19-3.1 1.36-6.41.99-9.75.89-1-.01-2-.01-3.03-.02-2.12-.01-4.25-.05-6.37-.1-3.27-.08-6.54-.1-9.81-.12-2.05-.02-4.11-.05-6.16-.08-.99-.01-1.98-.02-2.99-.02-.91-.03-1.81-.06-2.74-.08l-2.43-.06c-.57-.13-1.14-.27-1.72-.41v-3c2.62-.22 2.62-.22 6-.06 3.38.15 3.38.15 6 .06v-2c2.11-.18 2.11-.18 5.03-.09l3.15.06c2.21.06 4.43.13 6.64.2.52.01.52.01 3.15.05.48.02.48.02 2.92.09.7-.1 1.39-.2 2.11-.31Z"/><path fill="#e5d1b9" d="M188 106h2c.28 1.65.28 1.65.32 4l.06 2.65c0 .49 0 .49.03 2.92l.06 2.99c.06 3.19.11 6.38.15 9.56l.12 6.3c.18 9.66.31 19.31.22 28.97.04 2.82.39 5.54.8 8.32.36 3.43.48 6.85.55 10.29.02.34.02.34.09 2.07.03 1.93.03 1.93-.4 4.93h-4c-.42-2.67-.52-4.94-.49-7.62 0-.81 0-1.62-.01-2.45 0-2.7.02-5.39.04-8.09v-5.58c0-3.91.02-7.81.05-11.72.03-5.03.04-10.05.04-15.07 0-3.85.01-7.69.02-11.54.01-1.85.01-3.71.02-5.56 0-2.58.02-5.17.04-7.75v-2.35c.02-1.76.14-3.52.29-5.27"/><path fill="#748e93" d="M198 70h3v3h2c.34 2.56.51 4.93.56 7.5.03.36.03.36.15 2.17.04 2.05.04 2.05-.71 5.33-3.54.59-3.54.59-7 0v-2h-6v-2c-2.11.02-4.16.27-6.25.52-.29-.09-.29-.09-1.75-.52-.71-3-.71-3 0-6 2.75-.44 4.71-.48 7.44-.25 2.53.16 5.02.24 7.56.25l1-2-2.44.06L193 76v-3h5Z"/><path fill="#a65247" d="M185 96h1c.09 1.93.1 3.86.08 5.78 0 1.26-.01 2.53-.02 3.83 0 .68-.01 1.36-.02 2.06l-.03 6.35c-.03 6.02-.06 12.04-.11 18.06-.02 3.68-.04 7.36-.05 11.03l-.03 4.22c-.02 1.96-.03 3.93-.03 5.89 0 .56 0 .56-.02 3.39.07.79.15 1.58.23 2.39h2c-.21 1.84-.44 3.67-.71 5.5-.65 5.65-.28 11.39-.16 17.07l.03 2.9c.02.87.03 1.74.05 2.64q-.105.93-.21 1.89h-2v-7h-2c-.17-2.31-.2-4.51-.15-6.82.01-.72.01-1.45.02-2.2.03-2.42.07-4.83.12-7.25.02-1.68.04-3.36.07-5.04.05-3.54.1-7.08.16-10.61.08-4.51.14-9.02.2-13.53.05-3.48.1-6.96.16-10.44.02-1.66.04-3.32.07-4.98.25-17.14.25-17.14 1.35-25.13"/><path fill="#dccfbe" d="M173 68h4c.34 2.73.42 5.03.31 7.75l-.03 2.27A76 76 0 0 1 177 83c-.08-.51-.15-1.02-.23-1.54-.26-.81-.51-1.62-.77-2.46-3.13-.58-6.04-.14-9 1-.69 3.06-.69 3.06 0 6h2v-2c3.06-.38 3.06-.38 6 0 .12.66.25 1.32.38 2-.46.66-.91 1.32-1.38 2-1.87.2-1.87.2-4.06.12L166 88v2h-3v2c-2.5.81-2.5.81-5 1v-3h2v-2h3v-2h3c.5-2.5.5-2.5 0-5-2.5-.44-2.5-.44-5 0v2h-3v-2h2v-2h3v-3h3v-3h3v-3h4Z"/><path fill="#62879e" d="M83 261h2c.38 2.96.38 2.96.56 6.81.35 6.91.35 6.91 1.44 10.19.17 2.74.28 5.44.31 8.19l.09 2.27c.03 2.15.03 2.15-.4 5.54h-4v3h-2c-.25-2.5-.25-2.5 0-5h2c.44-3.5.44-3.5 0-7-2.5-.62-2.5-.62-5 0v3h-2c-.25-2.5-.25-2.5 0-5h2v-8h2c.04-2.33.04-4.67 0-7l1-2h2Z"/><path fill="#c1a894" d="M96 273h2v2h2c.15 3.4-.01 6.76-.12 10.16L100 288h2v2h6v2c2.63.27 2.63.27 6 .25 1.11.01 2.23.01 3.38.02.86-.09 1.73-.18 2.62-.27v-2h4c1.13 2.47 1.13 2.47 1 5-2.46.54-2.46.54-6.03.42-1.26-.03-2.53-.05-3.84-.08l-4.07-.15c-2.63-.08-5.27-.15-7.9-.21-1.18-.04-2.36-.08-3.57-.13L97 295v2c-2.12-.38-2.12-.38-4-1h2c.12-1.97.12-1.97 0-4.5s-.12-2.53 0-4.5h2c-.07-2.34-.26-4.67-.5-7s-.43-4.66-.5-7"/><path fill="#b86a1d" d="M49 230c3.5-.44 3.5-.44 7 0v2c2.48.2 2.48.2 5.91.12.61 0 .61 0 3.69-.04 1.29-.03 2.57-.05 3.9-.08q3.795-.075 7.59-.12c.57-.02.57-.02 3.43-.08.41.04.41.04 2.48.2v2h2v-2h7v-2c3-.25 3-.25 6 0v2h-3v2c-2.32 1.16-3.56 1.04-6.12.94L85 235v2c-3.5.25-3.5.25-7 0v-2c-2.66-.15-2.66-.15-6.34-.02l-3.97.09c-2.1.05-4.2.12-6.3.2-2.01.07-4.03.11-6.05.15l-3.68.12c-.88-.18-1.75-.36-2.66-.54-.62-2.5-.62-2.5 0-5"/><path fill="#f0940d" d="M69 210c2.41-.89 2.41-.89 5.5-.69l3.09.12c.8.19 1.59.37 2.41.57v3c1.84.31 1.84.31 4.38.22.45-.01.45-.01 2.73-.05.95-.04 1.91-.07 2.89-.11 1.87-.06 3.75-.11 5.62-.15l2.54-.09 1.84.18v2c-1.65.7-3.32 1.37-5 2v1c-4.32.44-8.66.47-13 .56-1.24.07-2.48.13-3.76.19-6.09.11-6.09.11-9.24-.75-1.29-2.31-1.22-3.6-.8-6.19.26-.6.53-1.19.8-1.81"/><path fill="#d09823" d="M33 136c2.41-.47 2.41-.47 5.5-.5l3.09-.09c.8.19 1.59.39 2.41.59.09 2.53.09 2.53 0 5h4c.13 2.5.13 2.5-1 5-2.72.31-2.72.31-6.06 0-3.35-.31-3.35-.31-5.94 0-.18 2.5-.18 2.5 0 5h-3c-.04-1.67-.04-3.33 0-5h-2c-.31-3.5-.31-3.5 0-7h3Z"/><path fill="#1b4f25" d="M195 225c2.5-.5 2.5-.5 5 0 .43 2.5.43 2.5 0 5-1.82.55-1.82.55-4.41.46-.48-.01-.48-.01-2.91-.07-.52-.03-.52-.03-3.18-.15-2.19-.05-4.37-.09-6.56-.14-3.48-.11-6.96-.23-10.43-.35-3.34-.12-6.67-.19-10.01-.26l-3.18-.15c-4.94-.09-4.94-.09-7.32.66-.84 3.53-.84 3.53 0 7h3v2c-2.62.11-5.19-.07-7.81-.22-.72.07-1.45.14-2.19.22v3h-2c-.56-3.06-.56-3.06 0-6 .58.11.58.11 3.5.69.58.05.58.05 3.5.31.04-1.91.04-1.91-.31-4.43-.09-2.5-.09-2.5.31-4.57 3.29-.92 5.17-1.02 8.5-.81.43.01.43.01 2.61.05 2.78.07 5.55.19 8.33.32 2.77.09 5.54.17 8.31.25 1.73.04 3.46.11 5.19.19 2.02.07 4.04.05 6.06 0l1-2v2c2.5.31 2.5.31 5 0Z"/><path fill="#fb9d0d" d="M175 145h1c.38 3.5.38 3.5 0 7-2.62.19-2.62.19-5 0 .69 1.81.69 1.81 2 4v3h-2v3h-2v2h-4c-.18-2.79-.2-5.24 0-8v-5l-2.06-1-1.94-1 1-3c2.69-.26 2.69-.26 6-.12q3 .105 6 .12Z"/><path fill="#e4ccb6" d="M181 264c3.62-.66 7.32-.6 11-.69 1.05-.06 2.1-.13 3.18-.2 5.14-.1 5.14-.1 7.82.89 1.38 3.17 1.16 5.77 0 9-2.41.95-2.41.95-5.5.69-1.02-.06-2.04-.12-3.09-.18-.8-.17-1.59-.34-2.41-.51v-2l-3-1-3-1v-2c-.82-.17-1.65-.33-2.5-.5-.82-.17-1.65-.33-2.5-.5Z"/><path fill="#1f3c73" d="M56 77c2.5-.25 2.5-.25 5 0v2h3c.04 1.67.04 3.33 0 5h2v2c3.5.25 3.5.25 7 0v-2c2.47-.44 2.47-.44 5 0 .56 2.19.56 2.19.44 5-.02.93-.05 1.86-.07 2.81-.12.72-.24 1.45-.37 2.19h-2c.03-.41.03-.41.19-2.49-.06-.83-.13-1.66-.19-2.51-2.19-.42-2.19-.42-5-.19-2.81.21-2.81.21-5 .19v-2c-1.16-.16-2.31-.33-3.5-.5-1.16-.16-2.31-.33-3.5-.5v-2c-2.5-.44-2.5-.44-5 0-.04 1.67-.04 3.33 0 5h-4v-2h2c.56-1.75.56-1.75 1-4s.44-2.25 1-4h2Z"/><path fill="#f7731d" d="M61 172c2.19-.57 2.19-.57 5-.56.93-.02 1.86-.05 2.81-.07.36.1.36.1 2.19.63.19 2.54.19 2.54 0 5h2v2h-2c.06.82.12 1.63.18 2.47-.06.84-.12 1.67-.18 2.53-2.12.56-2.12.56-4.88.44-.9-.02-1.8-.05-2.74-.07C61 184 61 184 59 182c-.25-3.12-.25-3.12 0-6h2Z"/><path fill="#e4ccb5" d="M1 257c2.77-.6 2.77-.6 6.6-.56.67 0 1.33.01 2.02.01 1.42.01 2.84.03 4.25.06 2.19.05 4.37.06 6.55.07 7.64.08 7.64.08 10.58.42l-1 2h-2v2c-4.93 1.64-10.02 1.31-15.19 1.38-1.13.03-2.26.07-3.43.11l-3.24.03-2.98.06c-.36-.09-.36-.09-2.16-.58-.73-2.5-.73-2.5 0-5"/><path fill="#78777b" d="M185 39h2c1.27 5.57.91 10.94.55 16.62.07.39.07.39.45 2.38 1.67.04 3.33.04 5 0 1.24 3.05 1.16 5.94 0 9-2.55 1.28-4.17 1.35-6.99 1.05-.66-.35-1.33-.69-2.01-1.05-1.17-3.95-.41-7.95 0-12 .07-1.45.13-2.91.19-4.36.06-1.46.12-2.93.19-4.39l.09-2.17c.1-1.7.3-3.39.53-5.08"/><path fill="#397fb2" d="M108 275c2.5-.44 2.5-.44 5 0v4l2-1v2h3v3h-3v3c.68.17 1.36.33 2.06.5.64.17 1.28.33 1.94.5l-1 3c-2.29.47-2.29.47-5.06.5l-2.79.09c-.71-.19-1.42-.39-2.15-.59-.18-2.53-.18-2.53 0-5h-2c-.25-3.5-.25-3.5 0-7h2Z"/><path fill="#211d16" d="M85 162h2l-.06 2.5.06 2.5h3v-5h3c.28 2.91.37 5.59.31 8.5.01.81.01 1.62.01 2.46-.02 2.01-.16 4.03-.32 6.04h-2v2h-4v-2h-2c-.21-2.87-.28-5.63-.25-8.5-.01-.81-.02-1.62-.02-2.46 0-2.01.13-4.03.27-6.04"/><path fill="#afa291" d="M152 230c3.14-1.18 6.24-.97 9.56-.88.46-.01.46-.01 2.77-.08 2.45.03 4.39.06 6.67.96.66 3.5.66 3.5-1 7-3 1.14-5.89.98-9.06.88-.86.02-1.71.05-2.59.08-2.35-.03-4.16-.08-6.35-.96-1.16-3.5-1.16-3.5 0-7"/><path fill="#358938" d="M167 195v2c-2.91 2.04-4.4 3-8 3v2c1.75-.31 1.75-.31 4-1s2.25-.69 4-1v2h-2v3h-3v3c-2.33.04-4.67.04-7 0v2c-3.06.44-3.06.44-6 0-.19-2.5-.19-2.5 1-5l2.56.06L155 205c.19-3 .19-3 0-6h2v-2c3.65-2.43 5.7-2.32 10-2"/><path fill="#9b8d85" d="M52 305h2v2h2v2h2v3h3v2l2.5-.06 2.5.06v3c-4.1.32-8.05.2-12-1v-2h-7v-2h-3v-3h3v-2h5Z"/><path fill="#cab098" d="M5 244c2.91-.28 2.91-.28 6.57-.14.66.02.66.02 3.96.13.68.04 1.36.07 2.07.1 2.09.1 4.18.17 6.28.23 7.54.3 7.54.3 10.12.68l-1 2h-2v2c3.83-.09 7.61-.39 11.43-.72.4-.03.4-.03 2.44-.19.37-.03.37-.03 2.25-.19C49 248 49 248 51 250h-5v2h-2v-2c-2.12-.12-2.12-.12-5.09.06-1.09.06-2.17.11-3.3.17-1.17.07-2.34.14-3.55.21-8.08.39-16.1.71-24.18.25-.71-.04-1.42-.07-2.15-.11-1.93-.13-1.93-.13-4.73-.58v-2c2.29-.2 2.29-.2 5.47-.12 1.13.01 2.25.03 3.42.04 1.2.03 1.2.03 7.22.16 1.13.01 2.26.03 3.42.04.52.02.52.02 3.18.08.75-.07 1.51-.13 2.29-.2v-2c-2.14-.09-2.14-.09-5.1.13-1.05.06-2.1.13-3.17.2-2.25.15-4.49.32-6.73.48-1.04.06-2.09.13-3.16.19-.98.07-1.95.14-2.96.22-.62-.07-1.24-.15-1.88-.22Z"/><path fill="#897f76" d="M71 268c3.52-.66 3.52-.66 7 0v3h-2c-.12 1.97-.12 1.97 0 4.5s.12 2.53 0 4.5h-2c-.34 2.19-.34 2.19-.5 5s-.16 2.81-.5 5h-2l-1 2v-2h-4c-.38-2.5-.38-2.5 0-5h2v-2h3c.05-3.27-.14-6.42-.47-9.67-.11-2.05-.11-2.05.47-5.33"/><path fill="#717476" d="M174 90c2.81-.26 5.38-.32 8.19-.25.38 0 .38 0 2.33.02 7.88.1 7.88.1 11.48 1.23v2h5v2c-1.75.27-1.75.27-4 .25-.37 0-.37 0-2.25.02-.58-.09-1.16-.18-1.75-.27v-2c-2.71-.21-5.29-.28-8-.25-.38 0-.38 0-2.31-.02-1.9 0-3.8.13-5.69.27v2c-1.67.33-3.33.67-5 1v2h-3v3h-3c-.38-3-.38-3 0-6h3v-2l2.5.06L174 93Z"/><path fill="#b9b1a7" d="M60 213h4v2h2v3h2v2c2.51.21 2.51.21 5.98.16l3.72-.03c1.29-.02 2.59-.05 3.92-.07l7.67-.09c1.14-.02 2.28-.03 3.46-.05.74.03 1.48.05 2.25.08l-2 1v2c-2.29.2-2.29.2-5.47.12-1.13-.01-2.25-.03-3.42-.04-2.41-.05-4.81-.11-7.22-.16-1.13-.01-2.26-.03-3.42-.04-.52-.02-.52-.02-3.18-.08-.75.07-1.51.13-2.29.2v2h-2v-3h-2l.06-2.5L64 217h-3v-2l-2-1Z"/><path fill="#decebb" d="M180 70c2.47-.62 2.47-.62 5 0v3h8v3h5l-1 3c-3.3-.13-6.46-.51-9.72-1.03-2.03-.23-2.03-.23-5.28.03-.71 2.96-.71 2.96 0 6 1.75.52 1.75.52 4 .25 2.25-.23 2.25-.23 4-.25v2c-2.84.27-2.84.27-6.5.25-.6 0-.6 0-3.66.02-.93-.09-1.87-.18-2.84-.27v-2h4c0-3.72-.6-7.26-1.13-10.94.04-1.01.09-2.02.13-3.06"/><path fill="#7d8082" d="M199 125h2c.2 1.74.2 1.74.12 4.16-.01.85-.03 1.71-.04 2.59-.05 1.83-.11 3.67-.16 5.5-.01.85-.03 1.71-.04 2.59-.02.4-.02.4-.08 2.42.04.28.04.28.2 1.74h2c.21 2.71.28 5.29.25 8 .01.76.02 1.53.02 2.31 0 1.9-.13 3.8-.27 5.69h-2v-4c-2.88.25-2.88.25-6 1h-2v-2c.82-.12 1.65-.25 2.5-.38.82-.2 1.65-.41 2.5-.62v-4h-2v2h-3v-3c.49.02.49.02 2.97.14 1-.05 2-.09 3.03-.14.65-2.2.65-2.2.52-5.25l-.09-3.28c-.06-1.15-.12-2.29-.18-3.47-.09-2.25-.16-4.5-.23-6.75-.05-1.01-.1-2.01-.15-3.05.02-.36.02-.36.13-2.2"/><path fill="#a9d0fa" d="M13 73c2.5-.56 2.5-.56 5 0v3h3v3c1.67.04 3.33.04 5 0v2c-2.88.11-5.72-.07-8.59-.22-.4.03-.4.03-2.41.22v3c-3.5.38-3.5.38-7 0v-3l-3.5.12L1 81c-.56-2.5-.56-2.5 0-5h2v3c3.36.77 6.64.77 10 0 .31-3 .31-3 0-6"/><path fill="#408b29" d="M8 205c3.5-.38 3.5-.38 7 0v3c1.67.04 3.33.04 5 0v2h3v3c-1.75.4-1.75.4-4 .38-.74 0-1.48.01-2.25.02-.58-.13-1.15-.26-1.75-.4v-3h-2v3c-2.62.4-2.62.4-6 .38-.56 0-.56 0-3.38.02-.86-.13-1.73-.26-2.62-.4v-3h2v-2l2.5.06L8 208Z"/><path fill="#d0b8a3" d="M160 285h3v2h2c1.51 1.93 1.51 1.93 3.12 4.44l1.64 2.49C171 296 171 296 171 297a84 84 0 0 1-5.5.19c-1.02.01-2.04.03-3.09.04-.8-.08-1.59-.15-2.41-.23v-2l-2.5.06-2.5-.06v-3h2l-.06-2.5.06-2.5h3Z"/><path fill="#1a87fa" d="M199 106h4c.4 2.89.51 5.41.46 8.31v2.56c-.01 1.79-.02 3.58-.05 5.37-.03 2.75-.04 5.5-.04 8.25l-.03 5.2c-.01.83-.01 1.66-.01 2.52-.03 1.93-.17 3.86-.33 5.79h-2c-.2-1.74-.2-1.74-.12-4.16.01-.85.03-1.71.04-2.59.05-1.83.11-3.67.16-5.5.01-.85.03-1.71.04-2.59.02-.4.02-.4.08-2.42-.04-.28-.04-.28-.2-1.74h-2c-.52-3.13-.37-6.33-.38-9.5-.02-.91-.04-1.81-.07-2.75 0-.85-.01-1.71-.01-2.59l-.03-2.42c.16-.57.32-1.15.49-1.74"/><path fill="#b4a593" d="M15 230c3.05-.81 4.93-.98 8-.88.38-.01.38-.01 2.31-.08 2.19.03 2.19.03 5.69.96 1 3.5 1 3.5 0 7-3.05.81-4.93.98-8 .88-.76.02-1.53.05-2.31.08-2.19-.03-2.19-.03-5.69-.96-1-3.5-1-3.5 0-7"/><path fill="#66960e" d="M147 213h2c-.15 1.14-.3 2.28-.45 3.46.15 1.17.3 2.34.45 3.54 2.98 1.07 6.06.79 9.19.69 9.01-.18 9.01-.18 13.06 2.31.58.66 1.16 1.32 1.75 2-2.19.38-2.19.38-5 0v-2h-3v2h-2v-2c-3-.25-3-.25-6 0v2c-2.19.27-2.19.27-5 .25-.93.01-1.86.01-2.81.02q-1.08-.135-2.19-.27v-2h-4v-3h4c.12-3.5.12-3.5 0-7"/><path fill="#1b1715" d="M108 162h2l-.06 2.5.06 2.5h3c.04-1.67.04-3.33 0-5h2c.21 2.87.28 5.63.25 8.5.01.81.02 1.62.02 2.46 0 2.01-.13 4.03-.27 6.04h-2v2h-3v-2h-2c-.21-2.87-.28-5.63-.25-8.5-.01-.81-.02-1.62-.02-2.46 0-2.01.13-4.03.27-6.04"/><path fill="#3f627a" d="M136 249h2c-.25 2.5-.25 2.5-1 5h-2c.12 1.94.12 1.94 1 4 2.19.75 2.19.75 4 1h-2v2h2v5h2v2h3v3h-4l-1-2c-.6.04-.6.04-3.62.25-1.12-.08-2.23-.17-3.38-.25 0-3.11.61-5.23 2-8h-2c-.3-2.19-.3-2.19-.31-5-.02-.93-.04-1.86-.05-2.81L133 251h3Z"/><path fill="#f7b718" d="M67 237h2v2h2v3h3c.21 1.97.21 1.97-.06 4.5-.08.84-.15 1.67-.23 2.53-.23.65-.47 1.3-.71 1.97h-4v-2h-3v2h-3a93 93 0 0 1 0-5c-.43-.76-.87-1.53-1.31-2.31-.23-.56-.46-1.12-.69-1.69l2.31.06L66 242c.69-2.5.69-2.5 1-5"/><path fill="#36864a" d="M199 182h4c.43 2.12.43 2.12.31 4.88-.02.9-.05 1.8-.07 2.74C203 192 203 192 202 194h-2v-2h-3v3h-2v-3h-3v-2c-1.32-.37-2.66-.71-4-1h4v-2h3v-3h4Z"/></svg>